<?xml version="1.0" encoding="utf-8"?>
<!-- Generator: Adobe Illustrator 16.0.0, SVG Export Plug-In . SVG Version: 6.00 Build 0)  -->
<!DOCTYPE svg PUBLIC "-//W3C//DTD SVG 1.1//EN" "http://www.w3.org/Graphics/SVG/1.1/DTD/svg11.dtd">
<svg version="1.1" id="圖層_1" xmlns="http://www.w3.org/2000/svg" xmlns:xlink="http://www.w3.org/1999/xlink" x="0px" y="0px"
	 width="1228.48px" height="245.291px" viewBox="0 0 1228.48 245.291" enable-background="new 0 0 1228.48 245.291"
	 xml:space="preserve">
<polygon fill="#96000C" points="608.668,123.404 518.745,123.404 489.269,185.943 579.191,185.943 "/>
<polygon fill="#96000C" points="711.191,185.943 740.667,123.404 650.746,123.404 621.269,185.943 "/>
<polygon fill="#96000C" points="743.923,115.203 798.026,0 708.103,0 679,62.433 637.209,62.433 666.687,0 576.764,0 
	522.661,115.203 "/>
<polygon fill="#96000C" points="858.998,115.203 913.1,0 820.939,0 766.835,115.203 "/>
<path fill="#96000C" d="M763.578,123.404l-10.074,21.29c-5.224,11.52,2.985,41.25,33.208,41.25h151.861l29.104-62.54H763.578z"/>
<path fill="#96000C" d="M442.984,72.095l-15.671,34.189c-2.612,4.831-1.493,8.919,4.104,8.919h75.371l20.522-43.48
	C539.623,44.966,516.862,0,476.565,0H291.869l-29.477,62.433h175.741C444.103,62.433,445.223,67.264,442.984,72.095z"/>
<path fill="#96000C" d="M401.122,78.676c1.493-3.345,0-8.176-5.224-8.176H314.93l-54.476,115.203h158.204
	c36.317,0,69.028-28.109,84.699-62.299H389.555c-6.343,0-7.089-4.964-4.477-10.167L401.122,78.676z"/>
<polygon fill="#96000C" points="549.509,204.412 530.293,245.291 540.927,245.291 560.143,204.412 "/>
<path fill="#96000C" d="M411.84,237.115c-2.985,0-4.104-2.787-2.612-6.132l12.5-26.571h-10.634l-13.246,28.058
	c-3.731,8.362,2.425,12.821,6.903,12.821h17.351l3.731-8.176H411.84z"/>
<path fill="#96000C" d="M399.341,219.277c1.866-5.018-0.746-14.865-9.328-14.865h-22.015l-19.216,40.879h10.634l15.298-32.703h9.702
	c4.664,0,5.037,2.602,4.477,5.018c-0.56,2.415-2.425,5.017-6.903,5.017h-8.208l8.768,22.669h9.888l-6.343-16.537
	C394.49,228.382,397.476,224.294,399.341,219.277z"/>
<path fill="#96000C" d="M822.216,219.277c1.865-5.018-0.746-14.865-9.328-14.865h-22.015l-19.216,40.879h10.635l15.297-32.703h9.701
	c4.664,0,5.037,2.602,4.479,5.018c-0.561,2.415-2.426,5.017-6.903,5.017h-8.208l8.768,22.669h9.889l-6.344-16.537
	C817.365,228.382,820.351,224.294,822.216,219.277z"/>
<polygon fill="#96000C" points="747.557,204.412 732.819,204.412 717.708,217.047 713.417,204.412 703.062,204.412 709.685,223.736 
	683.567,245.291 698.211,245.291 712.857,233.213 716.961,245.291 727.222,245.291 720.878,226.523 "/>
<path fill="#96000C" d="M597.454,233.027c-1.306,2.508-2.985,12.264,5.97,12.264h22.667l3.918-8.176H610.42
	c-2.612,0-2.985-2.508-2.145-4.459l1.679-3.717h20.988l3.825-8.176h-20.989l3.917-8.176h20.896l3.824-8.176h-31.623L597.454,233.027
	z"/>
<path fill="#96000C" d="M667.514,237.115c-2.612,0-2.985-2.508-2.146-4.459l1.679-3.717h20.988l3.824-8.176h-20.987l3.918-8.176
	h20.895l3.824-8.176h-31.622l-13.339,28.615c-1.307,2.508-2.985,12.264,5.969,12.264h22.668l3.918-8.176H667.514z"/>
<path fill="#96000C" d="M833.639,237.115c-2.612,0-2.985-2.508-2.146-4.459l1.679-3.717h20.988l3.824-8.176h-20.987l3.918-8.176
	h20.895l3.824-8.176h-31.622l-13.339,28.615c-1.307,2.508-2.985,12.264,5.969,12.264h22.668l3.918-8.176H833.639z"/>
<polygon fill="#96000C" points="311.948,204.412 294.225,231.355 292.732,204.412 284.617,204.412 266.893,231.262 265.307,204.412 
	256.166,204.412 258.591,245.291 267.919,245.291 284.523,220.113 286.016,245.291 295.297,245.244 322.395,204.412 "/>
<polygon fill="#96000C" points="535.448,204.412 517.725,231.355 516.232,204.412 508.117,204.412 490.394,231.262 488.808,204.412 
	479.666,204.412 482.091,245.291 491.419,245.291 508.023,220.113 509.516,245.291 518.797,245.244 545.896,204.412 "/>
<path fill="#96000C" d="M885.207,229.125l-6.25-12.449c-1.119-2.044-0.373-3.994,1.68-4.088h16.51l3.825-8.176h-25.187
	c-4.757,0-10.727,6.504-7.182,13.564l7.275,14.4c0.652,1.208,0.746,4.738-2.238,4.738h-17.443l-3.825,8.176h24.533
	C885.766,245.291,888.191,235.071,885.207,229.125z"/>
<path fill="#96000C" d="M901.978,217.977l7.275,14.4c0.652,1.208,0.746,4.738-2.238,4.738h-17.443l-3.825,8.176h24.533
	c8.861,0,11.286-10.22,8.302-16.166l-6.25-12.449c-1.119-2.044-0.373-3.994,1.68-4.088h16.51l3.825-8.176H909.16
	C904.403,204.412,898.433,210.916,901.978,217.977z"/>
<path fill="#96000C" d="M470.497,204.412h-25.746l-19.216,40.879h27.051c8.582,0,12.873-3.531,15.298-8.547l9.142-19.697
	C478.519,213.518,477.959,204.412,470.497,204.412z M466.59,216.676l-7.183,15.422c-1.772,3.717-5.286,5.018-7.462,5.018h-11.846
	l11.473-24.527h12.966C467.709,212.588,467.336,215.189,466.59,216.676z"/>
<path fill="#96000C" d="M592.56,204.412h-25.746l-19.216,40.879h27.051c8.582,0,12.873-3.531,15.298-8.547l9.142-19.697
	C600.582,213.518,600.022,204.412,592.56,204.412z M588.653,216.676l-7.183,15.422c-1.772,3.717-5.286,5.018-7.463,5.018h-11.846
	l11.473-24.527h12.966C589.772,212.588,589.399,215.189,588.653,216.676z"/>
<path fill="#96000C" d="M771.174,204.412H750l-19.123,40.879h10.635l8.697-18.592l-1.701,3.727h16.79
	c11.007,0,13.246-5.854,15.298-10.127C782.648,216.025,782.368,204.412,771.174,204.412z M771.202,217.723
	c-1.306,2.881-2.331,4.46-6.622,4.46h-12.263l4.52-9.662h8.582C768.871,212.521,772.507,214.844,771.202,217.723z"/>
<path fill="#96000C" d="M350.139,204.412h-16.231c-4.478,0-9.794,0.65-12.873,7.061l-3.731,7.99l-5.97,12.821
	c-2.052,4.088-1.026,13.007,7.929,13.007h14.085c6.53,0,11.847-2.602,13.712-6.689l10.354-22.483
	C359.653,212.031,357.228,204.412,350.139,204.412z M346.966,215.933l-8.302,17.838c-0.56,1.858-2.332,2.974-4.944,3.345h-10.074
	c-2.612,0-2.892-2.508-2.146-3.809l6.437-13.844l1.959-4.088c0.746-1.672,3.078-2.787,4.197-2.787h11.194
	C347.153,212.588,347.712,214.446,346.966,215.933z"/>
<g>
	<polygon fill="#96000C" points="949.017,186.043 1199.331,186.043 1207.978,167.461 957.664,167.461 	"/>
	<polygon fill="#96000C" points="959.267,164.018 1209.581,164.018 1218.217,145.457 967.914,145.436 	"/>
	<polygon fill="#96000C" points="978.167,123.404 969.52,141.984 1219.833,141.984 1228.48,123.404 	"/>
</g>
<g>
	<polygon fill="#96000C" points="0,186.047 250.313,186.047 258.961,167.465 8.646,167.465 	"/>
	<polygon fill="#96000C" points="10.25,164.021 260.563,164.021 269.2,145.461 18.896,145.439 	"/>
	<polygon fill="#96000C" points="29.149,123.408 20.503,141.988 270.816,141.988 279.463,123.408 	"/>
</g>
</svg>
