<?xml version="1.0" encoding="UTF-8"?>
<svg width="89px" height="30px" viewBox="0 0 89 30" version="1.1" xmlns="http://www.w3.org/2000/svg" xmlns:xlink="http://www.w3.org/1999/xlink">
    <!-- Generator: Sketch 43.2 (39069) - http://www.bohemiancoding.com/sketch -->
    <title>Jetblue Logo</title>
    <desc>Created with Sketch.</desc>
    <defs>
        <polygon id="path-1" points="45.7217849 29.9462011 0 29.9462011 0 0 91.4435698 0 91.4435698 29.9462011 45.7217849 29.9462011"></polygon>
    </defs>
    <g id="Homepage-Wireframes" stroke="none" stroke-width="1" fill="none" fill-rule="evenodd">
        <g id="Homepage---v3---1440" transform="translate(-673.000000, -941.000000)">
            <g id="//Hero" transform="translate(-1.000000, 0.000000)">
                <g id="//logos" transform="translate(315.000000, 892.000000)">
                    <g id="Jetblue-Logo" transform="translate(358.993065, 49.000000)">
                        <mask id="mask-2" fill="white">
                            <use xlink:href="#path-1"></use>
                        </mask>
                        <g id="Clip-2"></g>
                        <path d="M2.88226257,3.41857542 L6.30092179,3.41857542 L6.30092179,0 L2.88226257,0 L2.88226257,3.41857542 Z M2.88226257,6.8698324 L6.30100559,6.8698324 L6.30100559,25.1865922 C6.30100559,28.0353352 4.2227933,29.9462011 1.34053073,29.9462011 L0,29.9462011 L0,26.728324 L0.972486034,26.728324 C2.14567039,26.728324 2.88226257,26.1911732 2.88226257,24.9191061 L2.88226257,6.8698324 L2.88226257,6.8698324 Z" id="Fill-1" fill="#BBB" mask="url(#mask-2)"></path>
                        <path d="M22.5153603,16.6573911 L22.5153603,13.8421676 C22.5153603,9.45018436 19.2649693,6.66948603 15.5108631,6.66948603 C12.2269525,6.66948603 8.50686872,8.81465363 8.50686872,15.4170838 C8.50686872,22.3864693 12.5619804,24.0634525 16.047595,24.0634525 C18.3265056,24.0634525 20.5052765,23.2588156 22.1807514,21.315352 L19.7006397,19.2042067 C18.6950531,20.2431453 17.287567,20.8456592 15.9800531,20.8456592 C13.6350251,20.8456592 11.9255279,19.4390112 11.9255279,16.6573911 L22.5153603,16.6573911 Z M11.9255279,13.8421676 C11.992567,11.2612458 13.5002765,9.88669274 15.5108631,9.88669274 C17.5218687,9.88669274 18.9970642,11.2612458 19.0981257,13.8421676 L11.9255279,13.8421676 L11.9255279,13.8421676 Z" id="Fill-3" fill="#BBB" mask="url(#mask-2)"></path>
                        <path d="M25.2245698,1.70901955 L28.6431453,1.70901955 L28.6431453,6.86985754 L31.1233408,6.86985754 L31.1233408,9.48371229 L28.6431453,9.48371229 L28.6431453,19.3709749 C28.6431453,20.3102765 29.0116927,20.6438799 29.849933,20.6438799 L31.1233408,20.6438799 L31.1233408,23.8615894 L29.3466369,23.8615894 C26.9675866,23.8615894 25.2245698,22.3534609 25.2245698,19.6729022 L25.2245698,9.48371229 L23.5159106,9.48371229 L23.5159106,6.86985754 L25.2245698,6.86985754 L25.2245698,1.70901955 Z" id="Fill-4" fill="#BBB" mask="url(#mask-2)"></path>
                        <path d="M42.1502514,3.21831285 C44.7631844,3.21831285 46.0044972,4.79264246 46.0044972,6.63487709 C46.0044972,8.51322905 44.7631844,10.0535363 42.1502514,10.0535363 L36.9210335,10.0535363 L36.9210335,3.21831285 L42.1502514,3.21831285 Z M33.302095,23.861581 L43.3565363,23.861581 C46.9414525,23.861581 49.9919832,21.2146257 49.9919832,17.0925587 C49.9919832,14.6794022 48.7175698,12.1987039 46.1046369,11.5958547 L46.1046369,11.5292346 C48.885838,10.2889274 49.6239385,8.37898324 49.6239385,6.40149721 C49.6239385,2.64747486 47.2098603,-6.70391064e-05 42.5514804,-6.70391064e-05 L33.302095,-6.70391064e-05 L33.302095,23.861581 L33.302095,23.861581 Z M42.4848603,13.2713296 C45.1657542,13.2713296 46.3721229,14.9809106 46.3721229,16.8581732 C46.3721229,18.734514 45.1657542,20.444514 42.4848603,20.444514 L36.9210335,20.444514 L36.9210335,13.2713296 L42.4848603,13.2713296 L42.4848603,13.2713296 Z" id="Fill-5" fill="#BBB" mask="url(#mask-2)"></path>
                        <path d="M51.9568324,-3.35195532e-05 L55.3759106,-3.35195532e-05 L55.3759106,19.4715587 C55.3759106,20.2431788 55.812,20.643905 56.6493184,20.643905 L57.8225028,20.643905 L57.8225028,23.8616145 L56.3147095,23.8616145 C53.8345978,23.8616145 51.9568324,22.7895754 51.9568324,19.7399665 L51.9568324,-3.35195532e-05 Z" id="Fill-6" fill="#BBB" mask="url(#mask-2)"></path>
                        <path d="M59.2632318,6.86981564 L62.6818073,6.86981564 L62.6818073,16.9918827 C62.6818073,19.3038939 64.1223939,20.643838 66.0673659,20.643838 C67.9767235,20.643838 69.4178128,19.3038939 69.4178128,16.9918827 L69.4178128,6.86981564 L72.8374777,6.86981564 L72.8374777,23.8616313 L69.4178128,23.8616313 L69.4178128,22.0529162 L69.3516955,22.0529162 C68.2786508,23.3929441 66.7368352,24.063419 64.9611369,24.063419 C62.280243,24.063419 59.2632318,22.0188101 59.2632318,18.1645642 L59.2632318,6.86981564 Z" id="Fill-7" fill="#BBB" mask="url(#mask-2)"></path>
                        <path d="M88.6823045,16.6573911 L88.6823045,13.8421676 C88.6823045,9.45018436 85.4319972,6.66948603 81.6783101,6.66948603 C78.3934777,6.66948603 74.6734777,8.81465363 74.6734777,15.4170838 C74.6734777,22.3864693 78.7284218,24.0634525 82.2136173,24.0634525 C84.4935335,24.0634525 86.6718017,23.2588156 88.3478631,21.315352 L85.8671648,19.2042067 C84.862081,20.2431453 83.4540084,20.8456592 82.1469972,20.8456592 C79.8019693,20.8456592 78.0920531,19.4390112 78.0920531,16.6573911 L88.6823045,16.6573911 Z M78.0920531,13.8421676 C78.1595112,11.2612458 79.6668855,9.88669274 81.6783101,9.88669274 C83.6888966,9.88669274 85.1640084,11.2612458 85.2652374,13.8421676 L78.0920531,13.8421676 L78.0920531,13.8421676 Z" id="Fill-8" fill="#BBB" mask="url(#mask-2)"></path>
                    </g>
                </g>
            </g>
        </g>
    </g>
</svg>