<?xml version="1.0" encoding="UTF-8"?>
<svg width="119px" height="30px" viewBox="0 0 119 30" version="1.1" xmlns="http://www.w3.org/2000/svg" xmlns:xlink="http://www.w3.org/1999/xlink">
    <!-- Generator: Sketch 43.2 (39069) - http://www.bohemiancoding.com/sketch -->
    <title>Linkedin Logo</title>
    <desc>Created with Sketch.</desc>
    <defs>
        <polygon id="path-1" points="15.0555417 0 30.055 0 30.055 30 15.0555417 30 0.0560833333 30 0.0560833333 0"></polygon>
    </defs>
    <g id="Homepage-Wireframes" stroke="none" stroke-width="1" fill="none" fill-rule="evenodd">
        <g id="Homepage---v3---1440" transform="translate(-314.000000, -940.000000)">
            <g id="//Hero" transform="translate(-1.000000, 0.000000)">
                <g id="//logos" transform="translate(315.000000, 892.000000)">
                    <g id="Linkedin-Logo" transform="translate(0.000000, 48.000000)">
                        <polygon id="Fill-1" fill="#BBB" points="0 4.437 0 25.5628333 13.195 25.5628333 13.195 21.2928333 4.62666667 21.2928333 4.62666667 4.437"></polygon>
                        <g id="Group-19" transform="translate(14.880952, 0.000000)">
                            <path d="M2.58246429,4.1235 C4.00663095,4.1235 5.16246429,5.27933333 5.16246429,6.70433333 C5.16246429,8.1285 4.00663095,9.281 2.58246429,9.281 C1.15913095,9.281 0.00329761905,8.1285 0.00329761905,6.70433333 C0.00329761905,5.27933333 1.15913095,4.1235 2.58246429,4.1235 L2.58246429,4.1235 Z M0.358297619,25.5568333 L4.80579762,25.5568333 L4.80579762,11.2401667 L0.358297619,11.2401667 L0.358297619,25.5568333 Z" id="Fill-2" fill="#BBB"></path>
                            <polygon id="Fill-4" fill="#BBB" points="23.399881 4.43683333 27.844881 4.43683333 27.844881 17.0618333 32.8832143 11.2335 38.3332143 11.2335 32.5007143 17.8618333 38.2115476 25.5635 32.6232143 25.5635 27.902381 18.4851667 27.844881 18.4851667 27.844881 25.5635 23.399881 25.5635"></polygon>
                            <path d="M7.26629762,11.2435 L11.5354643,11.2435 L11.5354643,13.1993333 L11.5954643,13.1993333 C12.1879643,12.0735 13.6404643,10.8868333 15.8054643,10.8868333 C20.3129643,10.8868333 21.1429643,13.8526667 21.1429643,17.7068333 L21.1429643,25.5568333 L16.694631,25.5568333 L16.694631,18.596 C16.694631,16.936 16.664631,14.8018333 14.3812976,14.8018333 C12.0687976,14.8018333 11.7137976,16.6093333 11.7137976,18.4776667 L11.7137976,25.5568333 L7.26629762,25.5568333 L7.26629762,11.2435 Z" id="Fill-6" fill="#BBB"></path>
                            <path d="M51.4617976,23.0778333 C50.0359643,24.8878333 47.695131,25.9261667 45.382631,25.9261667 C40.935131,25.9261667 37.3767976,22.9603333 37.3767976,18.3636667 C37.3767976,13.7686667 40.935131,10.8028333 45.382631,10.8028333 C49.5359643,10.8028333 52.1417976,13.7686667 52.1417976,18.3636667 L52.1417976,19.757 L41.8242976,19.757 C42.177631,21.4478333 43.4559643,22.5445 45.1742976,22.5445 C46.6284643,22.5445 47.605131,21.8045 48.3467976,20.7961667 L51.4617976,23.0778333 Z M47.695131,16.7353333 C47.7234643,15.2511667 46.5684643,14.007 44.965131,14.007 C43.010131,14.007 41.9434643,15.3411667 41.8242976,16.7353333 L47.695131,16.7353333 Z" id="Fill-8" fill="#BBB"></path>
                            <path d="M69.061131,25.555 L64.9669643,25.555 L64.9669643,23.6558333 L64.9094643,23.6558333 C64.223631,24.695 62.506131,25.91 60.4902976,25.91 C56.218631,25.91 53.4019643,22.8275 53.4019643,18.4691667 C53.4019643,14.4641667 55.893631,10.7891667 59.9852976,10.7891667 C61.8252976,10.7891667 63.543631,11.2916667 64.5527976,12.685 L64.6102976,12.685 L64.6102976,4.43666667 L69.061131,4.43666667 L69.061131,25.555 Z M61.4077976,14.7025 C59.1852976,14.7025 57.8494643,16.1858333 57.8494643,18.3491667 C57.8494643,20.515 59.1852976,21.9966667 61.4077976,21.9966667 C63.633631,21.9966667 64.9669643,20.515 64.9669643,18.3491667 C64.9669643,16.1858333 63.633631,14.7025 61.4077976,14.7025 L61.4077976,14.7025 Z" id="Fill-10" fill="#BBB"></path>
                            <g id="Group-14" transform="translate(73.452381, 0.000000)">
                                <mask id="mask-2" fill="white">
                                    <use xlink:href="#path-1"></use>
                                </mask>
                                <g id="Clip-13"></g>
                                <path d="M27.8360833,0 L2.26858333,0 C1.04858333,0 0.0560833333,0.968333333 0.0560833333,2.16333333 L0.0560833333,27.835 C0.0560833333,29.03 1.04858333,30 2.26858333,30 L27.8360833,30 C29.06025,30 30.05525,29.03 30.05525,27.835 L30.05525,2.16333333 C30.05525,0.968333333 29.06025,0 27.8360833,0" id="Fill-12" fill="#BBB" mask="url(#mask-2)"></path>
                            </g>
                            <path d="M80.1817143,4.13008333 C81.6050476,4.13008333 82.760881,5.28591667 82.760881,6.71008333 C82.760881,8.13508333 81.6050476,9.29091667 80.1817143,9.29091667 C78.7525476,9.29091667 77.6000476,8.13508333 77.6000476,6.71008333 C77.6000476,5.28591667 78.7525476,4.13008333 80.1817143,4.13008333 L80.1817143,4.13008333 Z M77.9542143,25.5634167 L82.4075476,25.5634167 L82.4075476,11.24675 L77.9542143,11.24675 L77.9542143,25.5634167 Z" id="Fill-15" fill="#FEFEFE"></path>
                            <path d="M85.1987976,11.24675 L89.4637976,11.24675 L89.4637976,13.20425 L89.524631,13.20425 C90.1179643,12.0784167 91.5704643,10.89175 93.7354643,10.89175 C98.239631,10.89175 99.072131,13.8559167 99.072131,17.71175 L99.072131,25.5634167 L94.624631,25.5634167 L94.624631,18.6009167 C94.624631,16.9409167 94.594631,14.8050833 92.3112976,14.8050833 C89.9962976,14.8050833 89.6429643,16.61425 89.6429643,18.4825833 L89.6429643,25.5634167 L85.1987976,25.5634167 L85.1987976,11.24675 Z" id="Fill-17" fill="#FEFEFE"></path>
                        </g>
                    </g>
                </g>
            </g>
        </g>
    </g>
</svg>