<svg height="643.1753" viewBox="0 0 1010 643.1753" width="1010" xmlns="http://www.w3.org/2000/svg"><ellipse cx="246" cy="611.1753" fill="#3f3d56" rx="246" ry="32"/><path d="m991.55183 416.94588h-210.81707l-110.82189 179.35653a209.81213 209.81213 0 0 0 110.82189 31.46059c116.43103 0 210.81707-94.38609 210.81707-210.81712z" fill="#f2f2f2" transform="translate(-95 -128.41235)"/><circle cx="387.71979" cy="535.23502" fill="#3f3d56" r="56.018"/><path d="m377.5 256.08765s2 20-4 28 15 58 15 58l30-56s-10-6-4-23z" fill="#ffb9b9" transform="translate(-95 -128.41235)"/><path d="m377.5 256.08765s2 20-4 28 15 58 15 58l30-56s-10-6-4-23z" opacity=".1" transform="translate(-95 -128.41235)"/><path d="m467.5 357.08765 1 41-38 61-7-23 21-41s-7-19-5-30 28-8 28-8z" fill="#ffb9b9" transform="translate(-95 -128.41235)"/><path d="m311.5 351.08765-1 41 38 61 7-23-21-41s7-19 5-30-28-8-28-8z" fill="#ffb9b9" transform="translate(-95 -128.41235)"/><path d="m339.5 417.08765-4 10a50.2422 50.2422 0 0 0 -16 39l-12 124s-8 9-5 20c0 0-7 37-3 49 0 0-17 31 1 33s24 2 26-5 5-33 5-33l44-156 7 97s-7 26-5 33-14 57-7 62 27 7 28 3 2-29 2-29 10-22 12-29 4-46 4-46l18-115s4-31-6-37l-4-18z" fill="#2f2e41" transform="translate(-95 -128.41235)"/><path d="m297.5 686.08765-4 20s-21 33-1 33 22-10 22-10v-9s10-5 10-6-3-25-3-25z" fill="#2f2e41" transform="translate(-95 -128.41235)"/><path d="m395.5 686.08765 4 20s21 33 1 33-22-10-22-10v-9s-10-5-10-6 3-25 3-25z" fill="#2f2e41" transform="translate(-95 -128.41235)"/><circle cx="304.7033" cy="122.93617" fill="#ffb9b9" r="26.38322"/><g transform="translate(-95 -128.41235)"><path d="m390.5 321.08765s-15-25-14-31a28.738 28.738 0 0 0 -.04787-10.38976l-8.95213 5.38976-37 17 15 50s-4 11-4 19 2 17 0 20-3 8-1 12a12.69445 12.69445 0 0 1 1 8s-14 8-6 10a37.163 37.163 0 0 0 16 0s1-3 9 1 50 5 50 5 27 1 26-3 5-51 5-51l14-66-32-20-10.336-9.12493-2.664 14.12493z" fill="#d0cde1"/><path d="m337.5 303.08765h-7s-35.5 42.5-25.5 49.5 44.5 12.5 44.5 12.5-3-62-12-62z" fill="#d0cde1"/><path d="m446.5 307.08765h9s24 56 16 58-37 8-37 5 12-63 12-63z" fill="#d0cde1"/><path d="m373.51964 251.20719s-2.86251-4.29377-1.76155-8.91784a27.028 27.028 0 0 0 .77068-8.03706 79.54776 79.54776 0 0 1 4.62407-11.67026c2.312-4.18368 1.21106-5.94523 8.47745-7.26639s4.29378-10.78949 23.45062-.55049a5.61808 5.61808 0 0 0 5.83513 2.20194c3.96348-.77068 5.39474 4.73416 5.39474 4.73416s2.64233-1.54135 3.6332.66058 8.05602-1.32156 8.05602 13.54151-8.03989 28.13962-8.03989 28.13962.5894-25.00146-12.51212-27.53369-27.19391-9.90871-30.60691-.44039a72.17888 72.17888 0 0 1 -7.32144 15.13831z" fill="#2f2e41"/><path d="m773.58887 608.21754a211.31016 211.31016 0 0 1 -111.34864-31.61036l-.8496-.52636.52539-.84961 111.11523-179.83106h212.374v1c.00002 116.79685-95.02048 211.81739-211.81638 211.81739zm-109.44532-32.78711a209.313 209.313 0 0 0 109.44532 30.78711c115.36133 0 209.27636-93.57911 209.81445-208.81739h-209.25684z" fill="#3f3d56"/><path d="m519 386.57393a210.6699 210.6699 0 0 0 99.99519 179.35653l110.82188-179.35653-183.06807-104.61033a209.84563 209.84563 0 0 0 -27.749 104.61033z" fill="#f2f2f2"/><path d="m636.292 560.16089-.85058-.52636a211.91695 211.91695 0 0 1 -72.58742-285.31446l.49659-.86669 184.834 105.61914zm-72.19679-283.97851a209.91874 209.91874 0 0 0 71.54932 281.22262l109.751-177.62256z" fill="#3f3d56"/><path d="m834.66823 148.52583-45.44723 205.88957h210.81707c.00004-100.82605-70.78648-185.10514-165.36984-205.88957z" fill="#fe9603"/><path d="m985.40527 367.02808h-213.06152l45.93066-208.08056.97559.21435a211.88286 211.88286 0 0 1 166.15527 206.86621zm-210.57129-2h208.56934c-.46973-97.03027-69.07031-182.44043-163.60742-203.69629z" fill="#3f3d56"/><path d="m744.10976 128.41235a210.73672 210.73672 0 0 0 -183.06808 106.20674l183.06808 104.61033 45.44724-205.88957a211.54 211.54 0 0 0 -45.44724-4.9275z" fill="#f2f2f2"/><path d="m753.72656 357.74439-185.11718-105.78125.49755-.86865a212.06577 212.06577 0 0 1 229.59815-101.75879l.97754.21484zm-182.38476-106.52339 181.01758 103.43843 44.93847-203.583a210.06582 210.06582 0 0 0 -225.95605 100.14457z" fill="#3f3d56"/></g><path d="m767.752 168.625-1.455-1.372 109.724-116.442h89.314v2h-88.45z" fill="#3f3d56"/><path d="m904.59146 66.10366h105.40854v3.57317h-105.40854z" fill="#fe9603"/><path d="m904.59146 81.28963h105.40854v3.57317h-105.40854z" fill="#fe9603"/><path d="m904.59146 96.47561h105.40854v3.57317h-105.40854z" fill="#fe9603"/><path d="m868.59146 508.10366h105.40854v3.57317h-105.40854z" fill="#fe9603"/><path d="m868.59146 523.28963h105.40854v3.57317h-105.40854z" fill="#fe9603"/><path d="m868.59146 538.47561h105.40854v3.57317h-105.40854z" fill="#fe9603"/><path d="m929 490.176h-105.525l-.298-.433-82-119 1.646-1.135 81.702 118.568h104.475z" fill="#3f3d56"/><path d="m152.16176 691.062c-3.33123 29.19033 14.61428 55.2099 14.61428 55.2099s23.34649-21.30729 26.67772-50.49761-14.61427-55.2099-14.61427-55.2099-23.34649 21.30733-26.67773 50.49761z" fill="#2f2e41" transform="translate(-95 -128.41235)"/><path d="m164.88856 689.55576c12.0073 26.81411 2.77581 57.04388 2.77581 57.04388s-28.69917-13.2445-40.70648-40.05861-2.77582-57.04389-2.77582-57.04389 28.69918 13.2445 40.70649 40.05862z" fill="#fe9603" transform="translate(-95 -128.41235)"/></svg>