<svg height="484" viewBox="0 0 764.11421 484" width="764.11421" xmlns="http://www.w3.org/2000/svg"><path d="m976.32077 525h-294.99194a5.74275 5.74275 0 0 1 -5.73633-5.73633v-305.52734a5.74275 5.74275 0 0 1 5.73633-5.73633h294.99194a5.74274 5.74274 0 0 1 5.73633 5.73633v305.52734a5.74274 5.74274 0 0 1 -5.73633 5.73633zm-294.99194-315a3.74061 3.74061 0 0 0 -3.73633 3.73633v305.52734a3.74061 3.74061 0 0 0 3.73633 3.73633h294.99194a3.74061 3.74061 0 0 0 3.73633-3.73633v-305.52734a3.74061 3.74061 0 0 0 -3.73633-3.73633z" fill="#3f3d56" transform="translate(-217.9429 -208)"/><path d="m884.42759 336.40637a63.22083 63.22083 0 1 1 -55.6028-33.11893c.50149 0 1.00124.0074 1.5.019l-.66847-27.00551c-.27743-.00249-.55349-.01054-.83148-.01054a90.18361 90.18361 0 1 0 77.35045 43.77229z" fill="#fe9603" transform="translate(-217.9429 -208)"/><path d="m884.42759 336.40637 21.74765-16.34368a90.1564 90.1564 0 0 0 -76.519-43.76176l.66847 27.00551a63.20326 63.20326 0 0 1 54.10288 33.09993z" fill="#e6e6e6" transform="translate(-217.9429 -208)"/><path d="m889.24044 437.96902h1.57092v45.01185h-1.57092z" fill="#3f3d56" transform="matrix(.71041806 -.70377992 .70377992 .71041806 -284.28049 551.72758)"/><path d="m862.2521 267.4178h45.01191v1.57131h-45.01191z" fill="#3f3d56" transform="matrix(.48918305 -.87218114 .87218114 .48918305 .08452 700.67217)"/><g transform="translate(-217.9429 -208)"><path d="m929.56934 488.81543h-46.75a3.13811 3.13811 0 0 1 -3.13477-3.13379v-6.584a3.13811 3.13811 0 0 1 3.13477-3.13379h46.75a3.13811 3.13811 0 0 1 3.13476 3.13379v6.584a3.13811 3.13811 0 0 1 -3.13476 3.13379z" fill="#fe9603"/><path d="m917.71777 249.13477h-46.751a3.13759 3.13759 0 0 1 -3.13377-3.13377v-6.5845a3.13759 3.13759 0 0 1 3.13379-3.13379h46.751a3.13759 3.13759 0 0 1 3.13379 3.13379v6.5845a3.13759 3.13759 0 0 1 -3.13381 3.13377z" fill="#e6e6e6"/><path d="m628.437 353.87256h-333.36915a5.47106 5.47106 0 0 1 -5.46485-5.46485v-133.94287a5.47106 5.47106 0 0 1 5.46485-5.46484h333.36915a5.471 5.471 0 0 1 5.4646 5.46484v133.94287a5.471 5.471 0 0 1 -5.4646 5.46485zm-333.36915-142.87256a3.46861 3.46861 0 0 0 -3.46485 3.46484v133.94287a3.46861 3.46861 0 0 0 3.46485 3.46485h333.36915a3.46856 3.46856 0 0 0 3.4646-3.46485v-133.94287a3.46856 3.46856 0 0 0 -3.4646-3.46484z" fill="#3f3d56"/><path d="m425.02 320.63086h-32.29957a3.48484 3.48484 0 0 1 -3.43237-2.9209 135.67747 135.67747 0 0 1 0-41.29394 3.48484 3.48484 0 0 1 3.43237-2.9209h32.29957a3.44107 3.44107 0 0 1 2.718 1.31689 3.50035 3.50035 0 0 1 .6543 3.00147 82.89377 82.89377 0 0 0 -.00025 38.499 3.49941 3.49941 0 0 1 -.65405 3.00146 3.441 3.441 0 0 1 -2.718 1.31692z" fill="#e6e6e6"/><path d="m533.16477 320.63086h-32.29977a3.48542 3.48542 0 0 1 -3.43237-2.9209 135.67747 135.67747 0 0 1 0-41.29394 3.48542 3.48542 0 0 1 3.43237-2.9209h32.29981a3.4401 3.4401 0 0 1 2.718 1.31738 3.49832 3.49832 0 0 1 .65381 3.001 82.89684 82.89684 0 0 0 0 38.499 3.49832 3.49832 0 0 1 -.65381 3.001 3.4401 3.4401 0 0 1 -2.71804 1.31736z" fill="#e6e6e6"/><path d="m370.08054 289.37744h-32.29954a3.48484 3.48484 0 0 1 -3.43237-2.9209 135.67683 135.67683 0 0 1 0-41.29394 3.48484 3.48484 0 0 1 3.43237-2.9209h32.29956a3.44108 3.44108 0 0 1 2.718 1.31689 3.50032 3.50032 0 0 1 .65429 3.00147 82.8875 82.8875 0 0 0 -.00024 38.499 3.49943 3.49943 0 0 1 -.654 3.00147 3.44108 3.44108 0 0 1 -2.71807 1.31691z" fill="#fe9603"/><path d="m479.31369 289.37744h-32.2998a3.44008 3.44008 0 0 1 -2.718-1.31738 3.498 3.498 0 0 1 -.65381-3.001 82.8939 82.8939 0 0 0 -.00024-38.499 3.49886 3.49886 0 0 1 .654-3.001 3.44008 3.44008 0 0 1 2.718-1.31738h32.2998a3.48459 3.48459 0 0 1 3.43213 2.9209 135.67683 135.67683 0 0 1 0 41.29394 3.48459 3.48459 0 0 1 -3.43208 2.92092z" fill="#fe9603"/><path d="m585.72385 289.37744h-32.2998a3.44007 3.44007 0 0 1 -2.718-1.31738 3.498 3.498 0 0 1 -.65381-3.001 82.8939 82.8939 0 0 0 -.00024-38.499 3.49886 3.49886 0 0 1 .65405-3.001 3.44007 3.44007 0 0 1 2.718-1.31738h32.2998a3.48541 3.48541 0 0 1 3.43237 2.9209 135.69275 135.69275 0 0 1 0 41.29394 3.48541 3.48541 0 0 1 -3.43237 2.92092z" fill="#ff6584"/><path d="m405.88006 527.46578a10.74271 10.74271 0 0 1 -7.84208-14.48617l-44.3346-95.1913 22.49073-6.321 36.54671 95.67388a10.80091 10.80091 0 0 1 -6.86076 20.32454z" fill="#a0616a"/></g><path d="m102.079 471.364h12.26l5.832-47.288h-18.094z" fill="#a0616a"/><path d="m317.39477 675.86065h38.53073a0 0 0 0 1 0 0v14.88687a0 0 0 0 1 0 0h-23.64387a14.88686 14.88686 0 0 1 -14.88686-14.88686 0 0 0 0 1 0-.00001z" fill="#2f2e41" transform="matrix(-1 .00004573 -.00004573 -1 455.40856 1158.5928)"/><path d="m38.354 458.148 11.269 4.827 23.982-41.171-16.633-7.124z" fill="#a0616a"/><path d="m250.77425 668.87755h38.53075a0 0 0 0 1 0 0v14.88687a0 0 0 0 1 0 0h-23.64389a14.88686 14.88686 0 0 1 -14.88686-14.88686 0 0 0 0 1 0-.00001z" fill="#2f2e41" transform="matrix(-.91922992 -.39372116 .39372116 -.91922992 34.04329 1196.33579)"/><circle cx="132.39046" cy="140.56951" fill="#a0616a" r="24.56103"/><path d="m332.58921 667.80279-13.4961-2.57129a4.47356 4.47356 0 0 1 -3.63452-4.87891l8.94946-87.25879a3.5 3.5 0 0 0 -6.699-1.73535l-39.07129 91.167a4.50037 4.50037 0 0 1 -5.96387 2.33887l-10.9768-4.87891a4.48233 4.48233 0 0 1 -2.44166-5.53515l26.72217-80.167a3.49915 3.49915 0 0 0 .15528-.69434l8.67407-73.24707a4.5 4.5 0 0 1 2.77514-3.64062l27.38843-11.126a4.50061 4.50061 0 0 1 4.83325.94433l34.57032 33.66114a4.4819 4.4819 0 0 1 1.27466 4.10058l-27.80369 139.97756a4.51655 4.51655 0 0 1 -4.417 3.62305 4.46966 4.46966 0 0 1 -.83885-.0791z" fill="#2f2e41" transform="translate(-217.9429 -208)"/><path d="m317.203 504.38091c-4.78466-5.54-8.27661-8.05468-10.66479-7.6582-2.36963.38281-3.73657 3.69336-5.18408 7.19824-1.97559 4.78418-4.21485 10.207-9.73438 10.63086a4.64707 4.64707 0 0 1 -4.56225-1.87012c-4.34156-6.457 6.072-27.82421 7.02343-29.74414l-.48831-101.06055a4.48919 4.48919 0 0 1 2.353-3.98536c28.6167-15.43164 67.25708 11.40625 74.71216 16.94434a4.48819 4.48819 0 0 1 1.81055 3.84863c-.89966 16.92578-5.387 102.32032-5.387 121.36914 0 5.27344-1.81885 8.624-5.40625 9.958a10.78141 10.78141 0 0 1 -3.77441.61914c-10.94574.00002-28.87299-12.55857-40.69767-26.24998z" fill="#ccc" transform="translate(-217.9429 -208)"/><path d="m357.139 455.30865a4.45046 4.45046 0 0 1 -2.02271-3.56641l-1.93847-45.26562a11.74737 11.74737 0 0 1 22.71191-4.69141l14.50733 38.0166a4.50482 4.50482 0 0 1 -2.59986 5.80859l-26.5808 10.1436a4.4554 4.4554 0 0 1 -4.07739-.44531z" fill="#ccc" transform="translate(-217.9429 -208)"/><path d="m289.59176 526.03682a10.74266 10.74266 0 0 1 -1.72626-16.38193l-4.69019-104.90444 23.2018 2.732-2.69338 102.38114a10.80091 10.80091 0 0 1 -14.092 16.17324z" fill="#a0616a" transform="translate(-217.9429 -208)"/><path d="m273.48056 432.68462a4.45084 4.45084 0 0 1 -.61865-4.05371l14.32764-42.98242a11.74725 11.74725 0 0 1 22.89184 3.71484v40.69043a4.50508 4.50508 0 0 1 -4.5 4.5h-28.45019a4.45274 4.45274 0 0 1 -3.65064-1.86914z" fill="#ccc" transform="translate(-217.9429 -208)"/><path d="m334.47231 365.08922a4.85259 4.85259 0 0 1 -6.351-.31653c-5.26394-4.9204-9.70648-10.80395-11.95477-17.618-2.57622-7.80794-1.91812-16.95277 3.01544-23.53006 4.1706-5.56013 10.772-8.70128 17.27427-11.15688a28.2713 28.2713 0 0 1 7.96-2.06728 10.93663 10.93663 0 0 1 7.75447 2.17748 6.86771 6.86771 0 0 1 2.27546 7.397 25.84688 25.84688 0 0 1 11.80136-6.10508 14.26707 14.26707 0 0 1 8.44017.34976c3.77088 1.55077 6.22036 5.33854 7.34911 9.25649a16.72441 16.72441 0 0 1 .21826 9.20913 11.14649 11.14649 0 0 1 -5.70595 7.03232c-3.45 1.62536-7.54423 1.01187-11.15158-.22549s-7.02752-3.06328-10.75861-3.85259-8.039-.32877-10.67913 2.42332c-1.85923 1.93808-2.5913 4.66436-3.25629 7.26641l-3.45876 13.53391a16.88047 16.88047 0 0 1 -2.15668 5.57368 3.3326 3.3326 0 0 1 -.61577.65241z" fill="#2f2e41" transform="translate(-217.9429 -208)"/><path d="m434.08066 560.37744h-32.2998a3.485 3.485 0 0 1 -3.43225-2.9209 135.67683 135.67683 0 0 1 0-41.29394 3.485 3.485 0 0 1 3.43225-2.9209h32.2998a3.44047 3.44047 0 0 1 2.71814 1.31738 3.49906 3.49906 0 0 1 .65381 3.001 82.8971 82.8971 0 0 0 0 38.499 3.49906 3.49906 0 0 1 -.65381 3.001 3.44047 3.44047 0 0 1 -2.71814 1.31736z" fill="#fe9603" transform="translate(-217.9429 -208)"/><path d="m379.9429 692h-161a1 1 0 0 1 0-2h161a1 1 0 0 1 0 2z" fill="#3f3d56" transform="translate(-217.9429 -208)"/></svg>