<svg height="774.36439" viewBox="0 0 963.50956 774.36439" width="963.50956" xmlns="http://www.w3.org/2000/svg"><path d="m0 719.52637h963.50956v2.24072h-963.50956z" fill="#3f3d56"/><path d="m722.76988 398.62826s-43.21728 33.95643-21.60864 41.6738 35.4999-27.78253 35.4999-27.78253z" fill="#ffb8b8" transform="translate(-118.24522 -62.8178)"/><path d="m724.31335 386.28047-9.26085 15.43474s15.43475 0 18.52169 23.15211l12.3478-15.43474z" fill="#cfcce0" transform="translate(-118.24522 -62.8178)"/><path d="m811.35 675.375 1.544 46.304-18.522 10.804-7.717-4.63 1.543-52.478z" fill="#ffb8b8"/><g transform="translate(-118.24522 -62.8178)"><path d="m820.00875 725.84477 3.08694 49.39118-43.21727 18.52169 3.087-26.23906s12.34779-20.06517 9.26084-41.67381z" fill="#ffb8b8"/><path d="m886.37813 353.86751s24.69559 64.82591 29.326 104.95624 12.3478 146.63 12.3478 146.63l15.43475 137.36925-43.21728 6.1739-18.52169-138.91269-41.6738-137.36921-9.26085 137.36919-7.71737 125.02141-40.13032 1.54347-3.087-129.65182-16.97817-165.15172 9.26085-78.71718z" fill="#2f2e41"/><path d="m909.53025 787.58374s2.53155-25.92279 21.33093-11.41792l3.36465-2.47335 15.43474 33.95643s18.52169 26.23906-13.89126 29.326-29.326-29.326-29.326-29.326l-3.087-13.89126 1.54347-9.09678z" fill="#2f2e41"/><path d="m820.00875 756.71426a24.52083 24.52083 0 0 1 12.34779 21.60864c0 15.43474-1.54348 16.97821-1.54348 16.97821l-23.15206 6.17389s-15.43474-1.54348-24.69558 7.71737-55.56507 15.43474-55.56507 3.087 38.58685-32.413 38.58685-32.413 11.45915-19.35216 19.62084-17.39345 11.24864 5.04566 11.24864 6.58913-4.63042 12.34779-4.63042 12.34779 26.23901-6.17384 27.78249-24.69558z" fill="#2f2e41"/></g><circle cx="698.67658" cy="62.61553" fill="#ffb8b8" r="38.58685"/><path d="m845.47607 135.46592 16.97821 38.58685-46.30422 66.36939s-3.087-72.54329-12.34779-84.89108 41.6738-20.06516 41.6738-20.06516z" fill="#ffb8b8" transform="translate(-118.24522 -62.8178)"/><path d="m705.622 152.909 7.718-20.065 6.173 1.543 7.718-6.174 10.804-33.956 15.435 10.804 20.065 202.195-125.021 3.087 16.978-140.456 15.435-40.13 11.141-14.729 7.38 22.446z" fill="#cfcce0"/><path d="m859.36734 302.16112 4.723-139.6196s9.16826.70693 12.25521 5.33735 54.0216 13.89127 54.0216 13.89127l-9.26085 143.5431s38.58685 114.21708 24.69559 120.391-38.58686 4.63042-38.58686 4.63042z" fill="#575a89" transform="translate(-118.24522 -62.8178)"/><path d="m784.50884 284.41117 16.3736-94.09812-36.43876 24.64179 9.26084 67.91286-7.71737 46.30422s-29.32601 128.10836-20.06515 132.73878 20.06516 0 20.06516 0l18.52169-129.65183z" fill="#575a89" transform="translate(-118.24522 -62.8178)"/><path d="m775.248 211.86789-10.80432 3.087-4.63043 61.739-7.71737 54.0216-37.04338 66.36929s18.52169-12.34779 26.23906 23.15212l40.79561-71.02631z" fill="#575a89" transform="translate(-118.24522 -62.8178)"/><path d="m895.639 386.28047s-43.21728 33.95643-21.60864 41.6738 35.49991-27.78254 35.49991-27.78254z" fill="#ffb8b8" transform="translate(-118.24522 -62.8178)"/><path d="m803.633 340.441-13.891 16.978-18.522-32.413 7.717-13.891z" fill="#cfcce0"/><path d="m918.79109 187.1723 12.34779-6.17389s9.26085 12.34779 10.80432 23.15211 9.26085 24.69558 9.26085 32.41295 21.60864 80.26066 21.60864 80.26066l-49.39118 100.32587s-10.80432-37.04338-33.95643-40.13033l38.58686-54.02167-21.60864-38.58683z" fill="#575a89" transform="translate(-118.24522 -62.8178)"/><path d="m849.22485 88.66835 7.27645-2.91308s-15.2143-16.75014-36.3823-15.29354l5.95362-6.55447s-14.55289-5.82608-27.78277 9.46746c-6.9547 8.03946-15.00135 17.48947-20.01758 28.13477h-7.79257l3.25232 7.16125-11.38316 7.16126 11.68369-1.28631a40.01794 40.01794 0 0 0 -.31706 11.87827 15.36888 15.36888 0 0 0 5.62792 10.054s9.02412-18.67905 9.02412-21.59213v7.28268s7.27644-6.55438 7.27644-10.92395l3.96893 5.09787 1.98446-8.011 24.47525 8.011-3.96893-6.55438 15.21435 2.18479-5.95362-8.011s17.1988 9.46746 17.86044 17.47844c.66142 8.01086 5.69558 15.60167 5.69558 15.60167s13.48774-37.44965-5.69558-48.3736z" fill="#2f2e41" transform="translate(-118.24522 -62.8178)"/><ellipse cx="730.3178" cy="56.44164" fill="#ffb8b8" rx="4.32173" ry="5.40216"/><path d="m178.601 318.118h-133.24v-37.336h69.549z" fill="#fe9603"/><path d="m163.24032 375.81141v109.08133h432.66488v-109.08133zm168.74668 90.77909h-140.56123v-15.37388h140.56123zm235.73276-28.5515h-376.294v-15.37387h376.294zm0-28.55149h-376.294v-15.37387h376.294z" fill="#3f3d56" transform="translate(-118.24522 -62.8178)"/><path d="m178.601 141.685h-133.24v-37.337h69.549z" fill="#fe9603"/><path d="m163.24032 201.57411v109.08133h432.66488v-109.08133zm168.74668 90.7791h-140.56123v-15.37388h140.56123zm81.26193-28.55149h-221.82316v-15.37388h221.82311zm154.47088-28.55149h-376.294v-15.37388h376.294z" fill="#3f3d56" transform="translate(-118.24522 -62.8178)"/><path d="m178.601 490.891h-133.24v-37.336h69.549z" fill="#fe9603"/><path d="m163.24032 546.38825v109.08134h432.66488v-109.08134zm250.00856 90.7791h-221.82311v-15.37388h221.82311zm0-28.55149h-221.82311v-15.37386h221.82311zm154.47088-28.55149h-376.294v-15.37388h376.294z" fill="#3f3d56" transform="translate(-118.24522 -62.8178)"/><path d="m600.285 223.679h-61.496v-61.496h41.73v1.464h-40.265v58.568h58.567v-29.284h1.464z" fill="#3f3d56"/><path d="m687.46572 270.45629c-1.4211-4.19614-19.242-18.45992-8.3218-20.8574l8.95523 11.94078 41.17216-41.17145 4.14089 4.14088z" fill="#fe9603" transform="translate(-118.24522 -62.8178)"/><path d="m600.285 397.916h-61.496v-61.496h41.73v1.465h-40.265v58.567h58.567v-29.284h1.464z" fill="#3f3d56"/><path d="m687.46572 444.69359c-1.4211-4.19614-19.242-18.45992-8.3218-20.8574l8.95523 11.94078 41.17216-41.17145 4.14089 4.14088z" fill="#fe9603" transform="translate(-118.24522 -62.8178)"/><path d="m600.285 571.421h-61.496v-61.495h41.73v1.464h-40.265v58.567h58.567v-29.284h1.464z" fill="#3f3d56"/><path d="m687.46572 618.1988c-1.4211-4.19614-19.242-18.45993-8.3218-20.8574l8.95523 11.94078 41.17216-41.17146 4.14089 4.14088z" fill="#fe9603" transform="translate(-118.24522 -62.8178)"/></svg>