<svg xmlns="http://www.w3.org/2000/svg" width="1057.994" height="557.001" viewBox="0 0 1057.994 557.001">
  <g id="seo" transform="translate(0 0.001)">
    <path id="Path_2" data-name="Path 2" d="M1000.122,420.112,900,467.5l88.615-66.262a500.057,500.057,0,0,0-48.384-63.668L506,445.5,898.23,295.876a499.979,499.979,0,0,0-56.958-43.414L179.606,359.039A495.88,495.88,0,0,0,71,668.5H1066.99a495.614,495.614,0,0,0-66.868-248.388Z" transform="translate(-71.003 -171.5)" fill="rgba(254,150,3,0.06)"/>
    <path id="Path_3" data-name="Path 3" d="M787.12,221.7A495.972,495.972,0,0,0,569,171.5c-153.83,0-291.361,69.753-382.71,179.349C342.713,316.574,615.064,257.243,787.12,221.7Z" transform="translate(-71.003 -171.5)" fill="rgba(254,150,3,0.06)"/>
    <path id="Path_4" data-name="Path 4" d="M1067,666.5c0,15.464-143.717,62-321,62s-321-46.536-321-62,143.717,6,321,6S1067,651.036,1067,666.5Z" transform="translate(-71.003 -171.5)" fill="#3f3d56"/>
    <path id="Path_5" data-name="Path 5" d="M1067,666.5c0,15.464-143.717,62-321,62s-321-46.536-321-62,143.717,6,321,6S1067,651.036,1067,666.5Z" transform="translate(-71.003 -171.5)" opacity="0.1"/>
    <ellipse id="Ellipse_3" data-name="Ellipse 3" cx="321" cy="28" rx="321" ry="28" transform="translate(353.994 467)" fill="#3f3d56"/>
    <path id="Path_6" data-name="Path 6" d="M656.644,438.626s12.911,20.477,8.3,26.021,34.593,5.683,34.593,5.683-5.889-29.788-4.156-36.643Z" transform="translate(-71.003 -171.5)" fill="#ffb8b8"/>
    <path id="Path_7" data-name="Path 7" d="M656.644,438.626s12.911,20.477,8.3,26.021,34.593,5.683,34.593,5.683-5.889-29.788-4.156-36.643Z" transform="translate(-71.003 -171.5)" opacity="0.1"/>
    <circle id="Ellipse_4" data-name="Ellipse 4" cx="40.484" cy="40.484" r="40.484" transform="translate(565.79 193.579)" fill="#313131"/>
    <path id="Path_8" data-name="Path 8" d="M701.494,453.5v24l24-5-2-17Z" fill="#ffb8b8"/>
    <path id="Path_9" data-name="Path 9" d="M857.5,629l67,11-17,25s-47-16-59-16S857.5,629,857.5,629Z" transform="translate(-71.003 -171.5)" fill="#ffb8b8"/>
    <path id="Path_10" data-name="Path 10" d="M705.5,581s50-58,66-55,23,21,23,21l9,89s-32,3-32,0-6-67-6-67-47,104-72,35Z" transform="translate(-71.003 -171.5)" fill="#2f2e41"/>
    <path id="Path_11" data-name="Path 11" d="M624.5,620s1,50,31,53,63-20,63-20l54-25.87s64,33.87,83,24.87c0,0,20-21,7-27s-1,0-1,0l-77-40s-15-4-41,7-61,16-61,16Z" transform="translate(-71.003 -171.5)" fill="#2f2e41"/>
    <circle id="Ellipse_5" data-name="Ellipse 5" cx="30" cy="30" r="30" transform="translate(573.494 217.5)" fill="#ffb8b8"/>
    <path id="Path_12" data-name="Path 12" d="M717.5,503l-2,42s1,55-8,59c-4.55,2.02-13.69,6.08-22.14,10.52-6.34,3.32-12.29,6.84-15.61,9.87A11.2,11.2,0,0,0,667.5,627c-4,7-30,6-36,1s-2,6-7,8c-4.84,1.94-11.55-13.92-7.44-37.6.13-.79.28-1.59.44-2.4,4.59-22.95-2.62-77.92-1.51-99.16a37.382,37.382,0,0,1,.51-4.84c3-16,41.28-48.56,48.44-34.69,8.82,17.12,29.08,1.48,32.56-6.31,20-1,27,23,27,23Z" transform="translate(-71.003 -171.5)" fill="#fe9603"/>
    <path id="Path_13" data-name="Path 13" d="M798.5,640s-16,6-21,5-10,3-10,9-6,20,3,21,46-1,54,2c0,0,36,1,33-14s-18-14-18-14S798.5,647,798.5,640Z" transform="translate(-71.003 -171.5)" fill="#d3d3d3"/>
    <path id="Path_14" data-name="Path 14" d="M915.5,643s2-6,5-6,27,4,30,3,38-3,32,14-26,19-26,19-36-4-41-3-23,0-20-5S917.5,651,915.5,643Z" transform="translate(-71.003 -171.5)" fill="#d3d3d3"/>
    <path id="Path_15" data-name="Path 15" d="M824.471,499.363l5.486,22.63a1.414,1.414,0,0,1-.027.764l-24.886,77.77a1.414,1.414,0,0,1-2.751-.271l-3.443-30.3a1.413,1.413,0,0,1,.06-.6l22.843-70.1a1.413,1.413,0,0,1,2.718.1Z" transform="translate(-71.003 -171.5)" fill="#d0cde1"/>
    <path id="Path_16" data-name="Path 16" d="M751.45,329.775l5.065,19.416L734.565,420.1,729.5,398.155Z" fill="#f2f2f2"/>
    <path id="Path_17" data-name="Path 17" d="M711.862,606.8c.844,2.533,87.8-.844,88.641-1.688a18.324,18.324,0,0,0,1.857-3.377c.794-1.688,1.52-3.377,1.52-3.377L800.5,571.023l-86.109-3.056s-2.153,23.165-2.592,33.768a25.326,25.326,0,0,0,.059,5.065Z" transform="translate(-71.003 -171.5)" fill="#d0cde1"/>
    <path id="Path_18" data-name="Path 18" d="M718.526,403.22l1.688,23.638H682.225V403.22Z" opacity="0.1"/>
    <path id="Path_19" data-name="Path 19" d="M669.562,410.818l.227-.045-1.071,10.176H647.612V410.818Z" opacity="0.1"/>
    <path id="Path_20" data-name="Path 20" d="M711.862,606.8c.844,2.533,87.8-.844,88.641-1.688a18.324,18.324,0,0,0,1.857-3.377H711.8a25.326,25.326,0,0,0,.059,5.065Z" transform="translate(-71.003 -171.5)" opacity="0.1"/>
    <path id="Path_21" data-name="Path 21" d="M698.409,333.5a22.13,22.13,0,0,1-12.769,8.778c-8.929,2.391-.073,15.809-.073,15.809s-3.22-4.879,1.425-10.046S699.112,339.34,698.409,333.5Z" transform="translate(-71.003 -171.5)" fill="#313131"/>
    <circle id="Ellipse_6" data-name="Ellipse 6" cx="11.283" cy="11.283" r="11.283" transform="translate(601.699 178.523)" fill="#313131"/>
    <rect id="Rectangle_17" data-name="Rectangle 17" width="477" height="256" transform="translate(7 237.999)" fill="#fff"/>
    <path id="Path_22" data-name="Path 22" d="M698.39,370.762c-9.2-3.479-24.513-5.243-32.392-4.037l1.081-7.891c7.575,3.915,22.82,5.755,32.392,4.037Z" transform="translate(-71.003 -171.5)" fill="#3f3d56"/>
    <path id="Path_23" data-name="Path 23" d="M680.592,373.587s-11.527,19.174-38.332,26.351-.219,47.458-.219,47.458-9.668-14.647,4.277-30.159S682.7,391.12,680.592,373.587Z" transform="translate(-71.003 -171.5)" fill="#313131"/>
    <path id="Path_24" data-name="Path 24" d="M681.507,372.422s11.074,26.336,23.231,28.826,11.235,44.1-7.777,50.344c0,0,13.863-24.4,2.013-40.757S679.64,381.54,681.507,372.422Z" transform="translate(-71.003 -171.5)" fill="#313131"/>
    <path id="Path_25" data-name="Path 25" d="M685.357,614.52c-2.47,4.67-5.37,9.52-5.86,11.48-.33,1.33-3.99.56-9.75-1.61-11.55-4.37-31.57-14.38-50.25-24.39a15.78,15.78,0,0,1-2.44-1.6c.13-.79.28-1.59.44-2.4,4.59-22.95-2.62-77.92-1.51-99.16L624.5,494l17,16v68s44,24,47,26C690.027,605.02,687.917,609.67,685.357,614.52Z" transform="translate(-71.003 -171.5)" opacity="0.1"/>
    <path id="Path_26" data-name="Path 26" d="M722.5,560l27,14s16-17,26-4-29,17-29,17-34-8-35-19S722.5,560,722.5,560Z" transform="translate(-71.003 -171.5)" fill="#ffb8b8"/>
    <path id="Path_27" data-name="Path 27" d="M677.5,597l16,4s18-22,37-14-24,24-24,24-23,12-32,2S677.5,597,677.5,597Z" transform="translate(-71.003 -171.5)" fill="#ffb8b8"/>
    <path id="Path_28" data-name="Path 28" d="M712.5,465c1,1,12,9,12,9s3,38-1,46-7,8-4,12,7,1,3,8-8,6-5,9,2,4,2,4l12,10s-7.362,11.726-16.681,10.863S697.5,528,697.5,528Z" transform="translate(-71.003 -171.5)" fill="#fe9603"/>
    <path id="Path_29" data-name="Path 29" d="M624.5,489l-9,3s-24,88,4,103,59,30,60,26,12-20,9-22-47-26-47-26V505Z" transform="translate(-71.003 -171.5)" fill="#fe9603"/>
    <path id="Path_30" data-name="Path 30" d="M566.994,354l-2,48,53,25-49-25Z" opacity="0.1"/>
    <path id="Path_31" data-name="Path 31" d="M1084.1,633.143c-20.155,11.884-28.088,35.774-28.088,35.774s24.745,4.621,44.9-7.263S1129,625.88,1129,625.88,1104.252,621.259,1084.1,633.143Z" transform="translate(-71.003 -171.5)" fill="#3f3d56"/>
    <path id="Path_32" data-name="Path 32" d="M1091.16,640.511c-11.287,20.5-34.933,29.128-34.933,29.128s-5.347-24.6,5.94-45.094,34.933-29.128,34.933-29.128S1102.446,620.016,1091.16,640.511Z" transform="translate(-71.003 -171.5)" fill="#fd9626"/>
    <circle id="Ellipse_7" data-name="Ellipse 7" cx="4" cy="4" r="4" transform="translate(17.994 224)" fill="#fc635d"/>
    <circle id="Ellipse_8" data-name="Ellipse 8" cx="4" cy="4" r="4" transform="translate(28.994 224)" fill="#fdbc40"/>
    <circle id="Ellipse_9" data-name="Ellipse 9" cx="4" cy="4" r="4" transform="translate(39.994 223.999)" fill="#34c84a"/>
    <rect id="Rectangle_1" data-name="Rectangle 1" width="58" height="6" transform="translate(78.994 378.873)" fill="#fe9603" opacity="0.3"/>
    <rect id="Rectangle_2" data-name="Rectangle 2" width="54.865" height="6" transform="translate(78.994 391.873)" fill="#fe9603" opacity="0.3"/>
    <rect id="Rectangle_3" data-name="Rectangle 3" width="39.973" height="6" transform="translate(78.994 404.873)" fill="#fe9603" opacity="0.3"/>
    <g id="Group_2" data-name="Group 2" opacity="0.3">
      <rect id="Rectangle_4" data-name="Rectangle 4" width="58" height="6" transform="translate(213.994 378.873)" fill="#fe9603"/>
      <rect id="Rectangle_5" data-name="Rectangle 5" width="54.865" height="6" transform="translate(213.994 391.873)" fill="#fe9603"/>
      <rect id="Rectangle_6" data-name="Rectangle 6" width="39.973" height="6" transform="translate(213.994 404.873)" fill="#fe9603"/>
      <rect id="Rectangle_7" data-name="Rectangle 7" width="58" height="6" transform="translate(213.994 378.873)" fill="#fe9603" opacity="0.3"/>
      <rect id="Rectangle_8" data-name="Rectangle 8" width="54.865" height="6" transform="translate(213.994 391.873)" fill="#fe9603" opacity="0.3"/>
      <rect id="Rectangle_9" data-name="Rectangle 9" width="39.973" height="6" transform="translate(213.994 404.873)" fill="#fe9603" opacity="0.3"/>
    </g>
    <rect id="Rectangle_10" data-name="Rectangle 10" width="58" height="6" transform="translate(353.994 378.873)" fill="#fe9603" opacity="0.3"/>
    <rect id="Rectangle_11" data-name="Rectangle 11" width="54.865" height="6" transform="translate(353.994 391.873)" fill="#fe9603" opacity="0.3"/>
    <rect id="Rectangle_12" data-name="Rectangle 12" width="39.973" height="6" transform="translate(353.994 404.873)" fill="#fe9603" opacity="0.3"/>
    <rect id="Rectangle_13" data-name="Rectangle 13" width="74" height="66" transform="translate(70.994 300.873)" fill="#fe9603" opacity="0.3"/>
    <rect id="Rectangle_14" data-name="Rectangle 14" width="74" height="66" transform="translate(205.994 300.873)" fill="#fe9603"/>
    <rect id="Rectangle_15" data-name="Rectangle 15" width="74" height="66" transform="translate(345.994 300.873)" fill="#fe9603"/>
    <path id="Path_33" data-name="Path 33" d="M304.355,538.1l-.976-.019c.021-1.081.631-26.561,10.662-33.6l.561.8C304.976,512.03,304.36,537.835,304.355,538.1Z" transform="translate(-71.003 -171.5)" fill="rgba(255,255,255,0.51)"/>
    <circle id="Ellipse_10" data-name="Ellipse 10" cx="4.881" cy="4.881" r="4.881" transform="translate(243.318 322.887)" fill="rgba(255,255,255,0.51)"/>
    <path id="Path_34" data-name="Path 34" d="M318.216,516.5a15.2,15.2,0,0,1-7.841.339,13.85,13.85,0,0,1,14.24-4.884A15.2,15.2,0,0,1,318.216,516.5Z" transform="translate(-71.003 -171.5)" fill="rgba(255,255,255,0.51)"/>
    <path id="Path_35" data-name="Path 35" d="M444.355,538.1l-.976-.019c.021-1.081.631-26.561,10.662-33.6l.561.8C444.976,512.03,444.36,537.835,444.355,538.1Z" transform="translate(-71.003 -171.5)" fill="rgba(255,255,255,0.51)"/>
    <circle id="Ellipse_11" data-name="Ellipse 11" cx="4.881" cy="4.881" r="4.881" transform="translate(383.319 322.887)" fill="rgba(255,255,255,0.51)"/>
    <path id="Path_36" data-name="Path 36" d="M458.216,516.5a15.2,15.2,0,0,1-7.842.339,13.85,13.85,0,0,1,14.24-4.884A15.2,15.2,0,0,1,458.216,516.5Z" transform="translate(-71.003 -171.5)" fill="rgba(255,255,255,0.51)"/>
    <path id="Path_37" data-name="Path 37" d="M556,665.5H77v-277H556Zm-477-2H554v-273H79Z" transform="translate(-71.003 -171.5)" fill="#fd9626"/>
    <rect id="Rectangle_16" data-name="Rectangle 16" width="477" height="2" transform="translate(6.994 237.065)" fill="#fd9626"/>
    <text id="https:_themes.semicolonweb.com_." data-name="https://themes.semicolonweb.com…." transform="translate(59 230.999)" fill="rgba(112,112,112,0.64)" font-size="8" font-family="HelveticaNeue, Helvetica Neue"><tspan x="0" y="0">https://themes.semicolonweb.com….</tspan></text>
  </g>
</svg>
