<?xml version="1.0" encoding="iso-8859-1"?>
<!-- Generator: Adobe Illustrator 19.0.0, SVG Export Plug-In . SVG Version: 6.00 Build 0)  -->
<svg version="1.1" id="Capa_1" xmlns="http://www.w3.org/2000/svg" xmlns:xlink="http://www.w3.org/1999/xlink" x="0px" y="0px"
	 viewBox="0 0 512 512" style="enable-background:new 0 0 512 512;" xml:space="preserve">
<g>
	<g>
		<path d="M512,104.299V70.327c0-5.523-4.477-10-10-10h-39.667v-7.375c0-5.523-4.477-10-10-10H423.12v-4.797c0-5.523-4.477-10-10-10
			h-68.476c-26.86,0-50.338,16.556-59.586,41.124h-8.185c-15.651,0-28.662,11.51-31.018,26.51h-38.5c-5.523,0-10,4.477-10,10v14.177
			H59.311c-12.995,0-27.849,8.624-39.735,23.068C6.952,158.374,0,177.282,0,196.277v0.212C0,238.567,34.233,272.8,76.311,272.8
			h130.198c5.523,0,10-4.477,10-10s-4.477-10-10-10H76.311C45.261,252.8,20,227.539,20,196.489v-0.212
			c0-31.966,26.2-56.311,39.311-56.311h138.044v14.177c0,5.523,4.477,10,10,10h38.537c2.444,14.897,15.403,26.301,30.981,26.301
			h8.105c9.187,24.693,32.695,41.334,59.665,41.334h68.476c5.523,0,10-4.477,10-10v-4.798h29.213c5.523,0,10-4.477,10-10v-7.375H502
			c5.523,0,10-4.477,10-10v-33.972c0-5.523-4.477-10-10-10h-39.667v-31.334H502v0C507.523,114.299,512,109.822,512,104.299z
			 M245.472,144.143h-28.117v-28.354h28.117V144.143z M344.644,211.778c-20.368,0-37.857-13.83-42.531-33.631
			c-1.065-4.514-5.094-7.703-9.733-7.703h-15.508c-6.287,0-11.401-5.115-11.401-11.401V100.68c0-6.287,5.115-11.401,11.401-11.401
			h15.556c4.623,0,8.644-3.169,9.723-7.664c4.733-19.701,22.207-33.46,42.492-33.46h58.476v4.797V206.98v4.798H344.644z
			 M442.333,196.98H423.12V62.952h19.213V196.98z M492,165.633v13.972h-29.667v-13.972H492z M492,94.299h-29.667V80.327H492V94.299z
			"/>
	</g>
</g>
<g>
	<g>
		<path d="M415.739,252.8h-129.73c-5.523,0-10,4.477-10,10s4.477,10,10,10h129.73c31.05,0,56.311,25.261,56.311,56.311
			s-25.261,56.311-56.311,56.311H312.576v-6.677c0-5.523-4.477-10-10-10h-35.188v-5.26c0-29.936-24.354-54.29-54.29-54.29H102.242
			c-5.523,0-10,4.477-10,10v8.507H20.509c-9.925,0-18,8.075-18,18v101.637c0,9.925,8.075,18,18,18h71.733v8.507
			c0,5.523,4.477,10,10,10h110.857c29.936,0,54.29-24.354,54.29-54.29V422.1h35.188c5.523,0,10-4.477,10-10v-6.678H415.74
			c42.078,0,76.311-34.233,76.311-76.311C492.05,287.033,457.817,252.8,415.739,252.8z M92.242,445.339H22.509v-97.637h69.733
			V445.339z M213.099,463.846H112.242V329.194h100.857c13.741,0,25.613,8.128,31.079,19.826h-67.6c-5.523,0-10,4.477-10,10
			s4.477,10,10,10h70.81v60.536h0.001C247.389,448.463,232.007,463.846,213.099,463.846z M292.576,402.1h-25.188v-13.355h25.188
			V402.1z"/>
	</g>
</g>
<g>
	<g>
		<path d="M147.77,357.069c-0.13-0.64-0.32-1.27-0.57-1.87c-0.25-0.61-0.56-1.19-0.92-1.73c-0.36-0.55-0.78-1.06-1.24-1.52
			c-0.46-0.46-0.97-0.88-1.52-1.24c-0.54-0.36-1.12-0.67-1.73-0.92c-0.6-0.25-1.23-0.44-1.87-0.57c-3.25-0.66-6.7,0.41-9.02,2.73
			c-0.46,0.46-0.88,0.97-1.25,1.52c-0.36,0.54-0.67,1.12-0.92,1.73c-0.25,0.6-0.44,1.23-0.57,1.87s-0.19,1.3-0.19,1.95
			c0,0.65,0.06,1.31,0.19,1.95s0.32,1.27,0.57,1.88c0.25,0.6,0.56,1.18,0.92,1.72c0.37,0.55,0.79,1.06,1.25,1.52
			c1.86,1.86,4.43,2.93,7.07,2.93c0.65,0,1.31-0.07,1.95-0.2c0.64-0.12,1.27-0.32,1.87-0.57c0.61-0.25,1.19-0.56,1.73-0.92
			c0.55-0.36,1.06-0.78,1.52-1.24c0.46-0.46,0.88-0.97,1.24-1.52c0.36-0.54,0.67-1.12,0.92-1.72c0.25-0.61,0.44-1.24,0.57-1.88
			s0.2-1.3,0.2-1.95C147.97,358.37,147.9,357.71,147.77,357.069z"/>
	</g>
</g>
<g>
	<g>
		<path d="M74.242,404.52H50c-5.523,0-10,4.477-10,10s4.477,10,10,10h24.242c5.523,0,10-4.477,10-10
			C84.242,408.997,79.765,404.52,74.242,404.52z"/>
	</g>
</g>
<g>
	<g>
		<path d="M74.242,368.52H50c-5.523,0-10,4.477-10,10s4.477,10,10,10h24.242c5.523,0,10-4.477,10-10
			C84.242,372.997,79.765,368.52,74.242,368.52z"/>
	</g>
</g>
<g>
	<g>
		<path d="M256.31,260.85c-0.12-0.64-0.32-1.27-0.57-1.87c-0.25-0.61-0.56-1.19-0.92-1.73c-0.36-0.55-0.78-1.06-1.24-1.52
			c-0.46-0.46-0.97-0.88-1.52-1.24c-0.54-0.36-1.12-0.67-1.73-0.92c-0.6-0.25-1.23-0.45-1.87-0.57c-1.29-0.26-2.61-0.26-3.91,0
			c-0.63,0.12-1.26,0.32-1.87,0.57c-0.6,0.25-1.18,0.56-1.72,0.92c-0.55,0.36-1.06,0.78-1.52,1.24c-0.46,0.46-0.88,0.97-1.25,1.52
			c-0.36,0.54-0.67,1.12-0.92,1.73c-0.25,0.6-0.44,1.23-0.57,1.87s-0.19,1.3-0.19,1.95s0.06,1.31,0.19,1.95s0.32,1.27,0.57,1.87
			c0.25,0.61,0.56,1.19,0.92,1.73c0.37,0.55,0.79,1.06,1.25,1.52c0.46,0.461,0.97,0.88,1.52,1.24c0.54,0.36,1.12,0.67,1.72,0.92
			c0.61,0.25,1.24,0.45,1.87,0.57c0.65,0.13,1.31,0.2,1.96,0.2s1.31-0.07,1.95-0.2c0.64-0.12,1.27-0.32,1.87-0.57
			c0.61-0.25,1.19-0.56,1.73-0.92c0.55-0.36,1.059-0.78,1.52-1.24c0.46-0.46,0.88-0.97,1.24-1.52c0.36-0.54,0.67-1.12,0.92-1.73
			c0.25-0.6,0.45-1.23,0.57-1.87c0.13-0.64,0.2-1.3,0.2-1.95S256.44,261.49,256.31,260.85z"/>
	</g>
</g>
<g>
</g>
<g>
</g>
<g>
</g>
<g>
</g>
<g>
</g>
<g>
</g>
<g>
</g>
<g>
</g>
<g>
</g>
<g>
</g>
<g>
</g>
<g>
</g>
<g>
</g>
<g>
</g>
<g>
</g>
</svg>
