<?xml version="1.0" encoding="iso-8859-1"?>
<!-- Generator: Adobe Illustrator 18.0.0, SVG Export Plug-In . SVG Version: 6.00 Build 0)  -->
<!DOCTYPE svg PUBLIC "-//W3C//DTD SVG 1.1//EN" "http://www.w3.org/Graphics/SVG/1.1/DTD/svg11.dtd">
<svg version="1.1" id="Capa_1" xmlns="http://www.w3.org/2000/svg" xmlns:xlink="http://www.w3.org/1999/xlink" x="0px" y="0px"
	 viewBox="0 0 412.779 412.779" style="enable-background:new 0 0 412.779 412.779;" xml:space="preserve">
<path d="M412.779,227.505c0-113.8-92.583-206.384-206.384-206.384C92.589,21.122,0,113.705,0,227.505
	c0,19.644,2.759,39.043,8.189,57.708c-11.054,27.966-5.303,61.09,17.278,83.671c14.686,14.686,34.214,22.774,54.988,22.774
	c19.295,0,37.509-6.987,51.773-19.749c1.801,0.463,3.665,0.727,5.573,0.727c5.94,0,11.526-2.313,15.728-6.515l11.651-11.651
	c8.672-8.672,8.672-22.782,0-31.455L71.336,229.17c-4.201-4.201-9.786-6.514-15.728-6.514s-11.526,2.313-15.728,6.515l-11.65,11.651
	c-4.202,4.201-6.516,9.787-6.516,15.728c0,1.908,0.264,3.772,0.727,5.573c-1.228,1.374-2.384,2.789-3.497,4.227
	C16.324,253.636,15,240.631,15,227.505c0-60.124,27.878-113.85,71.378-148.962l2.675,4.181c4.724,7.368,12.819,11.423,21.053,11.422
	c4.418,0,8.876-1.168,12.872-3.618c25.089-15.337,53.934-23.443,83.418-23.443c29.477,0,58.317,8.106,83.409,23.445
	c11.472,7.004,26.689,3.498,33.927-7.813l2.671-4.177c43.499,35.112,71.376,88.84,71.376,148.964c0,13.12-1.323,26.12-3.941,38.829
	c-1.115-1.436-2.274-2.845-3.497-4.211c0.463-1.801,0.727-3.665,0.727-5.574c0-5.941-2.313-11.527-6.515-15.728l-11.651-11.652
	c-8.671-8.67-22.781-8.672-31.456,0l-93.845,93.845c-8.672,8.673-8.672,22.783,0,31.455l11.651,11.651
	c4.201,4.201,9.787,6.515,15.728,6.515c1.909,0,3.773-0.264,5.573-0.727c14.264,12.761,32.478,19.749,51.773,19.749
	c20.774,0,40.303-8.088,54.988-22.774c14.688-14.689,22.777-34.218,22.776-54.991c0-10.006-1.896-19.716-5.483-28.742
	C410.027,266.505,412.779,247.127,412.779,227.505z M36.075,358.277c-22.677-22.676-24.324-58.52-4.976-83.13l88.109,88.109
	c-11.01,8.679-24.514,13.402-38.752,13.402C63.688,376.658,47.928,370.13,36.075,358.277z M38.837,251.428l11.651-11.651
	c1.367-1.368,3.186-2.121,5.12-2.121s3.754,0.753,5.121,2.121l93.845,93.845c2.824,2.824,2.824,7.418,0,10.242l-11.651,11.651
	c-1.367,1.368-3.187,2.121-5.12,2.121c-1.935,0-3.754-0.753-5.121-2.121L38.836,261.67c-1.368-1.368-2.121-3.187-2.121-5.121
	C36.715,254.615,37.468,252.796,38.837,251.428z M311.095,74.635c-2.871,4.49-8.916,5.877-13.469,3.097
	c-27.445-16.777-58.992-25.646-91.23-25.646c-32.246,0-63.797,8.868-91.25,25.65c-4.541,2.783-10.583,1.388-13.461-3.102
	l-3.247-5.075c30.752-21.083,67.937-33.438,107.958-33.438c40.016,0,77.197,12.354,107.947,33.436L311.095,74.635z M269.86,355.515
	l-11.651-11.651c-2.824-2.824-2.824-7.418,0-10.242l93.844-93.844c1.412-1.412,3.268-2.118,5.122-2.118s3.71,0.706,5.121,2.118
	l11.651,11.652c1.368,1.368,2.121,3.186,2.121,5.121c0,1.934-0.753,3.753-2.122,5.121l-93.845,93.845
	c-1.367,1.368-3.187,2.121-5.121,2.121C273.047,357.636,271.228,356.883,269.86,355.515z M376.708,358.277
	c-11.853,11.853-27.613,18.38-44.381,18.38c-14.239,0-27.742-4.723-38.752-13.402l88.112-88.113
	c8.68,11.011,13.404,24.514,13.405,38.75C395.093,330.659,388.564,346.422,376.708,358.277z"/>
<g>
</g>
<g>
</g>
<g>
</g>
<g>
</g>
<g>
</g>
<g>
</g>
<g>
</g>
<g>
</g>
<g>
</g>
<g>
</g>
<g>
</g>
<g>
</g>
<g>
</g>
<g>
</g>
<g>
</g>
</svg>
