<svg xmlns="http://www.w3.org/2000/svg" xmlns:xlink="http://www.w3.org/1999/xlink" viewBox="0 0 110 4" width="100%" height="100%" preserveAspectRatio="none">
	  <path d="M105.2,3.4c-3.8-0.2-7.7-0.3-11.5-0.3c-1.4,0-2.8-0.1-4.2,0.1c-1.7,0.2-3.4-0.2-5-0.2
	  c-6.9-0.1-13.8-0.1-20.6,0c-4.3,0-8.5,0.2-12.8,0.1c-1.1,0-2,0.3-3.1,0.4c-2.1,0.2-4.1-0.3-6.2-0.2c-1.2,0-2.3,0.4-3.4,0.3
	  C34.2,3.4,30.1,3.6,26,3.7C20,3.7,14.1,3.8,8.1,4C6.7,4,5.3,4,4,3.7C2.4,3.4,1.1,2.5,0.1,1.4C-0.2,1,0.2,0.8,0.7,0.7
	  c0.8-0.2,1.5,0.1,2.2,0.1C8,0.7,13.1,0.5,18.2,0.5c5.3-0.1,10.6,0,15.9-0.1c3,0,6-0.1,9-0.1c8.3,0,16.5-0.4,24.8-0.2
	  c3.7,0.1,7.5,0.1,11.2,0.1c2.5,0,5-0.2,7.5,0.3c0.6,0.1,1.4-0.4,2.1-0.4c6.3,0,12.7-0.3,19,0.8C108,1,108.5,1,108.9,1
	  c0.4,0,0.6,0.2,0.7,0.5c0.1,0.3,0.2,0.5-0.2,0.8C108.4,3.4,106.9,3.5,105.2,3.4z" fill="#00bed7"></path>
	</svg>