<svg viewBox="0 0 381.26 106.03" xmlns="http://www.w3.org/2000/svg"><path d="m56.05 77.16 28.37-48.06q-.7-2-1.58-3.91l-50.22-21.19-32.13 46c.12.74.25 1.49.39 2.23z" fill="#f7b916"/><g fill="#1f3562"><path d="m180.13 82.92h-11.66a.13.13 0 0 1 -.11-.05l-10.05-12.26-10.06 12.25a.13.13 0 0 1 -.11.05h-9.34a.15.15 0 0 1 -.14-.09.14.14 0 0 1 0-.15l14.83-18.17-14.64-18a.18.18 0 0 1 0-.17.19.19 0 0 1 .12-.08h11.67a.14.14 0 0 1 .11.07l8.81 10.92 9-10.93a.15.15 0 0 1 .11-.06h9.51a.18.18 0 0 1 .13.08.17.17 0 0 1 0 .17l-13.94 16.67 15.87 19.5a.12.12 0 0 1 0 .15.14.14 0 0 1 -.13.09"/><path d="m243.28 52.7c-5.16 0-8.69 3.13-9.71 8.59h17.58v-.36a8 8 0 0 0 -7.87-8.23m16.93 14.18a.15.15 0 0 1 -.13.06h-26.7c.56 6.21 4.59 9.76 11.13 9.76 4 0 8.29-1.38 14.33-4.59a.16.16 0 0 1 .22.15v8.2c0 .07 0 .12-.08.13-5.62 2.37-11.27 4-15.69 4-11.49 0-19.84-8.37-19.84-19.91s8.35-19.91 19.84-19.91c10.48 0 17.22 7.06 17.22 16.77 0 1.57-.28 5.23-.3 5.35"/><path d="m314.45 38.67a5.9 5.9 0 0 1 -5.94-5.84 5.93 5.93 0 1 1 11.87 0 5.89 5.89 0 0 1 -5.93 5.84m-4.8 44.24a.14.14 0 0 1 -.15-.15v-36.37a.15.15 0 0 1 .12-.14h9.65a.14.14 0 0 1 .12.14v36.37a.14.14 0 0 1 -.14.15z"/><path d="m197.78 77.44a21.1 21.1 0 0 1 -5.57-.79v-23.34a21.25 21.25 0 0 1 6.54-1.12c6.68 0 11.17 4.92 11.17 12.25 0 7.89-4.77 13-12.16 13m2.61-32.67a25.37 25.37 0 0 0 -8.34 1.48h-9.6a.15.15 0 0 0 -.14.15v59.6a22.07 22.07 0 0 0 9.91-3.88v-18.12a43.26 43.26 0 0 0 6.2.56c13.15 0 21.65-7.87 21.65-20.06 0-11.62-8.1-19.74-19.67-19.74"/><path d="m292.09 74.42a17.74 17.74 0 0 1 -8.21 2.33c-6 0-9.52-4.2-9.52-11.25 0-8.14 4.55-13.41 11.59-13.41a14.51 14.51 0 0 1 6.13 1.51zm0-47.43v19.01a27.45 27.45 0 0 0 -7.79-1.19 19.63 19.63 0 0 0 -20.07 20.08c0 11.38 7.62 19.64 18.09 19.64a23.28 23.28 0 0 0 11-3v3.29a22.1 22.1 0 0 0 8.68-3.61v-58.11a21.27 21.27 0 0 0 -9.9 3.9"/><path d="m352.78 74.35a15.62 15.62 0 0 1 -7.62 2.49c-6.37 0-10.18-4.19-10.18-11.26 0-8 4.49-13.41 11.18-13.41a14.83 14.83 0 0 1 6.63 2.09zm9.92-28.54a.42.42 0 0 0 -.42-.41h-7.79a.42.42 0 0 0 -.42.42v1.32h-.2a23.87 23.87 0 0 0 -9.69-2.31c-10.78 0-19.24 8.95-19.24 20.4s7.57 19.32 18.83 19.32c3 0 6.87-.2 10.48-4.36v4.68a22.33 22.33 0 0 0 8.44-3.68z"/><path d="m112.15 73.69h24.15a21.81 21.81 0 0 1 -3.37 9.08h-25.13a6 6 0 0 1 -5.91-5.4 1.16 1.16 0 0 0 0-.12v-47.63s0-.08 0-.12a6 6 0 0 1 5.91-5.41h.28 28.17a22.07 22.07 0 0 1 -3.37 9.14h-20.73v13h20.52a.15.15 0 0 1 .15.14v9a.15.15 0 0 1 -.15.14h-20.52z"/><path d="m180.14 82.91h-11.67a.14.14 0 0 1 -.11 0l-10-12.26-10.1 12.22a.15.15 0 0 1 -.12 0h-9.34a.15.15 0 0 1 -.14-.08.14.14 0 0 1 0-.15l14.83-18.14-14.64-18a.15.15 0 0 1 0-.16.18.18 0 0 1 .13-.09h11.66a.14.14 0 0 1 .11.07l8.82 10.92 9-10.93a.16.16 0 0 1 .12-.06h9.51a.18.18 0 0 1 .14.09.16.16 0 0 1 0 .16l-13.97 16.67 15.87 19.5a.12.12 0 0 1 0 .15.14.14 0 0 1 -.13.08"/><path d="m243.28 52.7c-5.16 0-8.7 3.13-9.71 8.59h17.58v-.36a8 8 0 0 0 -7.87-8.23m16.93 14.18a.15.15 0 0 1 -.13.06h-26.69c.54 6.21 4.58 9.76 11.12 9.76 4 0 8.29-1.37 14.34-4.58.09-.06.22 0 .22.15v8.2c0 .07 0 .12-.08.13-5.61 2.37-11.26 4-15.69 4-11.5 0-19.83-8.37-19.83-19.91s8.34-19.9 19.83-19.9c10.49 0 17.22 7.06 17.22 16.77 0 1.57-.28 5.23-.3 5.35"/><path d="m314.45 38.67a5.9 5.9 0 0 1 -5.94-5.85 5.94 5.94 0 1 1 11.87 0 5.9 5.9 0 0 1 -5.93 5.85m-4.8 44.24a.14.14 0 0 1 -.15-.15v-36.37a.14.14 0 0 1 .12-.14h9.65a.14.14 0 0 1 .12.14v36.37a.14.14 0 0 1 -.14.15z"/><path d="m197.78 77.44a21 21 0 0 1 -5.57-.79v-23.34a21 21 0 0 1 6.54-1.12c6.68 0 11.17 4.93 11.17 12.26 0 7.89-4.77 13-12.16 13m2.61-32.68a25.5 25.5 0 0 0 -8.34 1.48h-9.6a.14.14 0 0 0 -.14.15v59.6a22.09 22.09 0 0 0 9.91-3.88v-18.12a43.41 43.41 0 0 0 6.2.56c13.15 0 21.65-7.87 21.65-20.06 0-11.63-8.09-19.75-19.67-19.75"/><path d="m292.09 74.42a17.76 17.76 0 0 1 -8.21 2.33c-6 0-9.52-4.21-9.52-11.25 0-8.13 4.56-13.41 11.6-13.41a14.41 14.41 0 0 1 6.13 1.51zm0-47.43v19.01a27.25 27.25 0 0 0 -7.79-1.18 19.62 19.62 0 0 0 -20.07 20.07c0 11.38 7.62 19.65 18.09 19.65a23.27 23.27 0 0 0 11-3v3.29a22.17 22.17 0 0 0 8.68-3.62v-58.12a21.37 21.37 0 0 0 -9.9 3.9"/><path d="m352.78 74.34a15.61 15.61 0 0 1 -7.62 2.49c-6.37 0-10.18-4.2-10.18-11.26 0-8 4.49-13.41 11.18-13.41a14.75 14.75 0 0 1 6.63 2.1zm9.92-28.54a.42.42 0 0 0 -.42-.41h-7.79a.42.42 0 0 0 -.42.42v1.32h-.2a23.86 23.86 0 0 0 -9.69-2.31c-10.78 0-19.24 8.94-19.24 20.4s7.57 19.32 18.83 19.32c3 0 6.87-.2 10.48-4.37v4.68a22.34 22.34 0 0 0 8.44-3.69z"/><path d="m112.15 73.69h24.15a21.91 21.91 0 0 1 -3.37 9.08h-25.13a6 6 0 0 1 -5.91-5.4s0-.08 0-.12v-47.64s0-.08 0-.12a6 6 0 0 1 5.91-5.41h.28 28.16a22.05 22.05 0 0 1 -3.37 9.14h-20.72v13h20.52a.15.15 0 0 1 .15.14v9a.15.15 0 0 1 -.15.14h-20.52z"/><path d="m373 44.83h1.12c1.25 0 1.84-.35 1.84-1.22s-.63-1.27-1.93-1.27h-1zm1.35-3.56c2.24 0 3.35.76 3.35 2.15a2.1 2.1 0 0 1 -1.76 2.2l1.76 3.58h-1.9l-1.57-3.31h-1.23v3.31h-1.7v-7.93zm-4.35-.22a6.14 6.14 0 0 0 -1.82 4.31 6.06 6.06 0 0 0 5.93 6 6.17 6.17 0 0 0 4.37-1.76 5.76 5.76 0 0 0 1.76-4.17 6 6 0 0 0 -6-6.13 5.77 5.77 0 0 0 -4.24 1.75m9.27-.65a7 7 0 0 1 2 5 6.85 6.85 0 0 1 -2.08 5 7.18 7.18 0 0 1 -5 2.08 7.16 7.16 0 0 1 -7.07-7.09 7.12 7.12 0 0 1 2.13-5.05 6.78 6.78 0 0 1 4.93-2 7 7 0 0 1 5.08 2.12"/></g><path d="m50.81 33.37-1.75-4.95-14.84-19.83 2.66-.66 25.59 22.07 15.05-4.31a21.75 21.75 0 0 1 5.31-.54 43.43 43.43 0 0 0 -82.34 24.85l36.06-12.56z" fill="#1f3561"/><path d="m84.42 29.1a23.53 23.53 0 0 1 -5.19 2.6l-15.09 4.3-10.07 32.32-2.61.85 2.13-24.69-1.19-5.12-14.14 4-37.38 8.84a43.43 43.43 0 1 0 83.54-23.1" fill="#1f3561"/><path d="m82 83.67a4.16 4.16 0 1 1 3.84-4.15 3.86 3.86 0 0 1 -3.84 4.15m0-8.76a4.61 4.61 0 1 0 4.51 4.62 4.47 4.47 0 0 0 -4.51-4.62" fill="#1f3561"/><path d="m80.87 79.14v-1.67h1.13c.57 0 1.25.08 1.25.78s-.63.89-1.34.89zm3.23-.78c0-1.11-.68-1.57-2-1.57h-2.1v5.46h.9v-2.34h.84l1.41 2.33h1l-1.53-2.39a1.4 1.4 0 0 0 1.43-1.49" fill="#1f3561"/></svg>