<svg viewBox="0 0 224.85 146.02" xmlns="http://www.w3.org/2000/svg"><path d="m76.1 12.67c10.11-4.4 22.66-6.77 35.29-6.77a84.87 84.87 0 0 1 34.22 6.8 35.32 35.32 0 0 0 -34.23 35.3 35.33 35.33 0 0 0 -35.28-35.33z" fill="#ffdf9e" stroke="#ffdf9e" stroke-miterlimit="10"/><circle cx="75.04" cy="47.91" fill="#ec2227" r="5.76"/><circle cx="146.1" cy="47.84" fill="#07a64f" r="5.76"/><path d="m75.92 30.76a17.15 17.15 0 1 0 17.15 17.15 17.15 17.15 0 0 0 -17.15-17.15zm0 29a11.88 11.88 0 1 1 11.88-11.85 11.88 11.88 0 0 1 -11.88 11.89zm106.71-46.59h-23.63c-12-8.11-28.47-13.17-47.33-13.17s-36.44 5.06-48.49 13.17h-22.49c3.67 4.29 6.38 10.1 7.06 14.09a35.32 35.32 0 0 0 56 43 89 89 0 0 1 7.9 11.1s5.07-7.58 7.93-11.07a35.32 35.32 0 0 0 56-43c.66-4.01 3.42-9.83 7.05-14.12zm-106.3 63.28a28.44 28.44 0 1 1 28.44-28.45 28.44 28.44 0 0 1 -28.44 28.45zm.05-63.77c10.11-4.41 22.62-6.78 35.29-6.78a84.88 84.88 0 0 1 34.22 6.8 35.32 35.32 0 0 0 -34.23 35.3 35.33 35.33 0 0 0 -35.28-35.33zm70.62 63.77a28.44 28.44 0 1 1 28.43-28.45 28.44 28.44 0 0 1 -28.43 28.45zm0-45.76a17.15 17.15 0 1 0 17.15 17.15 17.15 17.15 0 0 0 -17.15-17.15zm0 29a11.88 11.88 0 1 1 11.88-11.88 11.88 11.88 0 0 1 -11.88 11.91z" fill="#010101"/><path d="m190.57 18.89h-1.12v-4.7h1.66c.84 0 1.9.1 1.9 1.36a1.18 1.18 0 0 1 -1 1.25l1.13 2.09h-1.23l-.91-1.89h-.38zm0-2.67a2.94 2.94 0 0 0 .9-.05c.36-.12.39-.37.39-.63s-.11-.49-.34-.56a3.06 3.06 0 0 0 -.95-.06z" fill="#231f20"/><path d="m191.31 12.43a4.27 4.27 0 1 0 4.27 4.27 4.27 4.27 0 0 0 -4.27-4.27zm0 7.74a3.47 3.47 0 1 1 3.47-3.47 3.47 3.47 0 0 1 -3.47 3.47z" fill="#231f20"/><path d="m219.85 116.7h-1.12v-4.7h1.66c.84 0 1.9.1 1.9 1.37a1.18 1.18 0 0 1 -1 1.24l1.13 2.09h-1.22l-1-1.91h-.38zm0-2.66a2.74 2.74 0 0 0 .9-.05c.36-.11.39-.37.39-.62s-.11-.48-.34-.56a3.27 3.27 0 0 0 -.95-.05z" fill="#07a64f"/><path d="m220.58 110.24a4.27 4.27 0 1 0 4.27 4.27 4.26 4.26 0 0 0 -4.27-4.27zm0 7.73a3.47 3.47 0 1 1 3.47-3.47 3.47 3.47 0 0 1 -3.47 3.5z" fill="#07a64f"/><path d="m14.89 116v-3.87h-6.32v-5.8l-4.85 1.45v4.35h-3.72v3.87h3.72v12.42c0 5.52 2.26 8.33 6.71 8.33a11.81 11.81 0 0 0 4.13-.65l.14-.05-.22-3.82-.24.07a9.42 9.42 0 0 1 -2.54.28 2.73 2.73 0 0 1 -2.37-1 6 6 0 0 1 -.76-3.45v-12.13z" fill="#231f20"/><path d="m31.65 111.69a9.61 9.61 0 0 0 -1.25-.1 6.8 6.8 0 0 0 -4.15 1.41 8.11 8.11 0 0 0 -2.5 3.16l-.25-4.06h-4.42v.21c.13 1.95.2 4.48.2 7.52v16.35h5v-12.7a7.72 7.72 0 0 1 1.72-5.37 5.41 5.41 0 0 1 4.1-1.87 7.22 7.22 0 0 1 1.52.14l.24.05v-4.73z" fill="#231f20"/><path d="m36.13 112.13h4.95v24.09h-4.95z" fill="#231f20"/><path d="m38.58 108.22a3 3 0 0 0 3.14-3.09 3 3 0 0 0 -.88-2.16 3 3 0 0 0 -2.21-.87 3.08 3.08 0 0 0 -2.26.88 3 3 0 0 0 -.88 2.16 3 3 0 0 0 .87 2.2 3 3 0 0 0 2.22.88z" fill="#231f20"/><path d="m65.2 114.95a9.16 9.16 0 0 0 -7.29-3.48 9.46 9.46 0 0 0 -8.19 4.11l-.2-3.57h-4.52v.34c.12 2 .19 4.6.19 7.77v25.88h5v-12.3a7.65 7.65 0 0 0 2.62 2.16 9.51 9.51 0 0 0 4.37 1 10 10 0 0 0 7.82-3.56c2.07-2.36 3.11-5.56 3.11-9.52a13.36 13.36 0 0 0 -2.91-8.83zm-12.2 1.93a5.88 5.88 0 0 1 3.49-1.15 5.66 5.66 0 0 1 4.74 2.3 9.46 9.46 0 0 1 1.84 5.97 10.12 10.12 0 0 1 -1.84 6.37 6.2 6.2 0 0 1 -9.25.46 6.32 6.32 0 0 1 -1.8-4.58v-3.82a8.32 8.32 0 0 1 .63-2.71 6.14 6.14 0 0 1 2.19-2.84z" fill="#231f20"/><g fill="#07a64f"><path d="m90.23 136a32.89 32.89 0 0 1 -.39-5.64v-8.66c0-3.23-.81-5.75-2.41-7.48s-4-2.61-7.13-2.61a15.28 15.28 0 0 0 -8.3 2.16l-.13.08 1.13 3.38.21-.13a11.62 11.62 0 0 1 6.35-1.78 5.31 5.31 0 0 1 4 1.35 5.17 5.17 0 0 1 1.33 3.78v.24c-4.71 0-8.36.8-10.84 2.3a7.48 7.48 0 0 0 -3.84 6.76 6.7 6.7 0 0 0 2.09 4.95 7.59 7.59 0 0 0 5.55 2.05 9 9 0 0 0 7.37-3.3l.49 2.76h4.57zm-6.94-4.55a6.05 6.05 0 0 1 -4.22 1.55 3.91 3.91 0 0 1 -2.81-1 3.71 3.71 0 0 1 -1.05-2.8 4 4 0 0 1 2.13-3.59c1.42-.87 4-1.33 7.65-1.34v3.72a4.64 4.64 0 0 1 -1.7 3.43z"/><path d="m115.3 136.33v-.34c-.12-1.49-.18-3.57-.18-6.19v-29h-5v13.58a8 8 0 0 0 -2.45-1.94 9.31 9.31 0 0 0 -4.39-1 9.73 9.73 0 0 0 -7.69 3.67 14.15 14.15 0 0 0 -3.09 9.42 13.23 13.23 0 0 0 2.94 8.8 9.31 9.31 0 0 0 7.38 3.5 9.41 9.41 0 0 0 4.91-1.29 8.48 8.48 0 0 0 2.8-2.71l.27 3.46zm-5.18-14.27v3.77a6.64 6.64 0 0 1 -1.84 4.91 5.86 5.86 0 0 1 -4.21 1.83 5.59 5.59 0 0 1 -4.81-2.32 9.83 9.83 0 0 1 -1.75-6 10 10 0 0 1 1.86-6.25 6 6 0 0 1 9-.59 6.3 6.3 0 0 1 1.75 4.65z"/><path d="m135.62 112.13s-6.18 12.62-6.62 14c-.56-1.71-6.7-14-6.7-14h-5.37l12.07 24.08 11.88-24.09z"/><path d="m143.31 112.13h4.95v24.09h-4.95z"/><path d="m145.76 108.22a3 3 0 0 0 3.14-3.09 3 3 0 0 0 -.9-2.13 3 3 0 0 0 -2.21-.87 3.09 3.09 0 0 0 -2.26.88 3 3 0 0 0 -.87 2.16 3 3 0 0 0 .86 2.2 3 3 0 0 0 2.24.85z"/><path d="m167.79 125a12.21 12.21 0 0 0 -5-3 11.28 11.28 0 0 1 -3.64-1.81 2.6 2.6 0 0 1 -.83-2 2.67 2.67 0 0 1 1-2.14 4.15 4.15 0 0 1 2.73-.84 10 10 0 0 1 5 1.39l.21.13 1.26-3.66-.14-.09a12 12 0 0 0 -6.17-1.49 9.26 9.26 0 0 0 -6.29 2.08 6.64 6.64 0 0 0 -2.38 5.17c0 3.06 2.23 5.38 6.64 6.89a9.64 9.64 0 0 1 3.39 1.73 3 3 0 0 1 .93 2.3 2.78 2.78 0 0 1 -1.12 2.34 5.3 5.3 0 0 1 -3.28.89 11.19 11.19 0 0 1 -5.87-1.73l-.22-.13-1.2 3.88.14.08a14.6 14.6 0 0 0 7 1.69 10.61 10.61 0 0 0 6.82-2 6.59 6.59 0 0 0 2.54-5.37 6.32 6.32 0 0 0 -1.52-4.31z"/><path d="m192 115a10.86 10.86 0 0 0 -8.31-3.45 11.4 11.4 0 0 0 -8.5 3.48 12.85 12.85 0 0 0 -3.37 9.3 12.52 12.52 0 0 0 3.26 8.93 11 11 0 0 0 8.28 3.45 12 12 0 0 0 6-1.57 10.85 10.85 0 0 0 4.31-4.48 14.34 14.34 0 0 0 1.54-6.77 12.61 12.61 0 0 0 -3.21-8.89zm-8.59 18a5.87 5.87 0 0 1 -4.79-2.46 10 10 0 0 1 -1.93-6.3 10.53 10.53 0 0 1 1.86-6.36 5.91 5.91 0 0 1 5-2.5 5.79 5.79 0 0 1 4.94 2.52 10.37 10.37 0 0 1 1.84 6.19 10 10 0 0 1 -2 6.43 6.09 6.09 0 0 1 -4.92 2.48z"/><path d="m211.86 111.69a9.58 9.58 0 0 0 -1.25-.1 6.81 6.81 0 0 0 -4.16 1.44 8.13 8.13 0 0 0 -2.5 3.16l-.25-4.06h-4.41v.21c.13 1.95.2 4.48.2 7.52v16.35h5v-12.73a7.71 7.71 0 0 1 1.72-5.37 5.41 5.41 0 0 1 4.1-1.87 7.23 7.23 0 0 1 1.52.14l.24.05v-4.73z"/></g></svg>