<?xml version="1.0" encoding="iso-8859-1"?>
<!-- Generator: Adobe Illustrator 19.0.0, SVG Export Plug-In . SVG Version: 6.00 Build 0)  -->
<svg version="1.1" id="Capa_1" xmlns="http://www.w3.org/2000/svg" xmlns:xlink="http://www.w3.org/1999/xlink" x="0px" y="0px"
	 viewBox="0 0 512 512" style="enable-background:new 0 0 512 512;" xml:space="preserve">
<path style="fill:#E1E4FB;" d="M499.401,211.3l-39.701-6.601c-5.1-19.799-12.9-38.699-23.4-56.4l22.8-32.098
	c4.199-6,3.6-14.101-1.501-19.2L415,54.401c-5.099-5.101-13.2-5.7-19.2-1.501l-32.098,22.8C346,65.2,327.1,57.4,307.301,52.301
	L300.7,12.599C299.5,5.4,293.2,0,286,0h-60c-7.2,0-13.5,5.4-14.7,12.599L204.699,52.3C184.9,57.4,166,65.2,148.299,75.7
	l-32.098-22.8c-6-4.199-14.101-3.6-19.2,1.501L54.401,97c-5.101,5.099-5.7,13.2-1.501,19.2l22.8,32.098
	C65.2,166,57.4,184.9,52.301,204.699L12.599,211.3C5.4,212.5,0,218.8,0,226v60c0,7.2,5.4,13.5,12.599,14.7l39.701,6.601
	c5.1,19.799,12.9,38.699,23.4,56.4l-22.8,32.098c-4.199,6-3.6,14.101,1.501,19.2L97,457.599c5.099,5.101,13.2,5.7,19.2,1.501
	l32.098-22.8c17.701,10.499,36.601,18.3,56.4,23.399l6.601,39.701C212.5,506.6,218.8,512,226,512h60c7.2,0,13.5-5.4,14.7-12.599
	l6.601-39.701c19.799-5.1,38.699-12.9,56.4-23.4l32.098,22.8c6,4.199,14.101,3.6,19.2-1.501l42.6-42.599
	c5.101-5.099,5.7-13.2,1.501-19.2l-22.8-32.098c10.499-17.701,18.3-36.601,23.399-56.4l39.701-6.601C506.6,299.5,512,293.2,512,286
	v-60C512,218.8,506.6,212.5,499.401,211.3z M256,376c-66.301,0-120-53.699-120-120s53.699-120,120-120s120,53.699,120,120
	S322.301,376,256,376z"/>
<path style="fill:#C5C9F7;" d="M512,226v60c0,7.2-5.4,13.5-12.599,14.7l-39.701,6.601c-5.1,19.799-12.9,38.699-23.4,56.4
	l22.8,32.098c4.199,6,3.6,14.101-1.501,19.2L415,457.599c-5.099,5.101-13.2,5.7-19.2,1.501l-32.098-22.8
	C346,446.8,327.1,454.6,307.301,459.699L300.7,499.4c-1.2,7.2-7.5,12.6-14.7,12.6h-30V376c66.301,0,120-53.699,120-120
	s-53.699-120-120-120V0h30c7.2,0,13.5,5.4,14.7,12.599l6.601,39.701c19.799,5.1,38.699,12.9,56.4,23.4l32.098-22.8
	c6-4.199,14.101-3.6,19.2,1.501L457.599,97c5.101,5.099,5.7,13.2,1.501,19.2l-22.8,32.098c10.499,17.701,18.3,36.601,23.399,56.4
	l39.701,6.601C506.6,212.5,512,218.8,512,226z"/>
<path style="fill:#1689FC;" d="M353.2,336.4L256,371.201L158.8,336.4c15.899-39.6,54.3-65.4,97.2-65.4S337.301,296.8,353.2,336.4z"
	/>
<path style="fill:#17ACE8;" d="M256,181c-32.999,0-60,27.001-60,60s27.001,60,60,60s60-27.001,60-60S288.999,181,256,181z"/>
<path style="fill:#C5C9F7;" d="M256,121c-74.399,0-135,60.601-135,135s60.601,135,135,135s135-60.601,135-135S330.399,121,256,121z
	 M256,361c-57.9,0-105-47.1-105-105s47.1-105,105-105s105,47.1,105,105S313.9,361,256,361z"/>
<path style="fill:#136EF1;" d="M353.2,336.4L256,371.201V271C298.9,271,337.301,296.8,353.2,336.4z"/>
<path style="fill:#1689FC;" d="M316,241c0,32.999-27.001,60-60,60V181C288.999,181,316,208.001,316,241z"/>
<path style="fill:#A8AFF1;" d="M391,256c0,74.399-60.601,135-135,135v-30c57.9,0,105-47.1,105-105s-47.1-105-105-105v-30
	C330.399,121,391,181.601,391,256z"/>
<g>
</g>
<g>
</g>
<g>
</g>
<g>
</g>
<g>
</g>
<g>
</g>
<g>
</g>
<g>
</g>
<g>
</g>
<g>
</g>
<g>
</g>
<g>
</g>
<g>
</g>
<g>
</g>
<g>
</g>
</svg>
