<svg xmlns="http://www.w3.org/2000/svg" viewBox="0 0 24.17 24.17"><defs><style>.cls-1{fill:#00bed7;}</style></defs><title>24help</title><g id="Layer_2"><g id="Capa_1"><g id="_24_hours"><path d="M12.08 14.35a2.27 2.27 0 1 1 2.27-2.27 2.27 2.27 0 0 1-2.27 2.27zm0-3.78a1.5 1.5 0 1 0 1.5 1.5 1.5 1.5 0 0 0-1.5-1.5zM12.46 10.23V3.4a.38.38 0 1 0-.76 0v6.83a1.94 1.94 0 0 1 .76 0zM16.33 7.7a.38.38 0 0 0-.54 0l-2.68 2.8a1.9 1.9 0 0 1 .53.54l2.68-2.8a.38.38 0 0 0 0-.53zM12.08 23.4A11.33 11.33 0 1 1 23.4 12.1a11.47 11.47 0 0 1-.2 2.1 1.13 1.13 0 0 1 .67.54 12.1 12.1 0 1 0-7.2 8.53H13.9a11.23 11.23 0 0 1-1.82.16zM13.7 22.12v-.57l.72-.7c1.76-1.68 2.56-2.57 2.56-3.6a1.22 1.22 0 0 0-1.35-1.35 2.34 2.34 0 0 0-1.46.58l-.3-.66a3 3 0 0 1 1.94-.7 1.94 1.94 0 0 1 2.1 2c0 1.27-.9 2.3-2.36 3.7l-.54.5h3.08v.77zM22 22.12v-1.88h-3.2v-.6l3.07-4.4h1v4.28h1v.72h-1v1.88zm0-2.6v-2.3c0-.36 0-.72 0-1.08-.2.4-.38.7-.57 1l-1.7 2.36z" class="cls-1"/><circle cx="20.39" cy="12.08" r=".75" class="cls-1"/><circle cx="3.78" cy="12.08" r=".75" class="cls-1"/></g></g></g></svg>