<svg xmlns="http://www.w3.org/2000/svg" viewBox="0 0 24.17 24.17"><defs><style>.cls-1{fill:#00bed7;}</style></defs><title>card</title><g id="Layer_2"><g id="Capa_1"><g id="giftcard"><path d="M10.55 7.55c-1.67 0-3.9-.2-5.06-1.08-1.8-1.4-2.25-3.63-1-5.2A3.3 3.3 0 0 1 7.1 0a4.33 4.33 0 0 1 2.65 1c1.8 1.4 2.6 5.9 2.63 6.1a.4.4 0 0 1-.07.28.38.38 0 0 1-.3.12s-.6.05-1.45.05zM7.1.75a2.52 2.52 0 0 0-2 1C4.1 3 4.48 4.73 6 5.88c.76.6 2.4.92 4.6.92h1c-.23-1.12-1-4.2-2.26-5.2A3.58 3.58 0 0 0 7.1.75zM13.26 7.55c-.67 0-1.14 0-1.14 0a.38.38 0 0 1-.27-.14.4.4 0 0 1-.08-.28c0-.15.63-3.6 2-4.7a2.94 2.94 0 0 1 4.23.2 2.58 2.58 0 0 1 .5 2.1 3.38 3.38 0 0 1-1.3 2 7.13 7.13 0 0 1-3.94.83zm-.65-.77h.66a6.26 6.26 0 0 0 3.44-.68 2.6 2.6 0 0 0 1-1.54 1.85 1.85 0 0 0-.35-1.48A2.17 2.17 0 0 0 14.27 3c-.85.64-1.43 2.67-1.67 3.78zM.38 12.88h23.4V14H.4zM22.28 24.17H1.88A1.9 1.9 0 0 1 0 22.27V10.2a1.9 1.9 0 0 1 1.9-1.9h20.38a1.9 1.9 0 0 1 1.9 1.9v12.08a1.9 1.9 0 0 1-1.9 1.9zM1.88 9.07A1.13 1.13 0 0 0 .76 10.2v12.08a1.13 1.13 0 0 0 1.13 1.13h20.4a1.13 1.13 0 0 0 1.13-1.12V10.2a1.13 1.13 0 0 0-1.12-1.13zM8.3 19.86H3.4a.57.57 0 0 1 0-1.13h4.9a.57.57 0 1 1 0 1.13z" class="cls-1"/></g></g></g></svg>