<svg xmlns="http://www.w3.org/2000/svg" viewBox="0 0 23.79 24.17"><defs><style>.cls-1{fill:#00bed7;}</style></defs><title>doc</title><g id="Layer_2"><g id="Capa_1"><g id="wish_list"><path d="M14.26 12.46h-3a.38.38 0 1 1 0-.75h3a.38.38 0 1 1 0 .76zM14.26 9.44h-3a.38.38 0 0 1 0-.76h3a.38.38 0 0 1 0 .76zM9 15.48H3.75a.38.38 0 1 1 0-.75H9a.38.38 0 1 1 0 .75zM9 12.46H3.75a.38.38 0 0 1 0-.75H9a.38.38 0 0 1 0 .76zM9 9.44H3.75a.38.38 0 0 1 0-.76H9a.38.38 0 0 1 0 .76zM16.5 6.42h-3.74a1.88 1.88 0 0 1-1.88-1.9V.76a.38.38 0 0 1 .75 0v3.78a1.13 1.13 0 0 0 1.12 1.13h3.75a.38.38 0 1 1 0 .75zM23.76 15.5a.54.54 0 0 0-.43-.37l-4.15-.6-1.85-3.8a.56.56 0 0 0-1 0l-1.85 3.8-4.15.6a.54.54 0 0 0-.43.37.55.55 0 0 0 .13.55l3 2.95-.7 4.16a.54.54 0 0 0 .2.53.53.53 0 0 0 .3.1.53.53 0 0 0 .26-.07l3.7-2 3.7 2a.52.52 0 0 0 .25.06.53.53 0 0 0 .3-.1.55.55 0 0 0 .22-.54L20.62 19l3-2.95a.55.55 0 0 0 .14-.55zm-3.67 3a.75.75 0 0 0-.23.67l.63 3.72-3.3-1.8a.74.74 0 0 0-.7 0l-3.32 1.75.63-3.72a.75.75 0 0 0-.2-.67l-2.7-2.64 3.72-.54a.75.75 0 0 0 .57-.4l1.65-3.4 1.65 3.4a.75.75 0 0 0 .57.4l3.72.54zM11.23 23.4H1.88A1.13 1.13 0 0 1 .76 22.3V1.88A1.13 1.13 0 0 1 1.88.76h9.22l5.4 5.45v3.2a1.76 1.76 0 0 1 .35 0 1.72 1.72 0 0 1 .4.05V6a.37.37 0 0 0-.1-.27L11.53.1a.38.38 0 0 0-.27-.1H1.88A1.9 1.9 0 0 0 0 1.9v20.38a1.88 1.88 0 0 0 1.88 1.9h9.63a1.67 1.67 0 0 1-.27-.77z" class="cls-1"/></g></g></g></svg>