<svg xmlns="http://www.w3.org/2000/svg" viewBox="0 0 24.17 24.16"><defs><style>.cls-1{fill:#00bed7;}</style></defs><title>dropbox</title><g id="Layer_2"><g id="Capa_1"><g id="box_ok"><path d="M23.8 4.5a.38.38 0 0 0-.22-.3L15.28 0a.38.38 0 0 0-.38 0l-2.8 1.8L8.86.05a.38.38 0 0 0-.4 0l-8.3 5.3a.38.38 0 0 0-.17.32.38.38 0 0 0 .18.33L3 7.68.17 9.5a.38.38 0 0 0-.17.3.37.37 0 0 0 .17.33l7.93 5.3a.4.4 0 0 0 .43 0l3.34-2.35L13.25 16a.4.4 0 0 0 .25.2h.1a.4.4 0 0 0 .2-.06l7.94-5.67a.38.38 0 0 0 .13-.46l-1.33-3 3.1-2.16a.38.38 0 0 0 .15-.34zM1.1 5.65L8.7.82l2.68 1.5-7.66 4.9zm10.82 6.46L4.45 7.67l7.67-4.92 7.32 4.1zM8.3 14.66L1.07 9.82l2.67-1.7 7.5 4.47zm12.75-4.58l-7.32 5.23-1.25-2.65 7.42-5.2zm-.92-3.7l-7.3-4.1 2.3-1.46 7.54 3.78zM19.64 12v1.24a7 7 0 0 1 .75.12v-1.9zM12.46 22.74v-8.4l-.6-1.27-.16.1v9.6l-7.55-4.12V12.8l-.75-.5v6.58a.37.37 0 0 0 .2.33l8.3 4.54a.4.4 0 0 0 .18 0 .35.35 0 0 0 .2-.05l1.85-1.14a6.34 6.34 0 0 1-.37-.66zM19.26 24.16a4.9 4.9 0 1 1 4.9-4.9 4.9 4.9 0 0 1-4.9 4.9zm0-9.06a4.15 4.15 0 1 0 4.15 4.15 4.16 4.16 0 0 0-4.14-4.15zM18.58 21.45a.4.4 0 0 1-.3-.15l-1.36-1.8A.38.38 0 0 1 17 19a.37.37 0 0 1 .52.08l1.06 1.4L21 17.23a.38.38 0 0 1 .53-.07.37.37 0 0 1 .07.53l-2.72 3.62a.37.37 0 0 1-.3.15z" class="cls-1"/></g></g></g></svg>