<svg viewBox="0 0 1188.53 665.72" xmlns="http://www.w3.org/2000/svg" xmlns:xlink="http://www.w3.org/1999/xlink"><linearGradient id="a" gradientTransform="matrix(1 0 0 -1 -5.73 524.44)" gradientUnits="userSpaceOnUse" x1="643.17" x2="643.17" y1="1.89" y2="53.45"><stop offset="0" stop-color="#808080" stop-opacity=".25"/><stop offset=".54" stop-color="#808080" stop-opacity=".12"/><stop offset="1" stop-color="#808080" stop-opacity=".1"/></linearGradient><path d="m775.34 8.08c60.95 18.52 104.15 52 169.7 136.55 48.56 62.64 106.46 127.94 88.41 169.2-3.74 8.54-9.54 13.29-15.51 18.33-75.12 63.49-115.21 97.37-179.81 115.38-82.76 23.07-91.64-11.72-166.47 14.79-32.24 11.42-32.51 18.56-117.73 71.36-82.4 51.06-124.12 76.52-149.73 73.22-34.2-4.4-68.05-48.81-134.27-137.45-52.37-70.1-78.71-105.85-86.36-140.49-8.54-38.66 0-52.44 21.21-172.94 26.44-150.44 157.5-128.22 305.15-118.57 133.41 8.72 163.21-60.46 265.41-29.38z" fill="#335eee" opacity=".1"/><path d="m1046.81 480.61c-60.58 45.28-77.66 124.84-77.66 124.84s81.14 6.14 141.72-39.15 77.66-124.84 77.66-124.84-81.14-6.13-141.72 39.15z" fill="#3f3d56"/><path d="m969.2 604.69s-.89-.5-2.5-1.48c-1.28-.79-3-1.89-5.17-3.3-19-12.54-68.35-49.44-88.58-106.36-25.31-71.27 4.58-147 4.58-147s65.19 36.65 92.88 102.47c1.21 2.83 2.32 5.73 3.37 8.68 22 62 2.26 127.37-3.25 143.3-.83 2.41-1.33 3.69-1.33 3.69z" fill="#335eee"/><path d="m969.49 606.94-.93-.67c-.66-.48-66.41-48.78-83.3-122s21-145.44 21.43-146.16l.54-1 .93.67c.66.48 66.41 48.78 83.3 122 16.89 73.22-21 145.44-21.43 146.16zm-61.57-266.85c-4.56 9.1-36.33 76-20.71 143.73s73.51 113.94 81.59 120.12c4.56-9.1 36.33-76 20.71-143.73-15.62-67.7-73.51-113.94-81.59-120.12z" fill="#3f3d56"/><path d="m970.53 601c-1.48.86-2.77 1.58-3.83 2.18-2.34 1.28-3.63 1.92-3.63 1.92s-.61-1.84-1.54-5.21c-5.13-18.45-19.81-82.73 4.76-141.77q1.94-4.64 4.11-9.08c1.21 2.83 2.32 5.73 3.37 8.68 22.03 62.02 2.23 127.38-3.24 143.28z" opacity=".1"/><path d="m1072.1 501.8c-29.05 69.83-102 105.89-102 105.89s-25.84-77.16 3.21-147 102-105.89 102-105.89 25.84 77.2-3.21 147z" fill="#335eee"/><path d="m888.44 480.79h268.7v2h-268.7z" fill="#3f3d56" transform="matrix(.38687191 -.92213346 .92213346 .38687191 182.86 1238.58)"/><path d="m1177.5 628.21c0 9.36-53.87 17.93-142.93 24.51-16.19 1.19-33.55 2.32-52 3.38q-23.86 1.37-50 2.58-25.34 1.15-52.61 2.14c-57.44 2.09-120.92 3.59-188.37 4.34q-24.55.27-49.77.42-26.25.15-53.11.15c-325.12-.01-588.71-16.8-588.71-37.52s263.59-37.51 588.75-37.51c140 0 268.55 3.12 369.58 8.3l11 .57h.07c127.33 6.91 208.1 17.17 208.1 28.64z" fill="#3f3d56"/><path d="m1177.5 628.21c0 9.36-53.87 17.93-142.93 24.51-16.19 1.19-33.55 2.32-52 3.38q-23.86 1.37-50 2.58-25.34 1.15-52.61 2.14c-57.44 2.09-120.92 3.59-188.37 4.34q-24.55.27-49.77.42-26.25.15-53.11.15c-325.12-.01-588.71-16.8-588.71-37.52s263.59-37.51 588.75-37.51c140 0 268.55 3.12 369.58 8.3l11 .57h.07c127.33 6.91 208.1 17.17 208.1 28.64z" fill="#335eee" opacity=".01"/><path d="m1132.25 621.61c0 7.83-50.22 15-133.25 20.49-15.09 1-31.28 1.93-48.43 2.82q-22.25 1.14-46.62 2.15-23.62 1-49 1.79c-53.55 1.75-112.74 3-175.62 3.63q-22.87.22-46.39.35-24.48.13-49.51.13c-303.14 0-548.88-14-548.88-31.36s245.74-31.36 548.88-31.36c67 0 131.25.69 190.63 2h.15c56.16 1.19 108 2.89 153.77 5l10.3.47a.1.1 0 0 0 .07 0c21 1 40.59 2.12 58.67 3.3h.6c83.84 5.52 134.63 12.71 134.63 20.59z" fill="#335eee" opacity=".4"/><path d="m997 601c-7.43 48.31-54.28 32.12-111 32.12-59.89 0-108.79 18.07-111.84-40.91 56.16 1.19 108 2.89 153.77 5l10.3.47a.1.1 0 0 0 .07 0c20.97 1.03 40.59 2.13 58.7 3.32z" opacity=".1"/><path d="m317.28 586.3c0 17.42-10.35 23.5-23.13 23.5h-.89c-.59 0-1.18 0-1.76-.08-11.5-.83-20.5-7.23-20.5-23.42 0-16.76 21.42-37.91 23-39.48l.09-.09s23.19 22.15 23.19 39.57z" fill="#335eee"/><g fill="#3f3d56"><path d="m293.31 607.13 8.46-11.82-8.48 13.12v1.36c-.59 0-1.18 0-1.76-.08l.91-17.42v-.16l.09-1.65-8.53-13.16 8.53 11.91v.35l.69-13.16-7.22-13.58 7.37 11.28.72-27.29-.12 21.52 7.25-8.53-7.27 10.39-.23 11.79 6.77-11.31-6.79 13-.11 6.55 9.82-15.75-9.86 18z"/><path d="m774 574.12c0-66.27 50.14-120 112-120s112 53.73 112 120-50.14 47-112 47-112 19.27-112-47z"/><path d="m151.38 495.05h2v135.18h-2z"/><circle cx="152.38" cy="495.05" r="19.12"/><path d="m152.38 578.37s-2.73-58.74-58.71-51.91"/></g><path d="m709 517.3c.5 1.76 1.06 3.52 1.65 5.26-2.67-2.62-5.29-5.32-8-7.93 1.07.33 2.14.67 3.15 1.06a19.1 19.1 0 0 1 3.2 1.61zm-12.93-8.76c-15.74-13.68-34-24.27-50.09-37.54 8.81 4.33 17.37 9.38 25.87 14.22q15.12 8.61 30.59 16.56a25 25 0 0 1 -6.36 6.75zm6.73-34.45.75-.77v5.41q-2.11-.7-4.22-1.44a37.24 37.24 0 0 0 3.42-3.2zm-138.61 37a129.41 129.41 0 0 0 16.79-24c6.25 10.91 16.4 18.78 25 27.92-13.86-1.76-27.8-3.27-41.77-3.89z" fill="url(#a)"/><path d="m117.28 612.3c0 17.42-10.35 23.5-23.13 23.5h-.89c-.59 0-1.18 0-1.76-.08-11.5-.83-20.5-7.23-20.5-23.42 0-16.76 21.42-37.91 23-39.48l.09-.09s23.19 22.15 23.19 39.57z" fill="#335eee"/><path d="m93.31 633.13 8.46-11.82-8.48 13.12v1.36c-.59 0-1.18 0-1.76-.08l.91-17.42v-.16l.09-1.65-8.53-13.16 8.53 11.91v.35l.69-13.16-7.22-13.58 7.37 11.28.72-27.29-.12 21.52 7.25-8.53-7.27 10.39-.23 11.79 6.77-11.31-6.79 13-.11 6.55 9.82-15.75-9.86 18z" fill="#3f3d56"/><circle cx="129" cy="463.72" fill="#335eee" r="10"/><path d="m772 323.75s36.28-8 40.28 24-19.27 38-19.27 38l-14.73 4-57-15 8-23z" fill="#2f2e41"/><circle cx="758.92" cy="276.5" fill="#2f2e41" r="49.02"/><path d="m586.65 378.29 9.96 2.01 33.87 50.07-14.94 2.01z" fill="#2f2e41"/><path d="m345.72 581.47a195.67 195.67 0 0 0 9.9 25.85 241.23 241.23 0 0 0 33-9.42c.33-.12-6.18-8.64-6.86-9.34-2.58-2.63-5.92-5.69-9.33-7.18s-7.68-.35-11.36-.17q-7.65.4-15.35.26z" fill="#fbbebe"/><path d="m372.53 594.85c-5.61-1.76-9-7.41-11.31-12.85s-4.13-11.39-8.46-15.39c-1.66.08-3 1.43-3.82 2.88s-1.31 3.09-2.26 4.46c-1.81 2.61-5 3.87-7.25 6.09s-3.68 5.6-6.15 7.83c-3.1 2.8-7.47 3.5-11.53 4.42a74 74 0 0 0 -18 6.69 30.31 30.31 0 0 1 -6.69 3 25.11 25.11 0 0 1 -7.82.26l-18-1.28a14 14 0 0 0 -4.79.21c-3.69 1-6 5.16-5.71 9s2.66 7.29 5.68 9.66a37.83 37.83 0 0 0 10.23 5.17 303.06 303.06 0 0 0 48.15 13.75v3.55a83.16 83.16 0 0 0 36.65 8.53 5.7 5.7 0 0 0 2.74-.48c1.26-.68 1.84-2.16 2.31-3.52a142.48 142.48 0 0 0 7.49-39 29.63 29.63 0 0 0 -.77-10.06c-1-3.23 2.39-1.87-.73-3.14" fill="#2f2e41"/><path d="m716.93 527.15c-53.24 3.19-105.86-12.4-159.17-14.06-6.63-.21-13.33-.19-19.8 1.26-6.85 1.54-13.23 4.64-19.59 7.6-28.59 13.3-58.17 24.32-87.71 35.32l-33.94 12.64c-6.78 2.53-13.81 5.09-21 4.65-3.24-.2-7.21-.69-9 2-5.52 8.18-2.91 20.2.74 29.37 1.18 3 3.19 6.19 6.36 6.53 2.23.24 4.31-1.05 6.48-1.64 6.18-1.65 12.34 2.5 18.69 3.18 7.85.84 15.15-3.64 22.56-6.38 12.29-4.54 25.74-4.4 38.66-6.55 21.67-3.61 41.75-13.67 60.53-25.13 7.15-4.37 14.38-9 22.59-10.64 9.44-1.84 19.14.6 28.4 3.22a655.89 655.89 0 0 1 65.11 22.17c11.21 4.49 22.35 9.3 34 12.41a123 123 0 0 0 76.16-4.43c8.52-3.37 17.78-9.32 18.27-18.52.28-5.24-3.79-9.86-6.5-14.34-1.74-2.87-3.49-5.75-5.38-8.52-9.14-13.43-20.28-31.11-36.46-30.14z" fill="#2f2e41"/><path d="m716.93 527.15c-53.24 3.19-105.86-12.4-159.17-14.06-6.63-.21-13.33-.19-19.8 1.26-6.85 1.54-13.23 4.64-19.59 7.6-28.59 13.3-58.17 24.32-87.71 35.32l-33.94 12.64c-6.78 2.53-13.81 5.09-21 4.65-3.24-.2-7.21-.69-9 2-5.52 8.18-2.91 20.2.74 29.37 1.18 3 3.19 6.19 6.36 6.53 2.23.24 4.31-1.05 6.48-1.64 6.18-1.65 12.34 2.5 18.69 3.18 7.85.84 15.15-3.64 22.56-6.38 12.29-4.54 25.74-4.4 38.66-6.55 21.67-3.61 41.75-13.67 60.53-25.13 7.15-4.37 14.38-9 22.59-10.64 9.44-1.84 19.14.6 28.4 3.22a655.89 655.89 0 0 1 65.11 22.17c11.21 4.49 22.35 9.3 34 12.41a123 123 0 0 0 76.16-4.43c8.52-3.37 17.78-9.32 18.27-18.52.28-5.24-3.79-9.86-6.5-14.34-1.74-2.87-3.49-5.75-5.38-8.52-9.14-13.43-20.28-31.11-36.46-30.14z" opacity=".1"/><path d="m447.94 584.06q12.5 4.27 25.22 7.84c4.75-7.79 13.63-13.22 15.65-22.13a2 2 0 0 0 0-1.19 2 2 0 0 0 -1-.85 47 47 0 0 0 -19.75-5.79c-5.47-.35-8 5.37-10.45 9.38-.96 1.68-7.44 13.5-9.67 12.74z" fill="#fbbebe"/><path d="m459.62 578.37c-4.92-1-9.74-3.68-12.25-8.06-1.18-2.05-2.43-4.82-4.78-4.66-2.18.14-3.18 2.75-3.68 4.89-1.84 8-3.65 16.11-6.87 23.67s-8 14.67-14.73 19.35c-3.09 2.15-6.53 3.75-9.55 6-2.71 2-5.08 4.55-8.07 6.11a45.53 45.53 0 0 1 -6.19 2.31 41.93 41.93 0 0 0 -8.87 4.32 17.84 17.84 0 0 0 -6 5.77 8.46 8.46 0 0 0 -.5 8.07 8.74 8.74 0 0 0 5.91 4 25.3 25.3 0 0 0 7.35.18c9.71-.72 19.4-1.58 29.1-2.44a83.44 83.44 0 0 0 12.2-1.7c2.12-.51 4.2-1.19 6.32-1.74a52.13 52.13 0 0 1 10.99-1.55 9.29 9.29 0 0 1 3.23.3c2.25.73 3.84 3 6.16 3.42a9.78 9.78 0 0 0 4.39-.59c7-1.91 14.33-1.86 21.55-2.25 3.18-.17 6.91-.78 8.37-3.63 1.82-3.56-1.2-7.53-2.4-11.34a34.72 34.72 0 0 1 -1-7.44 45.55 45.55 0 0 0 -5.3-17.68c-2.47-4.54-5.84-9.55-4.11-14.42.59-1.65 1.76-3.19 1.64-4.94-.53-7.7-18.45-5.01-22.91-5.95z" fill="#2f2e41"/><path d="m637.09 441.74a41.67 41.67 0 0 1 -21.21-21.07c-.89-2-1.62-4.13-2.48-6.17a46.9 46.9 0 0 0 -12.68-17.61c-1.39-1.18-3-2.3-4.71-2s-2.9 1.9-3.46 3.71a15.12 15.12 0 0 0 -.35 5.69 101.87 101.87 0 0 0 2.31 13.31l2.58 11.76a22.52 22.52 0 0 0 1.61 5.25 18.48 18.48 0 0 0 4.33 5.18q3.54 3.26 7.19 6.34a20.08 20.08 0 0 0 12.46 5.54c10.57 2 21.33 4.78 30.25 11.68-.1-.08 0-7.89-.19-8.78-.41-2.37-.73-4.71-2.27-6.31-3.47-3.59-9.16-4.65-13.38-6.52z" fill="#fbbebe"/><path d="m637.09 441.74a41.67 41.67 0 0 1 -21.21-21.07c-.89-2-1.62-4.13-2.48-6.17a46.9 46.9 0 0 0 -12.68-17.61c-1.39-1.18-3-2.3-4.71-2s-2.9 1.9-3.46 3.71a15.12 15.12 0 0 0 -.35 5.69 101.87 101.87 0 0 0 2.31 13.31l2.58 11.76a22.52 22.52 0 0 0 1.61 5.25 18.48 18.48 0 0 0 4.33 5.18q3.54 3.26 7.19 6.34a20.08 20.08 0 0 0 12.46 5.54c10.57 2 21.33 4.78 30.25 11.68-.1-.08 0-7.89-.19-8.78-.41-2.37-.73-4.71-2.27-6.31-3.47-3.59-9.16-4.65-13.38-6.52z" opacity=".1"/><ellipse cx="745.52" cy="338.73" fill="#2f2e41" rx="12.95" ry="13.02"/><path d="m737.51 330.87c-3.52-.39-7.42-.68-10.24 1.47a14 14 0 0 0 -3.5 4.77c-2.71 5.08-5.38 10.26-6.74 15.86-1.16 4.75-1.35 9.72-2.78 14.4-2.66 8.67-9.46 16-10.24 25-.35 4 .33 8.78-2.62 11.55a17.35 17.35 0 0 1 -2.33 1.65 17.6 17.6 0 0 0 -5.1 5.24c-1.11 1.76-2 3.77-3.62 5-2.63 2-7 1.75-8.3 4.77s2.05 6.56 1.27 9.84c-.64 2.68-3.62 3.9-5.68 5.72-2.63 2.33-3.84 5.85-4.93 9.2a30.53 30.53 0 0 1 -24.78-6.18c3.61 8.9 3.69 18.73 3.85 28.34.05 3.12 0 6.62-2.27 8.79 10.31.22 20.36 3 30.42 5.29 4.4 1 9.17 1.86 13.27 0a21.65 21.65 0 0 0 6.08-4.83c5.47-5.55 11.21-11.6 12.55-19.3.75-4.31 0-8.74.22-13.11.25-5.42 1.9-10.66 3.32-15.89a187.53 187.53 0 0 0 5.82-32.73c.6-6.82 6.49-12.32 9.59-18.42 5.86-11.51 11.84-23.51 12.29-36.43.15-4.3-1.28-9.53-5.55-10z" fill="#2f2e41"/><path d="m737.51 330.87c-3.52-.39-7.42-.68-10.24 1.47a14 14 0 0 0 -3.5 4.77c-2.71 5.08-5.38 10.26-6.74 15.86-1.16 4.75-1.35 9.72-2.78 14.4-2.66 8.67-9.46 16-10.24 25-.35 4 .33 8.78-2.62 11.55a17.35 17.35 0 0 1 -2.33 1.65 17.6 17.6 0 0 0 -5.1 5.24c-1.11 1.76-2 3.77-3.62 5-2.63 2-7 1.75-8.3 4.77s2.05 6.56 1.27 9.84c-.64 2.68-3.62 3.9-5.68 5.72-2.63 2.33-3.84 5.85-4.93 9.2a30.53 30.53 0 0 1 -24.78-6.18c3.61 8.9 3.69 18.73 3.85 28.34.05 3.12 0 6.62-2.27 8.79 10.31.22 20.36 3 30.42 5.29 4.4 1 9.17 1.86 13.27 0a21.65 21.65 0 0 0 6.08-4.83c5.47-5.55 11.21-11.6 12.55-19.3.75-4.31 0-8.74.22-13.11.25-5.42 1.9-10.66 3.32-15.89a187.53 187.53 0 0 0 5.82-32.73c.6-6.82 6.49-12.32 9.59-18.42 5.86-11.51 11.84-23.51 12.29-36.43.15-4.3-1.28-9.53-5.55-10z" opacity=".1"/><path d="m725.38 538.37c-11.09-5.28-19.2-15.11-28.17-23.53-17.12-16.07-38-27.45-56-42.52-11.93-10-22.6-21.62-35.7-30a88.88 88.88 0 0 0 -38.24-13.4 10.77 10.77 0 0 0 -4.68.23 11.09 11.09 0 0 0 -4.35 3.44 136.17 136.17 0 0 0 -15.41 21.19c-22.83 38.75-55.26 71.31-82.11 107.32a4.81 4.81 0 0 0 -.32 6.5l5.46 10.7c3.06 6 8 13 14.54 11.77 3-.54 5.41-2.76 7.63-4.88l24.51-23.43 25.7-24.57c15.06-14.39 30.37-29.12 40.19-47.54 7.67 13.31 21.28 22 30.62 34.2 3.55 4.63 6.45 9.73 9.62 14.63 5.08 7.86 10.86 15.24 16.64 22.61l29.48 37.63c4 5.13 8.15 10.37 13.65 13.85 7 4.42 15.47 5.59 23.69 6.32a313.6 313.6 0 0 0 33.31 1.2c8.48-.14 17.22-.7 24.82-4.47s13.85-11.49 13.46-20c-.21-4.43-2.13-8.58-4.25-12.47-10.52-19.31-24.29-35.36-44.09-44.78z" fill="#2f2e41"/><ellipse cx="753.49" cy="347.75" fill="#2f2e41" rx="9.96" ry="10.02"/><path d="m751.29 340.22c2.43 4.29 2.43 9.62 1.09 14.37s-3.89 9-6.41 13.27-5 8.37-8.33 11.88c15.37.74 30.28-5.29 43.85-12.6 10.91-5.87 21.81-13.14 27.63-24.14-3.41 1-7.16 0-10.18-1.88a37.87 37.87 0 0 1 -7.8-7.26l-7.72-8.68a34.65 34.65 0 0 1 -4.75-6.23 17.52 17.52 0 0 1 -2-10.07 57.58 57.58 0 0 1 -10.21 8.48c-5.51 3.59-11.59 6.19-17.11 9.76-2 1.27-6.32 3.3-5.19 5.86s5.57 4.5 7.13 7.24z" fill="#fbbebe"/><path d="m751.29 340.22c2.43 4.29 2.43 9.62 1.09 14.37s-3.89 9-6.41 13.27-5 8.37-8.33 11.88c15.37.74 30.28-5.29 43.85-12.6 10.91-5.87 21.81-13.14 27.63-24.14-3.41 1-7.16 0-10.18-1.88a37.87 37.87 0 0 1 -7.8-7.26l-7.72-8.68a34.65 34.65 0 0 1 -4.75-6.23 17.52 17.52 0 0 1 -2-10.07 57.58 57.58 0 0 1 -10.21 8.48c-5.51 3.59-11.59 6.19-17.11 9.76-2 1.27-6.32 3.3-5.19 5.86s5.57 4.5 7.13 7.24z" opacity=".1"/><path d="m751.5 341.74c-2.89 4.86-3.51 10.6 0 15 .44.55 2.06 4 2.76 4a2.61 2.61 0 0 0 1.75-.89c3.73-3.41 6.47-7.77 9.75-11.62s7.42-7.37 12.4-8.15c6-.94 11.83 2.25 17.1 5.33 2.19 1.28 4.46 2.63 5.84 4.77a15.61 15.61 0 0 1 1.92 6.51c1.82 13.71 1.78 27.58 1.74 41.41 0 10-.07 20.06-2 29.87-1 5.07-2.45 10.05-3.14 15.17a101.82 101.82 0 0 0 -.62 13.61v19a49 49 0 0 0 .74 10.43c.9 4.17 2.88 8 4.2 12.08a79.67 79.67 0 0 1 2.78 14.27l2.6 19.71c.82 6.21 1.43 13-2.33 18-1.7 2.26-3.93 4.07-5.65 6.31-6.42 8.45-4.34 20.45-7.04 30.65a38.36 38.36 0 0 1 -12.49 19.15c-4.6 3.91-10.55 7-16.47 5.89-8-1.49-12.81-9.83-15-17.71s-3-16.46-7.7-23.12c-3.86-5.44-9.84-8.86-15.24-12.74s-10.69-8.89-11.87-15.46c-.51-2.87-.19-5.83-.5-8.73a20.66 20.66 0 0 0 -12.75-16.74c-4.1-1.59-9.15-2.16-11.46-5.92 6-3.36 9.91-9.56 12-16.09s2.51-13.47 2.92-20.32l1.37-22.9c.61-10.23.89-20.37 5.4-29.57 2-4.11 4.52-8 6.62-12a135.3 135.3 0 0 0 7.09-17.65c3.27-9.38 6.53-18.77 9.45-28.27 1.39-4.53 2.72-9.14 5.19-13.17s6.01-9.24 10.64-10.11z" fill="#335eee"/><path d="m700.65 490.5 6.06.22 1.29-9.16a19.19 19.19 0 0 1 1.28-5.34 33 33 0 0 1 3.48-5.1c6-8.42 5.53-19.61 7-29.85 2-13.65 7.67-26.43 13.31-39l11.76-26.22a28.41 28.41 0 0 0 3.25-14.47c.1-4.05 1.3-18.8 1.41-22.85 0-1.5-3.31-.67-4-2-1.48-2.91-3.49 5-6.25 6.71s-4.28 4.87-5.44 7.92c-2.53 6.6-4.08 13.55-6.45 20.22s-5.67 13.22-11 17.86c-2.41 2.11-5.2 3.78-7.48 6-7.32 7.24-8 18.66-8.29 29-.1 6.15-1.28 66.06.07 66.06z" fill="#2f2e41"/><path d="m787.88 330.8c-5.89 2.31-9.11 8.7-10.77 14.83s-2.33 12.67-5.49 18.17c-7.39 12.86-26.23 16.61-31.44 30.51-1.71 4.55-1.63 9.54-2.09 14.37-.95 10-4.22 19.58-5.19 29.53-.75 7.71-.1 15.49.54 23.21l6.56 78.58c1 11.34.93 23.53-2 34.53 6.67 1.3 13.6-.44 19.78-3.26s11.83-6.69 17.78-10c10.24-5.65 21.53-9.65 30.49-17.17a17.72 17.72 0 0 0 4.11-4.54c1.8-3.11 1.94-6.86 2.8-10.35a56.74 56.74 0 0 1 3-8.13 242.35 242.35 0 0 0 8.57-24.21 133.81 133.81 0 0 0 3.94-16.63c.72-4.48 1.11-9 1.49-13.52a80.87 80.87 0 0 1 4.18-20.76 166.31 166.31 0 0 0 9.62-49.75 25.14 25.14 0 0 0 -.49-7.32c-.78-3-2.54-5.59-4-8.31-2.74-5.15-4.38-10.83-7-16.06-5.84-11.83-16.14-20.79-26.94-28.31-5.24-3.7-11.45-7.77-17.45-5.41z" fill="#2f2e41"/><path d="m650.21 458.92c-4.56-2.65-9.11-5.51-12.54-9.53-1.64-1.92-3-4.09-4.67-6-4.06-4.62-9.82-7.49-15.77-9s-12.14-1.73-18.28-1.78c-4.11 0-8.31 0-12.15 1.48s-7.31 4.58-8.05 8.64c-.89 4.88 2.3 9.64 6.13 12.78a29.53 29.53 0 0 0 12.25 5.95 98.29 98.29 0 0 0 11.08 1.3c21.8 2.28 41.26 14.15 60.36 25q25.17 14.24 51.32 26.62a102.37 102.37 0 0 0 .86-15.75c-.09-3.93-.28-9.93-4-12.24-4.33-2.69-11.45-3.31-16.33-4.91a262.16 262.16 0 0 1 -32.84-13.29q-8.86-4.31-17.37-9.27z" fill="#fbbebe"/><ellipse cx="745.52" cy="296.67" fill="#fbbebe" rx="38.85" ry="39.06"/><path d="m799 375.09c-3.47 4-5.21 9.26-7.54 14.06-4.8 9.88-12.32 18.36-16.09 28.67-4 10.89-3.84 23.84-11.63 32.39-1.35 1.49-3 2.92-3.38 4.9-.23 1.17 0 2.43-.4 3.56-1.12 3.11-6.2 3.26-7.15 6.43-.28.93-.12 2-.47 2.85-.78 2-3.48 2.36-5.29 3.58-3.77 2.56-3 8.5-5.7 12.19-2.13 2.92-6.14 3.89-9.71 3.4s-6.83-2.2-10.08-3.76a9.17 9.17 0 0 0 -3.62-1.14 7.61 7.61 0 0 0 -4.18 1.43c-7.18 4.56-10.54 13.6-10.49 22.14s3 16.76 6 24.75a10.65 10.65 0 0 0 2 3.69c2.38 2.52 6.52 2.11 9.68.71s6-3.6 9.43-4.22c6-1.09 11.89 3 18 2.7 4.47-.25 8.42-2.85 12.13-5.36 5.92-4 12-8.12 16.31-13.81 2.67-3.49 4.62-7.46 6.95-11.18a129.19 129.19 0 0 1 9.81-13.1l22.4-27.42a44.32 44.32 0 0 0 10.73-20.84c2.13-7.31 4.27-14.7 4.64-22.3.3-6.26-.61-12.51-1.63-18.69s-2.15-12.24-4.82-17.79c-4.9-10.14-16.77-18.51-25.9-7.84z" fill="#2f2e41"/><circle cx="812.02" cy="211.95" fill="#2f2e41" r="49.02"/><path d="m854.31 252.54a49 49 0 0 1 -75.71-25.74 49 49 0 1 0 95.63-20.1 49 49 0 0 1 -19.92 45.84z" fill="#2f2e41"/><circle cx="771.99" cy="284.67" fill="#2f2e41" r="35.95"/><ellipse cx="741.76" cy="271.19" fill="#2f2e41" rx="31.87" ry="24.92"/><ellipse cx="749.27" cy="310.22" fill="#fbbebe" rx="5" ry="7.5" transform="matrix(.77582621 -.63094666 .63094666 .77582621 -27.78 542.26)"/><path d="m714.28 628.3c0 17.42-10.35 23.5-23.13 23.5h-.89c-.59 0-1.18 0-1.76-.08-11.5-.83-20.5-7.23-20.5-23.42 0-16.76 21.42-37.91 23-39.48l.09-.09s23.19 22.15 23.19 39.57z" fill="#335eee"/><path d="m690.31 649.13 8.46-11.82-8.48 13.12v1.36c-.59 0-1.18 0-1.76-.08l.91-17.42v-.16l.09-1.65-8.53-13.16 8.53 11.91v.35l.69-13.16-7.22-13.58 7.37 11.28.72-27.29-.12 21.52 7.25-8.53-7.27 10.39-.23 11.79 6.77-11.31-6.79 13-.11 6.55 9.82-15.75-9.86 18z" fill="#3f3d56"/></svg>