<svg xmlns="http://www.w3.org/2000/svg" width="726.63" height="598.15" xmlns:xlink="http://www.w3.org/1999/xlink"><linearGradient id="b" x1="362.32" x2="379.08" y1="84.46" y2="84.46" gradientTransform="matrix(1 0 0 -1 -55.95 599.59)" gradientUnits="userSpaceOnUse"><stop offset="0" stop-color="#183866"/><stop offset="1" stop-color="#1a7fc1"/></linearGradient><linearGradient id="a" x1="402.86" x2="410.55" y1="82.34" y2="82.34" gradientTransform="matrix(1 0 0 -1 -55.95 599.59)" gradientUnits="userSpaceOnUse"><stop offset="0"/><stop offset=".99" stop-opacity="0"/></linearGradient><linearGradient id="d" x1="420.02" x2="465.77" y1="95.05" y2="115.48" xlink:href="#a"/><linearGradient id="e" x1="419.3" x2="363.69" y1="154.46" y2="135.81" xlink:href="#a"/><linearGradient id="f" x1="450.15" x2="307.62" y1="94.12" y2="46.31" xlink:href="#a"/><linearGradient id="g" x1="454.97" x2="450.03" y1="79.65" y2="77.99" xlink:href="#a"/><linearGradient id="h" x1="400.43" x2="357.12" y1="93.82" y2="105.59" xlink:href="#a"/><linearGradient id="i" x1="752.82" x2="-22.22" y1="149.25" y2="111.97" xlink:href="#a"/><linearGradient id="j" x1="319.83" x2="714.72" y1="269.82" y2="269.82" xlink:href="#b"/><linearGradient id="k" x1="456.76" x2="498.43" y1="268.17" y2="435.22" xlink:href="#a"/><linearGradient id="l" x1="388.4" x2="528.43" y1="294.66" y2="341.59" xlink:href="#a"/><linearGradient id="m" x1="387.95" x2="384.29" y1="329.7" y2="356.31" xlink:href="#a"/><linearGradient id="n" x1="189.55" x2="121.95" y1="23.69" y2="21.11" xlink:href="#a"/><linearGradient id="o" x1="199.83" x2="143.82" y1="54.7" y2="52.77" xlink:href="#a"/><linearGradient id="p" x1="90.26" x2="61.93" y1="102.87" y2="-33.61" gradientTransform="matrix(1 0 0 -1 -.01 600)" xlink:href="#a"/><linearGradient id="q" x1="133.44" x2="76.41" y1="70.6" y2="330.72" xlink:href="#a"/><linearGradient id="r" x1="136.63" x2="129.97" y1="65.37" y2="95.76" xlink:href="#a"/><linearGradient id="s" x1="128.63" x2="192.61" y1="51.78" y2="270.81" xlink:href="#a"/><linearGradient id="c" x1="391.94" x2="452.67" y1="480.61" y2="480.61" gradientTransform="matrix(1 0 0 -1 -55.95 599.59)" gradientUnits="userSpaceOnUse"><stop offset="0" stop-color="#ecc4d7"/><stop offset=".42" stop-color="#efd4d1"/><stop offset="1" stop-color="#f2eac9"/></linearGradient><linearGradient id="t" x1="404.28" x2="460.78" y1="269.89" y2="269.89" xlink:href="#c"/><linearGradient id="u" x1="487.03" x2="532.04" y1="288.1" y2="288.1" xlink:href="#c"/><linearGradient id="v" x1="786.69" x2="536.94" y1="334.77" y2="500.11" xlink:href="#a"/><linearGradient id="w" x1="743.88" x2="570.27" y1="245.64" y2="407.53" xlink:href="#a"/><linearGradient id="x" x1="452.25" x2="450.57" y1="77.42" y2="76.86" xlink:href="#a"/><path fill="#335eee" d="M537.73 103.94C515.55 78.7 498.38 48.6 471.87 28 430.23-4.4 370.3-7.57 321.6 12.8S235 74.2 210 120.65c-13.16 24.45-23.5 51.12-42.76 71.1-16.3 16.88-37.7 27.65-58 39.38C76.5 250 45 272.8 23.8 304.06S-6.83 376.4 6.7 411.64c9.13 23.78 27.52 42.7 46.36 59.83 22.17 20.14 46 39 73.5 51C161 537.4 199.2 540.6 236.7 542.13a1414.92 1414.92 0 0 0 199.15-6c54.18-5.46 110-14.78 155.33-44.95 63.5-42.25 96.24-119.66 103.6-195.57 3-30.35 2.25-61.9-9.47-90.07-28.02-67.38-103.65-51.62-147.57-101.6z" opacity=".18"/><path fill="#3f3d56" d="M268.85 239.22s-25.13-4.42-32.17 13 0 77.58 0 77.58l93.76 66.38z"/><path fill="#335eee" d="M387 507.15l-36.38 10.77a10 10 0 0 1-12.4-6.74 10 10 0 0 1 6.74-12.4L381.28 488a10 10 0 0 1 12.4 6.73 10 10 0 0 1-6.7 12.42z"/><circle cx="384.94" cy="530.18" r="16.76" fill="#25233a"/><circle cx="381.92" cy="531.71" r="8.38" fill="#3f3d56"/><circle cx="317.75" cy="513.62" r="16.76" fill="#25233a"/><path fill="url(#b)" d="M323.13 515.13a8.38 8.38 0 1 1-8.38-8.38 8.38 8.38 0 0 1 8.38 8.38z" transform="translate(-.01)"/><circle cx="312.9" cy="536.54" r="16.76" fill="#25233a"/><path fill="#3f3d56" d="M326.14 537.1a8.38 8.38 0 1 1-8.38-8.38 8.38 8.38 0 0 1 8.38 8.38z"/><path fill="#335eee" d="M388.3 523.6l-76.64-15.48a10 10 0 0 1-7.8-11.76 10 10 0 0 1 11.75-7.8L392.27 504a10 10 0 0 1 7.8 11.76 10 10 0 0 1-11.75 7.83zM341.06 403.17H362v88.15a10.46 10.46 0 0 1-10.47 10.46 10.46 10.46 0 0 1-10.46-10.46v-88.15zM348.57 517.8l-36.36 10.8a10 10 0 0 1-12.4-6.75 10 10 0 0 1 6.74-12.4l36.36-10.76a10 10 0 0 1 12.4 6.72 10 10 0 0 1-6.73 12.38z"/><path fill="url(#a)" d="M354.6 516.73l-4 1.2a9.94 9.94 0 0 1-3.68.36l1.67-.5a9.74 9.74 0 0 0 3.2-1.63z" transform="translate(-.01)"/><path fill="url(#d)" d="M394.1 497.6a9.93 9.93 0 0 1-2.25 6.3l-31.8-6.44a10.3 10.3 0 0 0 1.7-3.64l19.6-5.8a10 10 0 0 1 12.37 6.84 10.12 10.12 0 0 1 .4 2.73z" transform="translate(-.01)"/><path fill="url(#e)" d="M341.34 493.7a10.6 10.6 0 0 1-.27-2.38v-88.15h7.27v95a3.48 3.48 0 0 0 .07 1.4 9.47 9.47 0 0 0-3.47-.77 17.94 17.94 0 0 0-2.54 0l.5-.15c.33-.06-1.14-3.15-1.56-4.95z" opacity=".31" transform="translate(-.01)"/><path fill="url(#f)" d="M395.05 522.5a9.82 9.82 0 0 1-4.77 1.24 10.36 10.36 0 0 1-2-.2l-33.72-6.8-2.8-.57a9.74 9.74 0 0 1-3.22 1.63l-1.67.5-34.65 10.3a10 10 0 0 1-12.4-6.75 8.54 8.54 0 0 0 10.86.62c4.23-2.93 21.07-7.33 30.6-9.67a11.72 11.72 0 0 0 8.8-9.27 6.7 6.7 0 0 1 .13-.8c1.6 1.72 4.52 3.65 9.8 5.3 13 4 34.1 6.64 34.1 6.64s3.82 3.74.95 7.84z" opacity=".31" transform="translate(-.01)"/><path fill="url(#g)" d="M398.67 519.15a9.82 9.82 0 0 1-2.5 2.65c.68-.7 1.54-1.6 2.5-2.65z" transform="translate(-.01)"/><path fill="url(#h)" d="M341.34 493.7a10.4 10.4 0 0 0 2.52 4.74c-.3.06-.63.14-.95.23L311.4 508a10 10 0 0 1 2.23-19.7 10.36 10.36 0 0 1 2 .2z" transform="translate(-.01)"/><path fill="#3f3d56" d="M389.9 69.1s-.42-31.1-25.33-28.4-23-7.62-33.64-6.5-23 11.64-19.45 24.6-9.4 15.88-17.9 25.72 2 17.9 16.33 27.5-.88 7.14 7.6 22.35 37.24-4.22 37.24-4.22z"/><path fill="#335eee" d="M186.7 589.1l17.67.6V448.6s.9-36.5 35.33-40.16 346.78-48.87 346.78-48.87 12.38-1.3 19.5 22.43 14.08 117.1 14.08 117.1l95.87 12.9s2.53-164.9-32.1-174-487.36 37.27-487.36 37.27S162.9 550.4 186.7 589.1z"/><path fill="url(#i)" d="M186.7 589.1l17.68.6V448.6s.9-36.5 35.33-40.16 346.8-48.87 346.8-48.87 12.37-1.3 19.5 22.43 14.07 117.1 14.07 117.1l95.87 12.9s2.53-164.9-32.1-174-487.36 37.27-487.36 37.27S162.9 550.4 186.7 589.1z" transform="translate(-.01)"/><path fill="#335eee" d="M93.46 392.6s8.66-47.93 69.57-60.5L593 282.86s42.2-1.75 61.5 9.94 46.88 21.37 58.18 74.27 14 143.27 14 143.27l-10.7 1.66s-15.6-163.64-32.12-174-463.46 53.2-463.46 53.2-31 6.17-33.7 52.1 0 145.8 0 145.8l-93.24-37.65z"/><path fill="url(#j)" d="M535.82 301.3c-22.25-2.9-44.68-5-67.1-4.16-16.85.66-33.6 3-50.3 5.33l-147.37 20.6c-2.5.36-5.35.93-6.6 3.13-2.4 4.2 3.24 8.34 7.8 9.94 49 17.18 101.36 34.58 151.8 22.33 23.06-5.6 44.48-17.23 67.87-21.27s47.4-.32 70.74-4.13c21.94-3.58 42.83-13.75 65.07-13.85 6.82 0 13.84.88 20.3-1.28s12.2-8.76 10.4-15.34c-20.87-.73-44.3-4.6-64.8-.4-20.26 4.14-37.5-.9-57.8-.9z" opacity=".19" transform="translate(-.01)"/><path fill="#335eee" d="M402.54 326.4l.86 3.3s25.46 15.83 25.3 16.34 105.6-25.27 105.6-25.27l2.47-7.4z"/><path fill="url(#k)" d="M402.55 326.4l.86 3.3s25.47 15.83 25.3 16.34 105.62-25.27 105.62-25.27l2.46-7.4z" transform="translate(-.01)"/><path fill="#335eee" d="M404.92 326.4l93.04-20.96 38.8 7.93-105.7 26.6z"/><path fill="url(#l)" d="M404.92 326.4l93.04-20.96 38.8 7.93-105.7 26.6z"/><path fill="#335eee" d="M375.63 343l22.1.74s5.6.33 7.05-3.93-9-13.24-10.12-13.4-30.2 7.54-26 15.26z"/><path fill="url(#m)" d="M375.64 343l22.1.74s5.6.33 7.05-3.93-9-13.24-10.13-13.4-30.2 7.54-26 15.26z" transform="translate(-.01)"/><path fill="#335eee" d="M120.3 560.6l-10.75 32.63c-31.18 11.07-57.7 0-57.7 0L44.16 559s38.9 12.9 76.15 1.6z"/><path fill="url(#n)" d="M120.3 560.6l-10.74 32.63c-31.18 11.07-57.7 0-57.7 0L44.17 559s38.9 12.9 76.15 1.6z" transform="translate(-.01)"/><path fill="#335eee" d="M132.5 530.2l-3.46 25.8-8.74 4.58C83.07 571.88 44.15 559 44.15 559l-6.7-5-3.14-23.8z"/><path fill="url(#o)" d="M132.5 530.2l-3.45 25.8-8.74 4.58C83.1 571.88 44.17 559 44.17 559l-6.7-5-3.14-23.8z" transform="translate(-.01)"/><ellipse cx="83.39" cy="530.2" fill="#335eee" rx="49.08" ry="8.83"/><ellipse cx="83.39" cy="530.2" fill="url(#p)" rx="49.08" ry="8.83"/><path fill="#335eee" d="M60.04 333.18c-4.82-2.28-10-4-14.17-7.33-8.4-6.77-10.53-18.43-13.16-28.9S25 275 14.63 272c-3.88-1.1-8.43-.67-11.38 2.1C.14 277-.5 281.77.34 286s2.93 8 4.53 12a55.17 55.17 0 0 1 3.3 29.3c-1.32 8.12-4.45 16.34-2.44 24.3 3.4 13.48 20.4 21.4 20.87 35.3.32 9.37-7.4 18.05-5.65 27.28 1.3 6.83 7.58 12.16 7.92 19.1.38 7.87-7.06 14.53-6.7 22.4S30.4 468.8 35.52 475a32.17 32.17 0 0 1 7.3 18.35c.28 4.2-.26 8.55 1.1 12.53 1 2.9 3 5.38 4.56 8 1.7 2.83 3 5.9 5.06 8.5a20.82 20.82 0 0 0 22.3 7c1.6-10.45.2-21.12.64-31.7.87-20.47 8.62-41.1 3.66-61-1.82-7.28-5.32-14.2-5.94-21.68-.55-6.68 1.23-13.3 2.47-19.9 2.56-13.6 2.52-27.67 1.47-41.43-.83-10.92-8.5-15.95-18.1-20.5zM90.7 386.82c-.1 9.13 2 18.57-.93 27.24-2.2 6.57-7.07 11.95-9.58 18.4-5.8 14.92 2 31.64.4 47.56-.66 6.56-2.9 12.86-4.33 19.3A77.3 77.3 0 0 0 75 524.15a6.28 6.28 0 0 0 5 6.54 78 78 0 0 0 15.14 4.08 40.18 40.18 0 0 1 5.18-28c7.93-13 23.34-21.76 26.2-36.7 1.95-10.1-2.57-20.36-2.25-30.65a33 33 0 0 1 6.74-18.9c3.74-4.86 8.8-8.62 12.26-13.66 8.34-12.15 5.74-28.4 3.26-42.92s-3.92-31.25 5.88-42.26c3.1-3.5 7.14-6.1 9.95-9.82 6.26-8.3 4.68-21.06-2.6-28.47s-19-9.45-28.9-6.2a20.84 20.84 0 0 0-10.54 7.18c-5 7.1-3 16.8-.87 25.24 1.85 7.33 3.34 15.8.8 23.18-1.88 5.5-6.67 8.48-10.74 12.3a58.64 58.64 0 0 0-18.8 41.72z"/><path fill="url(#q)" d="M80.37 467.72c-1.42 9.92-3.47 19.92-3.9 29.87v1a2.63 2.63 0 0 1-.16.7 77.3 77.3 0 0 0-1.3 24.84 9.4 9.4 0 0 0 1 3.86c-.05.42-.1.83-.17 1.25a20.82 20.82 0 0 1-22.3-7c-2-2.62-3.35-5.68-5.06-8.5-1.6-2.64-3.55-5.1-4.55-8-1.37-4-.83-8.34-1.1-12.54a32.17 32.17 0 0 0-7.3-18.34c-5.14-6.15-13-11.3-13.36-19.3s7.08-14.54 6.7-22.4c-.34-6.95-6.63-12.28-7.92-19.1-1.75-9.24 6-17.92 5.65-27.3-.48-13.9-17.47-21.8-20.88-35.3-2-7.95 1.12-16.17 2.43-24.28A55.17 55.17 0 0 0 4.9 297.9c-1.6-4-3.67-7.77-4.52-12s-.22-9 2.9-11.92c3-2.76 7.5-3.2 11.37-2.1 10.38 3 15.45 14.55 18.1 25S37.5 319 45.9 325.8c4.15 3.35 9.35 5.05 14.17 7.33 9.6 4.55 17.28 9.58 18.1 20.4 1 13.76 1.1 27.83-1.47 41.44-1.24 6.6-3 13.2-2.47 19.9s3.44 13 5.34 19.47c.2.74.42 1.48.6 2.22 2.52 10.3 1.7 20.7.2 31.2z" transform="translate(-.01)"/><path fill="url(#r)" d="M76.05 528a9.4 9.4 0 0 1-1.05-3.85 77.3 77.3 0 0 1 1.33-24.83c.05-.24.1-.48.17-.72-.36 9.82.78 19.72-.45 29.4z" transform="translate(-.01)"/><path fill="url(#s)" d="M162.22 311.83c-2.8 3.72-6.85 6.33-9.95 9.8-9.8 11-8.36 27.74-5.88 42.27s5.07 30.77-3.27 42.92c-3.47 5-8.52 8.8-12.25 13.66a33 33 0 0 0-6.74 18.9c-.32 10.3 4.2 20.55 2.26 30.66-2.87 14.93-18.28 23.7-26.2 36.7a40.24 40.24 0 0 0-5.15 28 77.6 77.6 0 0 1-15.1-4.1 8.14 8.14 0 0 1-3.53-2.13 3.77 3.77 0 0 1-.37-.5 9.4 9.4 0 0 1-1.05-3.85 77.3 77.3 0 0 1 1.33-24.83c.05-.24.1-.48.17-.72 1.42-6.2 3.52-12.26 4.16-18.58a60.2 60.2 0 0 0-.24-12.3c1.5-10.5 2.32-20.9-.23-31.13-.2-.75-.4-1.5-.6-2.22.18-.64.4-1.28.65-1.9 2.5-6.47 7.37-11.85 9.58-18.42 2.9-8.67.84-18.1.92-27.24.13-15.77 7.24-31 18.66-41.76 4.08-3.83 8.87-6.8 10.76-12.3 2.53-7.4 1-15.86-.8-23.2-2.14-8.43-4.16-18.13.87-25.23 2.5-3.52 6.44-5.8 10.54-7.17 9.86-3.26 21.63-1.2 28.9 6.2s8.8 20.23 2.55 28.47z" transform="translate(-.01)"/><path fill="#335eee" d="M339.46 155s-42.07 6.43-61.53 52.3-9.34 102.7-9 107.7 59.63 26.7 76.58 26.7 20.5-16.8 20.5-16.8l-29.96-12.6 91-10.4h16.34l-9 15s17.76 1.84 29.63 2.26 19.94-22.8 21.27-34.33S432.84 172 424.8 166s-29.8-20.66-85.34-11z"/><path fill="url(#c)" d="M389.9 69.1s7.45 4.24 6.78 18-4.87 34.43-9.1 39.8-19.08 7.45-19.08 7.45 8.1 19.5 14.1 24.52-6.04 23.56-17.78 17.48S339.47 155 339.47 155s9.8-18.4 6.48-28.07S330 83.28 339.47 74s29.9-22.58 50.43-4.9z" transform="translate(-.01)"/><path fill="#fff" d="M322.43 221.03l-6.6 80.87L336 312.3l16.38-2.82-20.45-24.7zM428.7 217s26.35 62.7 14.67 84.95l-9-1.73z" opacity=".25"/><path fill="url(#t)" d="M355.05 322s-10.06 9-5.57 16 9.85 6.8 14.32 3.67 13.25-10.56 23.7-7.15 13 5.58 13 5.58 5.52-3.6 4.1-7.23-12.38-15.35-15.55-16.87-16.33 3.15-16.33 3.15-9.67-2.74-17.67 2.85z" transform="translate(-.01)"/><path fill="url(#u)" d="M446.37 305.1s-9.58 1.1-12 7.2-3.3 6.8-3.3 6.8 5.42 1 7.67-1.82 4.6-1.64 4.6-1.64l-.68 3.63s14.7 2.14 21.34-.16 9.5-5 9.5-5l2.6-6.13s-6.28-4.4-11-5.07-18.73 2.2-18.73 2.2z" transform="translate(-.01)"/><path fill="#25233a" d="M495 372.72s32.62 24.84 29.72 58.44-7.16 83.5-7.16 83.5-13.16 5.53-21.88 0-14-81.36-18.32-88.6-30.3-39.88-58.08-42.7z"/><path fill="#3f3d56" d="M330.44 396.14s15.73 15 43.77 19.7 41.12 8.65 49.7 32.76 16.78 76 19.47 81.8 14.13 2.84 14.13 2.84 6.47-7.42 6.47-48.68c0-57.52 4-69.3-10.4-83.76s-27.53-18.4-27.53-18.4z"/><path fill="#25233a" d="M443.37 530.4l2.67 21.05h5s32.2 1.76 33.2 1-1.54-16.67-13.74-16.22-13-3-13-3zM499.6 516.38l5.2 20.72 56.83-7.8s2-13.6-16-12.26c-4.75.35-8.3 3.7-14 3.72s-11.18-2.3-14.06-6.1z"/><path fill="#335eee" d="M697.74 255.72l-215.07 11.52a9.44 9.44 0 0 1-9.92-8.92c0-.16 0-.33 0-.5v-152.4a11.35 11.35 0 0 1 11.1-11.34l214.2-4.42a10.36 10.36 0 0 1 10.57 10.15v144.45a11.5 11.5 0 0 1-10.88 11.47zM707.66 255.72L492.6 267.24a9.44 9.44 0 0 1-9.92-8.93c0-.15 0-.3 0-.47v-152.4a11.33 11.33 0 0 1 11.1-11.35l214.2-4.42a10.36 10.36 0 0 1 10.56 10.14v144.45a11.5 11.5 0 0 1-10.88 11.47z"/><path fill="url(#v)" d="M707.67 255.72L492.6 267.24a9.44 9.44 0 0 1-9.9-8.93c0-.15 0-.3 0-.47v-152.4a11.33 11.33 0 0 1 11.1-11.35L708 89.66a10.36 10.36 0 0 1 10.55 10.14v144.45a11.5 11.5 0 0 1-10.88 11.47z" transform="translate(-.01)"/><path fill="#335eee" d="M645.04 313.3l-54.6 5.8s-16.64-3.35-15.74-5.8 18.3-4.84 18.3-4.84V209.3c-.16-.22-2.45-3.14-8.72-5a31.5 31.5 0 0 0-3.7-.86 10.9 10.9 0 0 1-3.1-.94c-3.73-1.93.4-5.3 6.18-5.44a14.46 14.46 0 0 1 2.7.16h42s15.9 4.48 16.68 26.84 0 89.23 0 89.23zM600.6 313.5l-10.2 5.6s-16.63-3.35-15.73-5.8 18.32-4.84 18.32-4.84V209.3c-.22-.23-2.77-2.86-8.72-5a44.22 44.22 0 0 0-6.8-1.8c-3.73-1.93.4-5.3 6.18-5.44 4.93.67 14.64 6.07 15.27 9.15s1.67 107.3 1.67 107.3z"/><path fill="url(#w)" d="M600.6 313.5l-10.2 5.6s-16.62-3.35-15.72-5.8 18.32-4.84 18.32-4.84V209.3c-.2-.23-2.76-2.86-8.7-5a44.22 44.22 0 0 0-6.8-1.8c-3.74-1.93.38-5.3 6.17-5.44 4.93.67 14.64 6.07 15.27 9.15s1.67 107.3 1.67 107.3z" transform="translate(-.01)"/><path fill="url(#x)" d="M396.18 521.8c-1.27 1.3-1.86 1.78-1.1.7a8 8 0 0 0 1.1-.7z" transform="translate(-.01)"/></svg>