<svg xmlns="http://www.w3.org/2000/svg" width="519.25" height="482.26" xmlns:xlink="http://www.w3.org/1999/xlink"><linearGradient id="a" x1="293.86" x2="144.98" y1="452.52" y2="349.96" gradientUnits="userSpaceOnUse"><stop offset="0" stop-opacity="0"/><stop offset=".99"/></linearGradient><linearGradient id="d" x1="456.28" x2="465.37" y1="175.34" y2="492.12" xlink:href="#a"/><linearGradient id="e" x1="83.16" x2="238.32" y1="395.13" y2="395.13" xlink:href="#a"/><linearGradient id="f" x1="235.79" x2="192.01" y1="358.5" y2="572.79" xlink:href="#a"/><linearGradient id="g" x1="279.23" x2="274.13" y1="106.22" y2="116.42" xlink:href="#a"/><linearGradient id="h" x1="273.73" x2="277.45" y1="100.95" y2="94.75" xlink:href="#a"/><linearGradient id="i" x1="382.27" x2="136.34" y1="278.15" y2="329.8" xlink:href="#a"/><linearGradient id="b" x1="226.2" x2="385.84" y1="238.13" y2="238.13" gradientUnits="userSpaceOnUse"><stop offset="0" stop-color="#ecc4d7"/><stop offset=".42" stop-color="#efd4d1"/><stop offset=".6" stop-color="#f0dcce"/><stop offset="1" stop-color="#f2eac9"/></linearGradient><linearGradient id="j" x1="290.49" x2="260.71" y1="271.09" y2="370.9" xlink:href="#a"/><linearGradient id="k" x1="189.31" x2="13.41" y1="254.86" y2="176.56" xlink:href="#a"/><linearGradient id="l" x1="210.92" x2="224.98" y1="155.92" y2="168.05" gradientUnits="userSpaceOnUse"><stop offset="0" stop-color="#ecc4d7"/><stop offset=".42" stop-color="#efd4d1"/><stop offset="1" stop-color="#f2eac9"/></linearGradient><linearGradient id="m" x1="216.8" x2="227.27" y1="183.71" y2="32.35" xlink:href="#a"/><linearGradient id="n" x1="234.38" x2="275.92" y1="123.6" y2="133.16" xlink:href="#b"/><linearGradient id="o" x1="216.09" x2="176.38" y1="155.84" y2="148.67" xlink:href="#a"/><linearGradient id="c" x1="374.65" x2="433.84" y1="206.68" y2="253.73" gradientUnits="userSpaceOnUse"><stop offset=".02" stop-color="#fff" stop-opacity="0"/><stop offset=".58" stop-color="#fff" stop-opacity=".39"/><stop offset=".68" stop-color="#fff" stop-opacity=".68"/><stop offset="1" stop-color="#fff"/></linearGradient><linearGradient id="p" x1="380.51" x2="431.23" y1="209.14" y2="249.46" xlink:href="#c"/><linearGradient id="q" x1="424.46" x2="412.42" y1="250.03" y2="251.98" xlink:href="#c"/><linearGradient id="r" x1="412.63" x2="423.52" y1="225.76" y2="257.47" xlink:href="#a"/><linearGradient id="s" x1="248.03" x2="388.64" y1="323.45" y2="323.45" xlink:href="#c"/><linearGradient id="t" x1="265.85" x2="315.21" y1="227.72" y2="232.66" xlink:href="#a"/><linearGradient id="u" x1="158.31" x2="321.44" y1="253.94" y2="253.94" xlink:href="#b"/><linearGradient id="v" x1="252.1" x2="288.49" y1="194.27" y2="194.27" xlink:href="#c"/><linearGradient id="w" x1="262.06" x2="262.65" y1="186.7" y2="200.25" xlink:href="#a"/><linearGradient id="x" x1="338.24" x2="340.26" y1="290.96" y2="318.16" xlink:href="#a"/><linearGradient id="y" x1="265.83" x2="250.67" y1="277.45" y2="546.81" xlink:href="#a"/><path fill="#335eee" d="M488.24 316.94c-10.48 12.44-23.2 23-32.14 36.62-10.48 15.95-15.1 35-22.24 52.75a109.37 109.37 0 0 1-11.73 22.38 78.93 78.93 0 0 1-8.07 9.67c-24.3 24.94-63 32.93-98.5 36.8a917.38 917.38 0 0 1-143.44 4.33c-21-1-40.15-4.42-60 .9-19.37 5.16-40.13-4.15-55.76-15.08C35.53 450.74 17.78 431.12 8 407.66s-11.08-50.9-.92-74.2c13.94-32 46.8-52.53 61.46-84.2 7.34-15.86 9.64-33.54 11.46-50.94q4.4-42.3 5.86-84.9c.64-18.94.94-38.4 8.28-55.85 12-28.66 41.46-47 71.8-53.7s61.88-3.43 92.75.1c52.76 6.04 106.13 13.1 155.36 33.04l1.15.47c3.92 1.6 7.9 3.35 10.78 6.44 4.9 5.24 5.52 13 7.05 20 .25 1.14.52 2.25.83 3.36 8.83 32.3 39.82 53.65 59.9 80.9 36.02 48.85 33.64 122.35-5.52 168.78z" opacity=".18"/><path fill="#3f3d56" d="M117.35 424.1h14.34v54.03h-14.35z"/><path fill="#335eee" d="M227.9 363.16s29.78 7.44 36.4 17.37-25.64 100.9-25.64 100.9l-45.5-1.65L206.4 402z"/><path fill="url(#a)" d="M262.5 365.15s29.78 7.44 36.4 17.37-25.64 100.9-25.64 100.9l-45.5-1.65L241 404z" transform="translate(-34.6 -1.99)"/><path fill="#335eee" d="M433.86 67.18V406.3a109.37 109.37 0 0 1-11.73 22.38 78.93 78.93 0 0 1-8.07 9.67V37l1.15.47c3.92 1.6 7.9 3.35 10.78 6.44 4.9 5.24 5.52 13 7.05 20 .25 1.1.52 2.17.83 3.28z"/><path fill="url(#d)" d="M468.46 69.17V408.3a109.37 109.37 0 0 1-11.73 22.37 78.93 78.93 0 0 1-8.07 9.67V39l1.15.46c3.92 1.6 7.9 3.35 10.78 6.44 4.9 5.23 5.52 13 7.05 20 .25 1.1.52 2.16.83 3.27z" transform="translate(-34.6 -1.99)"/><path fill="#3f3d56" d="M55.2 347c-4.6 5.68-6.47 13.17-6.63 20.47-.48 22.84 15 43.68 34.48 55.67s42.43 16.64 65 20.46c14.76 2.5 30.74 4.56 44-2.33 5-2.58 9.5-6.64 11.07-12 2.8-9.68-4.65-19.1-12-26A244.9 244.9 0 0 0 123.4 358c-16.24-7.25-54.08-28.42-68.2-11z"/><path fill="url(#e)" d="M89.8 349c-4.6 5.67-6.47 13.16-6.63 20.46-.48 22.84 15 43.68 34.48 55.67s42.43 16.64 65 20.46c14.76 2.5 30.74 4.55 44-2.34 5-2.58 9.5-6.64 11.07-12 2.8-9.68-4.65-19.1-12-26A244.9 244.9 0 0 0 158 360c-16.24-7.26-54.08-28.43-68.2-11z" transform="translate(-34.6 -1.99)"/><path fill="#335eee" d="M315.55 475.15l-15.95 2.74-25.37 4.36-65.34-73.6s-104.8 8.8-120.22-22.07c-8.16-16.32-7.4-40-4.86-58.73a230.93 230.93 0 0 1 6-29.5s37.5 20.95 83.82 28.67 141.9 148.1 141.9 148.1z"/><path fill="url(#f)" d="M334.2 479.88l-25.37 4.37-65.34-73.6s-104.8 8.8-120.22-22.07c-8.16-16.3-7.4-40-4.86-58.72 7.2 8 45.4 48 87.57 44.94 52.33-3.8 102.18 63 128.2 105.08z" transform="translate(-34.6 -1.99)"/><path fill="#3f3d56" d="M252.77 106.1a14.52 14.52 0 0 1-3.86 8.74 47.2 47.2 0 0 1-5.84 5.06 78.4 78.4 0 0 0-10.72 10.37c0-3.9 0-7.88 1.08-11.64a48.47 48.47 0 0 0 1.57-5.24c.55-3.25-.35-6.62.27-9.85a18.84 18.84 0 0 1 2.18-5.37c.86-1.57 1.88-3.2 3.52-3.92a5.58 5.58 0 0 1 4.5.22c4.33 2 7.58 6.84 7.3 11.63z"/><path fill="url(#g)" d="M287.37 108.1a14.52 14.52 0 0 1-3.86 8.73 47.2 47.2 0 0 1-5.84 5.06 78.4 78.4 0 0 0-10.72 10.36c0-3.9 0-7.88 1.08-11.64a48.47 48.47 0 0 0 1.57-5.24c.55-3.24-.35-6.6.27-9.84a18.84 18.84 0 0 1 2.18-5.37c.86-1.57 1.88-3.2 3.52-3.92a5.58 5.58 0 0 1 4.5.22c4.33 2 7.58 6.84 7.3 11.63z" transform="translate(-34.6 -1.99)"/><path fill="#2b2a44" d="M249.3 96.42c1.27-2.6 2-5.67 1-8.4a1.06 1.06 0 0 0-1.3-.85A25.52 25.52 0 0 0 234.58 92a18.5 18.5 0 0 1 5.55 7 12.87 12.87 0 0 1 1 5.42c0 .4-.4 1.88-.06 2.06s1.47-1.1 1.7-1.36a34.9 34.9 0 0 0 6.54-8.7z"/><path fill="url(#h)" d="M283.9 98.4c1.27-2.6 2-5.66 1-8.4a1.06 1.06 0 0 0-1.3-.84A25.52 25.52 0 0 0 269.18 94a18.5 18.5 0 0 1 5.55 7 12.87 12.87 0 0 1 1 5.4c0 .4-.4 1.9-.06 2.07s1.47-1.1 1.7-1.36a34.9 34.9 0 0 0 6.54-8.7z" transform="translate(-34.6 -1.99)"/><path fill="#fff" d="M296.55 247.64l-129.58 104.2 315.96.56-61.76-106.97z"/><path fill="#335eee" d="M319.16 255l42.28-.38-2.2 14.7L314 267.5zM441.2 186.98L403 300.94l-127.93 2.2 11.9-18.28 3.17-4.87 35.58-.63 70.66-1.22 32.7-94.1z"/><path fill="url(#i)" d="M382.36 286l-12.65-.7a5.16 5.16 0 0 0-2.53.28 7.06 7.06 0 0 0-2 1.94 13 13 0 0 1-7.6 4 37.1 37.1 0 0 1-8.76.26 41 41 0 0 1-9.37-1.23c-2.08-.6-4.05-1.5-6.1-2.22a29.84 29.84 0 0 0-11.8-1.54l3.18-4.9 35.6-.6c1.08.2 2.18.4 3.3.56 4.4.6 8.92.47 13.34 1.08 2.16.36 4.6 1.06 5.42 3.06z" transform="translate(-34.6 -1.99)"/><path fill="url(#b)" d="M385.84 280.24s-1.93 4.3-3.77 3.58-13.24-5.5-13.24-5.5a11.73 11.73 0 0 1-4.36 3.46 16.73 16.73 0 0 1-5.93 1.67c-7.35.73-27.93-2.94-27.93-2.94l-85.28 6.26-19.12-17.27 1.6-46.92 1.1-33.08 30.76 68.6s90.16 4.12 104.22 10.74 21.96 11.4 21.96 11.4z" transform="translate(-34.6 -1.99)"/><path fill="url(#j)" d="M364.47 281.78a16.73 16.73 0 0 1-5.93 1.67c-7.35.73-27.93-2.94-27.93-2.94l-85.28 6.26-19.12-17.27 1.6-46.92 18.62 41.57s90.16 4.14 104.22 10.75c5.64 2.65 10.28 5 13.83 6.88z" transform="translate(-34.6 -1.99)"/><path fill="#335eee" d="M195.4 188.62c.1.86.2 1.72.36 2.57 1.33 7.72 8.28 48.2 9.78 57.5 1.38 8.46-7.2 24.15-10.24 29.38-.74 1.27-1.42 2.58-2 3.9l-16 34.93a45.06 45.06 0 0 1-57.34 23.18 45.07 45.07 0 0 1-26.05-57.2c15.6-43.52 39.3-106.8 48.07-114.75 13.32-12.12 48.68-19.43 53.43 20.5z"/><path fill="url(#k)" d="M227.1 178.28c-11.58-2.53-24.78 2.53-31.84 8.93-8.77 7.96-32.48 71.25-48.06 114.76a45 45 0 0 0 3.92 38.63 45 45 0 0 1-22.67-55.73c15.6-43.52 39.3-106.8 48.06-114.74 11.8-10.7 40.64-17.64 50.6 8.15z" transform="translate(-34.6 -1.99)"/><path fill="url(#l)" d="M233.28 164.16s-12 6.07-8.54 18.6-22.06-16-22.06-16-3.3-19.3 16.54-17.63 14.06 15.03 14.06 15.03z" transform="translate(-34.6 -1.99)"/><path fill="url(#m)" d="M204.2 168.57s3.86-7.58 7-9.23 9.5-1.93 9.92 3.72a45.24 45.24 0 0 0 2.9 11.72s5.5-8.7 9.23-10.62c0 0-10.47-7.17-13.37-11.7s-14.2 3.85-14.2 3.85-4.93 8.7-1.48 12.27z" transform="translate(-34.6 -1.99)"/><path fill="url(#n)" d="M273.92 116.1c-1.84 6.53-5.5 13.08-3.94 19.68a24.66 24.66 0 0 1 .94 4 3.75 3.75 0 0 1-1.6 3.57 7.46 7.46 0 0 1-2.1.54c-5 1-8 6.1-10 10.82s-4.24 10-8.93 12c-3.95 1.75-8.6.67-12.5-1.16a40.83 40.83 0 0 1-16.2-14.18 27.92 27.92 0 0 1-4.6-10.28 31.44 31.44 0 0 1-.1-9.2 62.64 62.64 0 0 1 8.42-26 44.78 44.78 0 0 1 20.25-18 23.3 23.3 0 0 1 7.34-2c5.07-.37 10.08 1.6 14.23 4.54 3.2 2.26 8.9 6.34 10 10.3 1.25 4.56.04 10.96-1.2 15.36z" transform="translate(-34.6 -1.99)"/><path fill="#3f3d56" d="M226.46 99a138.8 138.8 0 0 0-22.83 30.18c-2.66 4.75-5.07 9.7-8.57 13.87a33.17 33.17 0 0 1-16.93 10.67 13.43 13.43 0 0 0-4 1.42c-2.85 1.83-3.43 5.67-5.16 8.57-2.26 3.8-6.56 6-10.87 6.95s-8.77 1-13.16 1.52c-16.16 2-27.22 53.8-34.9 68.16.9-7.23-23.17-26.84-1.1-63.2 2-3.3 1-7.84-.3-11.5-1.52-4.36-5.47-8.46-4.1-12.87a9.7 9.7 0 0 1 4-4.74c7-4.9 16.26-6.45 22.42-12.42-.37 1.13-2.2 1-2.88.07a4.27 4.27 0 0 1-.25-3.44c1.55-6.43 6-11.8 10.87-16.22s10.43-8.15 15.16-12.77c-3.3-1.28-4.43-5.72-3.1-9s4.35-5.53 7.45-7.22 6.46-3 9.17-5.26c3-2.52 5-6 7.74-8.87 4.3-4.5 10.1-7.16 15.8-9.63a45.9 45.9 0 0 1 10.88-3.6 29.75 29.75 0 0 1 12.7 1c11 3.18 20 10.9 28.38 18.6 1.94 1.78 3.86 3.56 5.78 5.36 1 1 2.13 2.16 1.9 3.55s-9.2.82-11.1 1.52c-5.04 1.87-9.26 5.56-12.98 9.34z"/><path fill="url(#o)" d="M261.06 101a138.8 138.8 0 0 0-22.83 30.17c-2.66 4.75-5.07 9.7-8.57 13.87a33.17 33.17 0 0 1-16.93 10.67 13.43 13.43 0 0 0-4 1.43c-2.85 1.83-3.43 5.67-5.16 8.57-2.26 3.8-6.56 6-10.87 6.94s-8.77 1-13.16 1.52c-16.16 2-27.22 53.8-34.9 68.16.9-7.23-23.17-26.84-1.1-63.2 2-3.3 1-7.84-.3-11.5-1.52-4.36-5.47-8.46-4.1-12.87a9.7 9.7 0 0 1 4-4.74c7-4.9 16.26-6.44 22.42-12.4-.37 1.12-2.2 1-2.88.06a4.27 4.27 0 0 1-.25-3.44c1.55-6.43 6-11.8 10.87-16.22s10.43-8.16 15.16-12.78c-3.3-1.28-4.43-5.72-3.1-9s4.35-5.53 7.45-7.22 6.46-3 9.17-5.27c3-2.52 5-6 7.74-8.87 4.3-4.5 10.1-7.16 15.8-9.63a45.9 45.9 0 0 1 10.88-3.6 29.75 29.75 0 0 1 12.7 1c11 3.18 20 10.9 28.38 18.6 1.94 1.78 3.86 3.56 5.78 5.36 1 1 2.13 2.15 1.9 3.54s-9.2.82-11.1 1.52c-5.04 1.87-9.26 5.56-12.98 9.34z" transform="translate(-34.6 -1.99)"/><path fill="url(#c)" d="M396.36 278.15l5.33 20.95 36.93-112.48-9.56-2.58z" opacity=".69"/><path fill="url(#p)" d="M399.12 270.4l4.56 17.95 31.67-96.4-8.2-2.2z" opacity=".69"/><path fill="#fff" d="M338.83 281.46l-3.86 16.17 8.82-.37 1.28-15.44zM379.54 281.27l3.72.14 2.35 14.35h-4.4zM371.27 281.2H377l2.26 14.5-6.8-.1zM363.37 281.46h5.88l.73 14.33H363zM355.2 281.64l5.96-.1.46 14.9h-7.08zM347.47 281.82l5.23.1-.18 14.88h-6.43z"/><path fill="#335eee" d="M366.9 236.34s3.86 23.34 5.15 24.63l20.4-.37s4-20.58 3.5-23.34l-6.07-2.2z"/><path fill="url(#q)" d="M405.18 240.4s3.13 20.76 4.42 22.05l17.45.14s4-20.6 3.5-23.35l-6.07-2.2z" opacity=".69" transform="translate(-34.6 -1.99)"/><path fill="#335eee" d="M392.45 260.6s4-20.58 3.5-23.34"/><path fill="#335eee" d="M364.66 228.92a1.58 1.58 0 0 1-.8-.78c-.26-.77.72-1.36 1.5-1.5a8.57 8.57 0 0 1 5.37.84 40 40 0 0 1-7.63-7.47 18.87 18.87 0 0 1 6.9 3 10.16 10.16 0 0 1 6-5.05 19.9 19.9 0 0 1 8-.76 2.84 2.84 0 0 1 2.34 1c.52.86 0 2-.48 2.84a4.4 4.4 0 0 1 4.17-2.72q-1.53 2.84-3.33 5.5c1.58-1.15 3.67-1.23 5.63-1.27a1.52 1.52 0 0 1 .87.17c.6.44.2 1.38-.3 1.94-2 2.35-4.8 4.18-5.9 7.08a38.5 38.5 0 0 0-1 4.66 2.3 2.3 0 0 1-.54 1.15 2.42 2.42 0 0 1-1.34.5c-3.2.53-7.44 1-9.93-1.5a43.73 43.73 0 0 0-9.54-7.63z"/><path fill="url(#r)" d="M399.26 230.9a1.58 1.58 0 0 1-.8-.77c-.26-.77.72-1.36 1.5-1.5a8.57 8.57 0 0 1 5.37.84 40 40 0 0 1-7.63-7.47 18.87 18.87 0 0 1 6.9 3 10.16 10.16 0 0 1 6-5.06 19.9 19.9 0 0 1 8-.76 2.84 2.84 0 0 1 2.34 1c.52.87 0 2-.48 2.85a4.4 4.4 0 0 1 4.17-2.72q-1.53 2.85-3.33 5.5c1.58-1.14 3.67-1.22 5.63-1.26a1.52 1.52 0 0 1 .87.17c.6.45.2 1.4-.3 1.95-2 2.35-4.8 4.18-5.9 7.08a38.5 38.5 0 0 0-1 4.66 2.3 2.3 0 0 1-.54 1.14 2.42 2.42 0 0 1-1.34.5c-3.2.53-7.44 1-9.93-1.5a43.73 43.73 0 0 0-9.54-7.63z" transform="translate(-34.6 -1.99)"/><path fill="#dedee0" d="M267.33 313.25l119.65-2.75 3.86 29.77-140.6-1.1z"/><path fill="url(#s)" d="M265.12 311.32l119.66-2.75 3.86 29.77-140.6-1.1z" opacity=".69"/><path fill="#335eee" d="M254.65 219.8l-.28-22.9 32.53-.27-7.44 63.4-19.57.3-6.63-21.52z"/><path fill="url(#t)" d="M254.65 219.8l-.28-22.9 32.53-.27-7.44 63.4-19.57.3-6.63-21.52z"/><path fill="url(#u)" d="M302.05 260.2q-38.24 30.5-78.55 58.2c-10.6 7.3-22.05 14.7-34.9 15.25-4 .17-8.15-.4-11.42-2.65-5.18-3.55-6.93-10.26-8.18-16.4-6.8-33.43-9.9-67.54-10.63-101.64-.16-7.7-.18-15.55 2.32-22.82s8-14 15.46-15.82c0 0 17.7-2.44 22.85 15.94s0 98.15 3.68 98.9S279.5 252 279.5 252c1.56 0 1.87-2.77 2.1-4.3a18.92 18.92 0 0 0-.15-4.64 41 41 0 0 1 6.47-26c1.54 2.25 1.47 5.2 1.34 7.92L289 231a3.08 3.08 0 0 0 .43 2.16 2.58 2.58 0 0 0 1.65.77c2.9.44 5.74-.8 8.45-1.93a120.18 120.18 0 0 1 17.56-5.76 3.43 3.43 0 0 1 2.82.15 2.68 2.68 0 0 1 .56 3.1c-.4 1.06-1.1 2-1.44 3.08a1.38 1.38 0 0 0 0 1c.26.52 1 .6 1.43.92a3 3 0 0 1 .85 2.42l.07 2.24c.14 4.72.2 9.8-2.4 13.74a15.5 15.5 0 0 1-8.07 5.75 37 37 0 0 1-8.88 1.56z" transform="translate(-34.6 -1.99)"/><path fill="#335eee" d="M252.63 198.38h36.2v-4.04l-2.75-.56-.55-4.04-30.52.37-1.1 4.05-1.46.74z"/><path fill="url(#v)" d="M252.28 198.6h36.2v-4.06l-2.75-.55-.55-4.05-30.5.36-1.1 4.06-1.48.73z" opacity=".69"/><path fill="#335eee" d="M255 190.1l1.44-5.32 12.96 5.1z"/><path fill="url(#w)" d="M255 190.1l1.44-5.32 12.96 5.1z"/><path fill="#dedee0" d="M166.97 351.85h314.85v10.48H166.97z"/><path fill="#335eee" d="M403.16 300.02l-128.04 3v3.13l128.04-3z"/><path fill="url(#x)" d="M403.16 300.02l-128.04 3v3.13l128.04-3z"/><path fill="url(#y)" d="M284.98 288.17l-44.4 3.85 11.6-8.82 37.94-3.2z"/></svg>