<svg enable-background="new 0 0 511.983 511.983" height="512" viewBox="0 0 511.983 511.983" width="512" xmlns="http://www.w3.org/2000/svg"><path d="m484.1 331.72c6-6.02 8.3-15.12 5.9-23.3-2.45-8.28-8.94-14.3-17.36-16.1-19.6-4.2-37.47-13.95-51.7-28.18l-53.3-53.3c.27-1.2.4-2.47.4-3.75 0-4.88-1.9-9.46-5.33-12.9l-29.18-29.19c-11.05-11.04-25.74-17.13-41.37-17.13s-30.33 6.1-41.38 17.14l-8.8 8.83-28.08-28.07c-11.3-11.3-29.67-11.3-40.96 0l-5.12 5.12-48.04-48.04c-2.93-2.93-7.67-2.93-10.6 0s-2.93 7.68 0 10.6l48.04 48.04-28.47 28.47-107.87-107.86c-7.85-7.86-7.85-20.63 0-28.48 3.8-3.8 8.86-5.9 14.23-5.9 5.4 0 10.45 2.1 14.25 5.9l35.42 35.42c2.93 2.92 7.67 2.92 10.6 0 2.93-2.93 2.93-7.68 0-10.6l-35.41-35.44c-6.67-6.6-15.47-10.27-24.87-10.27-9.37 0-18.2 3.66-24.83 10.3-13.7 13.7-13.7 35.98 0 49.68l107.87 107.86-5.12 5.12c-5.47 5.47-8.48 12.74-8.48 20.48 0 7.73 3 15 8.48 20.47l28.07 28.07-8.83 8.8c-11.05 11.06-17.13 25.76-17.13 41.4s6.08 30.3 17.13 41.36l29.2 29.2c3.54 3.54 8.2 5.32 12.88 5.32 1.83 0 3.66-.3 5.43-.83 54.37 54.34 54.92 54.86 55.1 55.03 9.94 9.4 21.57 16.27 34.56 20.42 9.2 2.94 13.78-11.35 4.56-14.3-10.83-3.45-20.52-9.18-28.76-16.96-.87-.85-20.73-20.7-53.37-53.32l28.1-28.1c15.37 15.36 52.9 52.86 53.62 53.55 16.92 16 39.04 24.76 62.48 24.76.74 0 1.5 0 2.23-.03 5.9-.14 11.7-.83 17.33-2.03l-2.78 2.78c-12.7 12.7-29.5 20.7-47.38 22.55-4.12.43-7.1 4.1-6.68 8.23.4 3.86 3.64 6.73 7.44 6.73.25 0 .52 0 .78-.04 21.28-2.2 41.32-11.75 56.43-26.86zm-164.73-68.4c15.37 15.35 52.9 52.85 53.62 53.55 15.08 14.26 34.85 22.96 55.68 24.5 2.26.16 4.5.25 6.77.25 6.6 0 13.2-.72 19.63-2.1l-13.83 13.83c-14.33 14.32-33.36 22.47-53.6 22.95-20.3.48-39.48-6.84-54-20.58-1.18-1.15-33.98-33.93-53.38-53.3zm150.13 43.65c4.26.9 5.7 4.3 6.1 5.7.28.9.38 1.82.35 2.7-13.8 8.32-30.08 12.22-46.16 11.04-17.66-1.3-33.74-8.36-46.45-20.38-1.18-1.15-33.98-33.93-53.37-53.32l29.15-29.15 51.2 51.2c16.28 16.27 36.74 27.42 59.17 32.22zm-297.43 77.87-29.2-29.2c-8.2-8.2-12.74-19.13-12.74-30.75s4.53-22.57 12.75-30.78l29.3-29.3c2.92-2.92 2.92-7.67 0-10.6-2.94-2.93-7.7-2.93-10.62 0l-9.87 9.87-28.06-28.08c-2.64-2.64-4.1-6.14-4.1-9.86 0-3.73 1.46-7.23 4.1-9.87l59.92-59.93c5.44-5.44 14.3-5.44 19.73 0l28.07 28.07-45.38 45.37c-2.93 2.94-2.93 7.7 0 10.62s7.68 2.92 10.6 0l64.8-64.8c8.23-8.22 19.15-12.74 30.78-12.74s22.55 4.52 30.76 12.74l29.2 29.2c.82.8.95 1.77.95 2.27s-.13 1.45-.95 2.27l-175.48 175.5c-1.26 1.26-3.3 1.26-4.56 0zm219.5 18.2c-14.34 14.33-33.38 22.48-53.6 22.96-20.33.48-39.5-6.85-54.02-20.58-1.18-1.15-34-33.93-53.38-53.3l39.1-39.1c15.37 15.36 52.9 52.86 53.62 53.55 16.92 16 39.04 24.75 62.48 24.75.74 0 1.5 0 2.23-.02 5.9-.14 11.68-.83 17.33-2.03zm-175.17-132.7c1.93 0 3.85-.74 5.3-2.2l13.7-13.7c2.93-2.92 2.93-7.66 0-10.6-2.93-2.92-7.68-2.92-10.6 0l-13.7 13.7c-2.92 2.92-2.92 7.67 0 10.6 1.47 1.46 3.4 2.2 5.3 2.2zm226.26-61.78h.02c4.13 0 7.5-3.35 7.5-7.48v-4.74c.02-4.14-3.32-7.5-7.47-7.52-4.14 0-7.5 3.35-7.5 7.48l-.02 4.74c0 4.14 3.33 7.5 7.48 7.52zm-.04 11.54s0 0-.02 0c-4.13 0-7.5 3.34-7.5 7.48v4.74c-.03 4.14 3.32 7.5 7.47 7.52h.02c4.12 0 7.47-3.35 7.5-7.48v-4.74c0-4.14-3.34-7.5-7.48-7.52zm13.28 1.77h4.75c4.13 0 7.48-3.33 7.5-7.47 0-4.14-3.34-7.5-7.48-7.52h-4.74s0 0-.02 0c-4.12 0-7.48 3.33-7.5 7.47 0 4.14 3.35 7.5 7.5 7.52zm-31.27-15.09c-4.13 0-7.5 3.34-7.5 7.48s3.34 7.5 7.48 7.52h4.77c4.13 0 7.5-3.33 7.5-7.47 0-4.13-3.34-7.5-7.48-7.5l-4.75-.02s0 0-.02 0zm61.9 186.77c-4.13 0-7.5 3.35-7.5 7.48l-.02 4.74c0 4.14 3.35 7.5 7.5 7.52 4.14 0 7.5-3.35 7.5-7.5l.03-4.72c0-4.15-3.34-7.5-7.48-7.53h-.02zm-.07 31.28s-.02 0-.02 0c-4.14 0-7.5 3.35-7.5 7.48l-.02 4.75c0 4.14 3.34 7.5 7.48 7.52h.02c4.13 0 7.5-3.34 7.5-7.48l.02-4.74c0-4.15-3.34-7.5-7.48-7.53zm18.04-13.23h-4.73s-.02 0-.02 0c-4.14 0-7.5 3.34-7.5 7.48-.02 4.14 3.33 7.5 7.47 7.52h4.76c4.14 0 7.5-3.33 7.5-7.47s-3.33-7.5-7.48-7.52zm-31.27-.08h-4.74c-.02 0-.03 0-.03 0-4.14 0-7.5 3.33-7.5 7.47-.02 4.13 3.33 7.5 7.47 7.5l4.74.02h.02c4.14 0 7.5-3.34 7.5-7.48.02-4.14-3.33-7.5-7.47-7.52zm-326.39 26.8h.02c4.13 0 7.5-3.34 7.5-7.48v-4.73c.03-4.14-3.32-7.5-7.46-7.52 0 0-.02 0-.03 0-4.13 0-7.48 3.35-7.5 7.48v4.74c-.02 4.14 3.33 7.5 7.47 7.52zm-.04 11.54s0 0-.02 0c-4.13 0-7.48 3.35-7.5 7.48v4.74c-.02 4.14 3.33 7.5 7.47 7.52h.02c4.13 0 7.5-3.34 7.5-7.48v-4.73c.03-4.16-3.32-7.52-7.46-7.54zm18.05-13.22h-4.73s-.02 0-.03 0c-4.14 0-7.5 3.33-7.5 7.47-.02 4.15 3.33 7.52 7.47 7.53h4.78c4.13 0 7.5-3.33 7.5-7.46 0-4.15-3.33-7.5-7.48-7.53zm-31.28-.08-4.73-.02s-.02 0-.03 0c-4.12 0-7.47 3.34-7.5 7.48 0 4.14 3.35 7.5 7.5 7.52h4.75c4.13 0 7.5-3.33 7.5-7.46 0-4.15-3.33-7.5-7.48-7.52zm267.97-291.12h.03c4.13 0 7.48-3.34 7.5-7.48v-4.74c.02-4.14-3.33-7.5-7.47-7.52 0 0 0 0-.02 0-4.13 0-7.5 3.34-7.5 7.48v4.74c-.03 4.14 3.32 7.5 7.46 7.52zm-.04 11.54c-4.14 0-7.5 3.34-7.5 7.48l-.03 4.74c0 4.14 3.34 7.5 7.48 7.52h.02c4.14 0 7.5-3.35 7.5-7.48l.02-4.74c0-4.14-3.35-7.5-7.5-7.52zm13.28 1.77h4.77c4.13 0 7.48-3.33 7.5-7.47 0-4.14-3.34-7.5-7.48-7.52h-4.74s-.02 0-.02 0c-4.13 0-7.5 3.33-7.5 7.47s3.33 7.5 7.48 7.52zm-31.28-.09h4.76c4.13 0 7.48-3.33 7.5-7.47 0-4.15-3.34-7.52-7.48-7.53h-4.74s-.02 0-.02 0c-4.13 0-7.5 3.33-7.5 7.47s3.33 7.5 7.48 7.52z" fill="#fff"/></svg>