<svg enable-background="new 0 0 436.746 436.746" viewBox="0 0 436.746 436.746" xmlns="http://www.w3.org/2000/svg"><path d="m84.143 92.35c2.398 20.72 10.145 38.297 22.664 51.234 13.166 13.605 30.677 21.099 49.308 21.099h.001c18.629 0 36.143-7.493 49.308-21.098 12.521-12.938 20.268-30.515 22.667-51.235 4.729-.75 8.36-4.816 8.42-9.754.032-2.622 0-5.23-.096-7.748-.935-24.967-12.412-46.19-32.316-59.763-.034-.023-.069-.047-.104-.069-14.079-9.347-30.07-14.396-47.528-15.01-.234-.009-.469-.009-.701 0-22.386.784-43.548 9.391-58.06 23.613-.002.002-.038.038-.041.04-15.331 15.06-22.304 33.794-21.943 58.959.071 4.929 3.7 8.983 8.421 9.732zm71.971 52.605c-23.001 0-46.781-16.209-51.807-52.209h11.335c3.188 0 6.184-1.792 8.068-4.364 7.616-10.399 19.438-16.636 32.437-16.636h.003c12.956 0 24.752 6.237 32.365 16.634 1.883 2.572 4.88 4.366 8.068 4.366h11.341c-5.025 36-28.807 52.209-51.81 52.209zm-44.405-106.919c10.916-10.695 27.085-17.274 44.407-17.96 13.734.539 25.765 4.449 36.766 11.739 9.804 6.7 21.55 18.932 23.358 40.932h-14.858c-11.382-13-27.594-21-45.23-21-.002 0-.002 0-.005 0-17.673 0-33.911 8-45.301 21h-14.78c1.314-15.001 6.296-25.516 15.643-34.711zm278.445 200.384c-3.754-4.051-10.081-4.292-14.132-.538l-13.199 12.229-8.1-3.502 6.728-6.233c4.051-3.754 4.292-10.081.539-14.133-3.753-4.051-10.08-4.293-14.132-.538l-13.2 12.229-3.99-1.726 4.932-11.408c2.191-5.069-.142-10.955-5.211-13.146-5.068-2.191-10.955.142-13.147 5.211l-4.931 11.407-3.987-1.724-.133-17.937c-.041-5.497-4.509-9.866-9.998-9.866-.025 0-.051 0-.076 0-5.523 0-9.967 4.491-9.926 10.015l.068 9.143-8.099-3.517-.133-17.855c-.041-5.497-4.509-9.786-9.998-9.786-.025 0-.051 0-.076 0-5.523 0-9.967 4.403-9.926 9.927l.178 24.074c-.108 3.765 1.93 7.36 5.438 9.153.238.123.482.218.732.321l27.876 12.043c.103.047.207.087.312.13l9.026 3.966-31.112 58.386h-21.782c-2.887 0-5.633 1.182-7.532 3.355-1.899 2.175-2.766 5.031-2.377 7.892l5.205 38.285-36.002 67.481c-2.599 4.873-.756 10.927 4.117 13.526 1.499.8 3.11 1.177 4.698 1.177 3.574 0 7.032-1.923 8.832-5.296l22.958-43.039 5.392 39.822c.674 4.957 4.907 8.797 9.909 8.797h73.796c5.002 0 9.235-3.84 9.909-8.797l15.205-111.917c.389-2.86-.478-5.72-2.376-7.893-1.899-2.175-4.645-3.392-7.532-3.392h-59.751l26.864-50.425 10.542 4.524c.099.045.198.071.297.112l27.81 12.015c.514.236 1.044.422 1.584.566 1.432.388 2.896.439 4.296.195 1.391-.239 2.743-.774 3.957-1.609.462-.316.9-.673 1.307-1.068l17.813-16.505c4.05-3.752 4.291-10.08.538-14.131zm-80.332 86.326.002 16.133c.001 5.522 4.479 9.966 10.001 9.965s10-4.429 9.999-9.952l-.002-16.146h13.623l-12.486 92h-56.331l-8.366-61.708c-.01-.076-.02-.159-.031-.236l-4.084-30.055h16.123.397 31.155zm-114.468 54.371c0 5.522-4.477 10.005-10 10.005l-131.426.012c-2.97 0-5.787-1.3-7.687-3.584-1.9-2.283-2.687-5.252-2.146-8.173l23.532-127.151c8.238-44.476 50.13-64.481 88.16-64.481h.142.325.142c38.029 0 79.921 20.005 88.159 64.478l2.82 15.083c1.004 5.431-2.583 10.647-8.014 11.651-5.434 1.015-10.647-2.584-11.652-8.015l-2.819-15.244c-6.167-33.292-38.968-48.229-68.797-48.283-29.83.055-62.631 14.991-68.799 48.286l-21.347 115.413 119.407-.002c5.523 0 10 4.482 10 10.005zm-14.205-135.371c5.523 0 10 4.478 10 10s-4.477 10-10 10h-14.432c-5.523 0-10-4.478-10-10s4.477-10 10-10z"/></svg>