<svg enable-background="new 0 0 445.504 445.504" viewBox="0 0 445.504 445.504" xmlns="http://www.w3.org/2000/svg"><path d="m177.369 251.841c-.845 22.584 7.735 40.922 23.541 50.313 6.737 4.002 14.288 6.003 21.842 6.003 7.551 0 15.106-2.001 21.841-6.002 15.806-9.39 24.387-27.729 23.542-50.313-1.052-28.119-24.081-41.717-45.033-42.453-.234-.009-.468-.009-.702 0-20.95.735-43.977 14.333-45.031 42.452zm19.986.748c.612-16.321 13.98-22.681 25.396-23.199 11.418.519 24.787 6.878 25.397 23.199.563 15.038-4.457 26.837-13.771 32.37-7.17 4.261-16.08 4.261-23.252 0-9.314-5.534-14.333-17.332-13.77-32.37zm139.515-.748c-.846 22.584 7.734 40.922 23.541 50.313 6.735 4.002 14.288 6.003 21.841 6.003s15.105-2.001 21.841-6.003c15.807-9.39 24.387-27.729 23.541-50.312-1.052-28.119-24.08-41.717-45.031-42.453-.232-.009-.469-.009-.701 0-20.954.735-43.984 14.334-45.032 42.452zm19.986.747c.608-16.32 13.978-22.679 25.396-23.198 11.417.519 24.785 6.878 25.396 23.199.563 15.039-4.456 26.837-13.77 32.37-7.172 4.261-16.08 4.261-23.252 0-9.314-5.533-14.333-17.331-13.77-32.371zm-76.198-139.068c6.737 4.002 14.288 6.003 21.842 6.003 7.552 0 15.105-2.001 21.841-6.003 15.807-9.39 24.388-27.729 23.543-50.314-1.053-28.117-24.082-41.715-45.034-42.451-.234-.008-.469-.008-.701 0-20.95.736-43.979 14.334-45.031 42.451-.846 22.585 7.734 40.923 23.54 50.314zm-3.555-49.565c.611-16.32 13.979-22.679 25.396-23.197 11.418.518 24.787 6.877 25.398 23.197.563 15.039-4.457 26.838-13.771 32.372-7.173 4.261-16.083 4.26-23.252 0-9.315-5.535-14.334-17.334-13.771-32.372zm-235.693 238.199c6.736 4.001 14.289 6.002 21.841 6.002s15.105-2.001 21.842-6.003c15.806-9.39 24.387-27.728 23.542-50.313-1.054-28.118-24.083-41.716-45.033-42.452-.234-.009-.468-.009-.702 0-20.952.735-43.981 14.334-45.034 42.453-.843 22.584 7.738 40.923 23.544 50.313zm-3.556-49.565c.61-16.321 13.98-22.68 25.398-23.199 11.417.519 24.786 6.878 25.397 23.199.563 15.038-4.457 26.836-13.771 32.37-7.171 4.26-16.082 4.26-23.253 0-9.314-5.533-14.334-17.332-13.771-32.37zm247.982 159.854c1.006 5.43-2.581 10.652-8.012 11.658-.615.114-1.229.177-1.833.177-4.727 0-8.929-3.35-9.821-8.165l-8.816-47.564c-3.032-16.372-19.564-23.638-34.603-23.638s-31.57 7.452-34.602 23.823l-6.627 36.021h45.526c5.522 0 10 4.477 10 10s-4.477 10-10 10h-57.548c-2.971 0-5.788-1.568-7.688-3.853-1.9-2.284-2.686-5.542-2.145-8.463l8.817-47.595c5.125-27.67 30.949-40.057 54.268-40.057s49.143 12.386 54.269 40.057zm16.661-254.344c-15.037.001-31.567 7.329-34.598 23.699-1.006 5.431-6.226 9.016-11.653 8.013-5.431-1.005-9.018-6.223-8.013-11.653 5.123-27.67 30.944-40.057 54.263-40.058 23.321-.002 49.148 12.383 54.275 40.057 1.006 5.431-2.581 10.648-8.012 11.654-.615.114-1.229.169-1.833.169-4.727 0-8.929-3.365-9.821-8.18-3.033-16.374-19.567-23.702-34.608-23.701zm134.827 266.002c-.615.114-1.229.177-1.833.177-4.727 0-8.93-3.35-9.821-8.166l-8.814-47.564c-3.032-16.371-19.564-23.637-34.604-23.637s-31.571 7.452-34.604 23.823l-6.628 36.021h45.526c5.522 0 10 4.477 10 10s-4.477 10-10 10h-57.549c-2.971 0-5.788-1.568-7.688-3.853-1.899-2.284-2.686-5.542-2.145-8.464l8.817-47.595c5.126-27.671 30.95-40.057 54.27-40.057s49.144 12.386 54.27 40.057l8.814 47.595c1.006 5.432-2.581 10.657-8.011 11.663zm-316.163-310.581c6.736 4.002 14.288 6.003 21.84 6.003 7.553 0 15.105-2.001 21.842-6.003 15.806-9.39 24.386-27.729 23.541-50.312-1.049-28.118-24.078-41.717-45.031-42.452-.235-.009-.469-.009-.702 0-20.952.736-43.981 14.334-45.033 42.451-.845 22.585 7.737 40.923 23.543 50.313zm-3.556-49.566c.61-16.32 13.98-22.678 25.397-23.197 11.417.518 24.787 6.877 25.396 23.197.563 15.039-4.456 26.838-13.77 32.371-7.171 4.26-16.08 4.261-23.251 0-9.315-5.533-14.335-17.332-13.772-32.371zm8.733 348.489c1.005 5.431-2.582 10.652-8.012 11.658-.616.114-1.229.177-1.833.177-4.727 0-8.93-3.35-9.821-8.165l-8.815-47.564c-3.033-16.372-19.566-23.638-34.606-23.638-15.039 0-31.571 7.452-34.603 23.823l-6.625 36.021h48.447c5.523 0 10 4.477 10 10s-4.477 10-10 10h-60.47c-2.971 0-5.788-1.568-7.688-3.853s-2.686-5.542-2.145-8.464l8.814-47.595c5.125-27.67 30.949-40.057 54.268-40.057 23.321-.001 49.146 12.385 54.272 40.057zm16.664-254.344c-15.039 0-31.571 7.328-34.604 23.7-1.006 5.43-6.225 9.014-11.654 8.012-5.43-1.006-9.018-6.224-8.011-11.654 5.125-27.671 30.949-40.057 54.269-40.057s49.144 12.386 54.27 40.057c1.005 5.431-2.582 10.648-8.012 11.654-.616.114-1.229.169-1.833.169-4.727 0-8.93-3.366-9.822-8.181-3.032-16.372-19.564-23.7-34.603-23.7z"/></svg>