<svg enable-background="new 0 0 491.793 491.793" viewBox="0 0 491.793 491.793" xmlns="http://www.w3.org/2000/svg"><path d="m275.154 100.996c27.845 0 50.498-22.653 50.498-50.498s-22.653-50.498-50.498-50.498-50.498 22.653-50.498 50.498 22.653 50.498 50.498 50.498zm0-92.496c23.158 0 41.998 18.84 41.998 41.998s-18.84 41.998-41.998 41.998-41.998-18.84-41.998-41.998 18.84-41.998 41.998-41.998z"/><path d="m302.896 317.539c-2.276.573-3.657 2.883-3.083 5.159l7.693 30.543c.485 1.928 2.216 3.213 4.118 3.213.343 0 .693-.042 1.041-.13 2.276-.573 3.657-2.883 3.083-5.159l-7.693-30.543c-.573-2.275-2.88-3.656-5.159-3.083z"/><path d="m474.787 288.928h-25.882c13.27-44.81 10.408-82.41-8.53-111.81-14.835-23.028-36.213-35.905-52.508-42.841-.168-3.529-1.586-7.008-4.287-9.686-5.726-5.678-15.003-5.64-20.681.088l-31.166 31.431-7.004-6.479c-1.822-26.034-23.252-46.174-49.575-46.174-24.021 0-45.234 18.381-49.344 42.756-.039.23-.059.464-.059.697l-.264 116.341-162.466 163.827h-44.21c-9.956 0-18.055 8.1-18.055 18.055v14.564c0 9.955 8.1 18.055 18.055 18.055h88.931c9.956 0 18.055-8.1 18.055-18.055v-14.564c0-9.955-8.1-18.055-18.055-18.055h-3.089l116.906-118.172-45.301 137.51c-2.791 8.466-2.117 17.511 1.896 25.47 4.014 7.958 10.886 13.877 19.353 16.666 3.455 1.139 6.962 1.679 10.416 1.679 14.017-.001 27.101-8.909 31.722-22.93l32.574-98.868 25.356 98.316c3.802 14.746 17.08 25.044 32.29 25.044 2.805 0 5.617-.357 8.355-1.065 8.632-2.226 15.881-7.679 20.411-15.355 4.529-7.677 5.797-16.658 3.57-25.29l-39.244-152.183c1.271-4.442 1.922-9.043 1.922-13.697v-40.36l32.142-34.959c8.031-8.693 7.518-22.348-1.159-30.451l-2.645-2.447 17.499-17.647c25.635 11.127 75.309 44.554 48.927 130.59h-31.849c-8.96 0-16.25 7.29-16.25 16.25v140.991c0 8.96 7.29 16.25 16.25 16.25h86.994c8.96 0 16.25-7.29 16.25-16.25v-140.992c-.001-8.96-7.29-16.25-16.251-16.25zm-240.537-141.639c3.517-19.84 21.417-35.332 40.904-35.332 18.181 0 33.551 11.587 39.048 27.935l-21.638-20.018c-4.013-3.746-9.244-5.81-14.731-5.81-5.964 0-11.719 2.5-15.787 6.859-8.125 8.702-7.654 22.393 1.061 30.529l38.188 35.354-67.29 67.854zm-116.953 297.844v2.789h-80.283c-2.347 0-4.25 1.902-4.25 4.25s1.903 4.25 4.25 4.25h80.284v3.275c0 5.268-4.287 9.555-9.555 9.555h-88.932c-5.269 0-9.555-4.286-9.555-9.555v-14.564c0-5.269 4.287-9.555 9.555-9.555h88.931c5.269 0 9.555 4.286 9.555 9.555zm-42.307-18.055 232.547-234.494 3.181 2.944-29.127 31.599c-3.795 4.064-5.824 9.323-5.788 14.862l-183.108 185.089zm180.646-122.942 4.785 18.553c-12.207-4.663-21.602-14.924-25.052-27.742l42.794-43.258c1.126 2.198 2.616 4.219 4.475 5.955 2.508 2.341 5.493 4.024 8.719 4.958-1.116-.113-2.243-.178-3.384-.178-2.804 0-5.615.358-8.353 1.065-17.819 4.595-28.578 22.829-23.984 40.647zm-24.064 160.505c-4.292 13.023-18.382 20.127-31.405 15.839-.511-.169-1.002-.377-1.497-.575l32.671-99.498c.732-2.23-.482-4.632-2.712-5.364-2.228-.732-4.631.482-5.364 2.712l-32.02 97.516c-2.229-2.023-4.105-4.443-5.501-7.212-2.991-5.931-3.493-12.672-1.413-18.981l46.546-142.217c6.44 12.586 18.058 22.001 32.047 25.535l5.365 20.802zm119.739 6.413c-3.376 5.721-8.778 9.785-15.212 11.444-2.046.527-4.143.795-6.233.795-11.332 0-21.225-7.676-24.059-18.667l-41.94-162.613c-3.424-13.278 4.595-26.868 17.876-30.294 2.045-.527 4.142-.795 6.23-.795 11.333 0 21.228 7.677 24.063 18.669l41.935 162.613c1.66 6.434.715 13.127-2.66 18.848zm-34.932-192.736c-4.581-7.453-11.944-12.846-20.48-14.936.488.033.976.069 1.469.069h.001c5.964 0 11.718-2.5 15.808-6.882l3.202-3.482zm34.391-75.195-43.828 47.67c-2.503 2.683-5.902 4.159-9.572 4.159 0 0 0 0-.001 0-3.326 0-6.498-1.251-8.93-3.521-2.557-2.387-4.03-5.626-4.15-9.121-.12-3.494 1.128-6.826 3.534-9.401l32.02-34.736c1.588-1.724 1.482-4.407-.238-6l-50.708-46.944c-5.276-4.926-5.562-13.227-.635-18.504 2.504-2.683 5.904-4.159 9.574-4.159 3.325 0 6.497 1.251 8.944 3.536l63.297 58.559c5.253 4.905 5.568 13.186.693 18.462zm-12.794-41.237 30.959-31.222c2.377-2.396 6.262-2.414 8.66-.037 2.398 2.378 2.415 6.264.038 8.662l-30.659 30.92zm39.129-9.992 6.564-6.62c.81-.817 1.49-1.713 2.067-2.654 29.182 12.835 83.741 50.504 54.281 146.309h-11.494c25.741-87.538-23.116-123.829-51.418-137.035zm10.688 145.534h86.994c4.273 0 7.75 3.477 7.75 7.75v42.248h-102.494v-42.248c0-4.274 3.477-7.75 7.75-7.75zm86.994 156.492h-86.994c-4.273 0-7.75-3.477-7.75-7.75v-90.244h102.494v90.244c0 4.273-3.476 7.75-7.75 7.75z"/><path d="m463.016 360.022c-8.96 0-16.25 7.29-16.25 16.25s7.29 16.25 16.25 16.25c8.961 0 16.25-7.29 16.25-16.25 0-8.961-7.29-16.25-16.25-16.25zm0 24c-4.273 0-7.75-3.477-7.75-7.75s3.477-7.75 7.75-7.75 7.75 3.477 7.75 7.75-3.477 7.75-7.75 7.75z"/></svg>