<svg xmlns="http://www.w3.org/2000/svg" viewBox="0 0 823.64 597" xmlns:xlink="http://www.w3.org/1999/xlink"><linearGradient id="d" x1="184.46" x2="188.29" y1="411.38" y2="421.79" gradientTransform="matrix(1 0 0 -1 -.33 598)" gradientUnits="userSpaceOnUse"><stop offset=".36" stop-color="#00272e"/><stop offset=".75" stop-color="#3f80a1" stop-opacity=".25"/><stop offset="1" stop-color="#69b9eb" stop-opacity="0"/></linearGradient><linearGradient id="a" x1="444.69" x2="323.69" y1="31.61" y2="461.61" gradientUnits="userSpaceOnUse"><stop offset="0" stop-opacity="0"/><stop offset=".91" stop-opacity=".8"/><stop offset="1"/></linearGradient><linearGradient id="e" x1="405.84" x2="332.84" y1="149.83" y2="499.83" xlink:href="#a"/><linearGradient id="f" x1="412.49" x2="339.49" y1="151.21" y2="501.21" xlink:href="#a"/><linearGradient id="g" x1="420.97" x2="347.97" y1="152.99" y2="502.99" xlink:href="#a"/><linearGradient id="b" x1="683.34" x2="704.34" y1="447.17" y2="447.17" gradientTransform="matrix(1 0 0 -1 -.33 598)" gradientUnits="userSpaceOnUse"><stop offset="0" stop-color="#ecc4d7"/><stop offset=".42" stop-color="#efd4d1"/><stop offset="1" stop-color="#f2eac9"/></linearGradient><linearGradient id="h" x1="694.49" x2="690.16" y1="458.85" y2="410.3" xlink:href="#b"/><linearGradient id="i" x1="664.58" x2="709.1" y1="476.09" y2="476.09" xlink:href="#b"/><linearGradient id="j" x1="764.44" x2="823.98" y1="512.88" y2="512.88" xlink:href="#b"/><linearGradient id="k" x1="810.28" x2="804.26" y1="519.93" y2="566.67" xlink:href="#b"/><linearGradient id="l" x1="619.54" x2="679.08" y1="589.29" y2="589.29" gradientTransform="matrix(-.849 -.529 .529 -.849 868.81 888.98)" xlink:href="#b"/><linearGradient id="m" x1="665.61" x2="659.59" y1="596.46" y2="643.2" gradientTransform="matrix(-.849 -.529 .529 -.849 868.81 888.98)" xlink:href="#b"/><linearGradient id="c" x1="533.17" x2="540.88" y1="127.89" y2="95.77" gradientTransform="matrix(1 0 0 -1 -.33 598)" gradientUnits="userSpaceOnUse"><stop offset="0" stop-color="#335eee"/><stop offset=".01" stop-color="#67ddf9"/><stop offset=".12" stop-color="#5cb3ce"/><stop offset=".24" stop-color="#538ea9"/><stop offset=".37" stop-color="#4c718b"/><stop offset=".5" stop-color="#465a73"/><stop offset=".63" stop-color="#424a63"/><stop offset=".79" stop-color="#404059"/><stop offset=".99" stop-color="#3f3d56"/></linearGradient><linearGradient id="n" x1="723.22" x2="736.07" y1="106.25" y2="88.27" xlink:href="#c"/><linearGradient id="o" x1="691.29" x2="834.32" y1="111.67" y2="428.15" xlink:href="#a"/><path fill="#335eee" d="M131.3 125c-24.34 5.16-49.64 10.76-69.18 26.17-16.5 13-42.2 37-50 56.5-33 82.37 4.3 182.6 76.73 233.86 34.06 24.1 76.5 35.78 107.12 64.16 19.36 17.94 32.92 41.7 53.52 58.2 30.1 24.1 70.73 29.42 109.2 32 26.7 1.8 54.47 2.6 79.26-7.57 17.92-7.34 33.1-19.93 48-32.34l98.7-82.44c15.87-13.23 30.7-34.3 51.35-34.16 185.87 1.33 198.4-217.4-86.85-314.28-25.14-8.54-42.38-32.28-66-44.45-48.8-25.15-104.94-17-154.15.4-62.48 22.15-132.86 30.14-197.7 43.93z" opacity=".18"/><path fill="#000405" d="M779.07 477.86c7.78.13 17.8 2.07 19 9.75.65 4-1.64 7.9-4.12 11.13-15.5 20.27-41.2 30.52-66.57 33.27s-50.92-1.1-76.24-4.22q-54.9-6.78-110.2-9c-26.22-1.06-53.8-1.72-76.38-15.08-4.2-2.47-8.3-5.56-10.32-10-4-8.83 2.32-19.58 11-23.87s18.88-3.87 28.56-3.35c95.06 5.12 190.05 11.38 285.27 11.38z" opacity=".05"/><path fill="#335eee" d="M779.4 126.4s-33.83 43.75-40.25 51.08c-11.7 13.32-19.26 30.8-19.26 30.8l-17 72.33-19-5.06-41.32-11S657.26 225 650.15 213c-9.48-16-1.28-26 .88-32.87 4-12.73-16.43-36-16.43-36L621.5 85.5l19.77-2.64 14.34 47.53 24.58 21.92 17.5.93s13.2 2.72 22.8-1.72c9.18-4.26 41.6-40.83 41.6-40.83l13.24 12zM617.33 200.6v260.55A24.86 24.86 0 0 1 592.46 486h-389.7a24.86 24.86 0 0 1-24.85-24.86V200.6a24.86 24.86 0 0 1 24.84-24.88h389.72a24.86 24.86 0 0 1 24.87 24.87zM610.6 183.67H184l3.46-2.65a6.12 6.12 0 0 1 .5-.4L390.88 25.08l6.4-4.9 206.48 158.27zM617.33 200.6l-5.2 3.74-37.78 27.37-183.47 132.9-176.45-135.9-36.52-28.1.48-4.84a24.67 24.67 0 0 1 6.18-12.1 23.32 23.32 0 0 1 2.88-2.64 6.12 6.12 0 0 1 .5-.4 24.7 24.7 0 0 1 14.83-4.9h389.7a24.9 24.9 0 0 1 24.74 22.47q.13 1.2.13 2.4z"/><path fill="url(#d)" d="M187.44 181a24.92 24.92 0 0 0-2.88 2.65H184z" opacity=".61"/><path fill="url(#a)" d="M617.33 200.6l-5.2 3.75-37.78 27.36-183.47 132.9-176.45-135.88-36.52-28.13.48-4.83a24.92 24.92 0 0 1 9.06-14.77l.5-.38L390.88 25.07l6.4-4.9 206.48 158.27a24.83 24.83 0 0 1 13.45 19.76 23.76 23.76 0 0 1 .13 2.4z"/><path fill="#fff" d="M574.35 181.34v50.38l-67.7 49L491.1 292 390.9 364.6 296.6 292 282 280.76l-67.6-52v-47.42a14.77 14.77 0 0 1 14.78-14.77h330.4a14.78 14.78 0 0 1 14.77 14.77z"/><path fill="url(#e)" d="M524.73 225.5h-267a5.62 5.62 0 0 1-5.62-5.6 5.62 5.62 0 0 1 5.63-5.63h267a5.62 5.62 0 0 1 5.62 5.62 5.62 5.62 0 0 1-5.62 5.6z"/><path fill="url(#f)" d="M524.73 258.76h-267a5.62 5.62 0 0 1-5.62-5.62 5.62 5.62 0 0 1 5.63-5.62h267a5.62 5.62 0 0 1 5.62 5.62 5.62 5.62 0 0 1-5.62 5.62z"/><path fill="url(#g)" d="M506.64 280.76L491.1 292H296.6L282 280.76z"/><path fill="#000405" d="M390.88 364.6L228.02 486.02H557.1z" opacity=".05"/><path fill="#335eee" d="M250.4 90.2c-8.2-17.6-39-14.7-39-14.7 19-11.2 15.36-39.68 15.13-41.36 8.3 24.82 37 19.34 39.57 18.8-19.05 4.7-15.7 37.26-15.7 37.26zM197 126.3c-5.2-11.2-24.8-9.35-24.8-9.35 12.4-7.37 9.6-26.34 9.6-26.34v.12c5.3 15.7 23.5 12.2 25.13 11.87-12.06 3-9.93 23.7-9.93 23.7z"/><path fill="#3f3d56" d="M721.56 92.7a12.38 12.38 0 0 1 8.56-2.7 9 9 0 0 1 6.2 2.14 9.85 9.85 0 0 1 2.42 5.33 30.6 30.6 0 0 1 .55 7.46c-.23 4.6-1.42 9.45.56 13.6a9.58 9.58 0 0 0 1.88 2.66 5.24 5.24 0 0 0 3.48 1.72 2.8 2.8 0 0 0 2.86-2.24A10.62 10.62 0 0 1 734 126a11.06 11.06 0 0 1-2.32-1.43l1.74 3.53a19.92 19.92 0 0 1-4.16-1.58c-4.25-2.3-6.63-7-7.76-11.74-1-4.35-1.2-8.84-2.14-13.2-.7-3.34-.5-6.46 2.2-8.88z"/><path fill="#335eee" d="M720.28 97.5a6.9 6.9 0 0 1 2.54.4 4 4 0 0 1 2.45 3.34 3.77 3.77 0 0 1-2.08 3.57 6.42 6.42 0 0 1-2.7.48c-.85 0-1.7 0-2.54-.08a1.1 1.1 0 0 1-1.16-.84 14.94 14.94 0 0 1-1.23-3.43c-.7-3.68 1.8-3.46 4.7-3.43z"/><path fill="url(#b)" d="M704 132.6s-.16 2.9-.36 6.66c-.17 3.17-.38 7-.55 10.18a21.37 21.37 0 0 1-6.48 14.2c-2.26 2.3-7.65 6.62-11.76 5.1-2-.75-2.07-3.27-1.65-4.78a29.5 29.5 0 0 0 1.54-8.53 29.92 29.92 0 0 0-.63-7C681.55 142 704 132.6 704 132.6z"/><path fill="url(#h)" d="M704 132.6s-.16 2.9-.36 6.66c-1.58 3.52-3.06 6.4-3.87 7.82-1.63 2.9-8.33 7.44-15 8.35a29.92 29.92 0 0 0-.63-7C681.54 142 704 132.6 704 132.6z"/><path fill="url(#i)" d="M684.44 94.32a21.5 21.5 0 0 0-20.15 22.75c0 .5.07 1 .14 1.52a72.68 72.68 0 0 0 6.62 25.2c7 12 24.74 2.14 27.55-2.8s13.6-27.22 9.07-33.53c-3.12-4.26-11.77-13.6-23.23-13.15z"/><path fill="#3f3d56" d="M678.14 82.13a37.24 37.24 0 0 1 22.94.67c7.27 2.76 13.54 8.44 16.3 15.7a28.6 28.6 0 0 1-.63 20.7 40.44 40.44 0 0 1-13 16.44c-1.47-4.5 3.06-8.5 4.82-12.9a3.6 3.6 0 0 0 .25-2.6c-.64-1.64-3.08-1.82-4.47-.76s-2 2.85-2.5 4.52c1.34-7.15 2.34-15.55-2.72-20.8-3-3.1-7.53-4.25-11.85-4.3a29 29 0 0 0-21.2 9.12c-1.58 1.7-3.84 3.8-5.86 2.63a4 4 0 0 1-1.42-1.73c-5.97-11.82 9.7-24.05 19.34-26.7zM687.8 95.34c-5-2.2-10.25-4-15.68-4s-11.06 1.84-14.65 5.92a20.56 20.56 0 0 0-4 7.77 14.08 14.08 0 0 0-.7 5.54 23.9 23.9 0 0 0 1 4c.94 3.24 1.34 7-.7 9.72a4.4 4.4 0 0 1-3.35 1.85 2.72 2.72 0 0 1-2.74-2.33c-.88 2.5.56 5.4 2.85 6.72a9.38 9.38 0 0 0 7.67.37 8.24 8.24 0 0 0 2.83-1.54 9.7 9.7 0 0 0 2-2.75c2.1-3.78 3.14-8 4.7-12.08s3.82-8 7.5-10.3a19.37 19.37 0 0 1 9.55-2.37c3.3-.1 6.64.16 9.94-.14s.9-2.25-.5-3.28a31.76 31.76 0 0 0-5.72-3.08z"/><path fill="url(#j)" d="M822.1 59.5c.86.65-7.1 6.85-7.1 6.85s-3.72 6.4-7.5 8.2-32.18 48.14-32.18 48.14l-11.2-10.17L788.28 80s8-15.33 7.1-22c0 0 .48-7.88 2.9-4.22 1.7 2.6.6 6.72 2.6 7.16a1.1 1.1 0 0 0 .65-.14 22.53 22.53 0 0 0 4.55-3.64c4-3.8 8.78-9.1 8.78-9.1s2.62-1.12 2.3 0-5.15 8.6-5.42 9c.45-.42 7.83-7 9-6.5s-5.72 8.1-6.12 8.54c.43-.3 8.3-5.78 8.9-5.3 1.1.94-6 7.1-6.6 7.58.45-.24 4.36-2.53 5.17-1.9z"/><path fill="url(#k)" d="M813.67 64.24a4 4 0 0 1-1.85.15 51.07 51.07 0 0 0-6.06-.1c-1.36.05-4.17 1-4.24-1.12 0-.56.14-1.1.1-1.67a4.45 4.45 0 0 0-.1-.7 22.53 22.53 0 0 0 4.56-3.65 6.63 6.63 0 0 1 1.72.87l3.94 2.55c.7.46 1.4.92 2.07 1.42a1.8 1.8 0 0 1 .7.76 1.3 1.3 0 0 1-.83 1.48z"/><path fill="url(#l)" d="M618.4 7.42c-1.08.12 2.42 9.58 2.42 9.58s-.22 7.4 2 10.9 2 57.16 2 57.16l14.88-2-3.38-40.4s1.3-17.25 5.56-22.44c0 0 3.74-6.95-.23-5.1-2.82 1.3-4.07 5.37-6 4.7a1 1 0 0 1-.47-.47 21.9 21.9 0 0 1-2-5.5c-1.4-5.34-2.65-12.36-2.65-12.36s-1.6-2.3-1.86-1.2-.17 10-.16 10.5c-.16-.56-3-10.08-4.24-10.25s.6 9.9.7 10.48c-.2-.48-4-9.28-4.77-9.18-1.44.2 1.4 9.23 1.6 9.9-.27-.44-2.38-4.43-3.4-4.33z"/><path fill="url(#m)" d="M623 15.9a4 4 0 0 0 1.53 1.1 52.6 52.6 0 0 1 5.2 3.12c1.13.77 3 3.07 4.2 1.3.3-.47.46-1 .78-1.48a6.47 6.47 0 0 1 .48-.57 21.9 21.9 0 0 1-2-5.5 6.54 6.54 0 0 0-1.92-.15l-4.7.1a19.32 19.32 0 0 0-2.5.1 1.78 1.78 0 0 0-1 .3 1.3 1.3 0 0 0-.06 1.7z"/><path fill="url(#c)" d="M565.67 479.2c-4 8.18-6.9 14.53-6.9 14.53l-50.34 2.4s8.34-22.07 21.9-16.37c4.6 1.92 21.23-1.7 21.23-1.7l.52-1.66z"/><path fill="#3f3d56" d="M744.05 481.68l-7.7 4.32-66-69.38-7.3-92.62-60.17 54.6s1.6 37.58-19.43 67c-3.77 5.26-11.44 20.57-17.24 32.53-.17.37-.35.75-.52 1.12l-1.13-.23-3.93-.82-8.53-1.76 27.65-111.8 62.85-100.06 41.3 11 19 5.07s12.83 25.7 0 92.18l-8.5 38.06s34.27 18.26 44.83 54.4l4.77 16.36z"/><path fill="url(#n)" d="M744.05 481.68l7.83 8.2-19.88 20.7h-26s5.54-9.14 16.62-10.6 13.73-14 13.73-14z"/><g fill="#fff"><path d="M215.8 74.06l-4.38 1.44c19-11.2 15.36-39.68 15.13-41.36.3 1.35 4.72 20.14 2.3 26.3-3 7.72-13.04 13.62-13.04 13.62zM184.4 108.44c-2.3 3.2-11.53 8.16-12.16 8.5 12.4-7.38 9.6-26.35 9.6-26.35v.1c.48 1.3 4.83 14.6 2.57 17.74zM178.65 214.27l203.67 156.7 8.56-6.37-212.97-164zM397.62 369.97l219.7-158.14v-10.8l-226.44 164zM617.2 198.64l-.6 1.68-4.46 4.47c3.14-5.43-5.73-18-5.73-18l-3.53-2.66-10.63-8L390.88 25.52l6.4-4.9 206.48 158.26a24.86 24.86 0 0 1 13.45 19.76z" opacity=".22"/></g><path fill="url(#o)" d="M779.4 126.4s-33.83 43.75-40.25 51.08c-11.7 13.32-19.26 30.8-19.26 30.8l-17 72.33-19-5.06s17.73-66.33 24.86-80.4 66.54-72.45 66.54-72.45z"/><path fill="#25233a" d="M744 481.66c-.35-1-11.64-32.36-28.6-45.5-17.2-13.37-27.2-31.8-27.2-31.8-4-35.4-4.33-128.82-4.33-128.82l19 5.07s12.82 25.7 0 92.2l-8.5 38.05s34.26 18.3 44.82 54.45zM602.88 378.57s1.6 37.6-19.43 67c-3.77 5.27-11.44 20.58-17.24 32.54l-1.65.9-3.93-.82 32.62-102.9S632.74 328.5 640 324s23.08 0 23.08 0z"/></svg>