<svg xmlns="http://www.w3.org/2000/svg" width="494pt" height="494pt" viewBox="0 -24 494.00008 494"><path d="M441.9 0H122.48C94.75 0 72.2 22.34 72.2 49.72L70.12 331H7.8c-4.43 0-7.8 3.9-7.8 8.32v38.72c0 36.23 29 65.87 64 67.5v.46h269v-.52c2 .08 3.2.52 4.6.52h.18c37.33-.22 67.42-30.64 67.22-67.97V132h81.2c4.43 0 7.8-4 7.8-8.4V52.55C494.05 23.7 470.77.2 441.9 0zM67.5 430h-.05C39 430 16 406.48 16 378.03V347h254v30.9c-.06 18 7.05 35.3 19.77 48.04 1.35 1.36 2.76 2.06 4.2 4.06zM389 378.02c0 28.46-22.77 51.98-51.23 51.98h-.17c-28.6-.2-51.67-23.5-51.6-52.1v-38.58c.02-4.48-3.52-8.16-8-8.32H86.13L88.2 49.77c0-18.6 15.37-33.77 34.27-33.77h281.67C395.02 26 389 38.65 389 52.77zM478 52.7V116h-73V52.76C405 32.73 421.66 16 441.67 16h.22c20.06.2 36.2 16.57 36.1 36.64zm0 0M187.86 196.9l41.24 28.2c2.7 1.87 6.25 1.87 8.94 0l41.12-28.18c14.3-9.74 24.84-30.12 24.84-47.4V92.47c.1-3.02-1.58-5.8-4.27-7.18l-62.8-30.9c-2.2-1.1-4.8-1.1-7 0l-62.67 30.8c-2.7 1.37-4.35 4.17-4.26 7.18v57.14c0 17.28 10.57 37.66 24.86 47.4zM179 97.38l54.5-26.9L288 97.46v52.07c0 12.05-7.9 27.38-17.86 34.18l-36.73 25.12-36.58-25.12c-9.96-6.8-17.82-22.13-17.82-34.18zm0 0M219.97 161.6c1.5 1.53 3.53 2.4 5.66 2.4h.02c2.13 0 4.16-.86 5.66-2.37l31.83-31.83c3.13-3.13 3.13-8.2 0-11.32-3.1-3.13-8.18-3.13-11.3 0l-26.15 26.13-10.45-10.54c-3.1-3.14-8.18-3.17-11.32-.05-3.13 3.12-3.15 8.2-.04 11.33zm0 0M333 248H141c-4.42 0-8 3.58-8 8s3.58 8 8 8h192c4.42 0 8-3.58 8-8s-3.58-8-8-8zm0 0M333 285H141c-4.42 0-8 3.58-8 8s3.58 8 8 8h192c4.42 0 8-3.58 8-8s-3.58-8-8-8zm0 0"/></svg>