<svg height="429pt" viewBox="0 -1 429.69021 429" width="429pt" xmlns="http://www.w3.org/2000/svg"><path d="m127.27 185.08v.27c-1.07 18.54 9.32 35.92 26.46 44.24l.17.08c6.05 2.9 11 7.66 14.12 13.58l.07.13c8.63 16.44 26.5 26.4 45.54 25.4h.3c6.9-.4 13.75 1.38 19.6 5.1 16.12 10.07 36.6 10.07 52.7 0 5.85-3.72 12.7-5.5 19.62-5.1h.28c19.02 1 36.9-8.96 45.56-25.44l.04-.1c3.14-5.93 8.1-10.7 14.17-13.6l.15-.07c17.14-8.34 27.53-25.7 26.47-44.25l-.02-.26c-.35-6.54 1.46-13 5.16-18.4 10.66-15.55 10.66-36.05 0-51.6-3.7-5.4-5.5-11.85-5.16-18.38l.02-.27c1.06-18.55-9.33-35.92-26.5-44.25l-.14-.08c-6.04-2.9-10.98-7.63-14.1-13.54l-.1-.17c-8.64-16.4-26.52-26.37-45.54-25.37h-.3c-6.9.4-13.75-1.4-19.6-5.1-16.12-10.08-36.6-10.08-52.7 0-5.86 3.7-12.7 5.5-19.62 5.1h-.3c-19-1.02-36.9 8.96-45.52 25.4l-.07.12c-3.13 5.94-8.08 10.7-14.14 13.6l-.17.08c-17.14 8.33-27.53 25.7-26.47 44.25l.02.25c.35 6.53-1.46 13-5.17 18.4-10.65 15.54-10.65 36.04 0 51.6 3.7 5.38 5.53 11.85 5.17 18.38zm8-60.9c5.73-8.32 8.53-18.3 7.98-28.38l-.02-.27c-.56-12.3 6.34-23.7 17.48-28.93l.14-.06c9.14-4.38 16.62-11.58 21.34-20.54l.08-.15c5.74-10.93 17.76-17.56 30.52-16.88h.28c10.22.6 20.35-2.04 29-7.52 10.9-6.83 24.75-6.83 35.66 0 8.64 5.47 18.78 8.1 29 7.54l.27-.03c12.82-.67 24.78 5.95 30.5 16.85l.1.2c4.72 8.94 12.2 16.14 21.32 20.5l.13.07c11.32 5.5 18.18 16.85 17.5 28.93l-.02.3c-.55 10.06 2.26 20.04 7.97 28.36 6.9 10.06 6.9 23.34 0 33.4-5.72 8.34-8.52 18.3-7.97 28.4v.26c.7 12.08-6.16 23.44-17.48 28.95l-.12.06c-9.14 4.38-16.63 11.6-21.35 20.57l-.06.12c-5.74 10.93-17.74 17.56-30.53 16.87h-.3c-10.2-.58-20.34 2.06-29 7.53-10.9 6.82-24.74 6.82-35.64 0-7.86-4.98-16.98-7.62-26.28-7.62-.9 0-1.8.03-2.72.08l-.28.02c-12.6.8-24.5-5.8-30.53-16.9l-.1-.14c-4.7-8.95-12.17-16.14-21.3-20.5l-.14-.08c-11.3-5.5-18.17-16.86-17.47-28.94v-.28c.56-10.08-2.25-20.06-7.96-28.37-6.9-10.07-6.9-23.35 0-33.42zm73 99.42c3.75 2.34 8.68 1.2 11.02-2.55l94.76-151.82c1.55-2.43 1.67-5.5.33-8.04-1.35-2.56-3.96-4.18-6.84-4.27-2.87-.1-5.58 1.37-7.08 3.83l-94.76 151.82c-2.34 3.75-1.2 8.68 2.55 11.02zm8.49-82.3c19.48 0 35.33-18.08 35.33-40.3s-15.86-40.28-35.34-40.28-35.32 18.08-35.32 40.28 15.85 40.3 35.33 40.3zm0-64.58c10.66 0 19.33 10.9 19.33 24.28s-8.68 24.3-19.34 24.3c-10.65 0-19.33-10.9-19.33-24.3 0-13.38 8.68-24.28 19.33-24.28zm50.92 104.08c0 22.22 15.85 40.3 35.33 40.3s35.34-18.1 35.34-40.3-15.84-40.28-35.32-40.28c-19.5 0-35.34 18.06-35.34 40.28zm54.66 0c0 13.4-8.67 24.3-19.33 24.3-10.64 0-19.32-10.9-19.32-24.3s8.68-24.28 19.33-24.28c10.67 0 19.34 10.88 19.34 24.28zm106.31 132.84c-10.6-18.8-34.08-25.96-53.36-16.26l-62.68 29.6c-8.65-16.08-25.25-26.32-43.5-26.84l-57.87-1.6c-9.16-.25-18.14-2.58-26.3-6.78l-5.88-3.05c-30.14-15.7-66.06-15.66-96.17.1l.37-13.33c.12-4.42-3.36-8.1-7.78-8.22l-63.45-1.74c-4.42-.1-8.1 3.37-8.2 7.8l-3.83 139.18c-.12 4.42 3.36 8.1 7.78 8.22l63.44 1.74h.22c4.33 0 7.88-3.45 8-7.78l.18-6.66 16.48-8.82c6.47-3.48 14.03-4.3 21.1-2.3l98.4 27.6c.18.06.35.1.53.14 7.1 1.5 14.36 2.24 21.63 2.23 15.4 0 30.6-3.3 44.6-9.73.34-.16.67-.34.98-.54l142.7-92.3c3.55-2.3 4.7-6.97 2.6-10.66zm-412.43 91.3 3.4-123.2 47.43 1.3-3.4 123.2zm258.92-2.1c-17.38 7.85-36.8 10-55.47 6.2l-98.15-27.55c-11.04-3.14-22.87-1.84-32.97 3.6l-8.42 4.5 2.25-81.92c26.7-17.75 60.9-19.58 89.33-4.77l5.9 3.06c10.3 5.3 21.64 8.25 33.22 8.58l57.85 1.6c16.25.46 30.05 12.03 33.35 27.95l-86.18-2.38c-4.4-.12-8.1 3.36-8.2 7.78-.13 4.4 3.35 8.1 7.77 8.2l95.1 2.63h.23c4.33 0 7.87-3.45 8-7.78.1-3.48-.17-6.96-.78-10.38l64.26-30.37.2-.1c9.12-4.6 20.15-3.06 27.64 3.88zm0 0"/></svg>