<svg enable-background="new 0 0 477.476 477.476" viewBox="0 0 477.476 477.476" xmlns="http://www.w3.org/2000/svg"><path d="m203.84 339.08c-29.994 0-54.396 24.402-54.396 54.396s24.402 54.396 54.396 54.396 54.396-24.402 54.396-54.396-24.402-54.396-54.396-54.396zm0 93.792c-21.723 0-39.396-17.673-39.396-39.396s17.673-39.396 39.396-39.396 39.396 17.673 39.396 39.396-17.673 39.396-39.396 39.396z"/><path d="m426.679 466.75-10.795-22.664c-4.227-8.875-13.31-14.609-23.14-14.609h-16.69v-332.097c0-53.696-43.689-97.38-97.39-97.38s-97.39 43.685-97.39 97.38v137.181c-59.327 10.861-104.434 62.937-104.434 125.354v27.781h-19.273c-4.142 0-7.5 3.358-7.5 7.5v49.498c0 4.142 3.358 7.5 7.5 7.5h20.492c3.981 14.552 17.313 25.282 33.111 25.282h92.67c46.318 0 84-37.682 84-84 0-25.769-11.674-48.854-30-64.276v-67.394c0-16.173-13.157-29.33-29.33-29.33h-1.235v-135.096c0-28.331 23.054-51.38 51.39-51.38s51.39 23.049 51.39 51.38v332.097h-16.695c-9.83 0-18.913 5.734-23.139 14.609l-10.795 22.664c-1.107 2.323-.945 5.052.429 7.229 1.374 2.176 3.768 3.496 6.342 3.496h133.712c2.574 0 4.968-1.32 6.342-3.496 1.373-2.176 1.535-4.905.428-7.229zm-361.612-64.054h11.773v34.498h-11.773zm207.773-9.22c0 38.047-30.953 69-69 69s-69-30.953-69-69 30.953-69 69-69 69 30.953 69 69zm-30-131.67v57.307c-11.663-6.142-24.928-9.637-39-9.637-46.318 0-84 37.682-84 84 0 28.557 14.335 53.816 36.176 69h-44.846c-10.659 0-19.33-8.671-19.33-19.33v-83.231c0-61.999 50.44-112.439 112.439-112.439h24.23c7.903 0 14.331 6.428 14.331 14.33zm-30.565-164.426v135.095h-7.996c-2.689 0-5.356.094-8.004.259v-135.354c0-42.895 32.964-78.221 74.89-82.024v16.079c-33.087 3.739-58.89 31.879-58.89 65.945zm73.89-65.945v-16.078c41.926 3.803 74.89 39.128 74.89 82.024v8.113h-16v-8.114c0-34.066-25.802-62.206-58.89-65.945zm58.89 89.058h16v308.984h-16zm-46.979 341.983 5.687-11.939c1.753-3.681 5.521-6.059 9.597-6.059h79.385c4.077 0 7.844 2.378 9.598 6.059l5.687 11.939z"/></svg>