<svg enable-background="new 0 0 60 60" viewBox="0 0 60 60" xmlns="http://www.w3.org/2000/svg"><path d="m30 0c-16.542 0-30 13.458-30 30s13.458 30 30 30 30-13.458 30-30-13.458-30-30-30zm0 58c-15.439 0-28-12.561-28-28s12.561-28 28-28 28 12.561 28 28-12.561 28-28 28z"/><path d="m31 26.021v-10.142c0-.553-.448-1-1-1s-1 .447-1 1v10.142c-1.399.364-2.494 1.459-2.858 2.858h-7.142c-.552 0-1 .447-1 1s.448 1 1 1h7.142c.447 1.72 2 3 3.858 3 2.206 0 4-1.794 4-4 0-1.859-1.28-3.411-3-3.858zm-1 5.858c-1.103 0-2-.897-2-2s.897-2 2-2 2 .897 2 2-.897 2-2 2z"/><path d="m30 9.879c.552 0 1-.447 1-1v-1c0-.553-.448-1-1-1s-1 .447-1 1v1c0 .553.448 1 1 1z"/><path d="m30 49.879c-.552 0-1 .447-1 1v1c0 .553.448 1 1 1s1-.447 1-1v-1c0-.553-.448-1-1-1z"/><path d="m52 28.879h-1c-.552 0-1 .447-1 1s.448 1 1 1h1c.552 0 1-.447 1-1s-.448-1-1-1z"/><path d="m9 28.879h-1c-.552 0-1 .447-1 1s.448 1 1 1h1c.552 0 1-.447 1-1s-.448-1-1-1z"/><path d="m44.849 13.615-.707.707c-.391.391-.391 1.023 0 1.414.195.195.451.293.707.293s.512-.098.707-.293l.707-.707c.391-.391.391-1.023 0-1.414s-1.023-.39-1.414 0z"/><path d="m14.444 44.021-.707.707c-.391.391-.391 1.023 0 1.414.195.195.451.293.707.293s.512-.098.707-.293l.707-.707c.391-.391.391-1.023 0-1.414s-1.024-.39-1.414 0z"/><path d="m45.556 44.021c-.391-.391-1.023-.391-1.414 0s-.391 1.023 0 1.414l.707.707c.195.195.451.293.707.293s.512-.098.707-.293c.391-.391.391-1.023 0-1.414z"/><path d="m15.151 13.615c-.391-.391-1.023-.391-1.414 0s-.391 1.023 0 1.414l.707.707c.195.195.451.293.707.293s.512-.098.707-.293c.391-.391.391-1.023 0-1.414z"/></svg>