<svg xmlns="http://www.w3.org/2000/svg" width="96" height="26"><mask id="a"><path fill="#fff" fill-rule="evenodd" d="M10.96.26v14.7H.13V.26z"/></mask><mask id="b"><path fill="#fff" fill-rule="evenodd" d="M12.84.13H.24v15.02h12.6z"/></mask><mask id="c"><path fill="#fff" fill-rule="evenodd" d="M12.6.13H0v15.02h12.6z"/></mask><g fill="#999" fill-rule="evenodd"><path d="M52.83 20.27c-4.95 3.64-12.12 5.58-18.3 5.58-8.66 0-16.45-3.2-22.35-8.5-.46-.42-.05-1 .5-.67 6.37 3.7 14.24 5.92 22.37 5.92 5.48 0 11.5-1.14 17.06-3.48.84-.36 1.54.55.73 1.15M54.88 17.93c-.63-.8-4.18-.4-5.77-.2-.48.06-.55-.36-.12-.66 2.84-2 7.48-1.4 8.02-.75.54.67-.15 5.3-2.8 7.52-.4.34-.8.16-.62-.3.6-1.48 1.94-4.8 1.3-5.6M49.22 3.06V1.13c0-.3.22-.5.5-.5h8.65c.28 0 .5.2.5.5v1.65c0 .28-.24.64-.65 1.22l-4.5 6.38c1.68-.04 3.44.2 4.95 1.06.34.2.44.47.46.75v2.05c0 .28-.3.6-.64.44-2.67-1.4-6.2-1.56-9.16 0-.3.17-.6-.16-.6-.44V12.3c0-.3 0-.84.3-1.32l5.2-7.44h-4.52c-.28 0-.5-.2-.5-.48M17.62 15.1H15c-.27-.02-.47-.2-.5-.45l.02-13.48c0-.27.22-.5.5-.5h2.46c.26.02.46.22.48.46V2.9H18C18.66 1.2 19.86.4 21.5.4c1.64 0 2.68.8 3.4 2.5.65-1.7 2.1-2.5 3.66-2.5 1.1 0 2.3.45 3.05 1.47.82 1.14.65 2.78.65 4.23v8.5c0 .28-.23.5-.5.5H29.1c-.26-.02-.46-.23-.46-.5V7.47c0-.57.04-2-.08-2.52-.2-.9-.8-1.17-1.55-1.17-.63 0-1.3.43-1.56 1.1-.27.7-.25 1.82-.25 2.6v7.14c0 .28-.24.5-.52.5h-2.63c-.27-.02-.47-.23-.47-.5V7.47c0-1.5.24-3.72-1.63-3.72-1.9 0-1.82 2.16-1.82 3.72v7.15c0 .28-.23.5-.5.5M66.35 3.15c-1.94 0-2.06 2.64-2.06 4.28 0 1.65-.04 5.17 2.03 5.17 2.04 0 2.14-2.84 2.14-4.57 0-1.14-.05-2.5-.4-3.58-.3-.93-.88-1.3-1.72-1.3M66.33.4c3.9 0 6.03 3.34 6.03 7.6 0 4.1-2.34 7.38-6.03 7.38-3.84 0-5.93-3.35-5.93-7.52 0-4.2 2.12-7.46 5.93-7.46"/><path d="M3.23 14.96H.6c-.26 0-.46-.22-.46-.48V.98c0-.24.23-.43.5-.43h2.44c.23 0 .42.17.47.38V3h.05C4.34 1.13 5.37.25 7.2.25c1.17 0 2.33.43 3.07 1.6.7 1.07.7 2.9.7 4.2v8.48c-.04.24-.26.42-.52.42H7.8c-.24 0-.43-.2-.46-.42V7.22c0-1.48.17-3.64-1.65-3.64-.65 0-1.24.43-1.53 1.08-.37.83-.42 1.65-.42 2.56v7.26c0 .27-.24.48-.52.48" mask="url(#a)" transform="translate(74.195 .13)"/><path d="M10.67 14.93c-.18.16-.43.17-.63.06-.87-.73-1.03-1.07-1.5-1.76-1.45 1.47-2.48 1.9-4.35 1.9-2.23 0-3.96-1.36-3.96-4.1 0-2.12 1.16-3.57 2.8-4.28 1.44-.63 3.44-.74 4.97-.9V5.5c0-.62.06-1.36-.3-1.9-.33-.48-.95-.68-1.5-.68-1 0-1.9.5-2.1 1.58-.06.24-.23.47-.47.48L1.08 4.7c-.22-.04-.46-.2-.4-.54C1.3 1.06 4.1.13 6.6.13c1.28 0 2.96.35 3.97 1.3 1.28 1.2 1.16 2.8 1.16 4.53v4.1c0 1.23.52 1.77 1 2.43.17.23.2.52 0 .7-.55.44-1.5 1.27-2.03 1.74zM8 8.53c0 1.02.03 1.87-.48 2.78-.42.75-1.1 1.2-1.83 1.2-1.02 0-1.6-.76-1.6-1.9 0-2.24 2-2.65 3.9-2.65z" mask="url(#b)" transform="translate(34.305 .13)"/><path d="M10.42 14.93c-.17.16-.42.17-.62.06-.88-.73-1.03-1.07-1.5-1.76-1.46 1.47-2.48 1.9-4.36 1.9-2.2 0-3.94-1.36-3.94-4.1 0-2.12 1.16-3.57 2.8-4.28 1.44-.63 3.44-.74 4.97-.9V5.5c0-.62.05-1.36-.32-1.9-.33-.48-.94-.68-1.48-.68-1 0-1.9.5-2.12 1.58-.05.24-.22.47-.46.48L.83 4.7c-.22-.04-.46-.2-.4-.54.6-3.1 3.4-4.03 5.9-4.03 1.28 0 2.95.35 3.97 1.3 1.3 1.2 1.16 2.8 1.16 4.53v4.1c0 1.23.52 1.77 1 2.43.17.23.2.52 0 .7-.55.44-1.5 1.27-2.03 1.74zm-2.65-6.4c0 1.02.02 1.87-.5 2.78-.42.75-1.08 1.2-1.82 1.2-1 0-1.6-.76-1.6-1.9 0-2.24 2-2.65 3.92-2.65z" mask="url(#c)" transform="translate(0 .13)"/></g></svg>