<svg height="70" preserveAspectRatio="xMidYMid meet" viewBox="0 0 1280 1280" xmlns="http://www.w3.org/2000/svg"><g fill="#999" transform="matrix(.1 0 0 -.1 0 1280)"><path d="m5245 9410c-139-22-317-94-428-174-81-57-202-185-264-277-83-124-128-249-159-434-14-90-16-234-13-1450 4-1346 4-1350-17-1385-11-19-40-46-65-60-42-23-51-24-204-22-399 4-957 25-1042 38-219 33-426 145-604 326-124 125-208 257-258 406-64 190-50 494 32 713 110 293 348 539 622 644 178 69 167 67 745 74 583 7 585 7 626 74 18 30 19 52 19 292 0 255 0 261-23 298-13 20-32 42-42 47-32 17-831 13-1011-5-608-61-1033-280-1338-690-190-256-305-575-346-962-19-176-19-266 0-428 45-382 195-699 464-978 287-298 628-465 1066-522 97-13 280-17 950-21 533-4 861-3 918 4 118 13 170 44 212 127l30 59 2 1615c1 889 4 1639 8 1667 13 105 90 220 175 257 63 28 143 27 206-3 79-39 132-102 253-304 171-285 678-1089 1043-1656 269-416 436-686 521-838 155-275 300-499 466-722 131-176 165-199 238-163 46 22 76 73 99 166 18 74 17 153-6 427-7 93-10 569-8 1525l3 1390 25 48c37 73 85 123 147 153 97 48 192 30 282-51 67-61 152-192 841-1305 117-190 315-500 440-690s304-466 400-615c410-641 630-978 653-1003 12-13 35-31 51-39 27-14 31-13 69 14 22 15 50 41 61 56l21 28v2129 2129l-21 27c-50 68-45 67-336 65-295-2-307-5-341-74-17-35-18-89-17-1054 0-564 5-1045 10-1078 20-133 20-134-4-161l-22-26-41 68c-22 38-121 206-220 374s-225 379-280 470c-56 91-169 289-253 440-229 414-339 572-516 740-246 233-538 341-814 302-416-60-705-307-830-709-74-238-86-653-40-1403 9-144 8-172-6-217-9-29-19-53-23-53-3 0-18 22-32 48s-95 164-179 307c-85 143-231 393-325 555-405 698-652 1065-818 1215-128 118-288 206-432 241-78 18-244 25-320 14z"/><path d="m11323 9409c-17-5-42-24-55-42-21-29-23-42-23-162 0-71 6-211 13-310 11-145 13-536 9-2031l-5-1851-21-49c-30-67-92-127-164-159-104-47-207-24-293 67-62 64-128 168-787 1223-82 132-329 524-547 870-218 347-493 783-610 970s-241 381-276 432c-58 83-68 93-113 108-28 9-67 15-88 13-34-3-40-7-66-59-17-34-35-93-45-150-15-88-14-122 2-464 15-320 17-533 14-1575l-3-1205-23-57c-13-31-44-80-69-108-78-87-154-113-247-86-47 14-69 29-135 94-64 63-105 120-226 312-82 129-258 401-393 605-280 423-460 701-554 860-36 61-122 205-190 320-220 369-803 1299-874 1393-37 48-127 112-166 119-52 8-95-19-121-75-20-43-22-62-20-202 1-85 7-274 13-420 15-354 23-1900 13-2370l-9-375-28-57c-34-71-113-160-175-196l-46-27-710 2c-895 3-1425 22-1595 58-306 65-602 243-871 522-384 398-561 899-520 1466 22 300 70 506 171 737 242 550 669 920 1230 1066 248 64 620 91 1120 80 289-7 338-2 374 34 20 20 21 30 21 263v242l-27 47c-54 91-42 88-362 88-964-1-1350-59-1782-270-364-177-704-459-950-785-190-253-285-447-388-796-114-388-153-663-127-904 15-135 72-452 107-589 131-515 377-941 729-1258 434-391 935-621 1535-703 188-26 722-37 1415-31 532 4 656 8 735 22 462 80 745 339 801 734 9 59 13 292 14 765l2 680 23 54 24 54 33-39c18-21 49-73 69-114 91-190 663-1092 1062-1678 144-210 147-214 241-284 117-87 266-160 398-195 87-24 117-27 263-27 132-1 179 3 235 18 262 71 452 228 571 471 51 105 81 216 94 353 19 183 23 496 11 782-7 157-13 370-13 473-1 160 2 194 17 228l18 40 33-32c25-24 48-70 89-173 41-107 83-189 173-336 142-235 253-407 383-596 54-78 160-244 235-370s159-262 187-304c72-105 253-284 362-357 335-226 593-257 950-116 142 56 221 107 315 202 98 99 154 191 199 326 61 184 66 237 66 695 0 228-6 539-12 690-7 151-17 849-23 1550s-13 1398-17 1548c-7 342 5 319-159 312-128-5-240-4-344 4-36 2-79 0-97-5z"/></g></svg>