<svg xmlns="http://www.w3.org/2000/svg" width="119" height="30"><mask id="a"><path fill="#fff" fill-rule="evenodd" d="M15.06 0h15v30h-30V0z"/></mask><g fill="none"><path fill="#999" d="M0 4.44v21.12h13.2V21.3H4.63V4.43z"/><g fill="#999"><path d="M17.46 4.12a2.58 2.58 0 110 5.16 2.58 2.58 0 010-5.16zm-2.22 21.44h4.45V11.24h-4.46zM38.28 4.44h4.45v12.62l5.03-5.83h5.45l-5.82 6.63 5.7 7.7H47.5l-4.72-7.07h-.05v7.06h-4.45zm-16.13 6.8h4.27v1.96h.06a4.65 4.65 0 014.2-2.3c4.5 0 5.34 2.95 5.34 6.8v7.86h-4.44V18.6c0-1.66-.03-3.8-2.32-3.8-2.3 0-2.67 1.8-2.67 3.68v7.08h-4.45zm44.19 11.84a7.85 7.85 0 01-6.08 2.85c-4.44 0-8-2.97-8-7.57s3.56-7.56 8-7.56c4.16 0 6.76 2.97 6.76 7.56v1.4h-10.3a3.29 3.29 0 003.34 2.78c1.45 0 2.43-.74 3.17-1.74zm-3.76-6.34a2.67 2.67 0 00-2.73-2.73c-1.96 0-3.03 1.34-3.14 2.74zm21.36 8.81h-4.1v-1.9h-.05a5.59 5.59 0 01-4.43 2.26c-4.27 0-7.1-3.07-7.1-7.43 0-4 2.5-7.68 6.6-7.68 1.84 0 3.55.5 4.56 1.88h.06V4.44h4.44zM76.3 14.7c-2.23 0-3.57 1.5-3.57 3.65 0 2.17 1.34 3.65 3.56 3.65 2.2 0 3.55-1.48 3.55-3.65 0-2.16-1.34-3.65-3.56-3.65z"/><path d="M27.84 0H2.27C1.05 0 .07.97.07 2.16v25.68c0 1.2.98 2.16 2.2 2.16h25.57a2.2 2.2 0 002.22-2.17V2.16c0-1.2-1-2.16-2.22-2.16" mask="url(#a)" transform="translate(88.333)"/></g><path fill="#fefefe" d="M95.06 4.13a2.58 2.58 0 110 5.17 2.58 2.58 0 010-5.16zm-2.22 21.43h4.45v-14.3h-4.46zm7.24-14.31h4.26v1.95h.07a4.7 4.7 0 014.22-2.3c4.5 0 5.33 2.96 5.33 6.8v7.86h-4.44V18.6c0-1.66-.02-3.8-2.3-3.8-2.32 0-2.68 1.8-2.68 3.68v7.08h-4.44z"/></g></svg>