<svg xmlns="http://www.w3.org/2000/svg" height="60" viewBox="0 0 485 485"><g fill="#999"><path d="M321.27 328.41c-16.27 0-37.08-7.25-47.17-13.3l-9.75 39.2c13.31 7.24 33.87 12.3 56.92 12.3 50.36 0 76.38-24.13 76.38-57.02-.38-25.9-14.42-42.89-47.94-54.33-21.53-7.63-28.31-11.96-28.31-20.22 0-8.98 7.5-14.4 20.8-14.4 15.14 0 30.19 5.8 38.2 10.11l9.7-37.84c-10.8-5.42-29.16-10.09-49.75-10.09-43.58 0-71.68 24.88-71.68 57.65-.38 20.94 13.66 40.77 50.14 52.97 20.43 6.91 25.86 11.2 25.86 20.19 0 9.01-6.9 14.78-23.4 14.78zM141.69 276.2c5.04.72 11.57.97 18.7.97 32.41 0 60.23-7.88 78.83-25.48 14.54-13.68 22.42-33.9 22.42-57.64 0-23.78-10.34-43.99-25.98-56.2-16.15-13.05-40.27-19.45-74.17-19.45-33.49 0-57.27 2.21-74.14 5.05v239.59h54.34v-86.85zm.1-114.19c3.84-1.1 11.47-2.2 22.54-2.2 27.46 0 42.88 13.27 43 35.56 0 24.92-18.12 39.67-47.3 39.67-7.88 0-13.55-.34-18.25-1.35z"/><path d="M0 0v485h485V0zm455 455H30V30h425z"/></g></svg>