<svg xmlns="http://www.w3.org/2000/svg" width="112" height="29"><mask id="a" fill="#fff"><path fill-rule="evenodd" d="M28.91 28.6H0V0h28.91z"/></mask><g fill="none" fill-rule="evenodd"><path fill="#fefefe" d="M2.04 25.53h25.81V2.41H2.04z"/><g fill="#999"><path d="M5.54 20.03a477.56 477.56 0 0110.28-9.62c-4.19.97-8.56 2.28-10.12 2.98l-2.35 2.4c1.97-.42 2.6-.5 4.03-.71zM20.47 8.57s-7.1 7.06-8.21 8.07c2.16-.77 6.58-1.7 9.39-1.86.32-.98.67-1.7.67-1.7l3.76-.37s-2.86-2.28-5.61-4.14zM4.32 23.4c.8-.35 8.46-2.87 15.5-3.3.14-.58.91-2.55 1.05-3.08a48.25 48.25 0 00-15.61 3.76zM15.74 5.49c-1.26.58-4.9 3.35-6.85 4.8 2.38-.78 8.1-2.03 11.03-2.1a61.3 61.3 0 00-4.18-2.7zM0 28.6h28.91V0H0z" mask="url(#a)" transform="translate(.424 .02)"/><path d="M50.09 25l1.07-3.34h-6.94c-.82 0-1.74.01-1.74.01s.32-.6.77-1.32l7.83-13.56V3.83H38.76l-.92 3.4h6.34c1.24 0 1.7.04 1.7.04s-.31.72-.87 1.66l-7.77 13.2V25zM55.86 10.1a2.44 2.44 0 00.05-4.87 2.46 2.46 0 00-2.48 2.44c0 1.34 1.1 2.43 2.43 2.43M53.87 25.03h3.97V10.96l-3.96.88zM61.74 25l-.03-20.77 4.06-.9.03 21.66zM69.63 25L69.6 4.22l4.06-.9.03 21.66zM107.72 25l4.32-15h-4.08l-1.16 5.36c-.41 1.9-.74 4.25-.83 4.9 0 0-.44-2.52-1.12-5.3L103.63 10H99.9l-1.42 5.04c-.71 2.55-1.1 5.22-1.1 5.22s-.47-2.93-.85-4.66L95.32 10h-4.05l4.22 15h3.7l.77-3.07c.36-1.4 1-3.99 1.3-5.28.24-1.08.27-1.29.36-1.93.09.59.12.8.24 1.5.17.99.53 2.43.85 3.63l1.37 5.15zM88.5 23.25c1.3-1.47 1.9-3.23 1.9-5.8 0-2.44-.53-4.08-1.75-5.48A6.38 6.38 0 0083.5 9.7c-4.09 0-6.81 3.13-6.81 7.85s2.7 7.76 6.8 7.76c2.35 0 3.86-.78 5.01-2.07m-3.22-9.85c.53.68.8 2 .8 4.02 0 3.54-.75 5.07-2.46 5.07-.77 0-1.66-.42-2.02-1.24-.32-.76-.5-2.05-.5-3.78 0-1.5.15-2.55.41-3.34a2.14 2.14 0 012.05-1.52c.7 0 1.33.3 1.72.8"/></g></g></svg>