<svg xmlns="http://www.w3.org/2000/svg" viewBox="0 0 24.17 24.17"><defs><style>.cls-1{fill:#00bed7;}</style></defs><title>barcode</title><g id="Layer_2"><g id="Capa_1"><g id="bar_code"><path d="M23.6 20.82L21.7 19a.38.38 0 0 0-.15-.1 5.1 5.1 0 1 0-2.7 2.72.4.4 0 0 0 .08.16l1.9 1.86a2 2 0 1 0 2.76-2.78zm-6.75.4a4.34 4.34 0 1 1 4.34-4.33 4.35 4.35 0 0 1-4.35 4.33zm6.2 1.84a1.24 1.24 0 0 1-1.7 0l-1.85-1.82a5.1 5.1 0 0 0 1.7-1.7l1.86 1.82a1.2 1.2 0 0 1 0 1.7zM22.28 0H1.88A1.9 1.9 0 0 0 0 1.9v15.85a1.9 1.9 0 0 0 1.9 1.9h9.37a5.65 5.65 0 0 1-.3-.76H1.88a1.13 1.13 0 0 1-1.14-1.15V1.9A1.13 1.13 0 0 1 1.9.74h20.38a1.14 1.14 0 0 1 1.13 1.13v15.87a1.1 1.1 0 0 1-.43.88l.5.5a2.06 2.06 0 0 0 .7-1.38V1.9a1.9 1.9 0 0 0-1.9-1.9zM21.15 3a.38.38 0 0 0-.76 0v8.74a6.88 6.88 0 0 1 .75.62zM12.84 12.13V3a.38.38 0 0 0-.75 0v9.86a6.2 6.2 0 0 1 .74-.73zM18.88 3a.38.38 0 0 0-.76 0v7.76a6 6 0 0 1 .76.2zM17.37 10.68V3a.38.38 0 0 0-.75 0v7.64h.24zM15.1 3a.38.38 0 0 0-.75 0v8.16a6.18 6.18 0 0 1 .75-.28zM9.44 2.64a.38.38 0 0 0-.38.36v12.48a.38.38 0 1 0 .76 0V3a.38.38 0 0 0-.38-.36zM7.93 2.64a.38.38 0 0 0-.38.36v12.48a.38.38 0 1 0 .75 0V3a.38.38 0 0 0-.37-.36zM5.66 2.64A.38.38 0 0 0 5.3 3v12.48a.38.38 0 1 0 .74 0V3a.38.38 0 0 0-.38-.36zM3.4 2.64A.38.38 0 0 0 3 3v12.48a.38.38 0 1 0 .75 0V3a.38.38 0 0 0-.35-.36z" class="cls-1"/></g></g></g></svg>