<svg xmlns="http://www.w3.org/2000/svg" viewBox="0 0 24.17 24.17"><defs><style>.cls-1{fill:#00bed7;}</style></defs><title>home</title><g id="Layer_2"><g id="Capa_1"><g id="store"><path d="M23.6 24.17H.57a.38.38 0 0 1 0-.75h23a.38.38 0 1 1 0 .75zM7.17 18.67a.57.57 0 0 1-.57-.57v-2.9a.57.57 0 0 1 1.13 0v2.9a.57.57 0 0 1-.56.57zM15.86 22a.38.38 0 0 1-.27-.64l3.77-3.75a.38.38 0 0 1 .53.55l-3.78 3.75a.38.38 0 0 1-.26.1zM17.75 21.95a.4.4 0 0 1-.27-.1.38.38 0 0 1 0-.54l1.9-1.87a.38.38 0 0 1 .52 0 .38.38 0 0 1 0 .53L18 21.84a.38.38 0 0 1-.25.1zM1.9 23.64a.38.38 0 0 0 .74 0v-9.87a4.22 4.22 0 0 1-.75-.17zM8.74 13.78v9.86a.38.38 0 0 0 .75 0v-9.86c-.13 0-.25 0-.37 0a3.9 3.9 0 0 1-.4 0zM21.52 23.64a.38.38 0 0 0 .75 0v-10a4.2 4.2 0 0 1-.75.17zM22.2 0H2L0 8.75v.7a3.23 3.23 0 0 0 6.2 1.32 3.23 3.23 0 0 0 5.9 0 3.23 3.23 0 0 0 5.9 0 3.23 3.23 0 0 0 6.18-1.32v-.7zM5.7 9.45a2.48 2.48 0 0 1-5 0V9.2h5zm.1-1h-5L2.58.75h3.78zm5.8 1a2.48 2.48 0 0 1-5 0V9.2h5zm0-1h-5l.56-7.7h4.48zm5.88 1a2.48 2.48 0 1 1-5 0v-.23h5zm-5.07-1V.77H17l.6 7.66zm5.4-7.7h3.8l1.7 7.7h-4.9zm5.6 8.7a2.48 2.48 0 0 1-5 0v-.23h5z" class="cls-1"/></g></g></g></svg>