<svg xmlns="http://www.w3.org/2000/svg" viewBox="0 0 24.17 24.16"><defs><style>.cls-1{fill:#00bed7;}</style></defs><title>offers</title><g id="Layer_2"><g id="Capa_1"><g id="discount"><path d="M11.3 9.75c0 1.83-.95 2.74-2.07 2.74s-2-.88-2-2.62.93-2.7 2.1-2.7 1.97.93 1.97 2.57zm-3.18.08c0 1.1.4 2 1.14 2s1.12-.83 1.12-2-.3-1.93-1.14-1.93-1.12.85-1.12 1.93zm1 6.32l5.1-9H15l-5.1 9zm7.88-2.8c0 1.83-.95 2.73-2.07 2.73s-2-.87-2-2.6.93-2.72 2.1-2.72 1.97.94 1.97 2.6zm-3.18.08c0 1.1.4 1.95 1.13 1.95s1.12-.82 1.12-2-.3-1.93-1.14-1.93-1.15.88-1.15 1.98zM12.08 24.16a.9.9 0 0 1-.65-.27L10 22.46l-1.85.76a.94.94 0 0 1-1.15-.5l-.8-1.85h-2a.92.92 0 0 1-.93-.88v-2l-1.85-.77A.93.93 0 0 1 .92 16l.77-1.85-1.43-1.43a.9.9 0 0 1 0-1.3L1.7 10 .9 8.15a.87.87 0 0 1 0-.7.9.9 0 0 1 .5-.5l1.85-.77v-2a.92.92 0 0 1 .92-.92h2L7 1.4A.94.94 0 0 1 8.17.9L10 1.7 11.43.26a.93.93 0 0 1 1.3 0l1.42 1.42L16 .9a.94.94 0 0 1 1.2.5l.8 1.86h2a.92.92 0 0 1 .92.92v2l1.82.82a.9.9 0 0 1 .5.5.9.9 0 0 1 0 .7l-.76 1.8 1.42 1.42a.9.9 0 0 1 .27.65.9.9 0 0 1-.27.65l-1.4 1.42.74 1.86a.9.9 0 0 1 0 .7.9.9 0 0 1-.5.5l-1.84.8v2a.92.92 0 0 1-.92.92H18l-.77 1.85a.94.94 0 0 1-1.2.5l-1.86-.76-1.42 1.43a.9.9 0 0 1-.67.23zm-1.88-2.58l1.8 1.77a.14.14 0 0 0 .23 0L14 21.58l2.32 1c.1 0 .2 0 .22-.1l1-2.3H20a.16.16 0 0 0 .16-.18v-2.54l2.32-1a.15.15 0 0 0 .1-.1.18.18 0 0 0 0-.12l-1-2.3 1.76-1.78a.16.16 0 0 0 0-.12.15.15 0 0 0 0-.1l-1.77-1.8 1-2.3a.2.2 0 0 0 0-.13.16.16 0 0 0-.1-.08l-2.3-1V4.18A.16.16 0 0 0 20 4h-2.53l-1-2.32a.17.17 0 0 0-.16-.1l-2.3 1-1.8-1.8a.14.14 0 0 0-.23 0L10.2 2.6l-2.32-1c-.13 0-.2 0-.22.08L6.7 4H4.2a.16.16 0 0 0-.2.18v2.5l-2.32 1a.16.16 0 0 0-.1.1.2.2 0 0 0 0 .13l1 2.33L.82 12a.15.15 0 0 0-.04.1.16.16 0 0 0 0 .12L2.58 14l-1 2.32a.16.16 0 0 0 .1.2l2.3 1V20a.16.16 0 0 0 .17.17H6.7l1 2.32a.17.17 0 0 0 .15.1z" class="cls-1"/></g></g></g></svg>