<svg xmlns="http://www.w3.org/2000/svg" viewBox="0 0 24.17 24.17"><defs><style>.cls-1{fill:#00bed7;}</style></defs><title>piggy-bank</title><g id="Layer_2"><g id="Capa_1"><g id="piggy_bank"><path d="M15.48 7.55a3.78 3.78 0 1 1 3.76-3.78 3.78 3.78 0 0 1-3.76 3.78zm0-6.8a3 3 0 1 0 3 3 3 3 0 0 0-3-3zM14.35 10.2h-.08a11.8 11.8 0 0 0-5.87 0 .37.37 0 0 1-.45-.28.38.38 0 0 1 .28-.45 12.53 12.53 0 0 1 6.2 0 .38.38 0 0 1 .3.45.38.38 0 0 1-.38.28zM23.9 9.07a.38.38 0 0 0-.47.23 1.34 1.34 0 0 1-.44.5c0-.13 0-.24 0-.37a1.5 1.5 0 1 0-1.52 1.5c.15 0 .27 0 .4 0a1.6 1.6 0 0 1-.3.36 2.22 2.22 0 0 1-1.57.43.38.38 0 0 0-.1.75h.33a2.82 2.82 0 0 0 1.83-.63 2.52 2.52 0 0 0 .7-1.1 2.12 2.12 0 0 0 1.34-1.2.38.38 0 0 0-.2-.48zm-3.15.35a.76.76 0 1 1 .76.75.76.76 0 0 1-.75-.74zM20.38 14.32a8 8 0 0 0-2.82-6.52 4.56 4.56 0 0 1-.8.32 7.08 7.08 0 0 1 2.87 6.2 7 7 0 0 1-3.28 6.4.38.38 0 0 0-.18.4l.37 1.88a.38.38 0 0 1-.38.38H13.6a.38.38 0 0 1-.38-.38v-.8a.38.38 0 0 0-.14-.28.37.37 0 0 0-.24-.1h-.08a8.18 8.18 0 0 1-2.37 0 5.65 5.65 0 0 0-.58 0 .38.38 0 0 0-.38.4V23a.38.38 0 0 1-.38.38H6.5a.4.4 0 0 1-.4-.3l.4-2a.4.4 0 0 0-.18-.4 6.47 6.47 0 0 1-3-4.15.38.38 0 0 0-.42-.3l-1.75.28-.36-4 2 .2a.38.38 0 0 0 .4-.3 6.55 6.55 0 0 1 2-3.68.38.38 0 0 0 .1-.35L4.63 5.1c1.48.1 3.16.68 3.72 1.66a.38.38 0 0 0 .4.18 12.05 12.05 0 0 1 2.6-.27h.7a4.5 4.5 0 0 1-.54-.77h-.17a13.14 13.14 0 0 0-2.5.23c-.9-1.24-3-1.82-4.68-1.82a.38.38 0 0 0-.37.46L4.5 8.3a7.3 7.3 0 0 0-2 3.6l-2.1-.2a.4.4 0 0 0-.3.1.37.37 0 0 0-.1.3L.38 17a.37.37 0 0 0 .43.34l1.83-.28a7.16 7.16 0 0 0 3.07 4.17L5.36 23a1.13 1.13 0 0 0 1.13 1.13h2.56A1.13 1.13 0 0 0 10.2 23v-.38h.1a9.5 9.5 0 0 0 2.16 0V23a1.13 1.13 0 0 0 1.13 1.13h2.56A1.14 1.14 0 0 0 17.3 23l-.3-1.77a7.77 7.77 0 0 0 3.38-6.9z" class="cls-1"/></g></g></g></svg>