<svg xmlns="http://www.w3.org/2000/svg" width="610" height="395"><linearGradient id="a" x1="50%" x2="50%" y1="0%" y2="98.514%"><stop offset="0" stop-color="#f5f6f7"/><stop offset="1" stop-color="#f5f6f7" stop-opacity="0"/></linearGradient><path fill="url(#a)" fill-rule="evenodd" d="M9.87 310.1c-26.7 21.56 5.73 66.96 16.25 97.53.12.34.24.68.36 1.02.54 1.55 1.07 3.1 1.64 4.64a297.1 297.1 0 0 0 9.1 22.33c8.07 17.72 91.77-158.77 29.74 51.35-62.02 210.12 90.87-78.27 104.8-65.27 13.94 13-37.05 133.9-20.64 144.18 17.06 10.64 33.83 18.57 49.65 24.66 1.98.77 3.9 1.58 5.86 2.27l5.8 2c3.84 1.27 7.55 2.64 11.27 3.63l6.14 1.77c2.05.57 4.06 1.24 6.13 1.68l12.23 2.9c16.35 3.37 32.46 5.3 48.04 6.13 4.1.13 7.94.24 11.6.36 1.84.1 3.63-.02 5.4-.03l5.2-.1c6.83.02 13.3-.63 20.2-1.02 1.7-.06 3.38-.32 5.08-.5l5.08-.58c3.4-.4 6.82-.73 10.2-1.36l10.2-1.7c3.4-.64 6.76-1.45 10.16-2.18l5.04-1.1c1.68-.43 3.36-.92 5.05-1.38 3.37-.94 6.77-1.85 10.13-2.83l9.84-3.3c1.6-.55 3.22-1.02 4.75-1.65l4.56-1.8c23.78-9.34 40.37-19.14 52.65-26.9 1.5-.97 2.94-1.9 4.34-2.8 1.4-.88 2.78-1.75 4.04-2.68 2.56-1.8 4.96-3.5 7.2-5.07l3.26-2.28 2.93-2.27c1.88-1.45-164-100.65-162.4-101.9 13.06-10.3 193.65 75.74 205.84 62.08l4.53-5.17c.75-.88 1.55-1.72 2.26-2.63l2.14-2.73 3.83-4.84c1.26-1.62 2.57-3.17 3.7-4.84l6.83-9.55c2.17-3.2 4.17-6.42 6.22-9.56 7.9-12.73 14.65-25.13 19.84-37.13l2-4.43c.7-1.45 1.2-2.95 1.8-4.4l3.37-8.6c.27-.7.56-1.4.8-2.1l.7-2.1 1.4-4.13c.9-2.73 1.83-5.38 2.65-8 1.45-5.27 2.92-10.25 4.12-15l3-13.43c1.45-8.44 2.8-15.63 3.32-21.57l.86-7.85c.2-2.27.25-4.2.34-5.76.13-3.13.15-4.8.03-4.86-.1-.08-.35 1.42-.7 4.37l-.62 5.52-1.15 7.58-.67 4.54c-.1.8-.23 1.6-.35 2.45-.14.83-.32 1.68-.5 2.55l-2.2 11.4c-.9 4.08-2.05 8.43-3.16 13.08-.52 2.34-1.27 4.7-2 7.12l-2.2 7.5c-.2.65-.4 1.3-.58 1.95-.22.64-.44 1.28-.67 1.93l-1.37 3.94-2.86 8.17-3.4 8.38c-.58 1.42-1.16 2.86-1.75 4.32-.58 1.46-1.3 2.87-1.97 4.33l-4.12 8.9c-1.46 2.98-3.1 5.95-4.68 9l-2.42 4.63a8890.14 8890.14 0 0 0-2.68 4.58l-2.72 4.64c-.93 1.55-1.8 3.17-2.83 4.7l-2.38 3.63c29.44-46.36 46.5-101.35 46.5-160.33 0-165.4-134.1-299.5-299.5-299.5s-73.4 117-299.5 299.5z" transform="matrix(0 1 -1 0 611.347 .347)"/></svg>