<?xml version="1.0" encoding="UTF-8"?>
<svg width="96px" height="26px" viewBox="0 0 96 26" version="1.1" xmlns="http://www.w3.org/2000/svg" xmlns:xlink="http://www.w3.org/1999/xlink">
    <!-- Generator: Sketch 43.2 (39069) - http://www.bohemiancoding.com/sketch -->
    <title>Amazon logo</title>
    <desc>Created with Sketch.</desc>
    <defs>
        <polygon id="path-1" points="10.9550603 0.264946857 10.9550603 14.9629493 0.13089163 14.9629493 0.13089163 0.264946857 10.9550603 0.264946857"></polygon>
        <polygon id="path-3" points="12.8410575 0.134673807 0.242662763 0.134673807 0.242662763 15.1495839 12.8410575 15.1495839 12.8410575 0.134673807"></polygon>
        <polygon id="path-5" points="12.5979185 0.134673807 0.000106372718 0.134673807 0.000106372718 15.1495839 12.5979185 15.1495839 12.5979185 0.134673807"></polygon>
    </defs>
    <g id="Homepage-Wireframes" stroke="none" stroke-width="1" fill="none" fill-rule="evenodd">
        <g id="Homepage---v3---1440" transform="translate(-1024.000000, -944.000000)">
            <g id="//Hero" transform="translate(-1.000000, 0.000000)">
                <g id="//logos" transform="translate(329.000000, 892.000000)">
                    <g id="Amazon-logo" transform="translate(696.000000, 52.000000)">
                        <path d="M52.826181,20.2705024 C47.87852,23.9104066 40.7060735,25.8456799 34.5298076,25.8456799 C25.8734617,25.8456799 18.0784689,22.6559254 12.1798358,17.3463841 C11.7165826,16.9291073 12.1295747,16.3599249 12.6864359,16.6828239 C19.0507156,20.374689 26.9209671,22.5978672 35.0494383,22.5978672 C40.5329519,22.5978672 46.5602961,21.463479 52.1071015,19.1180869 C52.943191,18.7644356 53.6444532,19.6676515 52.826181,20.2705024" id="Fill-1" fill="#CCC"></path>
                        <path d="M54.8848123,17.9272842 C54.2518946,17.1197715 50.7019711,17.5447363 49.1069121,17.7350824 C48.62398,17.7928755 48.5492532,17.3718873 48.9845835,17.0672805 C51.8167571,15.0842883 56.457001,15.6569171 56.9960448,16.3207423 C57.5393434,16.9903998 56.8532394,21.6284279 54.199772,23.8417972 C53.7915667,24.1819281 53.4030403,24.0003306 53.5841399,23.550976 C54.1814227,22.0639969 55.5185277,18.7355921 54.8848123,17.9272842" id="Fill-3" fill="#CCC"></path>
                        <path d="M49.2194811,3.05908372 L49.2194811,1.1322939 C49.2213426,0.838821642 49.4425979,0.643703685 49.7095934,0.644764109 L58.3723216,0.643703685 C58.6494225,0.643703685 58.8717415,0.844653972 58.8717415,1.12990794 L58.8717415,2.78231314 C58.8690822,3.05961394 58.6347963,3.42095331 58.2196768,3.99517273 L53.7323436,10.3821046 C55.3976085,10.3433991 57.1596726,10.5923336 58.6733564,11.4401423 C59.0145469,11.6312837 59.1060274,11.9141517 59.1328865,12.1919827 L59.1328865,14.2481442 C59.1328865,14.5310122 58.8214804,14.8592133 58.4946502,14.68822 C55.8284181,13.2958837 52.2904614,13.143978 49.3418097,14.705717 C49.040509,14.8653108 48.7253798,14.5421467 48.7253798,14.2584833 L48.7253798,12.3043876 C48.7253798,11.9912975 48.7314962,11.456844 49.0476891,10.9801835 L54.2466557,3.54475777 L49.7202306,3.54422756 C49.4433956,3.54422756 49.2213426,3.34778407 49.2194811,3.05908372" id="Fill-5" fill="#CCC"></path>
                        <path d="M17.6204546,15.0934344 L14.9850705,15.0934344 C14.7342968,15.0769979 14.5340502,14.8893029 14.5135734,14.6491169 L14.5157009,1.16529958 C14.5157009,0.89515665 14.7430726,0.680155749 15.0241625,0.680155749 L17.478447,0.679360431 C17.7353371,0.692350621 17.9414343,0.885877943 17.9573902,1.13242645 L17.9573902,2.89246465 L18.0071194,2.89246465 C18.6464195,1.19021954 19.8521542,0.395431991 21.4754019,0.395431991 C23.1233813,0.395431991 24.1570581,1.19021954 24.8947529,2.89246465 C25.5348508,1.19021954 26.9863065,0.395431991 28.5358911,0.395431991 C29.6429651,0.395431991 30.848434,0.849293326 31.5863947,1.87101154 C32.4227502,3.00619509 32.2512242,4.65144243 32.2512242,6.09865565 L32.2485649,14.6082906 C32.2485649,14.8773731 32.0211932,15.0934344 31.7401033,15.0934344 L29.1079104,15.0934344 C28.8433082,15.0764676 28.6353496,14.8678293 28.6353496,14.609351 L28.6342858,7.46050476 C28.6342858,6.89370831 28.6837492,5.47486142 28.5603568,4.93590109 C28.3635673,4.0273831 27.7731987,3.77182099 27.0110382,3.77182099 C26.3712063,3.77182099 25.7069086,4.19731599 25.4359241,4.8783731 C25.1657374,5.55969532 25.1899372,6.69408355 25.1899372,7.46050476 L25.1899372,14.6082906 C25.1899372,14.8773731 24.9628315,15.0934344 24.6820075,15.0934344 L22.0495487,15.0934344 C21.7849465,15.0764676 21.5761901,14.8678293 21.5761901,14.609351 L21.5737967,7.46050476 C21.5737967,5.95682399 21.8195177,3.74398487 19.9502831,3.74398487 C18.055785,3.74398487 18.129714,5.89982621 18.129714,7.46050476 L18.1289162,14.6082906 C18.1289162,14.8773731 17.9012786,15.0934344 17.6204546,15.0934344" id="Fill-7" fill="#CCC"></path>
                        <path d="M66.3531209,3.1481328 C64.4099573,3.1481328 64.2870968,5.78620181 64.2870968,7.43224447 C64.2870968,9.07802203 64.262897,12.5965078 66.3291871,12.5965078 C68.3715433,12.5965078 68.4694062,9.75907914 68.4694062,8.02873279 C68.4694062,6.89381435 68.4202088,5.53143503 68.0755612,4.45324925 C67.7803769,3.51663003 67.1894764,3.1481328 66.3531209,3.1481328 M66.3291871,0.395272927 C70.2407779,0.395272927 72.3559994,3.74409091 72.3559994,8.00010135 C72.3559994,12.1137499 70.0195226,15.377734 66.3291871,15.377734 C62.4915253,15.377734 60.4002377,12.0286509 60.4002377,7.85826969 C60.4002377,3.6584617 62.5157251,0.395272927 66.3291871,0.395272927" id="Fill-9" fill="#CCC"></path>
                        <g id="Group-13" transform="translate(74.194971, 0.130485)">
                            <mask id="mask-2" fill="white">
                                <use xlink:href="#path-1"></use>
                            </mask>
                            <g id="Clip-12"></g>
                            <path d="M3.23404975,14.9629493 L0.608239202,14.9629493 C0.344434861,14.9459825 0.13541247,14.7373441 0.13541247,14.4788659 L0.13089163,0.989746443 C0.1532299,0.742667725 0.371825836,0.549670615 0.637225768,0.549670615 L3.08167083,0.548875297 C3.31196777,0.56107017 3.50184307,0.717217557 3.55024265,0.926386128 L3.55024265,2.98891019 L3.59970597,2.98891019 C4.33793263,1.14403809 5.37054579,0.264946857 7.19111486,0.264946857 C8.37185204,0.264946857 9.52838941,0.690176753 10.2663501,1.85425685 C10.9551135,2.93217752 10.9551135,4.74788797 10.9551135,6.05353462 L10.9551135,14.5385147 C10.925861,14.7773751 10.7104562,14.9629493 10.450109,14.9629493 L7.80834256,14.9629493 C7.56421717,14.947308 7.36742765,14.7686266 7.33923887,14.5385147 L7.33923887,7.21734961 C7.33923887,5.74177006 7.51156268,3.5848683 5.69099361,3.5848683 C5.05116171,3.5848683 4.46079312,4.0103633 4.16560883,4.66278897 C3.7964955,5.48620796 3.74703218,6.30830141 3.74703218,7.21734961 L3.74703218,14.4778055 C3.74251134,14.746888 3.51487373,14.9629493 3.23404975,14.9629493" id="Fill-11" fill="#CCC" mask="url(#mask-2)"></path>
                        </g>
                        <g id="Group-16" transform="translate(34.305202, 0.130485)">
                            <mask id="mask-4" fill="white">
                                <use xlink:href="#path-3"></use>
                            </mask>
                            <g id="Clip-15"></g>
                            <path d="M10.6653276,14.9292808 C10.4914082,15.0854282 10.2395708,15.0957674 10.0430472,14.9902552 C9.16786568,14.2651905 9.01096592,13.9303617 8.53228869,13.2397608 C7.08588565,14.7087127 6.06151638,15.1495839 4.18722908,15.1495839 C1.96882605,15.1495839 0.242662763,13.7842884 0.242662763,11.0547578 C0.242662763,8.92198068 1.40159353,7.47158619 3.05329591,6.76083722 C4.48294524,6.13492214 6.48009302,6.0211917 8.00920085,5.85019838 L8.00920085,5.50927217 C8.00920085,4.88309199 8.0581323,4.14450689 7.68822117,3.60395592 C7.36750742,3.12040272 6.75134345,2.92130818 6.20910852,2.92130818 C5.20362041,2.92130818 4.31062144,3.43481834 4.09069584,4.4986884 C4.04495557,4.7356931 3.87183397,4.97031183 3.63302722,4.9822416 L1.0784864,4.70626634 C0.862549778,4.65775195 0.623211162,4.485168 0.685173271,4.15670177 C1.27288254,1.06768758 4.07101689,0.134514744 6.57848779,0.134514744 C7.86107684,0.134514744 9.53724494,0.475440957 10.5480517,1.44281246 C11.8303748,2.63711463 11.7067165,4.229871 11.7067165,5.96498925 L11.7067165,10.0571642 C11.7067165,11.2891114 12.2199649,11.8288671 12.7013014,12.491897 C12.8699022,12.7315528 12.9076645,13.0152161 12.6927916,13.1904511 C12.1548116,13.6403358 11.1982549,14.4682616 10.6719759,14.9353783 L10.6653276,14.9292808 Z M8.00920085,8.52352648 C8.00920085,9.54763065 8.03340064,10.4002113 7.5153655,11.3108501 C7.09652293,12.0497003 6.43062971,12.5048872 5.69133932,12.5048872 C4.68053256,12.5048872 4.08883432,11.7368753 4.08883432,10.5993058 C4.08883432,8.36181187 6.10220394,7.95487428 8.00920085,7.95487428 L8.00920085,8.52352648 Z" id="Fill-14" fill="#CCC" mask="url(#mask-4)"></path>
                        </g>
                        <g id="Group-19" transform="translate(0.000000, 0.130485)">
                            <mask id="mask-6" fill="white">
                                <use xlink:href="#path-5"></use>
                            </mask>
                            <g id="Clip-18"></g>
                            <path d="M10.4227712,14.9292808 C10.2485859,15.0854282 9.99648256,15.0957674 9.8002249,14.9902552 C8.92424556,14.2651905 8.76761173,13.9303617 8.2897323,13.2397608 C6.84253147,14.7087127 5.81816219,15.1495839 3.94467269,15.1495839 C1.72573779,15.1495839 0.000106372718,13.7842884 0.000106372718,11.0547578 C0.000106372718,8.92198068 1.15850527,7.47158619 2.81047359,6.76083722 C4.24012292,6.13492214 6.23753663,6.0211917 7.76558073,5.85019838 L7.76558073,5.50927217 C7.76558073,4.88309199 7.81504404,4.14450689 7.44539885,3.60395592 C7.1246851,3.12040272 6.5082552,2.92130818 5.9662862,2.92130818 C4.96106402,2.92130818 4.06700132,3.43481834 3.84787352,4.4986884 C3.80213325,4.7356931 3.62901165,4.97031183 3.38993897,4.9822416 L0.835930006,4.70626634 C0.619993388,4.65775195 0.380122908,4.485168 0.442350948,4.15670177 C1.02926242,1.06768758 3.82739677,0.134514744 6.3359314,0.134514744 C7.61798858,0.134514744 9.29442262,0.475440957 10.3052294,1.44281246 C11.5867547,2.63711463 11.4638942,4.229871 11.4638942,5.96498925 L11.4638942,10.0571642 C11.4638942,11.2891114 11.9768766,11.8288671 12.4582132,12.491897 C12.6262821,12.7315528 12.6648422,13.0152161 12.4499693,13.1904511 C11.9117234,13.6403358 10.9546348,14.4682616 10.4288877,14.9353783 L10.4227712,14.9292808 Z M7.76558073,8.52352648 C7.76558073,9.54763065 7.79031239,10.4002113 7.27254318,11.3108501 C6.85396653,12.0497003 6.18780739,12.5048872 5.44825106,12.5048872 C4.43771024,12.5048872 3.84574607,11.7368753 3.84574607,10.5993058 C3.84574607,8.36181187 5.85964755,7.95487428 7.76558073,7.95487428 L7.76558073,8.52352648 Z" id="Fill-17" fill="#CCC" mask="url(#mask-6)"></path>
                        </g>
                    </g>
                </g>
            </g>
        </g>
    </g>
</svg>