<?xml version="1.0" encoding="UTF-8"?>
<svg width="140px" height="42px" viewBox="0 0 140 42" version="1.1" xmlns="http://www.w3.org/2000/svg" xmlns:xlink="http://www.w3.org/1999/xlink">
    <!-- Generator: Sketch 43.2 (39069) - http://www.bohemiancoding.com/sketch -->
    <title>National Geo Logo</title>
    <desc>Created with Sketch.</desc>
    <defs>
        <polygon id="path-1" points="0 41.2075472 139.272 41.2075472 139.272 0.290037736 0 0.290037736"></polygon>
    </defs>
    <g id="Homepage-Wireframes" stroke="none" stroke-width="1" fill="none" fill-rule="evenodd">
        <g id="Homepage---v3---1440" transform="translate(-483.000000, -932.000000)">
            <g id="//Hero" transform="translate(-1.000000, 0.000000)">
                <g id="//logos" transform="translate(315.000000, 892.000000)">
                    <g id="National-Geo-Logo" transform="translate(169.502229, 40.000000)">
                        <path d="M0,41.7102 L28.5568302,41.7102 L28.5568302,0.792690566 L0,0.792690566 L0,41.7102 Z M4.116,37.5902377 L24.426566,37.5902377 L24.426566,4.91265283 L4.116,4.91265283 L4.116,37.5902377 Z" id="Fill-1" fill="#BBB"></path>
                        <g id="Group-24" transform="translate(0.000000, 0.502653)">
                            <path d="M47.5259321,18.6478415 L45.7587623,18.6478415 C43.4392528,15.3702566 41.1371774,12.1132755 38.8390642,8.43233208 L38.8224226,8.43233208 L38.8224226,18.6478415 L36.8690264,18.6478415 L36.8690264,4.40429434 L38.6377811,4.40429434 C40.9572906,7.65969057 43.2554038,10.8936906 45.5329132,14.5548226 L45.5741208,14.5548226 L45.5741208,4.40429434 L47.5259321,4.40429434 L47.5259321,18.6478415 Z" id="Fill-2" fill="#BBB"></path>
                            <path d="M53.100917,4.40453208 L48.1797849,18.6480792 L50.295634,18.6480792 L51.5334453,14.7603057 L55.8301245,14.7603057 L56.9482755,18.6480792 L59.6758981,18.6480792 L55.1367283,4.40453208 L53.100917,4.40453208 Z M52.1674075,13.0105698 C52.7348038,11.1380038 53.3045774,9.4088717 53.8141245,7.20981509 L53.8553321,7.20981509 C54.4235208,9.4088717 54.9338604,11.1380038 55.4624264,13.0105698 L52.1674075,13.0105698 Z" id="Fill-4" fill="#BBB"></path>
                            <polygon id="Fill-6" fill="#BBB" points="61.9734566 18.6478415 61.9734566 6.31410566 58.2275321 6.31410566 58.2275321 4.40429434 68.156966 4.40429434 68.156966 6.31410566 64.4142113 6.31410566 64.4142113 18.6478415"></polygon>
                            <mask id="mask-2" fill="white">
                                <use xlink:href="#path-1"></use>
                            </mask>
                            <g id="Clip-9"></g>
                            <polygon id="Fill-8" fill="#BBB" mask="url(#mask-2)" points="68.9489434 18.648 71.3738491 18.648 71.3738491 4.40445283 68.9489434 4.40445283"></polygon>
                            <path d="M78.9016755,18.8888264 C82.6238264,18.8888264 84.9425434,15.5739962 84.9425434,11.319317 C84.9425434,7.33248679 82.3829208,4.15871321 78.9016755,4.15871321 C75.4236,4.15871321 72.852883,7.33248679 72.852883,11.319317 C72.852883,15.5739962 75.1763547,18.8888264 78.9016755,18.8888264 M78.9016755,16.8546 C76.3555245,16.8546 75.4608453,14.0469396 75.4608453,11.319317 C75.4608453,8.69550566 76.4775623,6.19293962 78.9016755,6.19293962 C81.3226189,6.19293962 82.336166,8.69550566 82.336166,11.319317 C82.336166,14.0469396 81.4430717,16.8546 78.9016755,16.8546" id="Fill-10" fill="#BBB" mask="url(#mask-2)"></path>
                            <path d="M97.0894189,18.6478415 L95.3206642,18.6478415 C92.9987774,15.3702566 90.6990792,12.1132755 88.4017585,8.43233208 L88.3819472,8.43233208 L88.3819472,18.6478415 L86.4317208,18.6478415 L86.4317208,4.40429434 L88.1988906,4.40429434 C90.5176075,7.65969057 92.8173057,10.8936906 95.0916453,14.5548226 L95.1344377,14.5548226 L95.1344377,4.40429434 L97.0894189,4.40429434 L97.0894189,18.6478415 Z" id="Fill-11" fill="#BBB" mask="url(#mask-2)"></path>
                            <path d="M102.665989,4.40453208 L97.7424792,18.6480792 L99.8599132,18.6480792 L101.097725,14.7603057 L105.391234,14.7603057 L106.512555,18.6480792 L109.2378,18.6480792 L104.699423,4.40453208 L102.665989,4.40453208 Z M101.727725,13.0105698 C102.299083,11.1380038 102.865687,9.4088717 103.377611,7.20981509 L103.418026,7.20981509 C103.9878,9.4088717 104.495762,11.1380038 105.023536,13.0105698 L101.727725,13.0105698 Z" id="Fill-12" fill="#BBB" mask="url(#mask-2)"></path>
                            <polygon id="Fill-13" fill="#BBB" mask="url(#mask-2)" points="109.946649 4.40453208 112.372347 4.40453208 112.372347 16.7343057 117.192045 16.7343057 117.192045 18.6480792 109.946649 18.6480792"></polygon>
                            <path d="M46.0253434,30.5612604 L46.0253434,36.4404679 C44.7217585,36.9500151 43.3579472,37.3153358 41.9782868,37.3153358 C37.7862113,37.3153358 35.1410038,34.0583547 35.1410038,29.8670717 C35.1410038,25.9792981 37.7862113,22.5828453 42.0583245,22.5828453 C43.3777585,22.5828453 44.7019472,23.074166 45.5157962,23.6819774 L44.7217585,25.3706943 C44.0719472,24.9673358 43.0528528,24.621034 42.1177585,24.621034 C39.5161358,24.621034 37.7434189,26.6758642 37.7434189,29.9122415 C37.7434189,33.2865057 39.7800226,35.2795245 41.8752679,35.2795245 C42.5234943,35.2795245 43.075834,35.2026566 43.586966,34.9356 L43.586966,30.5612604 L46.0253434,30.5612604 Z" id="Fill-14" fill="#BBB" mask="url(#mask-2)"></path>
                            <polygon id="Fill-15" fill="#BBB" mask="url(#mask-2)" points="54.7573811 24.7440226 50.6833811 24.7440226 50.6833811 28.6484377 54.6717962 28.6484377 54.6717962 30.5614189 50.6833811 30.5614189 50.6833811 35.1568528 55.4856453 35.1568528 55.4856453 37.0722113 48.2402491 37.0722113 48.2402491 22.8278717 54.7573811 22.8278717"></polygon>
                            <path d="M62.2849698,37.3149396 C66.0063283,37.3149396 68.3242528,33.9985245 68.3242528,29.7454302 C68.3242528,25.7586 65.7622528,22.5824491 62.2849698,22.5824491 C58.8013472,22.5824491 56.2401396,25.7586 56.2401396,29.7454302 C56.2401396,33.9985245 58.5556868,37.3149396 62.2849698,37.3149396 M62.2849698,35.2799208 C59.7388189,35.2799208 58.8425547,32.4746377 58.8425547,29.7454302 C58.8425547,27.1239962 59.8600642,24.6206377 62.2849698,24.6206377 C64.7043283,24.6206377 65.7194604,27.1239962 65.7194604,29.7454302 C65.7194604,32.4746377 64.8231962,35.2799208 62.2849698,35.2799208" id="Fill-16" fill="#BBB" mask="url(#mask-2)"></path>
                            <path d="M80.0424113,30.5612604 L80.0424113,36.4404679 C78.738034,36.9500151 77.3789774,37.3153358 75.9937698,37.3153358 C71.8040717,37.3153358 69.1572792,34.0583547 69.1572792,29.8670717 C69.1572792,25.9792981 71.8040717,22.5828453 76.0769774,22.5828453 C77.4003736,22.5828453 78.7206,23.074166 79.5328642,23.6819774 L78.738034,25.3706943 C78.0874302,24.9673358 77.0770528,24.621034 76.1387887,24.621034 C73.5308264,24.621034 71.7604868,26.6758642 71.7604868,29.9122415 C71.7604868,33.2865057 73.7970906,35.2795245 75.8931283,35.2795245 C76.5461094,35.2795245 77.0921094,35.2026566 77.6032415,34.9356 L77.6032415,30.5612604 L80.0424113,30.5612604 Z" id="Fill-17" fill="#BBB" mask="url(#mask-2)"></path>
                            <path d="M90.9107434,37.0719736 L88.036517,31.1737472 C89.6031962,30.3416717 90.5034226,28.6482 90.5034226,26.9388792 C90.5034226,24.1692566 88.8123283,22.827634 86.0831208,22.827634 L82.2801396,22.827634 L82.2801396,37.0719736 L84.727234,37.0719736 L84.727234,31.7007283 L85.8247811,31.7007283 L88.120517,37.0719736 L90.9107434,37.0719736 Z M84.727234,24.7437849 L85.8033849,24.7437849 C87.2440642,24.7437849 88.0594981,25.5742755 88.0594981,27.0418981 C88.0594981,28.9525019 86.9017245,29.8059736 85.7415736,29.8669925 C85.4967057,29.8915585 84.9253472,29.9121623 84.727234,29.9295962 L84.727234,24.7437849 Z" id="Fill-18" fill="#BBB" mask="url(#mask-2)"></path>
                            <path d="M95.8728453,22.8279509 L90.9477509,37.0722906 L93.0636,37.0722906 L94.306166,33.1837245 L98.6012604,33.1837245 L99.7146566,37.0722906 L102.446242,37.0722906 L97.9062792,22.8279509 L95.8728453,22.8279509 Z M94.9377509,31.4355736 C95.5059396,29.5606302 96.0741283,27.833083 96.5860528,25.6356113 L96.6264679,25.6356113 C97.1962415,27.833083 97.7042038,29.5606302 98.2335623,31.4355736 L94.9377509,31.4355736 Z" id="Fill-19" fill="#BBB" mask="url(#mask-2)"></path>
                            <path d="M106.679287,29.8671509 C106.425702,29.8901321 105.828192,29.9091509 105.6594,29.9257925 L105.6594,24.7439434 L106.755362,24.7439434 C108.1794,24.7439434 108.996419,25.574434 108.996419,27.0412642 C108.996419,28.9526604 107.84023,29.8061321 106.679287,29.8671509 M107.021626,22.8277925 L103.21706,22.8277925 L103.21706,37.0721321 L105.6594,37.0721321 L105.6594,31.7000943 L106.755362,31.7000943 C109.666834,31.7000943 111.438758,29.3393774 111.438758,26.9390377 C111.438758,24.1686226 109.748457,22.8277925 107.021626,22.8277925" id="Fill-20" fill="#BBB" mask="url(#mask-2)"></path>
                            <polygon id="Fill-21" fill="#BBB" mask="url(#mask-2)" points="122.749675 37.0719736 120.308921 37.0719736 120.308921 30.2180491 115.238015 30.2180491 115.238015 37.0719736 112.824204 37.0719736 112.824204 22.827634 115.238015 22.827634 115.238015 28.3018981 120.308921 28.3018981 120.308921 22.8680491 122.749675 22.8680491"></polygon>
                            <polygon id="Fill-22" fill="#BBB" mask="url(#mask-2)" points="125.087094 37.0725283 127.514377 37.0725283 127.514377 22.8281887 125.087094 22.8281887"></polygon>
                            <path d="M138.496585,25.4142 C137.905415,25.0465019 136.933075,24.6209547 135.992434,24.6209547 C133.506509,24.6209547 131.702094,26.6757849 131.702094,29.9121623 C131.702094,33.2872189 133.693528,35.2794453 136.05583,35.2794453 C136.992509,35.2794453 137.865,34.9735585 138.496585,34.5662377 L139.17017,36.3381623 C138.433189,36.8461245 137.134358,37.3152566 135.956774,37.3152566 C131.763906,37.3152566 129.117113,34.0582755 129.117113,29.8669925 C129.117113,25.9792189 131.740925,22.582766 135.992434,22.582766 C137.257189,22.582766 138.433189,23.1152943 139.272396,23.6818981 L138.496585,25.4142 Z" id="Fill-23" fill="#BBB" mask="url(#mask-2)"></path>
                        </g>
                    </g>
                </g>
            </g>
        </g>
    </g>
</svg>