<?xml version="1.0" encoding="UTF-8"?>
<svg width="112px" height="29px" viewBox="0 0 112 29" version="1.1" xmlns="http://www.w3.org/2000/svg" xmlns:xlink="http://www.w3.org/1999/xlink">
    <!-- Generator: Sketch 43.2 (39069) - http://www.bohemiancoding.com/sketch -->
    <title>Zillow logo</title>
    <desc>Created with Sketch.</desc>
    <defs>
        <polygon id="path-1" points="28.9107536 28.6042698 0 28.6042698 0 0.0019046919 28.9107536 0.0019046919"></polygon>
    </defs>
    <g id="Homepage-Wireframes" stroke="none" stroke-width="1" fill="none" fill-rule="evenodd">
        <g id="Homepage---v3---1440" transform="translate(-814.000000, -939.000000)">
            <g id="//Hero" transform="translate(-1.000000, 0.000000)">
                <g id="//logos" transform="translate(315.000000, 892.000000)">
                    <g id="Zillow-logo" transform="translate(500.423680, 47.000000)">
                        <polygon id="Fill-1" fill="#FEFEFE" points="1.61490786 25.5316606 27.4288601 25.5316606 27.4288601 2.40818127 1.61490786 2.40818127"></polygon>
                        <g id="Group-22" transform="translate(0.000000, 0.020787)">
                            <g id="Group-4">
                                <mask id="mask-2" fill="white">
                                    <use xlink:href="#path-1"></use>
                                </mask>
                                <g id="Clip-3"></g>
                                <path d="M5.53606317,20.0345413 C7.77247944,17.756819 15.8189739,10.4087526 15.8189739,10.4087526 C11.6327103,11.376553 7.26198567,12.6897285 5.70074669,13.3935833 L3.35231092,15.7821076 C5.315427,15.3682946 5.94776054,15.2868425 7.38380259,15.0782754 L5.53606317,20.0345413 Z M20.4696902,8.567686 C20.4696902,8.567686 13.3684531,15.6257105 12.2552007,16.639106 C14.4158868,15.8668359 18.8392983,14.9479068 21.6488296,14.7817264 C21.9748851,13.797613 22.3207182,13.0839974 22.3207182,13.0839974 L26.0788412,12.7125712 C26.0788412,12.7125712 23.2232003,10.4283192 20.4696902,8.567686 L20.4696902,8.567686 Z M4.31741431,23.4071564 C5.12436581,23.055229 12.7756061,20.5363361 19.8109333,20.1192695 C19.9624622,19.5327465 20.7331701,17.5645648 20.8748331,17.030144 C13.5759803,17.5449982 7.64077373,19.7021804 5.25609435,20.7937745 L4.31741431,23.4071564 Z M15.7399322,5.48502237 C14.4784396,6.06508352 10.8455135,8.84134707 8.88906608,10.2979506 C11.2703883,9.51264364 16.991536,8.25807754 19.9229299,8.18966227 C19.0072704,7.55099174 16.4349099,5.82070455 15.7399322,5.48502237 L15.7399322,5.48502237 Z M-6.85134546e-06,28.6042765 L28.9107536,28.6042765 L28.9107536,0.0019046919 L-6.85134546e-06,0.0019046919 L-6.85134546e-06,28.6042765 Z" id="Fill-2" fill="#BBB" mask="url(#mask-2)"></path>
                            </g>
                            <path d="M49.6654826,24.9821536 L50.7317119,21.6425486 L43.8011874,21.6425486 C42.9721974,21.6425486 42.0561725,21.6495754 42.0561725,21.6495754 C42.0561725,21.6495754 42.3793962,21.0571552 42.8246195,20.3248543 L50.6539262,6.77124296 L50.6539262,3.81203409 L38.3341105,3.81203409 L37.4154592,7.21065515 L43.753228,7.21065515 C44.9971812,7.21065515 45.4481139,7.24682848 45.4481139,7.24682848 C45.4481139,7.24682848 45.1455357,7.97246413 44.582218,8.90960417 L36.8123809,22.1116722 L36.8123809,24.9821536 L49.6654826,24.9821536 Z" id="Fill-5" fill="#BBB"></path>
                            <path d="M55.4328289,10.077282 C56.7952647,10.077282 57.8895616,8.99289547 57.8895616,7.6453316 C57.8895616,6.29740622 56.8240403,5.21304231 55.4899692,5.21304231 C54.128995,5.21304231 53.0044836,6.29740622 53.0044836,7.6453316 C53.0044836,8.99289547 54.099146,10.077282 55.4328289,10.077282" id="Fill-7" fill="#BBB"></path>
                            <polygon id="Fill-9" fill="#BBB" points="53.4482521 25.0130896 57.4171682 25.0130896 57.4088552 10.9441947 53.4550121 11.8209178"></polygon>
                            <polygon id="Fill-11" fill="#BBB" points="61.3193156 24.9726482 61.2905399 4.21015085 65.347884 3.30217993 65.3766597 24.9726482"></polygon>
                            <polygon id="Fill-13" fill="#BBB" points="69.2043969 24.9726482 69.1756212 4.21015085 73.2345868 3.30217993 73.2619008 24.9726482"></polygon>
                            <path d="M107.295922,24.9821536 L111.618755,9.9822417 L107.532636,9.9822417 L106.378481,15.3439381 C105.963312,17.2481103 105.637965,19.5918303 105.548463,20.2370306 C105.548463,20.2370306 105.105729,17.7171887 104.423975,14.9342373 L103.209619,9.9822417 L99.4777827,9.9822417 L98.0566994,15.0213606 C97.3460321,17.5703038 96.9596162,20.2370306 96.9596162,20.2370306 C96.9596162,20.2370306 96.487216,17.306426 96.1032665,15.5779689 L94.893867,9.98047935 L90.8434656,9.98047935 L95.0647624,24.9821536 L98.7674352,24.9821536 L99.5364074,21.9064264 C99.8915583,20.5012699 100.544743,17.9224345 100.839876,16.6317629 C101.076773,15.5491387 101.105548,15.3439381 101.195438,14.699506 C101.284916,15.2852383 101.315131,15.4897837 101.433408,16.1929155 C101.609213,17.1894106 101.965803,18.6255211 102.291151,19.8273072 L103.653609,24.9821536 L107.295922,24.9821536 Z" id="Fill-15" fill="#BBB"></path>
                            <path d="M88.0791166,23.225221 C89.3831789,21.7603028 89.9752722,20.0022699 89.9752722,17.4238187 C89.9752722,14.9921847 89.4426714,13.3522969 88.2275853,11.9456718 C86.9248247,10.421263 85.2370186,9.68898467 83.0743456,9.68898467 C78.988066,9.68898467 76.2635142,12.8241572 76.2635142,17.5418735 C76.2635142,22.2585503 78.958217,25.3040013 83.0743456,25.3040013 C85.4138975,25.3040013 86.9248247,24.5147856 88.0791166,23.225221 M84.8520186,13.3804267 C85.3851218,14.0546831 85.650954,15.3727615 85.650954,17.39535 C85.650954,20.940856 84.9102779,22.4644514 83.1928054,22.4644514 C82.4235135,22.4644514 81.5346655,22.0533045 81.1794918,21.2331799 C80.8541899,20.471032 80.6758722,19.1814675 80.6758722,17.4533042 C80.6758722,15.9584938 80.8255284,14.9039994 81.0910637,14.1130439 C81.4163885,13.1762428 82.1855205,12.5897649 83.1351171,12.5897649 C83.8457843,12.5897649 84.466836,12.8828344 84.8520186,13.3804267" id="Fill-17" fill="#BBB"></path>
                        </g>
                    </g>
                </g>
            </g>
        </g>
    </g>
</svg>