<svg xmlns="http://www.w3.org/2000/svg" width="596" height="348.566" viewBox="0 0 596 348.566">
  <g id="Group_3" data-name="Group 3" transform="translate(-69.197)">
    <path id="Path_70" data-name="Path 70" d="M929.494,507.477c-3.477,22.1-14.25,43.554-32.029,57.129-17.5,13.37-39.914,18.12-61.554,22.2q-38.932,7.356-78.077,13.447-5.549.884-11.106,1.709h-152c-.154-.205-.316-.419-.47-.632-.248-.359-.5-.718-.735-1.077-.136-.205-.273-.419-.41-.632h95.343a10.219,10.219,0,0,0,10.209-10.2V462.163c.615-1.931,1.187-3.87,1.709-5.835a153.814,153.814,0,0,0,4.724-27.945c.513-6.578.667-13.157.555-19.744-.316-18.1-2.682-36.207-5.254-54.182-.188-1.324-.384-2.657-.572-3.981-1.811-12.49-3.46-26.083,2.836-37.027,7.2-12.525,23.187-17.744,37.582-16.463,25.895,2.315,47.706,22.144,59.043,45.544s13.866,50,14.9,75.967c.547,13.772.487,28.159-1.435,41.973q9.739-22.272,19.5-44.545c3.469-7.92,7.117-16.1,13.541-21.888,13.43-12.123,35.643-9.68,49.987,1.358s22.2,28.5,27.424,45.818C929.673,462.633,932.98,485.376,929.494,507.477Z" transform="translate(-265.707 -253.4)" fill="#3f3d56"/>
    <path id="Path_71" data-name="Path 71" d="M896.37,402.564c9.391,16.632,13.7,35.7,13.6,54.737a132.493,132.493,0,0,1-12.244,54.617,137.208,137.208,0,0,1-29.446,41.263,125.015,125.015,0,0,1-42.316,27.031,110.583,110.583,0,0,1-57.42,5.456q-4.019-.691-7.978-1.674c-1.6-.395-2.284,2.076-.681,2.471a113.438,113.438,0,0,0,60.864-1.75,125.394,125.394,0,0,0,44.581-25.362A139.179,139.179,0,0,0,897.3,518.591a136.26,136.26,0,0,0,15.015-54.56c1.119-19.318-2.119-38.98-10.473-56.5q-1.519-3.185-3.259-6.256a1.282,1.282,0,0,0-2.213,1.294Z" transform="translate(-289.867 -268.532)" fill="#fff"/>
    <path id="Path_72" data-name="Path 72" d="M753.356,296.294a277.959,277.959,0,0,1,24.176,60.643,292.894,292.894,0,0,1,4.983,129.482,276.9,276.9,0,0,1-19.469,62.353c-8.9,19.775-21.717,40.612-43.607,47.536A45.644,45.644,0,0,1,711.869,598c-1.627.223-.934,2.693.681,2.471,22.644-3.108,38.378-21.92,48.246-41.1a263.107,263.107,0,0,0,22.315-63.143A295.193,295.193,0,0,0,782.1,364.561a282.282,282.282,0,0,0-22.665-62.193q-1.878-3.714-3.87-7.368C754.781,293.551,752.567,294.843,753.356,296.294Z" transform="translate(-282.872 -253.046)" fill="#fff"/>
    <path id="Path_73" data-name="Path 73" d="M606.975,292.259H453.537a11.762,11.762,0,0,0-11.747,11.747v76.881H465.4a10.148,10.148,0,0,1,8.637,4.776l8.185,13.029,7.826,12.448,1.469,2.341,8.953,14.242.1.162H618.722V304.006a11.762,11.762,0,0,0-11.747-11.747Z" transform="translate(-243.664 -252.739)" fill="#2f5e7b"/>
    <path id="Path_74" data-name="Path 74" d="M549.691,319.769H473.664a7.6,7.6,0,1,0,0,15.2h76.027a7.6,7.6,0,1,0,0-15.2Z" transform="translate(-247.201 -256.747)" fill="#fff"/>
    <path id="Path_75" data-name="Path 75" d="M591.851,363.449h-117.5a8.3,8.3,0,1,0,0,16.591h117.5a8.3,8.3,0,1,0,0-16.591Z" transform="translate(-247.2 -263.109)" fill="#fff"/>
    <path id="Path_76" data-name="Path 76" d="M600.676,402.2a8.291,8.291,0,0,0-7.5-4.776h-117.5c-.179,0-.35.009-.53.017a10.18,10.18,0,0,1,3.751,3.537l8.184,13.029H593.175a8.285,8.285,0,0,0,7.5-11.807Z" transform="translate(-248.524 -268.059)" fill="#fff"/>
    <path id="Path_77" data-name="Path 77" d="M604.755,438.586a8.3,8.3,0,0,0-8.21-7.176H498.28l1.469,2.341,8.953,14.242h87.842a8.2,8.2,0,0,0,4.81-1.546,8.284,8.284,0,0,0,3.477-6.749,7.9,7.9,0,0,0-.077-1.111Z" transform="translate(-251.893 -273.009)" fill="#fff"/>
    <path id="Path_78" data-name="Path 78" d="M698.794,360.111l-11.961-4.673L627.2,332.165l-71.346-27.843A11.768,11.768,0,0,0,540.64,311l-2.495,6.4-5.937,15.2-8.629,22.119L517.1,371.311l-4.853,12.439-6.476,16.583-4.861,12.448-.136.359L500,415.121l8.953,14.242.1.162H674.89a10.18,10.18,0,0,1,7.937,3.793l.7-1.777,8.56-21.922,13.379-34.284a11.77,11.77,0,0,0-6.672-15.224Z" transform="translate(-252.144 -254.38)" fill="#ed5a40"/>
    <path id="Path_79" data-name="Path 79" d="M642.526,364.7l-6.39-2.495L571.7,337.061a7.6,7.6,0,1,0-5.528,14.165l21.282,8.3L613.778,369.8l22.358,8.731.863.333a7.6,7.6,0,0,0,5.528-14.165Z" transform="translate(-261.078 -259.19)" fill="#fff"/>
    <path id="Path_80" data-name="Path 80" d="M665.86,420.759l-32.089-12.524-22.9-8.936-12.234-4.776-31.866-12.439-10.355-4.041a8.3,8.3,0,0,0-10.448,4.041c-.1.214-.205.436-.29.666a8.29,8.29,0,0,0,4.707,10.739l2.648,1.034L595.506,411.1l38.266,14.934,26.057,10.175a8.3,8.3,0,1,0,6.032-15.455Z" transform="translate(-258.714 -265.152)" fill="#fff"/>
    <path id="Path_81" data-name="Path 81" d="M631.971,444l-2.059-.8-20.137-7.86-18.394-7.176-31.9-12.448-15.429-6.023a8.293,8.293,0,0,0-6.023,15.455l7.723,3.016,38.53,15.036,3.964,1.546.41.162h45.63Z" transform="translate(-256.914 -269.763)" fill="#fff"/>
    <path id="Path_82" data-name="Path 82" d="M552.231,449.355l-3.964-1.546L531.7,441.342a8.282,8.282,0,0,0-11.209,6.467,7.852,7.852,0,0,0-.094,1.546.95.95,0,0,0,.009.162H552.65Z" transform="translate(-255.115 -274.373)" fill="#fff"/>
    <path id="Path_83" data-name="Path 83" d="M570.255,442.542,566.291,441H504.3a7.863,7.863,0,0,0-.094,1.546h-8.475l.1.162h74.831Zm0,0H495.732l.1.162h74.831Zm0,0H495.732l.1.162h74.831Zm.41.162-.41-.162H495.732l.1.162ZM421.149,613.784a10.216,10.216,0,0,1-10.2-10.2V405.917a10.218,10.218,0,0,1,10.2-10.209h15.9V394h-15.9a11.932,11.932,0,0,0-11.909,11.918V603.584a11.918,11.918,0,0,0,6.98,10.833H566.735c-.136-.205-.273-.419-.41-.632ZM670.306,444.721A11.856,11.856,0,0,0,661.669,441H496.783l-9.227-14.677-.222-.359-7.825-12.448-8.766-13.943A11.94,11.94,0,0,0,460.662,394H421.149a11.932,11.932,0,0,0-11.909,11.918V603.584a11.918,11.918,0,0,0,6.98,10.833,11.746,11.746,0,0,0,4.929,1.077h240.52a11.787,11.787,0,0,0,4.938-1.076,11.919,11.919,0,0,0,6.98-10.833V452.914A11.849,11.849,0,0,0,670.306,444.721Zm1.572,158.863a10.218,10.218,0,0,1-10.209,10.2H421.149a10.216,10.216,0,0,1-10.2-10.2V405.917a10.218,10.218,0,0,1,10.2-10.209h39.513a10.149,10.149,0,0,1,8.637,4.776l8.185,13.029,7.826,12.447,1.469,2.341,8.953,14.242.1.162H661.669a10.218,10.218,0,0,1,10.209,10.209ZM570.255,442.542H495.732l.1.162h74.831Zm0,0H495.732l.1.162h74.831Zm0,0H495.732l.1.162h74.831Zm0,0L566.291,441H496.783l-9.227-14.677-.778,1.982,8.953,14.242.1.162h74.831Z" transform="translate(-238.923 -267.56)" fill="#3f3d56"/>
    <path id="Path_84" data-name="Path 84" d="M148.968,284.552l-4.894,10.231-41.791-14.006,7.222-15.1Z" transform="translate(-13.518 -38.701)" fill="#ffb8b8"/>
    <path id="Path_85" data-name="Path 85" d="M12.718,0H35.644V13.771H0V12.718A12.718,12.718,0,0,1,12.718,0Z" transform="matrix(0.431, -0.902, 0.902, 0.431, 118.194, 274.415)" fill="#fff"/>
    <path id="Path_86" data-name="Path 86" d="M166.445,387.127l-11.334-.383-.478-44.121,13.287.784Z" transform="translate(-21.144 -49.91)" fill="#ffb8b8"/>
    <path id="Path_87" data-name="Path 87" d="M12.718,0H35.644V13.771H0V12.718A12.718,12.718,0,0,1,12.718,0Z" transform="translate(112.217 332.857) rotate(1.933)" fill="#fff"/>
    <path id="Path_88" data-name="Path 88" d="M385.236,424.083s-34.69-8.788-50.416,4.163l-8.788,25.439-35.153,49.954,50.879,30.527,9.251-23.127-22.2-11.1,26.827-23.127-4.625,122.109,17.576,2.775S407.437,450.91,385.236,424.083Z" transform="translate(-221.681 -271.517)" fill="#2f2e41"/>
    <path id="Path_89" data-name="Path 89" d="M339.721,420.12l.423-.752c4.457-7.924,3.735-20.827,2.344-30.255-1.165-7.9-1.13-21.815-.9-32.1A15.285,15.285,0,0,1,353.776,342.3c10.553-2.2,23.509-2.661,30.292-2.744l.006.462-.006-.462a7.044,7.044,0,0,1,7.07,6.871c.206,11.075.142,31.272-2.606,42.109-4.079,16.083,2.3,27.012,2.365,27.121l.385.643Z" transform="translate(-228.796 -259.629)" fill="#97a2a3"/>
    <path id="Path_90" data-name="Path 90" d="M316.723,469.21a8.565,8.565,0,0,0,3.255-12.723l19.578-84.423h-14.8l-17.278,82.759a8.611,8.611,0,0,0,9.246,14.387Z" transform="translate(-223.643 -264.364)" fill="#ffb8b8"/>
    <path id="Path_92" data-name="Path 92" d="M349.473,343.987s-20.4-3.346-22.253,12.38-2.775,15.726-2.775,15.726,14.8-2.775,18.5.925S349.473,343.987,349.473,343.987Z" transform="translate(-226.571 -260.231)" fill="#97a2a3"/>
    <path id="Path_94" data-name="Path 94" d="M371.435,273.628c-5.252-4.195-6.633-12.291-3.585-18.282s9.937-9.6,16.654-9.331a22.433,22.433,0,0,1,16.937,9.607c5.466,7.7,6.613,18.4,13.881,24.429,6.565,5.444,15.969,5.288,24.486,4.855,2.871-.146,5.835-.315,8.412-1.591s4.681-3.966,4.349-6.822c2.14,3.387.9,8.137-1.972,10.932s-6.958,3.966-10.938,4.432a40.64,40.64,0,0,1-36.866-16.175c-2.964-4.088-5.251-8.849-9.317-11.842s-10.847-3.2-13.344,1.188c-1.235,2.171-1.114,4.894-2.249,7.118s-4.823,3.424-5.916,1.178" transform="translate(-232.661 -246.001)" fill="#2f2e41"/>
    <circle id="Ellipse_19" data-name="Ellipse 19" cx="25.63" cy="25.63" r="25.63" transform="translate(112.341 20.979)" fill="#2f2e41"/>
    <circle id="Ellipse_20" data-name="Ellipse 20" cx="20.983" cy="20.983" r="20.983" transform="translate(116.833 32.278)" fill="#ffb8b8"/>
    <path id="Path_95" data-name="Path 95" d="M348.8,288.318c2.852.624,1.919,5.408,4.172,7.263,2.033,1.674,4.96-.048,7.519-.671,3.23-.787,6.611.366,9.593,1.835s5.858,3.293,9.111,3.977,7.11-.087,8.934-2.867c1.744-2.658,1.1-6.242-.262-9.113a21.161,21.161,0,0,0-37.968-.526" transform="translate(-230.119 -250.467)" fill="#2f2e41"/>
    <path id="Path_96" data-name="Path 96" d="M743.883,652.854a.807.807,0,0,1-.743.854h-530.9a.863.863,0,0,1,0-1.709h530.9A.807.807,0,0,1,743.883,652.854Z" transform="translate(-130.8 -305.142)" fill="#3f3d56"/>
    <path id="Path_125" data-name="Path 125" d="M570.255,442.542,566.291,441l-66.937,1.546c-.082.511,4.833-.517,4.853,0h-8.475l.1.162h74.831Zm0,0H495.732l.1.162h74.831Zm0,0H495.732l.1.162h74.831Zm.41.162-.41-.162H495.732l.1.162ZM421.149,613.784a10.216,10.216,0,0,1-10.2-10.2V405.917a10.218,10.218,0,0,1,10.2-10.209h15.9V394h-15.9a11.932,11.932,0,0,0-11.909,11.918V603.584a11.918,11.918,0,0,0,6.98,10.833H566.735c-.136-.205-.273-.419-.41-.632H421.149ZM671.878,448.3c-2.242-2.379-6.94-7.3-10.209-7.3H496.783l-9.227-14.677-.222-.359-7.825-12.448-8.766-13.943A11.94,11.94,0,0,0,460.662,394H421.149a11.932,11.932,0,0,0-11.909,11.918V603.584c.005,4.666,5.634,8.9,9.88,10.833,1.546.712.327,1.079,2.029,1.076l240.52-1.077c1.7,0-17.576.712-16.027,0,4.246-1.934,26.231-.916,26.237-5.582l1.709-155.921C673.589,449.862,673.986,450.5,671.878,448.3Zm-5.047,165.487c-.01,5.633,5.633-26.568,0-26.563L429.067,615.493c-5.63-.009.009-55.9,0-61.526l-18.119-148.05a10.218,10.218,0,0,1,10.2-10.209h39.513c2.381-.006-25.81-3.121-41.542,0-7.1,1.409-8.77,9.25-8.172,10.209V579.061l14.791,35.356,241.092-.632,1.842-6.509L482.016,427.7l3.294,4.677,10.423,10.169.1.162,124.627,91.7c5.636,0,14.423,36.8,14.428,42.441ZM570.255,442.542H495.732l.1.162h74.831Zm0,0H495.732l.1.162h74.831Zm0,0H495.732l.1.162h74.831Zm0,0L566.291,441,495.732,442.7l-8.4-12.4-2.024,2.065,10.423,10.169.1.162,171,168.946Z" transform="translate(-238.923 -267.559)" fill="rgba(3,3,3,0.13)"/>
    <path id="Path_91" data-name="Path 91" d="M448.232,383.233l-32.672-30.906-8.83,12.362,22.076,19.426-28.951,22.99c-.209-.014-.417-.032-.63-.032a9.272,9.272,0,1,0,9.18,10.5l.091.091Z" transform="translate(-236.112 -261.489)" fill="#ffb8b8"/>
    <path id="Path_93" data-name="Path 93" d="M389.413,341.117s16.651-2.775,24.052,4.625,11.1,9.251,11.1,9.251-16.651,9.251-10.176,17.576c0,0-17.576-8.326-20.352-5.55S389.413,341.117,389.413,341.117Z" transform="translate(-236.035 -259.782)" fill="#97a2a3"/>
  </g>
</svg>
