<svg xmlns="http://www.w3.org/2000/svg" xmlns:xlink="http://www.w3.org/1999/xlink" width="1261.058" height="860" viewBox="0 0 1261.058 860">
  <defs>
    <filter id="Rectangle_50" x="462" y="0" width="653" height="860" filterUnits="userSpaceOnUse">
      <feOffset dy="3" input="SourceAlpha"/>
      <feGaussianBlur stdDeviation="8" result="blur"/>
      <feFlood flood-opacity="0.11"/>
      <feComposite operator="in" in2="blur"/>
      <feComposite in="SourceGraphic"/>
    </filter>
  </defs>
  <g id="Group_7" data-name="Group 7" transform="translate(-132 -243)">
    <g id="Group_5" data-name="Group 5" transform="translate(-146.927 469)">
      <ellipse id="Ellipse_39" data-name="Ellipse 39" cx="526" cy="18" rx="526" ry="18" transform="translate(459.927 594)" fill="rgba(249,190,121,0.09)"/>
      <path id="Path_126" data-name="Path 126" d="M866.141,628.928l-36.747-34.306-17.426-16.073a14.138,14.138,0,0,1,2.694-22.737h0a14.138,14.138,0,0,1,19.852,6.7l5.732,13.151,35.6,36.922Z" transform="translate(-199.743 -134.075)" fill="#ffb9b9"/>
      <path id="Path_127" data-name="Path 127" d="M870.944,606.676l-12.9,21.495,52.387,32.135c46.184-33.2,55.327-44,44.011-96.88l-9-9L901.92,625.006Z" transform="translate(-199.743 -134.075)" fill="#6c63ff"/>
      <path id="Path_128" data-name="Path 128" d="M794.867,546.914a3.173,3.173,0,0,0-3.971-.391l-24.259,15.8a3.191,3.191,0,0,0-.51,4.935l61.694,61.427a3.191,3.191,0,0,0,4.547-.044l20.218-20.926a3.2,3.2,0,0,0-.065-4.5Z" transform="translate(-199.743 -134.075)" fill="#3f3d56"/>
      <path id="Path_129" data-name="Path 129" d="M771.416,564.015l2.511-1.6a2.392,2.392,0,0,0,3.443,3.141l16.246-11.169a2.391,2.391,0,0,0-.632-4.25l1.293-.825a.871.871,0,0,1,1.087.122l54.654,53.71a.87.87,0,0,1-.022,1.245l-19.849,19.34a.87.87,0,0,1-1.211-.017l-57.666-58.346a.87.87,0,0,1,.147-1.35Z" transform="translate(-199.743 -134.075)" fill="#fff"/>
      <path id="Path_130" data-name="Path 130" d="M634.751,457.208l-16.766,15.808-39.879-39.4,20.239-13.174Z" fill="#909090"/>
      <path id="Path_131" data-name="Path 131" d="M779.4,577.414a.581.581,0,0,0,0-.821l-3.487-3.487a.594.594,0,0,0-.821,0,.581.581,0,0,0,0,.821l3.487,3.487a.594.594,0,0,0,.821,0Z" transform="translate(-199.743 -134.075)" fill="#e6e6e6"/>
      <path id="Path_132" data-name="Path 132" d="M785.274,582.468l-3.487-3.487a.58.58,0,0,0-.821.821l3.487,3.487a.58.58,0,1,0,.821-.821Z" transform="translate(-199.743 -134.075)" fill="#e6e6e6"/>
      <circle id="Ellipse_34" data-name="Ellipse 34" cx="3.917" cy="3.917" r="3.917" transform="translate(630.448 466.86)" fill="#6c63ff"/>
      <path id="Path_134" data-name="Path 134" d="M765.4,607.864V304.126h2.106V608.245Z" fill="#e8e8e8"/>
      <path id="Path_135" data-name="Path 135" d="M582.428,732.927l-19.9,5.253h0A24.825,24.825,0,0,1,530.894,749.9l-.435-.18a29.7,29.7,0,0,1-7.3-4.458c-8.357-6.774-22.279-10.27-40.742-11.093a5.35,5.35,0,0,1-3.738-5.385h0a5.35,5.35,0,0,1,4.65-5.023l99.553-12.985Z" transform="translate(-199.743 -134.075)" fill="#e6e6e6"/>
      <path id="Path_136" data-name="Path 136" d="M840.542,750.556c-52.051-8.347-99.47-21.859-139.228-43.91L577.908,736.933l.452-27.06,96.461-33.833a122.588,122.588,0,0,1,50.754-6.486l114.967,21.333Z" transform="translate(-199.743 -134.075)" fill="#2f2e41"/>
      <path id="Path_137" data-name="Path 137" d="M642.1,761.415h0a6.328,6.328,0,0,1,2.6-7.117l46.668-24.536,11.3-29.382,19.438,12.205-5.424,21.7,1.283,8.979a19.856,19.856,0,0,1-19.656,22.664H648.162a6.329,6.329,0,0,1-6.062-4.51Z" transform="translate(-199.743 -134.075)" fill="#e6e6e6"/>
      <path id="Path_138" data-name="Path 138" d="M903.375,733.831c-56.358,70.069-95.135-6.25-133.351-87.243l-46.108,75.038-28.026-19.89,48.327-106.32a18.2,18.2,0,0,1,28.94-5.819l67.385,75.071,12.657-.9Z" transform="translate(-199.743 -134.075)" fill="#2f2e41"/>
      <circle id="Ellipse_35" data-name="Ellipse 35" cx="33.451" cy="33.451" r="33.451" transform="translate(673.345 332.602)" fill="#ffb9b9"/>
      <path id="Path_139" data-name="Path 139" d="M949.031,559.8l-37.067,8.137a223.879,223.879,0,0,0-15.369-44.3l34.355-12.657A237.743,237.743,0,0,0,949.031,559.8Z" transform="translate(-199.743 -134.075)" fill="#ffb9b9"/>
      <path id="Path_140" data-name="Path 140" d="M906.539,742.419l-66-77.751L867.416,620c2.829-20.095,13.207-35.889,29.178-48.5l10.849-18.033,32.547-13.561h0a66.605,66.605,0,0,1,19.757,78.362Z" transform="translate(-199.743 -134.075)" fill="#f9be79"/>
      <path id="Path_141" data-name="Path 141" d="M849.583,656.532,809.8,625.794l-18.845-14.382a14.138,14.138,0,0,1,.568-22.889h0a14.138,14.138,0,0,1,20.388,4.821l6.93,12.561,38.875,33.451Z" transform="translate(-199.743 -134.075)" fill="#ffb9b9"/>
      <path id="Path_142" data-name="Path 142" d="M852.295,633.93l-10.849,22.6,55.149,27.122c42.9-37.349,66.814-73.165,50.628-124.763l-20.794,5.424L884.842,649.3Z" transform="translate(-199.743 -134.075)" fill="#f9be79"/>
      <circle id="Ellipse_36" data-name="Ellipse 36" cx="13.318" cy="13.318" r="13.318" transform="translate(736.904 300.864)" fill="#2f2e41"/>
      <path id="Path_143" data-name="Path 143" d="M936.242,445a13.308,13.308,0,0,1,13.312-12.448c-.275-.035-.547-.077-.828-.1a13.318,13.318,0,0,0-1.709,26.582c.28.018.556.011.833.012A13.308,13.308,0,0,1,936.242,445Z" transform="translate(-199.743 -134.075)" fill="#2f2e41"/>
      <path id="Path_144" data-name="Path 144" d="M936.167,450.684c-11.878-9.853-45.947,2.67-48.145,9.294C871.96,462.167,859.8,471.539,859.8,488.2h0c9.55,3.912,20.41,3.43,32.151,0,18.715,15.252,20,34.425,8.616,56.447l14,.28,17.357-25.367.83,25.731,32.1-.644V507.774a77.1,77.1,0,0,0-8.232-35.32C951.619,462.737,943.857,457.063,936.167,450.684Z" transform="translate(-199.743 -134.075)" fill="#676684"/>
      <ellipse id="Ellipse_37" data-name="Ellipse 37" cx="6.369" cy="8.916" rx="6.369" ry="8.916" transform="translate(700.166 363.925)" fill="#ffb8b8"/>
    </g>
    <g transform="matrix(1, 0, 0, 1, 132, 243)" filter="url(#Rectangle_50)">
      <rect id="Rectangle_50-2" data-name="Rectangle 50" width="605" height="812" rx="10" transform="translate(486 21)" fill="#fff"/>
    </g>
    <g id="Group_6" data-name="Group 6" transform="translate(620 382.096)">
      <path id="Path_150" data-name="Path 150" d="M626.513,507.569l-13.649,7.444,8.686,28.539,13.648,1.241,7.445-16.13Z" transform="translate(5.094 89.405)" fill="#c68a93"/>
      <path id="Path_151" data-name="Path 151" d="M658.28,553.994v13.648l21.094-1.24-.294-11.241Z" transform="translate(15.515 100.056)" fill="#c68a93"/>
      <path id="Path_152" data-name="Path 152" d="M619.929,374.348l7.444,93.061L650.949,603.9l37.224-4.963-12.408-107.95,4.963-99.264Z" transform="translate(6.715 58.838)" fill="#143557"/>
      <path id="Path_153" data-name="Path 153" d="M948.773,463.6l-89.338,1.241-9.927,68.244,60.8,28.539,14.89,54.6-75.689,80.652,29.779,37.224s42.188-57.077,73.208-89.338,16.13-130.285,16.13-130.285Z" transform="translate(-222.865 -99.896)" fill="#143557"/>
      <circle id="Ellipse_38" data-name="Ellipse 38" cx="27.298" cy="27.298" r="27.298" transform="translate(645.256 132.912)" fill="#c68a93"/>
      <path id="Path_154" data-name="Path 154" d="M878.777,315.536v27.3l18.612,29.779s28.539-21.094,22.334-26.057-7.445-43.428-7.445-43.428Z" transform="translate(-216.149 -136.714)" fill="#c68a93"/>
      <path id="Path_155" data-name="Path 155" d="M652.671,186.623l-18.613,22.334,7.446,155.1,58.317-1.241,9.927-135.247L697.34,192.827l-8.511-11.58-15.064,22.747Z" transform="translate(9.957 14.533)" fill="#e5e2f7"/>
      <path id="Path_156" data-name="Path 156" d="M862.428,407.408l-13.649,52.114,13.649,52.114-22.334,29.779-19.853-94.3s14.89-76.93,16.13-85.616,3.722-9.927,3.722-9.927l9.927,1.241Z" transform="translate(-229.58 -125.599)" fill="#1369be"/>
      <path id="Path_157" data-name="Path 157" d="M705.714,281.493l8.686,16.131,2.482,27.3-4.963,31.02,17.371,28.539L746.66,306.31,728.049,205.8H720.6Z" transform="translate(26.398 20.168)" fill="#1369be"/>
      <path id="Path_158" data-name="Path 158" d="M854.289,652.327s-17.371,4.963-23.575,6.2,3.722,24.816,3.722,24.816,6.2,32.261,7.445,38.465,9.927,27.3,21.094,29.779,3.722-43.428,3.722-43.428,4.963-14.89,4.963-19.853-7.445-2.482-7.445-2.482C844.363,683.347,854.289,652.327,854.289,652.327Z" transform="translate(-227.645 -56.594)" fill="#2b2829"/>
      <path id="Path_159" data-name="Path 159" d="M882.844,735.62c1.241,7.445-1.241,7.445,18.612,9.926s14.89-13.649,14.89-13.649a104.268,104.268,0,0,0-4.963-22.334c-3.722-9.927-23.575,2.482-23.575,2.482S881.6,728.175,882.844,735.62Z" transform="translate(-215.254 -44.345)" fill="#2b2829"/>
      <path id="Path_160" data-name="Path 160" d="M916.479,313.048l.647,11.035s8.007-18.106,9.247-36.718-19.853-22.334-32.261-23.575-33.5,7.445-33.5,17.371,22.334,7.445,31.02,4.963,12.408,18.612,12.408,18.612L909,305.977Z" transform="translate(-220.317 -145.767)"/>
      <path id="Path_161" data-name="Path 161" d="M643.24,194.407l7.324-8.787,21.094,17.371-21.094,14.89Z" transform="translate(12.064 15.537)" fill="#d0cde1"/>
      <path id="Path_162" data-name="Path 162" d="M689.93,192.75l-8.686-11.167-14.89,22.334,18.612,13.649Z" transform="translate(17.367 14.61)" fill="#d0cde1"/>
      <path id="Path_163" data-name="Path 163" d="M854.769,429.758l4.963,47.151-9.926,28.539-6.2,27.3s0,26.057,24.816,27.3,45.91-78.171,45.91-78.171,3.722,17.371,6.2,27.3S965.2,558.8,965.2,558.8s9.926-1.241,18.612-21.094-17.371-38.465-17.371-38.465L959,473.186l2.482-32.261,17.371-84.375-51.494-26.677,5.584,71.346-18.612,55.836L886.41,333.6,877.1,340.42,837.4,356.551Z" transform="translate(-225.643 -130.578)" fill="#1369be"/>
    </g>
  </g>
</svg>
