<svg height="29" viewBox="0 0 112 29" width="112" xmlns="http://www.w3.org/2000/svg" xmlns:xlink="http://www.w3.org/1999/xlink"><mask id="a" fill="#fff"><path d="m28.9107536 28.6042698h-28.9107536v-28.60236511h28.9107536z" fill="#fff" fill-rule="evenodd"/></mask><g fill="none" fill-rule="evenodd" transform="translate(.42368)"><path d="m1.61490786 25.5316606h25.81395224v-23.12347933h-25.81395224z" fill="#fefefe"/><g fill="#999" transform="translate(0 .020787)"><path d="m5.53606317 20.0345413c2.23641627-2.2777223 10.28291073-9.6257887 10.28291073-9.6257887-4.1862636.9678004-8.55698823 2.2809759-10.11822721 2.9848307l-2.34843577 2.3885243c1.96311608-.413813 2.59544962-.4952651 4.03149167-.7038322zm14.93362703-11.4668553s-7.1012371 7.0580245-8.2144895 8.07142c2.1606861-.7722701 6.5840976-1.6911992 9.3936289-1.8573796.3260555-.9841134.6718886-1.697729.6718886-1.697729l3.758123-.3714262s-2.8556409-2.284252-5.609151-4.1448852zm-16.15227589 14.8394704c.8069515-.3519274 8.45819179-2.8708203 15.49351899-3.2878869.1515289-.586523.9222368-2.5547047 1.0638998-3.0891255-7.2988528.5148542-13.23405937 2.6720364-15.61873875 3.7636305zm11.42251789-17.92213403c-1.2614926.58006115-4.8944187 3.3563247-6.85086612 4.81292823 2.38132222-.78530696 8.10246992-2.03987306 11.03386382-2.10828833-.9156595-.63867053-3.48802-2.36895772-4.1829977-2.7046399zm-15.73993905 23.11925413h28.91076045v-28.60237181h-28.91076045z" mask="url(#a)"/><path d="m49.6654826 24.9821536 1.0662293-3.339605h-6.9305245c-.82899 0-1.7450149.0070268-1.7450149.0070268s.3232237-.5924202.768447-1.3247211l7.8293067-13.55361134v-2.95920887h-12.3198157l-.9186513 3.39862106h6.3377688c1.2439532 0 1.6948859.03617333 1.6948859.03617333s-.3025782.72563565-.8658959 1.66277569l-7.7698371 13.20206803v2.8704814z"/><path d="m55.4328289 10.077282c1.3624358 0 2.4567327-1.08438653 2.4567327-2.4319504 0-1.34792538-1.0655213-2.43228929-2.3995924-2.43228929-1.3609742 0-2.4854856 1.08436391-2.4854856 2.43228929 0 1.34756387 1.0946624 2.4319504 2.4283453 2.4319504"/><path d="m53.4482521 25.0130896h3.9689161l-.008313-14.0688949-3.9538431.8767231z"/><path d="m61.3193156 24.9726482-.0287757-20.76249735 4.0573441-.90797092.0287757 21.67046827z"/><path d="m69.2043969 24.9726482-.0287757-20.76249735 4.0589656-.90797092.027314 21.67046827z"/><path d="m107.295922 24.9821536 4.322833-14.9999119h-4.086119l-1.154155 5.3616964c-.415169 1.9041722-.740516 4.2478922-.830018 4.8930925 0 0-.442734-2.5198419-1.124488-5.3027933l-1.214356-4.9519956h-3.7318363l-1.4210833 5.0391189c-.7106673 2.5489432-1.0970832 5.21567-1.0970832 5.21567s-.4724002-2.9306046-.8563497-4.6590617l-1.2093995-5.59748955h-4.0504014l4.2212968 15.00167425h3.7026728l.7689722-3.0757272c.3551509-1.4051565 1.0083356-3.9839919 1.3034686-5.2746635.236897-1.0826242.265672-1.2878248.355562-1.9322569.089478.5857323.119693.7902777.23797 1.4934095.175805.9964951.532395 2.4326056.857743 3.6343917l1.362458 5.1548464z"/><path d="m88.0791166 23.225221c1.3040623-1.4649182 1.8961556-3.2229511 1.8961556-5.8014023 0-2.431634-.5326008-4.0715218-1.7476869-5.4781469-1.3027606-1.5244088-2.9905667-2.25668713-5.1532397-2.25668713-4.0862796 0-6.8108314 3.13517253-6.8108314 7.85288883 0 4.7166768 2.6947028 7.7621278 6.8108314 7.7621278 2.3395519 0 3.8504791-.7892157 5.004771-2.0787803m-3.227098-9.8447943c.5331032.6742564.7989354 1.9923348.7989354 4.0149233 0 3.545506-.7406761 5.0691014-2.4581486 5.0691014-.7692919 0-1.6581399-.4111469-2.0133136-1.2312715-.3253019-.7621479-.5036196-2.0517124-.5036196-3.7798757 0-1.4948104.1496562-2.5493048.4151915-3.3402603.3253248-.9368011 1.0944568-1.523279 2.0440534-1.523279.7106672 0 1.3317189.2930695 1.7169015.7906618"/></g></g></svg>