<svg enable-background="new 0 0 464.585 464.585" viewBox="0 0 464.585 464.585" xmlns="http://www.w3.org/2000/svg"><path d="m464.585 393.312-87.463-315.015-75.392 20.932 8.329 29.998h-83.857v-41.781h-78.243v30.92h-42.373v-68.159h-105.586v364.17h90.586 15 42.373 15 48.243 15 98.153v-233.662l64.838 233.528zm-301.626-290.866h48.243v37.147h-48.243zm0 99.364h48.243v170.575h-48.243zm0-15v-8.608h48.243v8.608zm0-23.608v-8.609h48.243v8.609zm-72.373 206.987h-75.586v-275.99h75.586zm0-304.982v13.992h-75.586v-13.992zm-75.586 334.171v-14.189h75.586v14.189zm132.959 0h-42.373v-266.012h42.373zm15 0v-11.993h48.243v11.993zm146.396 0h-83.153v-255.152h83.153zm90.279-3.6-52.742-189.961 46.485-12.907 52.742 189.961zm-56.755-204.414-4.133-14.884 46.485-12.907 4.133 14.884zm23.802-94.602 14.537 52.358-46.485 12.907-14.537-52.358z"/><path d="m243.621 160.457h48.315v15h-48.315z"/><path d="m243.621 186.81h48.315v15h-48.315z"/><path d="m243.621 213.164h48.315v15h-48.315z"/><path d="m243.621 365.797h48.315v15h-48.315z"/><path d="m119.272 272.274h15v25.255h-15z"/><path d="m119.272 311.805h15v57.099h-15z"/><path d="m119.272 189.919h15v68.081h-15z"/><path d="m119.272 150.387h15v26.354h-15z"/></svg>