<svg xmlns="http://www.w3.org/2000/svg" xmlns:xlink="http://www.w3.org/1999/xlink" width="1600" height="1200" viewBox="0 0 1600 1200">
  <defs>
    <clipPath id="clip-path">
      <rect id="Background" width="1600" height="1201" stroke-width="2" fill="none" stroke="rgba(255,255,255,0.1)" stroke-miterlimit="10" transform="translate(5774 2711)"/>
    </clipPath>
    </defs>
  <g id="Whangaehu" clip-path="url(#clip-Whangaehu)">
    <path id="Background-2" data-name="Background" d="M0,0H1600V1201H0Z" transform="translate(6 -2)" fill="none"/>
    <g id="Mask_Group_13" data-name="Mask Group 13" transform="translate(-5774 -2713)" clip-path="url(#clip-path)">
      <g id="Whangaehu-2" data-name="Whangaehu" transform="translate(5564.871 2185.465)">
        <path id="Shape" d="M1386.2,996.342c.125,32.647,49.917,69.358,71.187,88.289,42.055,37.436,85.8,72.006,129.129,107.13s86.786,70.15,128.108,108.711c26.83,25.03,58.357,53.222,76.553,88.964,38.764,76.168-83.455,64.857-115.114,66.523-80.539,4.256-172.916,2.312-248.408,41.978-45.066,23.679-63.036,63.391-53.357,121.268,3.121,18.823,12.355,40.483,4.531,58.82-8.353,19.585-27.571,30.886-43.521,38.465-58.177,27.61-125.066,30.81-186.62,34.276-66.375,3.809-133.373,2.695-199.279,2.989-27.946.124-57.132,12.377-83.744,22.337-34.887,13.053-69.358,27.716-103.96,41.892-76.116,31.114-154.553,63.886-235.078,71.786-50.432,4.951-105.552-1.742-144.728-44.805-19.67-21.617-29.966-53.765-41.338-82.318-13.766-34.494-26.986-69.322-41.642-103.274C251.707,1550.023,184.3,1443.169,74.9,1437.8c-16.551-.809-32.805,1.828-49.278,2.323-10.49.305-19.826-2.789-23.726-16.183-9.8-33.6,21.012-86.641,33.647-113.3,27.665-58.355,58.863-114.094,88.085-171.273,19.335-37.818,52.8-89.5,53.154-135.445.312-40.94-44.3-70.532-68.59-90.7-22.759-18.88-64-45.3-66.491-83.708-1.209-18.623,8.852-34.056,19.359-46.034,18.415-20.946,39.629-35.72,56.2-59.62,27.165-39.207,49.863-93.153,46.173-145.985-2.558-36.609-19.67-60.582-41.439-83.5-9.148-9.635-16.574-16.452-17.058-32.1-.78-24.841,7.191-51.127,13.756-74.159C142.179,305.7,175.545,226,212.666,151.582c18.548-37.189,38.584-74.263,63.176-105.988C291.952,24.764,313.674-.029,338.237,0c28.445,0,58.543,12.53,86.193,21.9,51.646,17.508,102.663,37.749,153.477,58.515q176.269,72.064,349.225,155.8c81.216,39.389,164.157,78.837,240.515,131.2a276.267,276.267,0,0,1,41.977,35.809c13.923,14.218,31.2,20.576,48.716,25.316,108.726,29.43,227.842,6.836,337.019-7.331,27.712-3.589,55.423-7.2,83.214-9.71,23.891-2.162,52.492-8.36,75.71.953,45.752,18.328,5.756,85.879-11.153,113.4-59.533,96.914-136.345,178.909-207.538,262.617-33.85,39.865-67.957,79.624-99.967,121.745C1418.954,932.113,1386.089,967.721,1386.2,996.342Z" transform="translate(1799.253 2077.167) rotate(180)" fill="none" stroke="rgba(255,255,255,0.1)" stroke-miterlimit="10" stroke-width="5"/>
        <path id="Shape-2" data-name="Shape" d="M1305.586,942.885c18.248,34.546,50.264,60.079,76.84,84.11,38.244,34.594,77.69,67.265,116.543,100.878,36.738,31.789,73.553,63.933,107.575,100.031,20.745,22.012,46.775,48.336,56.6,80.893,21.315,70.567-93.354,59.861-121.662,61.707-70.377,4.568-150.161,5.615-215.274,42.771-40.656,23.2-57.358,61.678-48.687,115.1,3,18.482,8.4,34.261,1.561,52.646-7.907,21.279-26.092,34.546-42.763,43.911-52.222,29.34-113.951,35.574-170.56,40.761-58.482,5.358-119.412,9.132-176.016,5.216-22.634-1.561-48.687,7.3-71.092,14.095-34.466,10.469-68.581,22.541-102.881,33.775-69.7,22.84-141.206,44.842-213.714,47.346-52.347,1.808-106.927-7.994-150.479-45.88-44.136-38.419-63.719-97.975-88.2-154.59-42.272-97.88-99.364-216.887-197.159-237.567-14.829-3.141-29.081-1.437-43.895-2.208-7.618-.391-16.289-1.628-20.152-10.792-10.029-23.792,17.455-67.294,26.7-85.518,25.553-50.362,54.283-98.258,81.061-147.652,21.27-39.219,48.226-82.8,56.453-129.285,9.983-56.411-55.243-96.557-78.182-136.28-39.765-68.882,35.575-108.13,72.719-140.972,42.655-37.705,77.862-106.493,39.626-164.83-14.627-22.31-32.625-35.6-39.157-64.714-10.216-45.528-2.49-97.556,5.8-142.561,12.484-67.654,32.252-134.577,59.114-195.722C245.552,63.771,277.482-4.874,324.241.274c31.477,3.436,63.477,15.988,94.127,27.084,45.892,16.607,91.206,35.536,136.281,55.2,104.058,45.256,206.958,95.162,307.834,150.054,68.833,37.467,260.833,190.585,275.281,196.046,43.075,16.274,92.051,13.409,136.461,10.887,59.07-3.352,117.854-12.029,176.586-20.071,27.957-3.807,56.055-8.461,84.155-10.336,20-1.333,46.275-2.475,63.8,11.715,34.2,27.684-3.9,91.028-19.661,117.827-48.273,82.158-109.339,153.306-166.6,226.051-28.1,35.72-56.624,71.375-82.13,109.957C1320.094,890.266,1294.307,921.548,1305.586,942.885Z" transform="translate(1739.156 2018.207) rotate(180)" fill="none" stroke="rgba(255,255,255,0.1)" stroke-miterlimit="10" stroke-width="5"/>
        <path id="Shape-3" data-name="Shape" d="M1239.81,848.45c49.835,69.127,114.539,121.246,173.9,178.981,29.8,28.987,48.882,69.655,74.581,104.178,13.368,17.953,30.055,40.658,32.635,65.685,6.883,66.95-96.47,57.9-127.4,60.439-59.808,4.931-127.373,8.67-181.632,42.837-33.151,20.886-49.476,55.165-43.28,100.223,2.747,19.991,7.024,36.974,0,56.6-7.117,19.883-21.944,33.917-36.959,44.437-43.147,30.253-96.766,39.925-145.345,47.131a963.348,963.348,0,0,1-171.784,9.8c-50.256-1.609-100.27,16.488-149.34,28.416-65,15.793-131.189,29.586-197.708,27.5-52.535-1.657-105.484-14.669-150.392-49.254-45.637-35.222-73.075-87.94-97.812-144.828-37.4-86-84-201.241-166.04-233.9-11.932-4.759-23.052-5.283-35.359-6.112-5.978-.4-13.7-.524-16.661-8.13-7.136-18.317,19.233-53.825,26.592-66.194,23.489-39.511,48.95-77.236,73.027-116.219,22.474-36.392,46.956-74.319,60.92-116.966,22.218-67.921-48.812-107.636-46.817-172.355,1.24-40.182,32.775-69,57.748-88.931,30.749-24.512,75.023-40.629,90.406-85.36,11.464-33.319-6.524-52.712-20.375-77.992-23.473-42.838-25.073-100.906-22.63-150.492,3.293-67.007,16.162-135,38.066-196.595,9.918-27.925,22.076-56.964,39.973-78.653C314.9,2.376,330.77-2.832,353.182,1.328,421.792,14.085,491.066,49.64,556.864,81.4c82.665,39.905,164.191,83.962,243.282,133.53,53.932,33.8,109.081,69.568,156.418,116.27,12.338,12.176,24.969,25.407,33.994,41.467,6.82,12.071,9.71,22.037,21.211,28.929,34.071,20.419,81.464,15.078,117.969,12.956,58.377-3.379,116.463-12.376,174.476-20.477,33.853-4.759,97.625-19.734,124.658,16.184,23.333,31.015-4.823,83.895-19.205,111.216-36.381,69.092-83.18,129.731-126.6,192.169-19.9,28.615-25.6,45.859-42.042,77.671-1.961,3.787-4.473,8.15-6.835,12.984-2.431,4.97-4.629,10.476-5.245,15.727C1227.643,831.312,1233.691,839.926,1239.81,848.45Z" transform="translate(1683.654 1917.644) rotate(180)" fill="none" stroke="rgba(255,255,255,0.1)" stroke-miterlimit="10" stroke-width="5"/>
        <path id="Shape-4" data-name="Shape" d="M1144.256,760.716c46.049,61.124,101.527,111.34,150.963,168.541,22.166,25.646,44.55,52.549,61.44,83.836,9.085,16.824,18.727,38,16.226,58.914-7.188,60.019-92.192,54.6-126.534,58.113-51.027,5.16-109.65,10.362-154.773,42.729-29.557,21.2-40.641,52.5-35.122,92.876,5.924,43.308-7.321,74.747-37.464,98.907-37.791,30.267-85.5,42.6-129.374,51.368a732.077,732.077,0,0,1-159.952,13.913c-52.082-1.22-102.542,9.432-154.279,16.357-68.6,9.174-139.4,13.7-207.221-5.106-59.052-16.377-112.39-52.464-152.376-108.272-41.764-58.247-62.44-131.631-96.351-196.07-21.154-40.193-50.647-93.362-90.166-108.986-13.178-5.211-37.206,1.819-26.678-23.813,6.018-14.661,17.281-27.523,26.178-39.508,14.377-19.368,29.23-38.2,43.848-57.3C103.78,866.494,137.146,824.907,160.5,776.7c29.424-60.7-14.314-107.424-8.983-168.976,2.864-33.124,21.732-59.561,41.7-80.33,12.917-13.452,27.05-25.1,41.483-35.973,15.065-11.36,32.9-20.012,46.042-34.693,18.727-20.892,10.6-45.624,7.087-72.632a711.528,711.528,0,0,1-4.046-143.55c4.277-58.675,14.306-119.027,35.434-172.348,8.219-20.759,18.631-42.771,34.092-56.684s31.454-12.965,49.17-8.774c52.55,12.385,104.992,41.2,154.842,68.517,62.392,34.191,123.559,72.4,181.972,115.875,40.32,30.009,80.774,62.429,114.506,103.113,9.811,11.842,19.145,24.522,26.693,38.679,5.182,9.71,7.961,22.235,15.469,29.533,23.493,22.778,70.658,15.977,98.209,14.652,54.986-2.639,109.105-15.186,164.021-18.234,29.971-1.667,76.909-5.858,98.92,25.285,20.7,29.276,1.951,75.385-10.42,103.593-24.312,55.465-56.976,104.88-86.252,156.439-12.035,21.217-25.226,43.414-33.023,67.641C1120.49,729.418,1132.456,745.044,1144.256,760.716Z" transform="translate(1607.357 1834.413) rotate(180)" fill="none" stroke="rgba(255,255,255,0.1)" stroke-miterlimit="10" stroke-width="5"/>
        <path id="Shape-5" data-name="Shape" d="M1065.891,654.52c36.654,53.787,80.84,101.534,117.759,156.2,21.61,32.011,58.825,85.827,42.113,130.958-18.335,49.591-82.244,50.943-119.186,54.939-43.969,4.757-95.6,11.255-133.231,42.219-11.9,9.789-22.039,22.746-26.337,39.813-4.6,18.264.429,34.247,1.084,52.532,1.372,38.356-17.39,69.15-42.222,90.3-35.094,29.9-78.977,44.036-120.427,53.891a605.294,605.294,0,0,1-142.531,16.363c-45.715-.191-90.947,1.046-136.71,2.474-59.847,1.9-120.535-1.17-178.588-20.567-57.187-19.121-109.18-54.957-150.022-107.669-39.843-51.441-66.725-114.309-90.269-178.351-13.36-36.349-35.929-90.67-67.793-109.03C5.355,870.41-8.553,870.972,6.516,849.72c18.974-26.761,44.545-48.232,66.523-71.12,31.7-33.03,64.2-66.707,90.807-105.976,16.993-25.076,24.566-49.411,23.4-81.88-.905-24.738-5.007-49.211-2.933-74.041,4.855-58.277,42.472-98.241,75.724-135.457,21.391-23.936,40.927-42.193,51.939-76.239,13.023-40.241,18.5-84.019,27.194-125.8,9.561-45.882,20.6-93.609,41.473-134.021C399.217,9.207,421.815-6.927,455.624,2.772c52.742,15.107,104.731,52.322,151.548,86.75,47.657,35.026,94.5,74.411,133.989,122.557,21.322,26,35.873,56.527,54.809,84.458,23.813,35.065,77.7,21.785,109.719,18.817,53.155-4.928,220.412-41.8,204.979,77.627-6.442,49.849-31.81,95.854-50.363,139.842-7.689,18.255-18.818,40.164-20.557,61.084C1037.854,616.686,1054.871,638.325,1065.891,654.52Z" transform="translate(1540.317 1729.218) rotate(180)" fill="none" stroke="rgba(255,255,255,0.1)" stroke-miterlimit="10" stroke-width="5"/>
        <path id="Shape-6" data-name="Shape" d="M992.206,559.789c28.01,48.742,61.531,94.79,85.565,147.435,15.592,34.094,30.9,79.646,10.789,115.721-22.7,40.709-72.757,50.2-109.537,55.386-37.9,5.339-83.133,9.833-114.106,40.7-9.853,9.832-17.977,23.09-19.49,38.967-1.458,15.229,2.659,30.458,1.295,45.963-3.056,34.817-20.354,63.5-42.655,84.311-65.975,61.553-164.169,75.24-243.771,76.849-39.844.8-80.849-3.4-120.95-6.405-52.036-3.9-104.153-12.279-153.778-32.467C180.052,1083.34,109.33,988.178,59.936,869.764c-15.547-37.273-27.44-77.6-51.8-107.554-12.558-15.467-9.814-26.575,3.025-40.68C31.232,699.486,55.719,682.64,78,664.241c31.69-26.165,64.057-52.72,92.082-84.063,19.317-21.606,33.031-42.424,37.193-74.821,2.97-23.1,2.276-46.639,4.062-69.882,3.4-44.158,15.038-87.975,35.642-124.6,16.371-29.03,35.861-55.414,56-80.571A607.235,607.235,0,0,0,371.2,125.4c26.364-51.456,63.41-146.369,125.51-121.251C565.205,31.87,629.4,102.295,673.345,170.528c14.757,22.91,26.872,51.007,46.774,67.9,29.8,25.251,60.027,24.367,95.466,24.262,53.059-.143,168.512-14.2,169.759,82.807.491,38.434-13.135,74.774-19.661,111.742C958.327,498.645,973.076,526.571,992.206,559.789Z" transform="translate(1485.985 1639.054) rotate(180)" fill="none" stroke="rgba(255,255,255,0.1)" stroke-miterlimit="10" stroke-width="5"/>
        <path id="Shape-7" data-name="Shape" d="M927.418,486.09C955.123,549.617,1017.255,654,970,724.646c-24.96,37.338-69.107,51.362-106.142,59.722-29.8,6.762-65.746,9.3-88.264,37.969-16.551,21.077-9.2,51.752-15.545,78.137-7.87,32.714-25.935,59.475-48.133,79.591-62.033,56.222-148.286,73.476-222.908,77.147-77.5,3.8-162.895-13.987-235.825-48.223-90.933-42.7-159.058-123.544-206.7-225.93-8.785-18.9-16.778-38.293-25.218-57.421C15.591,712.808,7.183,700.4,2.712,686.9c-7.441-22.5,1.326-40.9,15.381-55.565,20.218-21.115,45.053-36.144,68.1-51.99,31.52-21.686,63.741-42.982,93.061-68.425,19.7-17.121,40.326-35.563,47.377-65.267,4.812-20.26,5.811-41.717,5.639-62.7-.375-44.989,1.561-81.37,18.767-122.573,28.314-67.645,71.854-128.471,117.85-179.081,36.1-39.719,93.218-101.42,145.813-74.864,47.19,23.778,74.791,80.695,105.887,126.711,15.117,22.37,32.1,42.8,52.049,58.714,25.155,20.06,48.836,28.477,78.64,31.759,50.162,5.527,125.8,6.962,141.3,80.391,5.726,27.1,2.456,55.166,5.46,82.616C901.967,422.925,913.44,454.046,927.418,486.09Z" transform="translate(1442.059 1569.701) rotate(180)" fill="none" stroke="rgba(255,255,255,0.1)" stroke-miterlimit="10" stroke-width="5"/>
        <path id="Shape-8" data-name="Shape" d="M858.151,434.024c19.729,69.511,45.647,157.113-2,218.891-23.081,29.928-55.547,46.659-86.963,59.161-22.5,8.96-58.236,11.6-72.033,39.145-10.133,20.272-11.537,48.239-20.7,69.958a199.153,199.153,0,0,1-54.072,73.709C564.056,945.058,488.093,964.447,418.821,970,268.3,982.043,115.147,886.109,34.6,728.273,10.585,681.225-20.415,631.148,18.4,583.083c42.373-52.437,106.206-77,156.779-114.264,19.323-14.225,43.948-31.327,54.728-57.084,6.485-15.483,6.93-34.91,7.226-51.952.779-43.41,3.734-82.451,18.033-122.957,22.091-62.6,57.317-120.348,97.233-167.654,34.812-41.25,84.458-89.725,135.017-59.988C526.177,32.036,550.76,80.542,580.881,116.3c33.523,39.821,74.972,66.654,120.494,79.762,44.283,12.716,92.853,21.3,116.191,75.347,8.005,18.539,16.37,42.54,19.371,63.064a747.852,747.852,0,0,0,21.21,99.552Z" transform="translate(1401.601 1519.988) rotate(180)" fill="none" stroke="rgba(255,255,255,0.1)" stroke-miterlimit="10" stroke-width="5"/>
        <path id="Shape-9" data-name="Shape" d="M789.035,360.711c9.132,70.191,10.141,143.381-32.264,198.7-19.791,25.808-44.809,44.144-70.107,60.757-18.611,12.223-37.835,22.533-51.737,42.573-12.88,18.554-22.67,40.1-35.1,59.138A271.986,271.986,0,0,1,541.7,786.569c-55.387,44.068-122.764,64.679-187.223,71.829-31.2,3.475-65.052,5.284-96.046-4.189-29.933-9.139-59.532-23.591-87.052-40.44C112.869,777.981,62.163,725.574,25.4,659.315.2,613.867-13.43,569.675,19.21,523.569,56.007,471.6,113.7,442.925,161.258,409.2c32.616-23.133,69.171-45.81,75.264-94.971,4.855-39.118,8.791-76.246,21.344-113.222,18.681-54.54,46.148-103.945,80.771-145.285C370.3,18.057,410.36-13.9,455.652,6.214c35.885,15.965,63.726,51.732,95.079,77.3,34.94,28.559,73.329,44.306,113.755,56.967,36.329,11.424,70.536,28.979,94.017,66.25a186.009,186.009,0,0,1,13.558,24.428c4.728,10.866,4.36,21.648,5.289,33.834C779.767,297.156,784.9,328.943,789.035,360.711Z" transform="translate(1364.607 1447.164) rotate(180)" fill="none" stroke="rgba(255,255,255,0.1)" stroke-miterlimit="10" stroke-width="5"/>
        <path id="Shape-10" data-name="Shape" d="M717.782,278.589c-.78,66.671-13.918,129.68-49.9,181.638-15.384,22.227-33.754,40.534-50.682,60.9-13.63,16.415-26.511,31.674-42.184,45.207-37.177,32.039-67.393,73.5-106.9,102.028-52.741,38.141-113.156,59.224-173.1,67.653-29.271,4.119-59.509,5.559-89.125.906-25.431-3.995-49.793-18.022-72.39-32.367C89.207,676.444,46.2,636.491,17.448,585.944c-63.4-111.436,61.6-192.461,125.756-239.908,29.505-21.826,74.589-47.1,86.676-90.338,8.64-30.885,13.9-62.294,25.029-92.226C284.8,83.091,345.467-11.451,426.323,1.135c34.591,5.378,66.122,27.223,98.421,41.889C558,58.128,592.32,66.547,626.884,75.786c32.3,8.629,58.052,20.91,78.917,53.836,9.973,15.721,9.092,34.546,9.981,53.836C717.237,215.146,718.134,247.012,717.782,278.589Z" transform="translate(1328.774 1359.309) rotate(180)" fill="none" stroke="rgba(255,255,255,0.1)" stroke-miterlimit="10" stroke-width="5"/>
        <path id="Shape-11" data-name="Shape" d="M647.384,205.058C634.4,305.692,586.154,415.556,515.217,474,431.783,542.746,341.389,600.642,241.7,617.28c-46.219,7.717-96.85,11.513-140.461-13.721-33.191-19.193-71.745-47.884-90.012-88.227-44.69-98.683,54.712-177.242,111.345-222.9,30.49-24.578,69.3-48.528,92.282-84.419,13.333-20.807,20.139-48.338,30.9-71.193C278.378,67.562,332.077,11.7,398.966,1.708,429.893-2.907,461.041,2.8,491.74,7.341c31.419,4.644,63.232,7.167,94.453,13.64,24.925,5.176,54.3,13.94,63.479,46.492C661.247,108.5,652.685,163.962,647.384,205.058Z" transform="translate(1290.627 1277.235) rotate(180)" fill="none" stroke="rgba(255,255,255,0.1)" stroke-miterlimit="10" stroke-width="5"/>
        <path id="Shape-12" data-name="Shape" d="M579.919,169.207c-18.944,94.613-59.059,186.9-126.5,243.384-35.761,29.95-77.274,50.625-117.132,71.052-45.179,23.151-92.385,41.121-140.589,50.035C135.674,544.782,38.454,554.79,7.092,471.32c-31.128-82.852,47.531-156.18,94.046-197.968,29.824-26.77,61.739-51.339,90.233-80.6,15.451-15.866,27.353-34.2,40.428-52.806,36.137-51.556,87.654-92.375,140.164-114.164C422.85,4.655,485.809-4.7,539.53,2.284c23.18,3.006,39.748,13.123,46.758,41.9C596,84.193,587.749,130.123,579.919,169.207Z" transform="translate(1254.787 1225.217) rotate(180)" fill="none" stroke="rgba(255,255,255,0.1)" stroke-miterlimit="10" stroke-width="5"/>
        <path id="Shape-13" data-name="Shape" d="M506.885,151.918C488.066,235.22,447.48,311.3,388.266,361.3c-66.37,56.047-151.831,87.191-230.385,103.028-41.753,8.412-132.233,31.219-153.513-34.055s40.245-129.6,75.655-165.013c42.977-42.913,89.312-84.347,135.6-122.849,40.2-33.477,83.111-67.7,126.668-93.555A414.657,414.657,0,0,1,418.747,13.08C438.228,6.366,463-3.65,483.426,1.349,534.939,13.971,515.885,112.087,506.885,151.918Z" transform="translate(1213.179 1182.446) rotate(180)" fill="none" stroke="rgba(255,255,255,0.1)" stroke-miterlimit="10" stroke-width="5"/>
        <path id="Shape-14" data-name="Shape" d="M428.79,131.781C387.5,289.317,256.675,366.79,130.713,393.8c-29.27,6.269-111.32,28.87-127.684-19.253C-12.829,327.889,37.6,272.555,61.2,246.338,134.352,165.1,224.723,104.87,310.362,45.2c26.731-18.626,74.94-59.045,108.1-40.4C454.46,25.085,437.344,99.114,428.79,131.781Z" transform="translate(1173.875 1137.363) rotate(180)" fill="none" stroke="rgba(255,255,255,0.1)" stroke-miterlimit="10" stroke-width="5"/>
        <path id="Shape-15" data-name="Shape" d="M341.411,104.3C305.5,220.311,201.057,286.848,105.031,308.789c-23.519,5.367-83.254,22.079-101.068-10.3-16.485-29.948,22.856-73.342,37.569-90.585,32.767-38.4,71.6-70.03,109.963-100.435,35.471-28.131,71.323-56.965,108.65-80.755C279.8,14.193,316.672-12.529,339.013,6.808,363.07,27.606,349.383,78.537,341.411,104.3Z" transform="translate(1128.791 1079.559) rotate(180)" fill="none" stroke="rgba(255,255,255,0.1)" stroke-miterlimit="10" stroke-width="5"/>
        <path id="Shape-16" data-name="Shape" d="M239.317,72.307c-27.37,75.761-100.672,124.958-165.334,141.307-17.4,4.393-55,15.777-69.682-4.456-13.512-18.633,8.265-45.95,17.93-58.566C65.069,94.674,127.8,44.724,185.274,14.046c14.45-7.713,40.428-22.851,55.294-7.283C255.817,22.748,245.6,54.909,239.317,72.307Z" transform="translate(1073.304 1013.674) rotate(180)" fill="none" stroke="rgba(255,255,255,0.1)" stroke-miterlimit="10" stroke-width="5"/>
        <path id="Shape-17" data-name="Shape" d="M127.45,35.93c-15.422,37.62-55.731,66-89.12,75.043-23.5,6.358-51.744.865-31.266-31.882C27.41,46.586,65.158,16.908,97.152,3.75,121.561-6.285,140.694,3.615,127.45,35.93Z" transform="translate(1010.882 945.472) rotate(180)" fill="none" stroke="rgba(255,255,255,0.1)" stroke-miterlimit="10" stroke-width="5"/>
        <path id="Shape-18" data-name="Shape" d="M745.771,474.731c.99,74.329,33.35,151.567,17.368,227.3-13.124,62.2-79.193,67.393-118.834,95.57-31.5,22.388-49.371,62.046-66.4,100.1-15.3,34.161-29.051,69.35-45.173,102.951-10.436,21.722-28.358,64.376-50.991,65.146-21.667.742-41.536-32.5-54.123-52.146-16.415-25.612-30.959-52.916-46.894-78.937-26.854-43.891-59.07-76.379-95.97-107.125Q221.773,775.1,156.716,726.214c-31.933-24.071-64.084-47.961-94.778-74.41C42.689,635.207.2,604.073,0,573.478c-.094-14.6,11.238-30.766,18.879-42.436,12.928-19.753,27.665-37.813,42.447-55.487,27.532-32.915,56.232-64.338,84.617-96.141,36.852-41.272,72.048-81.867,104.44-128.73,33.491-48.5,65.486-98.6,98.135-148.02,22.111-33.477,44.2-71.071,76.093-91.614,39.947-25.678,72.736,1.4,113.135,1.712,34.752.276,32.189,98.575,36.606,125.908,4.432,27.666,14.2,53.42,17.983,81.149,4.72,34.618,4.782,70.035,5.943,105.023,1.409,42.8,1.965,83.54,39.441,99.86,21.325,9.273,44.389,11.222,66.468,16.777C718.487,445.088,745.46,451.25,745.771,474.731Z" transform="translate(378.565 1644.835) rotate(180)" fill="none" stroke="rgba(255,255,255,0.1)" stroke-miterlimit="10" stroke-width="5"/>
        <path id="Shape-19" data-name="Shape" d="M690.539,416.281c3.642,62.307,25.163,142.043,4.812,206.355-17.387,54.958-71.763,62.083-108.377,90.952-30.226,23.813-43.682,62.779-58.79,101.058-12.121,30.708-23.877,61.712-37.636,91.437-10.14,21.907-25.624,58.892-46.708,63.426-18.958,4.077-39.282-28.574-49.922-45.186-15.522-24.25-28.8-50.586-42.512-76.369-24.094-45.29-48.772-86.018-84.029-119.288-35.421-33.408-74.173-58.4-113.338-84.4C123.4,623.921,92.916,602.986,63.805,579.5,42.118,562.011,10.94,539.628,1.019,508.443-6.842,483.774,33,442.836,44.747,428.388c24.181-29.708,49.805-57.6,75.476-85.311,31.294-33.775,63.588-63.311,91.225-101.841C260.878,172.355,302.2,86.572,365.8,35.373,404.16,4.5,446.851-3.4,489.519,1.22c16.9,1.829,20.952,30.947,23.081,47.929,3.542,28.213,3.986,56.911,6.7,85.238,2.551,26.517,8.213,51.71,12.777,77.712,4.618,26.346,5.913,53.339,9.314,79.865,2.106,16.468,4.189,35.633,13.4,48.872,9.532,13.706,25.257,19.449,39,23.813C619.612,372.763,687.966,372.315,690.539,416.281Z" transform="translate(340.419 1573.164) rotate(180)" fill="none" stroke="rgba(255,255,255,0.1)" stroke-miterlimit="10" stroke-width="5"/>
        <path id="Shape-20" data-name="Shape" d="M610.744,340.637c6.127,57.188,14.7,128.417-10.255,181.106-20.4,43.082-63.908,52.375-94.985,80.446-25.847,23.344-35.611,60.47-48.435,94.971-10.527,28.3-21.11,56.722-33.87,83.652-9.677,20.422-22.148,48.114-41.362,55.238-16.427,6.087-34.987-21.184-44.093-34.758-15.507-23.134-28.15-49.055-40.706-74.634C276.5,684.8,257.6,640.1,228.361,606.051c-28.407-33.036-62.152-52.537-96.529-74.463-26.331-16.8-52.5-34.245-77.308-54.278-19.05-15.374-42.655-33.588-52.584-59.167-8.584-22.059,13.454-48.17,24.466-63.733,18.183-25.683,38.366-49.244,58.261-72.9,21.477-25.522,45.264-49.065,66.046-75.214,43.7-55.024,78.619-115.955,132.484-158.115C318.079,20.87,365.022-3.938,406.259.522c29.655,3.215,27.705,83.328,30.553,108.926,4.683,41.854,13.727,85.83,28.09,124.383,12.339,33.037,41.659,43.224,68.63,50.632,16.9,4.652,34.6,7.167,50.946,14.354C603.4,307.153,608.176,316.665,610.744,340.637Z" transform="translate(282.612 1471.439) rotate(180)" fill="none" stroke="rgba(255,255,255,0.1)" stroke-miterlimit="10" stroke-width="5"/>
        <path id="Shape-21" data-name="Shape" d="M519.726,259.937c3.647,48.35,2.828,105.524-20.8,147.348-20.707,36.634-57.573,46.279-83.794,75.138-20.461,22.515-28.5,59.226-39.506,89-13.45,36.4-32.3,103.644-66.228,117.345-31.558,12.737-64.571-68.623-76-92.883-18.09-38.4-33.219-80.51-55.159-115.97-18.894-30.529-44.209-47.405-71.078-65.544C72.9,391.208,20.89,363.74,2.573,318.6c-13.653-33.639,30.749-83.648,45.9-106.955,15.856-24.347,27.8-53.206,44.158-76.694C118.457,97.884,160.3,68.043,194.847,45.27,228.439,23.119,272.054-1.4,310.155.062,335.2,1.016,339.961,48.221,345.3,71.28c7.655,32.78,17.832,62.154,39.695,84.449,22.252,22.7,48.481,33.39,76.054,42.75,14.153,4.77,30.3,8.491,42.959,18.127C518,227.09,518.321,241.353,519.726,259.937Z" transform="translate(212.106 1363.933) rotate(180)" fill="none" stroke="rgba(255,255,255,0.1)" stroke-miterlimit="10" stroke-width="5"/>
        <path id="Shape-22" data-name="Shape" d="M426.529,191.861c-.2,41.771-8.027,86.313-31.227,118.533-19.323,26.838-49.57,35.809-68.068,63.244-14.652,21.721-22.11,52.213-31.92,77.437-12,30.911-28.962,84.908-58.8,95.636-29.118,10.443-54.872-49.033-66.036-72.567-16.349-34.508-29.585-71.086-46.082-105.5-12.924-27-28.728-44.4-49.773-61.8-24.7-20.439-59.17-43.081-72.364-76.9-9.514-24.483,13.516-63.6,21.877-85.174,5.605-14.487,10.737-29.2,13.555-44.9,2.2-12.228,2.414-23.544,8.774-34.043C62.48,39.419,97.593,35.97,121.416,27.265,153.057,15.712,186.628,2.582,219.74.076,240.091-1.49,250.477,21.4,262.092,37.5c13.726,19.034,33.158,32.723,50.131,47.087,22.4,18.987,46.775,30.8,71.993,42.887,11.375,5.459,24.738,10.813,33.547,21.664C426.965,160.39,426.6,176.785,426.529,191.861Z" transform="translate(143.899 1267.988) rotate(180)" fill="none" stroke="rgba(255,255,255,0.1)" stroke-miterlimit="10" stroke-width="5"/>
        <path id="Shape-23" data-name="Shape" d="M347.108,160.015c-4.022,35.081-16.554,68.612-37.721,93.412-16.226,19.04-37.775,29.76-50.8,52.637-12.138,21.325-20.59,45.573-30.612,68.373-10.607,24.105-26.365,64.395-50.828,70.954-26.365,7.064-46.675-33.577-57.921-56.1-14.207-28.466-25-59.091-37.7-88.537A252,252,0,0,0,45.311,241.2c-15.143-18.478-35.678-36.182-43.34-61.586-6.773-22.506,5.9-49.733,8.137-72.553,2.393-24.381-1.8-49.99,11.464-70.925C48.924-7.034,117.576.972,156.823.049c38.725-.953,69.86,25.466,101.2,50.6,20.7,16.594,42.255,30.645,63.478,46.106C343.132,112.529,350.645,129.142,347.108,160.015Z" transform="translate(90.725 1211.345) rotate(180)" fill="none" stroke="rgba(255,255,255,0.1)" stroke-miterlimit="10" stroke-width="5"/>
        <path id="Shape-24" data-name="Shape" d="M290.356,154.669c-11.893,50.823-49.035,77.836-75.587,116.243-21.725,31.442-38.015,96.558-74.6,105.173-41.541,9.776-66.408-76.5-80.851-109.793C43.289,229.37,14.748,199.336,2.88,160.252-3.362,139.738,2,120.6,5.32,100.091,8.961,77.565,11.7,54.551,24.269,36.428,49.013.764,97.333,1.012,132.14.031c36.027-1.02,67.9,23.42,96.6,47.812C259.187,73.674,302.536,102.545,290.356,154.669Z" transform="translate(58.361 1185.913) rotate(180)" fill="none" stroke="rgba(255,255,255,0.1)" stroke-miterlimit="10" stroke-width="5"/>
        <path id="Shape-25" data-name="Shape" d="M242.7,145.325c-13.4,36.21-41.559,65.648-64.41,93.437-19.074,23.168-39.589,69.806-68.665,73.13-34.177,3.919-54.89-45.879-68.338-76.421-13.236-30-32.307-61.684-39.636-94.616-7.642-34.306,12.71-80.513,32.119-104.789C55.414,9,90.831-1,121.221.078c31.819,1.1,61.016,23.466,85.114,46.676C232.1,71.56,258.279,103.29,242.7,145.325Z" transform="translate(30.618 1162.794) rotate(180)" fill="none" stroke="rgba(255,255,255,0.1)" stroke-miterlimit="10" stroke-width="5"/>
        <path id="Shape-26" data-name="Shape" d="M195.311,131.336c-12.8,30.117-34.988,55.594-55.446,78.319C124.076,227.2,100.78,257.033,78,257.764c-25.058.809-46.294-24.234-56.255-49.9C11.929,182.547,1.581,150.806.113,123.033-3.082,62.552,61.909-5.2,110.711.316,156.979,5.549,220.832,71.324,195.311,131.336Z" transform="translate(1.716 1141.987) rotate(180)" fill="none" stroke="rgba(255,255,255,0.1)" stroke-miterlimit="10" stroke-width="5"/>
        <path id="Shape-27" data-name="Shape" d="M152.789,113.848c-17.659,39.241-60.551,95.183-100.26,96.511C6.95,211.878-4.493,149.626,1.448,104.51,7.484,58.467,60.034-8.18,101.936.825,142.833,9.613,173.717,67.311,152.789,113.848Z" transform="translate(-23.713 1121.179) rotate(180)" fill="none" stroke="rgba(255,255,255,0.1)" stroke-miterlimit="10" stroke-width="5"/>
        <path id="Shape-28" data-name="Shape" d="M115.092,92.45c-14.95,32.855-46.854,73.893-80.13,75.138-39.65,1.469-38.9-51.094-29.91-83.8C14.4,49.823,55.578-8.191,90.294.968,124.052,9.909,129.419,60.96,115.092,92.45Z" transform="translate(-43.364 1093.436) rotate(180)" fill="none" stroke="rgba(255,255,255,0.1)" stroke-miterlimit="10" stroke-width="5"/>
        <path id="Shape-29" data-name="Shape" d="M79.721,66.176C69.852,89.619,45.157,119.25,21.674,120.2-7.026,121.337-1.446,79.65,5.969,59.53,14.783,35.589,44.326-6.011,69.118.729,93.528,7.365,87.863,46.859,79.721,66.176Z" transform="translate(-63.016 1063.38) rotate(180)" fill="none" stroke="rgba(255,255,255,0.1)" stroke-miterlimit="10" stroke-width="5"/>
        <path id="Shape-30" data-name="Shape" d="M343.4,325.4c63.523-47.035,135.333-85.861,203.051-125.325C645.41,142.416,745.828,86.3,849.81,43.349,905.559,20.322,977.8-12.872,1037.617,5.166c21.871,6.589,41.816,26.534,61.425,39.491,27.04,17.867,54.479,34.849,81.869,51.868,54.946,34.116,110.063,67.89,164.066,104.195,26,17.486,51.235,39.51,78.305,54.428,15.821,8.724,34.752,4.642,51.656,4.091,39.157-1.284,78.291-3.72,117.423-5.794,47.866-2.53,95.842-5.223,143.762-4.224,21.617.462,74.547-4.224,86.446,18.5,6.4,12.235-8.686,34.3-15.68,44.5-12.842,18.761-27.6,35.666-42.166,52.4-33.683,38.7-69.457,75.558-99.4,118.789-15.384,22.224-35.539,49.376-25.5,79.716,10.137,30.644,27.695,57.178,38.408,87.716,12.335,35.142,17.455,71.714,23.274,108.979,4.312,27.542,14.355,51.945,23.8,77.334,10.433,28.066,21.239,56.369,28.483,85.966,4.787,19.551,12.515,54.723-4.234,67.1-23.8,17.6-68.42,3.352-95.546-1.836-37.488-7.154-74.7-16.268-112.091-24.117-27.141-5.708-54.377-11.968-81.971-12.635-44.482-1.075-89.113,2.645-133.478,6.108-82.15,6.412-163.711,15.107-246.138,15.107-72.215,0-239.1-101.957-278.16-119.911-77.97-35.835-158.015-69.811-231.8-117.494-19.96-12.91-50.681-30.111-61.183-56.683-6.479-16.373-3.5-25.839-18.783-36.39-20.849-14.394-47.562-20.046-70.641-26.487-37.169-10.37-74.626-19.151-111.966-28.541-75.52-18.941-150.528-40.365-225.733-60.981-22.736-6.232-50.244-7.611-71.92-18.59-13.972-7.051-12.523-15.926-1.707-26.638C27.413,462.338,54,451.9,76.413,441.18c32.83-15.707,66.2-29.721,99.592-43.535s66.946-27.2,100.349-41.037C298.409,347.485,323.57,340.077,343.4,325.4Z" transform="translate(1550.715 2662.089) rotate(180)" fill="none" stroke="rgba(255,255,255,0.1)" stroke-miterlimit="10" stroke-width="5"/>
        <path id="Shape-31" data-name="Shape" d="M250.035,266.386c67.194-47.131,141.781-84.678,213.686-121.311,92.025-46.913,186.132-90.881,283.1-120.206C803.745,7.662,870.92-11.335,929.087,8.4c20.752,7.041,36.256,22.865,54.045,36.833,20.277,15.94,41.333,30.544,62.39,44.921q65.017,44.389,131.408,85.745c23.443,14.662,49.244,34.3,75.734,39.386,21.057,4.046,44.975-1.81,66.122-3.515,38.089-3.068,76.17-6.231,114.275-8.917,43.97-3.1,88.063-5.954,132.128-5.46,24.559.276,66.718-4.288,84.087,15.082,15.152,16.9-40.015,78.028-49.717,89.642-30.3,36.261-62.163,70.788-90.365,109.564-16.666,22.865-36.959,50.675-43.985,80.983-5.981,25.829,5.56,55.255,12.377,79.134,8.524,29.906,15.4,60.908,25.307,90.185,8.82,26.086,22.858,49.323,35.188,73.037,13.562,26.086,27.3,52.6,37.363,81.058,6.168,17.511,16.378,46.836,4.118,63.528-14.163,19.245-57.819,6.669-75.765,3.93-36.405-5.64-72.528-14.024-108.683-21.532-60.05-12.461-117.3-23.361-178.451-20.751-79.633,3.411-159.187,11.433-238.8,15.873-29.4,1.658-59.27,4.993-88.7,3.192-16.869-1.04-29.708-7.327-39.524-21.513-13.4-19.359-44.258-30.077-65.72-41.186-33.464-17.311-67.35-33.408-101.147-49.723-74.182-35.822-149.791-70.35-220.143-116.681-22.257-14.653-47.742-30.993-64.207-55.2-9.186-13.5-6.871-26.505-12.478-40.853-7.425-18.874-31.834-27.4-46.426-33.565-28.162-11.928-57.477-19.922-86.566-27.41-65.821-16.94-131.8-28.077-198.688-36.28-15.675-1.905-77.4-8.508-44.983-40.329C45.108,362.4,96.83,345.173,139,325.351,176.985,307.535,215,290.958,250.035,266.386Z" transform="translate(1405.078 2592.731) rotate(180)" fill="none" stroke="rgba(255,255,255,0.1)" stroke-miterlimit="10" stroke-width="5"/>
        <path id="Shape-32" data-name="Shape" d="M176.422,199.963c63.16-41.465,133.127-72.4,201.151-101.991,82.544-35.909,167.153-67.918,253.736-85.849,54.38-11.252,114.339-19.9,168.357-1.2C836.553,23.69,865.093,58.2,897.488,81.944s66.111,46.031,100.83,64.608c21.547,11.529,44.727,23.144,68.7,21.617,58.3-3.691,116.522-12.484,174.88-16.762,38.609-2.854,77.291-5.2,116.013-4.5,23.35.418,55.431-1.294,76.1,13.7,22.851,16.58-98.823,158.143-110.322,174.077-28.832,39.952-63.745,92.974-58.171,149.792,5.332,54.316,28.437,94.867,54.579,137.425,14.833,24.209,62.4,88.884,44.774,120.369-10.071,18-43.267,11.767-59.038,10.54-31.081-2.416-61.989-7.61-92.905-12.119-45.083-6.535-91.4-16.627-136.672-19.586-31.526-2.054-63.237.694-94.817.751-45.282.076-90.562-.347-135.844-.837-38.021-.418-76.361,0-114.249-4.452-23.554-2.74-41.432-8.894-58.327-26.282-14.7-15.125-36.876-23.981-55.618-33.6-30.948-15.876-62.3-30.592-93.553-45.545-65.428-31.315-131.613-61.973-194.241-101.107-28.589-17.855-76.658-42.853-83.364-86.144-2.421-15.606-4.2-22.354-16.691-31.229-17.73-12.6-38.965-18.274-58.857-23.211-46.374-11.51-94.1-9.789-140.388-21.165C11.459,343.6-13.152,333.477,8.366,310.3c25.116-27.1,61.677-42,91.764-58.738,15.021-8.352,30.495-16.171,44.758-26.369C155.842,217.343,165.218,207.266,176.422,199.963Z" transform="translate(1238.604 2517.593) rotate(180)" fill="none" stroke="rgba(255,255,255,0.1)" stroke-miterlimit="10" stroke-width="5"/>
        <path id="Shape-33" data-name="Shape" d="M122.649,137.773C181,104.1,244.373,79.609,306.607,57.535c69.127-24.486,139.916-44.767,211.644-53.4,49.529-5.979,102.3-7.745,150.37,10.555,30.4,11.576,51.01,35.918,77.168,56.333,39.481,30.855,82.2,55.3,129.627,49.354q79.762-9.983,160.051-14.979c32.286-2.011,64.7-3.519,97.022-2.117,20.438.877,46.768,2.355,64.548,13.654,23.79,15.132-65.57,130.278-76.709,147.059-27.628,41.615-47.876,85.291-59.708,136.857-9.65,42.077,10.063,75.155,30.4,106.631,12.643,19.547,53.5,68.71,40.7,94.1-7.016,14-30.135,13.273-42.551,13.987-23.665,1.354-47.432-.057-71.092-.677-34.944-.954-72.141,5.6-106.789.324-76.787-11.675-153.378-21.779-230.641-29.778-42.591-4.405-85.439-8.41-127.648-16.906-15.154-3.052-30.805-6.284-45.163-13.187-9.237-4.434-14.273-11.985-22.067-18.183-37.166-29.5-85.681-44.682-127.538-63.59C302.59,448.437,246.646,423.693,192.481,394c-28.49-15.618-68.282-33.564-87.886-65.439-5.924-9.63-3.4-17.34-7.124-26.593C93.183,291.29,80.159,288.1,71.748,285.129c-19.09-6.76-98.994-16.982-62.172-56.643C27.147,209.6,49.533,197.479,69.34,182.633c7.167-5.378,14.163-10.784,20.142-18.04C99.475,152.428,109.327,145.487,122.649,137.773Z" transform="translate(1065.205 2442.455) rotate(180)" fill="none" stroke="rgba(255,255,255,0.1)" stroke-miterlimit="10" stroke-width="5"/>
        <path id="Shape-34" data-name="Shape" d="M117.183,85.311C232.377,30.82,367.379-6.3,492.97.89c41.764,2.4,86.7,10.412,122.9,37.826,21.347,16.193,38.408,34.473,64.049,40.323,18.512,4.219,38.445-.571,57.066-2.305,26.971-2.514,53.957-4.763,80.968-6.582,33.485-2.219,67.08-3.93,100.627-3.019,23.971.658,57.074-.086,77.9,15.631,24.862,18.746-38.421,106.687-47.325,122.356C927.573,243.1,912.444,279.9,906.977,325.666c-1.609,13.335-7.029,27-6.327,40.446.734,13.726,7.663,25.948,14.059,36.74C923.075,417,952.1,450.547,943.789,467.8c-4.593,9.525-21.832,10.726-30.767,12.746-16.762,3.815-33.766,5.858-50.632,8.887-28.611,5.163-57.019,21.975-85.731,21.5-77.21-1.258-155.537-30.482-231.2-46.532-44.982-9.574-90.27-18.264-134.705-31.225-14.06-4.106-28.541-8.354-41.905-15.317-9.326-4.855-15.317-13.517-23.956-18.958-33.126-20.89-71.219-33.568-106.79-47.626-46.178-18.289-92.511-36.026-138.37-55.5-28.744-12.2-65.7-22.938-90.473-45.571-18.09-16.53-5.726-21.471,3.815-36.864,4.874-7.849,3.749-15.584,5.865-24.471,3.028-12.693,11.576-21.827,19.589-30.043,11.052-11.345,25.778-20.692,34.813-34.6,3.187-4.9,3.038-10.974,5.616-15.241C86.455,96.565,106.352,90.431,117.183,85.311Z" transform="translate(932.278 2375.408) rotate(180)" fill="none" stroke="rgba(255,255,255,0.1)" stroke-miterlimit="10" stroke-width="5"/>
        <path id="Shape-35" data-name="Shape" d="M165.674,46.92C259.168,12.664,363.193-6.842,462.019,2.21,496.4,5.364,531,12.692,563.028,28.786c14.572,7.3,25.511,15.437,41.48,15.875,37.051,1.01,74.213-2.525,111.262-3.373,26.51-.61,53.152-.829,79.6,1.772,17.686,1.734,41.6,3.815,56.083,17.047,21.051,19.277-16.95,84.807-24.685,102.912-12.819,30.025-25.535,63.405-20.451,98.142,1.559,10.625,4.32,20.011,4.678,30.845.347,9.31-.616,17.9,2.09,26.8,3.345,11.035,18.222,28.157,13.106,38.316-3.485,6.936-13.824,7.261-20.7,9.479a185.359,185.359,0,0,0-32.56,14.121c-11.072,6.137-20.5,15.617-31.967,20.692-18.619,8.214-39.46,8.985-59.031,8.947-78.086-.153-157.162-18.958-233.269-38.609-39.631-10.234-79.482-21.145-118-36.667-11.695-4.716-24.95-9.452-35.234-18.161-6.417-5.422-10.768-12.216-18.057-16.3C215.1,265.81,143.1,252.879,76.991,227.732,59.783,221.186-35.581,188.111,14.281,157c30.286-18.9,62.3-27.5,89.935-53.362,8.421-7.861,14.035-14.37,17.325-26.367,2.167-7.985-3.048-3.93,4.233-12.282C134.61,54.962,154.784,50.913,165.674,46.92Z" transform="translate(630.293 2197.61) rotate(180)" fill="none" stroke="rgba(255,255,255,0.1)" stroke-miterlimit="10" stroke-width="5"/>
        <path id="Shape-36" data-name="Shape" d="M171.565,22.094C281.024-5.867,396.941-7.2,508.128,17.585c28.029,6.242,57.2,4.75,85.573,6.337,27.568,1.52,76.582-1.644,96.606,24.227,14.519,18.754-1.236,58.608-6.685,79.589-6.943,26.726-13.01,54.331-1.61,80.291,6.677,15.2,15.825,29.671,22.987,44.73,3.424,7.192,10.477,18.213,7.537,25.026-4.863,11.239-27.615,15.971-38.655,21.27C638.6,316,601.231,320.32,563.506,320.2c-69.678-.218-139.716-11.848-208.067-27.618-31.442-7.258-63.33-15-93.658-27.618-17.162-7.135-29.824-20.9-46.208-29.063-52.767-26.3-109.459-40.35-163.133-64.4-15.535-6.964-73.565-30.147-44.331-57.481,28.3-26.46,69.589-23.315,99.014-48.2,3.33-2.851,7.451-6.261,9.382-10.866,1.141-2.755-.868-8,0-9.567C125.54,28.345,157.676,25.638,171.565,22.094Z" transform="translate(538.973 2152.527) rotate(180)" fill="none" stroke="rgba(255,255,255,0.1)" stroke-miterlimit="10" stroke-width="5"/>
        <path id="Shape-37" data-name="Shape" d="M137.287,12.831C193.442,3.43,250.833,1.1,307.934.507c31.211-.325,65.5-2.751,96.044,6.9,18.76,5.942,36.875,11.138,56.218,14.883C481,26.317,514.508,29.25,527.178,51.1c9.466,16.326,2.978,49.884,2.634,69.734-.368,21.77,3.291,37.916,15.884,53.494,7.918,9.811,44.242,45.423,40.045,55.691-3.994,9.782-29.305,11.281-40.249,13.823C510.9,251.9,475.854,254.7,440.671,254.27c-54.49-.668-109.184-7.451-162.823-19.1-22.176-4.844-45.094-9.858-66.278-19.536-14.266-6.524-26.163-18.092-40.334-24.836-40.585-19.344-83.5-32.483-124.224-52.176C33.942,132.284-8.644,115.424,1.565,89.441c8.513-21.694,37.465-28.29,51.692-42.835C77.457,21.809,106.427,17.988,137.287,12.831Z" transform="translate(433.778 2124.784) rotate(180)" fill="none" stroke="rgba(255,255,255,0.1)" stroke-miterlimit="10" stroke-width="5"/>
        <path id="Shape-38" data-name="Shape" d="M85.965,9.112A1003.114,1003.114,0,0,1,221.294.035c29.171-.085,59.945-.571,88.57,7.432,14.379,4.016,26.874,13.409,40.482,20.106,14.013,6.888,33.351,14.577,39.408,30.372,5.691,14.844,3.565,36.5,8.563,54.4,4.445,15.881,13.748,25.69,23.768,36.424,6.383,6.861,39.167,36.558,35.373,43.118-4.064,7.023-23.752,6.451-34,7.421a647.989,647.989,0,0,1-84.857,2.6c-38.629-1.446-77.555-5.48-115.515-14.615-26.934-6.473-47.24-21.885-72.346-33.189-32.526-14.681-66.22-26.29-98.434-42.351C36.258,103.74,12.5,93.445,4.277,72.788c-3.16-7.916-6.228-28.052-2.71-35.967,4.227-9.515,19.961-13.549,27.387-16C47.561,14.727,67.033,11.758,85.965,9.112Z" transform="translate(347.08 2108.6) rotate(180)" fill="none" stroke="rgba(255,255,255,0.1)" stroke-miterlimit="10" stroke-width="5"/>
        <path id="Shape-39" data-name="Shape" d="M71.054,8.122C126.739.474,189.656-6.017,245.512,9.374,268.084,15.587,290.563,34,299.767,59.08c4.77,12.972,5.795,28.411,12.917,40.983,5.275,9.292,11.985,17.686,18.6,25.505,3.728,4.417,27.614,28.613,23,32.934-4.862,4.56-16.793,3.069-24.941,3.184a549.91,549.91,0,0,1-58.574-2.447c-22.37-2.081-45.269-4.78-66.963-12.083-17.5-5.927-33.447-18.4-50.488-25.812C108.525,101.725,61.313,86.351,19.253,57.3,10.305,51.121-7.389,41.877,3.361,27.92,16.736,10.531,53.849,10.473,71.054,8.122Z" transform="translate(290.437 2092.416) rotate(180)" fill="none" stroke="rgba(255,255,255,0.1)" stroke-miterlimit="10" stroke-width="5"/>
        <path id="Shape-40" data-name="Shape" d="M50.237,4.566C89.887-.788,133.876-3.3,173.685,7.728c20.16,5.582,38.147,17.212,46.924,39.723,6.283,16.045,7.976,33.95,16.563,49.368,3.039,5.44,14.207,20.706,8.7,24.038-11.781,7.167-38.074-1.082-54.417-4.842-24.6-5.7-45.134-21.646-68.521-31.1C87.062,70.416,41.605,62.669,8.912,37.957-22.6,14.06,38.668,6.134,50.237,4.566Z" transform="translate(221.079 2075.077) rotate(180)" fill="none" stroke="rgba(255,255,255,0.1)" stroke-miterlimit="10" stroke-width="5"/>
        <path id="Shape-41" data-name="Shape" d="M28.531,2.633c33.639-4.817,93.478-7.2,112.671,31.558,3.562,7.2,13.394,46.922,3.892,50.469-7.832,2.911-20.123-1.9-28.972-6.39-16.46-8.315-31.9-17.379-48.914-24.243C52.726,48.186,37.9,42.8,23.6,36.012c-6.065-2.849-17.467-6.3-21.272-12.786C-7.91,5.78,18.287,4.093,28.531,2.633Z" transform="translate(154.033 2060.049) rotate(180)" fill="none" stroke="rgba(255,255,255,0.1)" stroke-width="5"/>
      </g>
    </g>
  </g>
</svg>
