<svg xmlns="http://www.w3.org/2000/svg" width="1101.231" height="600.907" viewBox="0 0 1101.231 600.907">
  <g id="doctors" transform="translate(123.637 22.531)">
    <rect id="Rectangle_68" data-name="Rectangle 68" width="110" height="123" transform="translate(151.557 268)" fill="#ccc"/>
    <path id="Path_70" data-name="Path 70" d="M95.557,576h-56l-6-48h68Z" fill="#e6e6e6"/>
    <path id="Path_71" data-name="Path 71" d="M380.729,702.284l-1.89,25.835a8.224,8.224,0,0,0,8.7,8.809l13.27-.8a4.195,4.195,0,0,0,3.815-5.2l-7.366-29.463Z" transform="translate(-172.722 -161.051)" fill="#e6e6e6"/>
    <path id="Path_72" data-name="Path 72" d="M491.724,717.561c15.618,3.653,26.774,8.846,34.1,15.874a15.035,15.035,0,0,0,9.624,4.125c4.6.242,8.355-.273,11.18-1.535h0a4.43,4.43,0,0,0,2.625-3.651,4.508,4.508,0,0,0-1.888-4.167l-37.04-26.355-15.733,6.294-3.67,3.67a3.634,3.634,0,0,0,.8,5.743Z" transform="translate(-172.722 -161.051)" fill="#e6e6e6"/>
    <path id="Path_73" data-name="Path 73" d="M443.662,295.746l-105.873-.98c.266-15.421,3.854-30.563,11.7-44.114,5.151-8.9,5.039-18.585,3.8-26.744-1.916-12.592,2.539-25.475,12.437-33.491a39.916,39.916,0,0,1,26.843-8.881l2.056.086a40.008,40.008,0,0,1,32.871,19.77,33.327,33.327,0,0,1,3.961,20.3c-.671,6.6.935,13.27,4.691,20C442.621,256.476,444.025,275.392,443.662,295.746Z" transform="translate(-172.722 -161.051)" fill="#2f2e41"/>
    <path id="Path_74" data-name="Path 74" d="M514.5,703.228l-20.779,5.421L392.534,488.213l6.324,215.015H378.079c-22.2-101.159-62.291-217.907-44.268-254.766l107.508-6.324Z" transform="translate(-172.722 -161.051)" fill="#030303"/>
    <circle id="Ellipse_44" data-name="Ellipse 44" cx="28.006" cy="28.006" r="28.006" transform="translate(190.903 41.679)" fill="#ffb9b9"/>
    <path id="Path_75" data-name="Path 75" d="M416.023,282.232l-46.075-2.71c4.515-10.364,6.319-20.344,4.517-29.813H408.8C408.718,256.979,412.336,269.556,416.023,282.232Z" transform="translate(-172.722 -161.051)" fill="#ffb9b9"/>
    <path id="Path_76" data-name="Path 76" d="M272.211,289.217l-101.183,7.228,10.389-179.33,17.617-4.969,19.875,4.517,19.875-9.938,12.648,4.518Z" fill="#f82e5d"/>
    <path id="Path_77" data-name="Path 77" d="M360.914,579.458,291.8,563.649c20.551-68.148,57.573-224.051,45.623-279.61l36.137-16.262Z" transform="translate(-172.722 -161.051)" fill="#e6e6e6"/>
    <path id="Path_78" data-name="Path 78" d="M327.488,382.512l-26.2-16.262,22.343-65.439a30.871,30.871,0,0,1,13.494-16.028l7.527-4.358-4.517,65.95Z" transform="translate(-172.722 -161.051)" fill="#e6e6e6"/>
    <path id="Path_79" data-name="Path 79" d="M505.011,564.552c-21.813,12.62-76.339,19.655-100.28,10.841-1.762-61.573-5.217-235.739,5.872-309.423l39.751,16.262-3.614,48.785C427.736,372.75,482.919,518.105,505.011,564.552Z" transform="translate(-172.722 -161.051)" fill="#e6e6e6"/>
    <path id="Path_80" data-name="Path 80" d="M329.127,213.33,304.734,205.2l-32.523-37.041,5.421-46.978,54.205,75.888Z" fill="#e6e6e6"/>
    <path id="Path_81" data-name="Path 81" d="M425.4,409.545a6.785,6.785,0,0,0,8.105,5.112l20.706-4.689-2.993-13.217-20.706,4.688a6.777,6.777,0,0,0-5.112,8.105Z" transform="translate(-172.722 -161.051)" fill="#ffb9b9"/>
    <path id="Path_82" data-name="Path 82" d="M416.023,223.509c-15.556-6.4-30.919-6.859-46.075-.9l-6.324-22.586h57.819Z" transform="translate(-172.722 -161.051)" fill="#2f2e41"/>
    <path id="Path_83" data-name="Path 83" d="M444.029,394.256l11.745,21.682c19.754-5.51,36.874-22.879,53.3-43.364l-4.517-14.455-28.006,7.227Z" transform="translate(-172.722 -161.051)" fill="#e6e6e6"/>
    <path id="Path_84" data-name="Path 84" d="M435.447,349.537h-3.614c0-51.111-10.523-86.729-20.779-86.729l-.9-3.614c9.2,0,15.06,14.824,18.36,27.26C432.984,303.314,435.447,325.717,435.447,349.537Z" transform="translate(-172.722 -161.051)" fill="#3f3d56"/>
    <path id="Path_85" data-name="Path 85" d="M352.332,336.889h-3.614c0-46.809,10.6-75.888,26.2-75.888l-.9,3.614C363.221,264.615,352.332,286.963,352.332,336.889Z" transform="translate(-172.722 -161.051)" fill="#3f3d56"/>
    <circle id="Ellipse_45" data-name="Ellipse 45" cx="9.034" cy="9.034" r="9.034" transform="translate(251.884 180.355)" fill="#3f3d56"/>
    <path id="Path_86" data-name="Path 86" d="M337.877,358.571h-3.614c0-12.952,7.295-23.489,16.262-23.489V338.7C343.551,338.7,337.877,347.612,337.877,358.571Z" transform="translate(-172.722 -161.051)" fill="#3f3d56"/>
    <path id="Path_87" data-name="Path 87" d="M366.787,358.571h-3.614c0-10.959-5.674-19.875-12.648-19.875v-3.614C359.492,335.082,366.787,345.619,366.787,358.571Z" transform="translate(-172.722 -161.051)" fill="#3f3d56"/>
    <circle id="Ellipse_46" data-name="Ellipse 46" cx="3.614" cy="3.614" r="3.614" transform="translate(188.644 194.809)" fill="#3f3d56"/>
    <circle id="Ellipse_47" data-name="Ellipse 47" cx="3.614" cy="3.614" r="3.614" transform="translate(159.735 194.809)" fill="#3f3d56"/>
    <path id="Path_88" data-name="Path 88" d="M118.177,165.193l22.547,4.026,51.534,73.276-27.378-6.442Z" fill="#6c63ff"/>
    <path id="Path_89" data-name="Path 89" d="M286.9,325.347a1.918,1.918,0,0,0-1.573,2.971L333.5,401.406a1.911,1.911,0,0,0,1.16.81l22.413,5.273a1.914,1.914,0,0,0,2-2.965l-52.889-75.2a1.9,1.9,0,0,0-1.229-.783l-17.7-3.16a2.079,2.079,0,0,0-.361-.033Z" transform="translate(-172.722 -161.051)" fill="#3f3d56"/>
    <path id="Path_90" data-name="Path 90" d="M316.949,377.6l1.339,13.485,21.126-2.1a6.776,6.776,0,0,0-1.338-13.485Z" transform="translate(-172.722 -161.051)" fill="#ffb9b9"/>
    <path id="Path_91" data-name="Path 91" d="M298.578,376.042a17.427,17.427,0,0,0,17.406,17.311h3.474l2.529-21.076-20.94-7.538Z" transform="translate(-172.722 -161.051)" fill="#e6e6e6"/>
    <rect id="Rectangle_69" data-name="Rectangle 69" width="412" height="217" transform="translate(442.557)" fill="#e6e6e6"/>
    <path id="Path_92" data-name="Path 92" d="M627.278,366.051h388v-193h-388Z" transform="translate(-172.722 -161.051)" fill="#fff"/>
    <rect id="Rectangle_70" data-name="Rectangle 70" width="138" height="138" transform="translate(484.557 40)" fill="#3f3d56"/>
    <circle id="Ellipse_48" data-name="Ellipse 48" cx="4" cy="4" r="4" transform="translate(585.557 95)" fill="#6c63ff"/>
    <circle id="Ellipse_49" data-name="Ellipse 49" cx="4" cy="4" r="4" transform="translate(570.557 81)" fill="#6c63ff"/>
    <path id="Path_93" data-name="Path 93" d="M745.278,260.051a7.949,7.949,0,0,0-4.167,1.18,25.123,25.123,0,0,0-3.866-4.535c.017-.213.033-.427.033-.645a7.994,7.994,0,0,0-13.547-5.757,24.507,24.507,0,0,0-6.463-.056c0-.063.009-.124.009-.187a8,8,0,1,0-13.259,6.018,25.14,25.14,0,0,0-3.624,3.834,8,8,0,1,0-5.116,14.148h.025c-.013.333-.025.665-.025,1a25.041,25.041,0,0,0,.723,5.969,14.994,14.994,0,1,0,19.57,18.582,24.971,24.971,0,0,0,16.342-2.424,8,8,0,1,0,10.492-10.492,24.857,24.857,0,0,0,2.848-10.636h.025a8,8,0,0,0,0-16Z" transform="translate(-172.722 -161.051)" fill="#6c63ff"/>
    <rect id="Rectangle_71" data-name="Rectangle 71" width="40" height="6" transform="translate(530.557 37)" fill="#e6e6e6"/>
    <rect id="Rectangle_72" data-name="Rectangle 72" width="138" height="138" transform="translate(660.557 40)" fill="#3f3d56"/>
    <circle id="Ellipse_50" data-name="Ellipse 50" cx="1.8" cy="1.8" r="1.8" transform="translate(753.957 130)" fill="#6c63ff"/>
    <circle id="Ellipse_51" data-name="Ellipse 51" cx="1.8" cy="1.8" r="1.8" transform="translate(747.207 123.7)" fill="#6c63ff"/>
    <path id="Path_94" data-name="Path 94" d="M920.828,292.851a3.577,3.577,0,0,0-1.875.531,11.308,11.308,0,0,0-1.74-2.041c.008-.1.015-.192.015-.29a3.6,3.6,0,0,0-6.1-2.591,11.029,11.029,0,0,0-2.908-.025c0-.028,0-.056,0-.084a3.6,3.6,0,1,0-5.967,2.708,11.312,11.312,0,0,0-1.631,1.725,3.6,3.6,0,1,0-2.3,6.367h.011c-.006.15-.011.3-.011.451a11.264,11.264,0,0,0,.325,2.686,6.747,6.747,0,1,0,8.806,8.362,11.237,11.237,0,0,0,7.354-1.091,3.6,3.6,0,1,0,4.721-4.721,11.184,11.184,0,0,0,1.282-4.786h.011a3.6,3.6,0,0,0,0-7.2Z" transform="translate(-172.722 -161.051)" fill="#6c63ff"/>
    <circle id="Ellipse_52" data-name="Ellipse 52" cx="1.8" cy="1.8" r="1.8" transform="translate(768.078 95.842)" fill="#6c63ff"/>
    <circle id="Ellipse_53" data-name="Ellipse 53" cx="1.8" cy="1.8" r="1.8" transform="translate(772.313 87.637)" fill="#6c63ff"/>
    <path id="Path_95" data-name="Path 95" d="M940.526,251.33a3.576,3.576,0,0,0-1.02-1.661A11.3,11.3,0,0,0,941,247.441c.095-.019.189-.038.284-.065a3.6,3.6,0,0,0,.841-6.57A11.031,11.031,0,0,0,941.36,238c.027-.007.055-.011.082-.019a3.6,3.6,0,1,0-4.224-5.009,11.313,11.313,0,0,0-2.1-1.1,3.6,3.6,0,1,0-6.752-.49l0,.011c-.146.035-.291.07-.437.111a11.271,11.271,0,0,0-2.5,1.042,6.747,6.747,0,1,0-5.66,10.742,11.237,11.237,0,0,0,3.044,6.783,3.6,3.6,0,1,0,5.824,3.265,11.185,11.185,0,0,0,4.954-.064l0,.011a3.6,3.6,0,0,0,6.93-1.952Z" transform="translate(-172.722 -161.051)" fill="#6c63ff"/>
    <circle id="Ellipse_54" data-name="Ellipse 54" cx="1.8" cy="1.8" r="1.8" transform="translate(698.362 71.381)" fill="#6c63ff"/>
    <circle id="Ellipse_55" data-name="Ellipse 55" cx="1.8" cy="1.8" r="1.8" transform="translate(689.158 72.119)" fill="#6c63ff"/>
    <path id="Path_96" data-name="Path 96" d="M867.726,239.883a3.577,3.577,0,0,0-.872,1.743,11.307,11.307,0,0,0-2.68-.092c-.066-.07-.132-.14-.2-.207a3.6,3.6,0,0,0-6.023,2.755,11.029,11.029,0,0,0-1.98,2.131c-.02-.02-.038-.041-.059-.06a3.6,3.6,0,1,0-2.023,6.232,11.317,11.317,0,0,0,.174,2.368,3.6,3.6,0,1,0,3.15,5.993l.007-.009c.107.105.214.21.325.312a11.269,11.269,0,0,0,2.2,1.572,6.747,6.747,0,1,0,12.111-.867,11.237,11.237,0,0,0,4.153-6.167,3.6,3.6,0,1,0-.3-6.67,11.185,11.185,0,0,0-2.671-4.173l.008-.008a3.6,3.6,0,1,0-5.317-4.854Z" transform="translate(-172.722 -161.051)" fill="#6c63ff"/>
    <rect id="Rectangle_73" data-name="Rectangle 73" width="40" height="6" transform="translate(706.557 37)" fill="#e6e6e6"/>
    <path id="Path_97" data-name="Path 97" d="M197.9,671.294c14.42,19.311,44.352,21.344,44.352,21.344s6.554-29.277-7.866-48.588-44.352-21.344-44.352-21.344S183.478,651.983,197.9,671.294Z" transform="translate(-172.722 -161.051)" fill="#e6e6e6"/>
    <path id="Path_98" data-name="Path 98" d="M271.355,678.554c-9.515,12.743-29.267,14.084-29.267,14.084s-4.324-19.319,5.191-32.062,29.267-14.084,29.267-14.084S280.87,665.811,271.355,678.554Z" transform="translate(-172.722 -161.051)" fill="#e6e6e6"/>
    <rect id="Rectangle_74" data-name="Rectangle 74" width="519.557" height="2.241" transform="translate(0 575.656)" fill="#3f3d56"/>
    <path id="Path_99" data-name="Path 99" d="M1117.37,727.146a181.08,181.08,0,0,1-15.714,30.184,130.611,130.611,0,0,1-9.518,13.081l-.105.125H27.8l.192-.134c.958-.747,6.579-5.3,15.322-13.081,6.272-5.592,14.144-12.851,22.982-21.584,72.289-71.1,211.151-239.4,95.5-393.575-107.51-143.324,8.245-169.342,84.6-172.369a218.573,218.573,0,0,1,86.06,14.067c35.269,13.406,99.744,33.966,183.745,43.379q4.137.469,8.35.9a804.58,804.58,0,0,0,133.854,2.423h0c1.312-.067,2.633-.163,3.964-.259A796.486,796.486,0,0,0,793.3,210.041c2.786-.68,5.535-1.321,8.274-1.915,143.286-33.152,275.378,79.835,242.36,207.532-12.219,47.219-9.116,97.57,31.6,138.288C1142.134,620.441,1134.023,685.9,1117.37,727.146Z" transform="translate(-151.437 -192.16)" fill="rgba(15,100,88,0.64)" opacity="0.058"/>
  </g>
</svg>
