<svg xmlns="http://www.w3.org/2000/svg" xmlns:xlink="http://www.w3.org/1999/xlink" width="1600" height="1200" viewBox="0 0 1600 1200">
  <defs>
  </defs>
  <g id="Taieri" clip-path="url(#clip-Taieri)">
    <g id="Component_6_1" data-name="Component 6 – 1" opacity="0.018">
      <rect id="Background-2" data-name="Background" width="1600" height="1200" fill="none"/>
      <g id="Mask_Group_8" data-name="Mask Group 8" transform="translate(-5069 6837)" clip-path="url(#clip-path)">
        <g id="Taieri-2" data-name="Taieri" transform="translate(5069 -6837)">
          <path id="Shape" d="M115,0c0,27.223-25.743,49.292-57.5,49.292S0,27.223,0,0" transform="translate(1485 849.006)" fill="none" stroke="#fff" stroke-linecap="round" stroke-linejoin="round" stroke-miterlimit="10" stroke-width="10.947"/>
          <path id="Shape-2" data-name="Shape" d="M72,123.229c-39.768,0-72-27.585-72-61.615S32.232,0,72,0" transform="translate(1528 8.499)" fill="none" stroke="#fff" stroke-linecap="round" stroke-linejoin="round" stroke-miterlimit="10" stroke-width="10.947"/>
          <path id="Shape-3" data-name="Shape" d="M0,57.71C0,85.872,26.863,108.7,60,108.7s60-22.83,60-50.991V0" transform="translate(562 0.85)" fill="none" stroke="#fff" stroke-linecap="round" stroke-linejoin="round" stroke-miterlimit="10" stroke-width="10.947"/>
          <path id="Shape-4" data-name="Shape" d="M135.235,228.611C60.547,228.611,0,177.439,0,114.306S60.547,0,135.235,0H259" transform="translate(2 971.385)" fill="none" stroke="#fff" stroke-linecap="round" stroke-linejoin="round" stroke-miterlimit="10" stroke-width="10.947"/>
          <path id="Shape-5" data-name="Shape" d="M44.98,73.937C20.138,73.937,0,57.387,0,36.969S20.138,0,44.98,0H93" transform="translate(84 1047.873)" fill="none" stroke="#fff" stroke-linecap="round" stroke-linejoin="round" stroke-miterlimit="10" stroke-width="10.947"/>
          <path id="Shape-6" data-name="Shape" d="M266,0H69.627C31.173,0,0,25.874,0,57.79" transform="translate(0 0.85)" fill="none" stroke="#fff" stroke-linecap="round" stroke-linejoin="round" stroke-miterlimit="10" stroke-width="10.947"/>
          <path id="Shape-7" data-name="Shape" d="M-287.153,0H-35.412C13.813-.061,53.775,33.8,53.847,75.637" transform="translate(1405.153 2.55)" fill="none" stroke="#fff" stroke-linecap="round" stroke-linejoin="round" stroke-miterlimit="10" stroke-width="10.947"/>
          <path id="Shape-8" data-name="Shape" d="M120,193.77V50.723C120,22.561,93.137-.269,60-.269S0,22.561,0,50.723V72.864" transform="translate(1480 198.864)" fill="none" stroke="#fff" stroke-linecap="round" stroke-linejoin="round" stroke-miterlimit="10" stroke-width="10.947"/>
          <ellipse id="Shape-9" data-name="Shape" cx="40" cy="33.994" rx="40" ry="33.994" transform="translate(548 299.999)" fill="none" stroke="#fff" stroke-linecap="round" stroke-linejoin="round" stroke-miterlimit="10" stroke-width="10.947"/>
          <ellipse id="Shape-10" data-name="Shape" cx="58" cy="48.867" rx="58" ry="48.867" transform="translate(640 967.136)" fill="none" stroke="#fff" stroke-linecap="round" stroke-linejoin="round" stroke-miterlimit="10" stroke-width="10.947"/>
          <ellipse id="Shape-11" data-name="Shape" cx="63" cy="53.541" rx="63" ry="53.541" transform="translate(121 164.872)" fill="none" stroke="#fff" stroke-linecap="round" stroke-linejoin="round" stroke-miterlimit="10" stroke-width="10.947"/>
          <path id="Shape-12" data-name="Shape" d="M140.5,235.41c77.6,0,140.5-52.7,140.5-117.705S218.1,0,140.5,0,0,52.7,0,117.705" transform="translate(44 99.433)" fill="none" stroke="#fff" stroke-linecap="round" stroke-linejoin="round" stroke-miterlimit="10" stroke-width="10.947"/>
          <path id="Shape-13" data-name="Shape" d="M5.21,90.473c-21.346,67.83,24.832,137.3,103.136,155.168s159.1-22.648,180.443-90.478S263.958,17.867,185.654,0" transform="translate(1306 950.139)" fill="none" stroke="#fff" stroke-linecap="round" stroke-linejoin="round" stroke-miterlimit="10" stroke-width="10.947"/>
          <path id="Shape-14" data-name="Shape" d="M57.5,0C25.744,0,0,21.878,0,48.867S25.744,97.733,57.5,97.733,115,75.855,115,48.867V0" transform="translate(271 351.84)" fill="none" stroke="#fff" stroke-linecap="round" stroke-linejoin="round" stroke-miterlimit="10" stroke-width="10.947"/>
          <path id="Shape-15" data-name="Shape" d="M0,65.014c0,35.906,34.026,65.014,76,65.014s76-29.108,76-65.014S117.974,0,76,0H0" transform="translate(346 0.85)" fill="none" stroke="#fff" stroke-linecap="round" stroke-linejoin="round" stroke-miterlimit="10" stroke-width="10.947"/>
          <path id="Shape-16" data-name="Shape" d="M66.5,111.826C29.773,111.826,0,86.793,0,55.913S29.773,0,66.5,0,133,25.033,133,55.913v171" transform="translate(5 624.644)" fill="none" stroke="#fff" stroke-linecap="round" stroke-linejoin="round" stroke-miterlimit="10" stroke-width="10.947"/>
          <path id="Shape-17" data-name="Shape" d="M140.988,51.841c0,28.631,26.872,51.841,60.012,51.841s60-23.21,60-51.841S234.141,0,201,0H0" transform="translate(1321 687.534)" fill="none" stroke="#fff" stroke-linecap="round" stroke-linejoin="round" stroke-miterlimit="10" stroke-width="10.947"/>
          <path id="Shape-18" data-name="Shape" d="M64,118.8c-35.346,0-64,24.011-64,53.626s28.654,53.634,64,53.634,64-24.011,64-53.626V0" transform="translate(902)" fill="none" stroke="#fff" stroke-linecap="round" stroke-linejoin="round" stroke-miterlimit="10" stroke-width="10.947"/>
          <path id="Shape-19" data-name="Shape" d="M33.919,49.292C33.919,22.068,59.681,0,91.46,0S149,22.068,149,49.292,123.239,98.583,91.459,98.583H0" transform="translate(881 1101.414)" fill="none" stroke="#fff" stroke-linecap="round" stroke-linejoin="round" stroke-miterlimit="10" stroke-width="10.947"/>
          <path id="Shape-20" data-name="Shape" d="M57.5,133.069c31.559.135,57.03,21.963,56.924,48.785s-25.748,48.5-57.308,48.459S0,208.511,0,181.69V0" transform="translate(1032 345.042)" fill="none" stroke="#fff" stroke-linecap="round" stroke-linejoin="round" stroke-miterlimit="10" stroke-width="10.947"/>
          <path id="Shape-21" data-name="Shape" d="M57.5,148.477C25.744,148.477,0,170.03,0,196.618s25.744,48.141,57.5,48.141S115,223.205,115,196.618V0" transform="translate(5 334.843)" fill="none" stroke="#fff" stroke-linecap="round" stroke-linejoin="round" stroke-miterlimit="10" stroke-width="10.947"/>
          <path id="Shape-22" data-name="Shape" d="M202.7,87.535C202.7,39.191,157.323,0,101.348,0S0,39.191,0,87.535,45.377,175.07,101.352,175.07H367" transform="translate(486 247.308)" fill="none" stroke="#fff" stroke-linecap="round" stroke-linejoin="round" stroke-miterlimit="10" stroke-width="10.947"/>
          <path id="Shape-23" data-name="Shape" d="M265.643,175.07C321.629,175.07,367,135.879,367,87.535S321.629,0,265.643,0H0" transform="translate(1233 442.775)" fill="none" stroke="#fff" stroke-linecap="round" stroke-linejoin="round" stroke-miterlimit="10" stroke-width="10.947"/>
          <path id="Shape-24" data-name="Shape" d="M0,82.011C0,36.714,42.739,0,95.462,0h98.077C246.265,0,289,36.714,289,82.011h0c0,45.3-42.735,82.011-95.462,82.011H95.462C42.739,164.022,0,127.308,0,82.011Z" transform="translate(1107 67.139)" fill="none" stroke="#fff" stroke-linecap="round" stroke-linejoin="round" stroke-miterlimit="10" stroke-width="10.947"/>
          <path id="Shape-25" data-name="Shape" d="M59.5,244.759C26.667,244.782.028,222.181,0,194.277V50.481C.028,22.578,26.667-.023,59.5,0h0C92.333-.023,118.972,22.578,119,50.481v143.8c-.028,27.9-26.667,50.5-59.5,50.481Z" transform="translate(207 495.466)" fill="none" stroke="#fff" stroke-linecap="round" stroke-linejoin="round" stroke-miterlimit="10" stroke-width="10.947"/>
          <path id="Shape-26" data-name="Shape" d="M0,115.156V39.234C.093,17.488,20.911-.078,46.5,0h0C72.089-.078,92.907,17.488,93,39.234V191.077c-.093,21.747-20.911,39.313-46.5,39.234h0C20.911,230.389.093,212.823,0,191.077V172.733" transform="translate(828 560.905)" fill="none" stroke="#fff" stroke-linecap="round" stroke-linejoin="round" stroke-miterlimit="10" stroke-width="10.947"/>
          <path id="Shape-27" data-name="Shape" d="M161,269.345v6.619c-.06,37.733-36.1,68.279-80.5,68.228h0C36.1,344.243.061,313.7,0,275.964V68.227C.061,30.5,36.1-.051,80.5,0h0c44.4-.051,80.439,30.5,80.5,68.227v2.04" transform="translate(753 0.85)" fill="none" stroke="#fff" stroke-linecap="round" stroke-linejoin="round" stroke-miterlimit="10" stroke-width="10.947"/>
          <path id="Shape-28" data-name="Shape" d="M66.75,0H61.939C27.714.014-.017,23.6,0,52.691H0c-.017,29.086,27.714,52.677,61.939,52.691H205.061c34.225-.014,61.956-23.6,61.939-52.691h0C267.017,23.6,239.286.014,205.061,0H200.25" transform="translate(5 809.063)" fill="none" stroke="#fff" stroke-linecap="round" stroke-linejoin="round" stroke-miterlimit="10" stroke-width="10.947"/>
          <path id="Shape-29" data-name="Shape" d="M0,0V196.858C0,255.7,56.636,303.4,126.5,303.4S253,255.7,253,196.858V150.347" transform="translate(751 560.905)" fill="none" stroke="#fff" stroke-linecap="round" stroke-linejoin="round" stroke-miterlimit="10" stroke-width="10.947"/>
          <path id="Shape-30" data-name="Shape" d="M0,0H207.8C286.888,0,351,54.791,351,122.379S286.888,244.759,207.8,244.759H145.288" transform="translate(497 894.049)" fill="none" stroke="#fff" stroke-linecap="round" stroke-linejoin="round" stroke-miterlimit="10" stroke-width="10.947"/>
          <path id="Shape-31" data-name="Shape" d="M109.03,101.983H59.843c-33.137,0-60-22.83-60-50.991S26.705,0,59.843,0h98.373C191.3.044,218.081,22.873,218.03,50.991v4.53c.047,25.62-24.354,46.422-54.5,46.462" transform="translate(476.97 493.766)" fill="none" stroke="#fff" stroke-linecap="round" stroke-linejoin="round" stroke-miterlimit="10" stroke-width="10.947"/>
          <path id="Shape-32" data-name="Shape" d="M124.5,109.631h56.181C218.41,109.631,249,85.089,249,54.816S218.41,0,180.681,0H68.319C30.587,0,0,24.542,0,54.816" transform="translate(965 291.501)" fill="none" stroke="#fff" stroke-linecap="round" stroke-linejoin="round" stroke-miterlimit="10" stroke-width="10.947"/>
          <path id="Shape-33" data-name="Shape" d="M289,0H154.319C69.091,0,0,58.98,0,131.728" transform="translate(386 172.521)" fill="none" stroke="#fff" stroke-linecap="round" stroke-linejoin="round" stroke-miterlimit="10" stroke-width="10.947"/>
          <path id="Shape-34" data-name="Shape" d="M57.5,267.569c31.757,0,57.5,21.722,57.5,48.51s-25.743,48.51-57.5,48.51S0,342.866,0,316.079V0" transform="translate(1392 758.072)" fill="none" stroke="#fff" stroke-linecap="round" stroke-linejoin="round" stroke-miterlimit="10" stroke-width="10.947"/>
          <path id="Shape-35" data-name="Shape" d="M0,90.085C0,40.333,46.847,0,104.635,0H289" transform="translate(1019 967.136)" fill="none" stroke="#fff" stroke-linecap="round" stroke-linejoin="round" stroke-miterlimit="10" stroke-width="10.947"/>
          <path id="Shape-36" data-name="Shape" d="M0,101.983H98.373C164.441,101.983,218,56.323,218,0" transform="translate(747 391.784)" fill="none" stroke="#fff" stroke-linecap="round" stroke-linejoin="round" stroke-miterlimit="10" stroke-width="10.947"/>
          <path id="Shape-37" data-name="Shape" d="M175,0V45.684c0,46.106-44,83.5-98.268,83.494H0" transform="translate(1146 759.771)" fill="none" stroke="#fff" stroke-linecap="round" stroke-linejoin="round" stroke-miterlimit="10" stroke-width="10.947"/>
          <path id="Shape-38" data-name="Shape" d="M194,0H109.993C49.242,0,0,42.238,0,94.334" transform="translate(1313 532.01)" fill="none" stroke="#fff" stroke-linecap="round" stroke-linejoin="round" stroke-miterlimit="10" stroke-width="10.947"/>
          <path id="Shape-39" data-name="Shape" d="M0,169.121V91.684C0,47.1,40.975,9.748,96,0" transform="translate(218 1030.876)" fill="none" stroke="#fff" stroke-linecap="round" stroke-linejoin="round" stroke-miterlimit="10" stroke-width="10.947"/>
          <path id="Shape-40" data-name="Shape" d="M.421,0V156.374" transform="translate(44.079 277.053)" fill="none" stroke="#fff" stroke-linecap="round" stroke-linejoin="round" stroke-miterlimit="10" stroke-width="10.947"/>
          <path id="Shape-41" data-name="Shape" d="M0,.421H379" transform="translate(436 1199.151)" fill="none" stroke="#fff" stroke-linecap="round" stroke-linejoin="round" stroke-miterlimit="10" stroke-width="10.947"/>
          <path id="Shape-42" data-name="Shape" d="M.421,0V129.178" transform="translate(1088.079 636.542)" fill="none" stroke="#fff" stroke-linecap="round" stroke-linejoin="round" stroke-miterlimit="10" stroke-width="10.947"/>
          <path id="Shape-43" data-name="Shape" d="M.421,0V52.691" transform="translate(934.079 987.533)" fill="none" stroke="#fff" stroke-linecap="round" stroke-linejoin="round" stroke-miterlimit="10" stroke-width="10.947"/>
          <path id="Shape-44" data-name="Shape" d="M207,40.726V57.96c-.041,24.346-23.3,44.055-51.943,44.023h0C126.4,102.02,103.142,82.31,103.1,57.96V43.683C103.057,19.525,79.982-.031,51.557,0h0C23.127-.036.044,19.521,0,43.683V61.257" transform="translate(1274 290.651)" fill="none" stroke="#fff" stroke-linecap="round" stroke-linejoin="round" stroke-miterlimit="10" stroke-width="10.947"/>
          <path id="Shape-45" data-name="Shape" d="M0,62.011C.011,27.756,32.693-.007,73,0h0c40.319,0,73,27.767,73,62.022v45.089c-.012,34.255-32.694,62.016-73,62.011h0c-40.321,0-73-27.768-73-62.023Z" transform="translate(1089 1030.876)" fill="none" stroke="#fff" stroke-linecap="round" stroke-linejoin="round" stroke-miterlimit="10" stroke-width="10.947"/>
          <g id="Group_30" data-name="Group 30" transform="translate(309.93 499.715)">
            <path id="Shape-46" data-name="Shape" d="M0,0V54.633c0,66.544,63.4,120.493,141.619,120.493h56.406c47.075.052,85.206,32.495,85.213,72.5h0" transform="translate(90.832)" fill="none" stroke="#fff" stroke-linecap="round" stroke-linejoin="round" stroke-miterlimit="10" stroke-width="10.947"/>
            <path id="Shape-47" data-name="Shape" d="M261.331,0H81.893C36.665,0,0,31,0,69.229s36.665,69.229,81.893,69.229h74.059" transform="translate(112.739 320.851)" fill="none" stroke="#fff" stroke-linecap="round" stroke-linejoin="round" stroke-miterlimit="10" stroke-width="10.947"/>
            <path id="Shape-48" data-name="Shape" d="M67.851,169.08h-10.7c-31.6,0-57.21-21.768-57.21-48.62s25.614-48.62,57.21-48.62H184.734c46.658-.023,84.46-32.186,84.432-71.839" transform="translate(0.059 531.202)" fill="none" stroke="#fff" stroke-linecap="round" stroke-linejoin="round" stroke-miterlimit="10" stroke-width="10.947"/>
          </g>
        </g>
      </g>
    </g>
  </g>
</svg>
