<svg id="Layer_1" data-name="Layer 1" xmlns="http://www.w3.org/2000/svg" viewBox="0 0 512 512"><defs><style>.cls-1{fill:#0276fd;}.cls-2{fill:#b3b3b3;}.cls-3{fill:#e6e6e6;}.cls-4{fill:#f5f5f5;}.cls-5{fill:#263740;}.cls-6{fill:#70ccbd;}.cls-7{fill:#cc584c;}.cls-8{fill:#fff;}.cls-9{fill:#ff7058;}.cls-10{fill:#ffd15c;}.cls-11{fill:#acb3ba;}</style></defs><circle class="cls-1" cx="256" cy="256" r="256"/><path class="cls-2" d="M682.83,688.32h512v12h0a12,12,0,0,1-12,12h-488a12,12,0,0,1-12-12h0Z" transform="translate(-682.83 -284.32)"/><polygon class="cls-3" points="432 332 80 332 0 404 512 404 432 332"/><polygon class="cls-4" points="41.7 388 86.14 348 425.86 348 470.3 388 41.7 388"/><path class="cls-3" d="M970.83,688.32a8,8,0,0,1-8,8h-56a8,8,0,0,1-8-8Z" transform="translate(-682.83 -284.32)"/><path class="cls-5" d="M762.83,616.32v-216a12,12,0,0,1,12-12h328a12,12,0,0,1,12,12v216Z" transform="translate(-682.83 -284.32)"/><circle class="cls-6" cx="412" cy="340" r="4"/><circle class="cls-7" cx="256" cy="116" r="4"/><path class="cls-5" d="M1142.83,704.32h-40a4,4,0,0,1,0-8h40a4,4,0,0,1,0,8Z" transform="translate(-682.83 -284.32)"/><path class="cls-8" d="M896.87,444.87H796.56c-3.76,0-6.26-2.11-6.26-5.28s2.5-5.28,6.26-5.28H896.87c3.76,0,6.27,2.12,6.27,5.28S900.63,444.87,896.87,444.87Z" transform="translate(-682.83 -284.32)"/><path class="cls-8" d="M934.75,466h-105c-4.85,0-8.08-2.11-8.08-5.28s3.23-5.28,8.08-5.28h105c4.85,0,8.08,2.11,8.08,5.28S939.6,466,934.75,466Z" transform="translate(-682.83 -284.32)"/><path class="cls-8" d="M802.83,466h-6.27c-3.76,0-6.26-2.11-6.26-5.28s2.5-5.28,6.26-5.28h6.27c3.76,0,6.27,2.11,6.27,5.28S806.59,466,802.83,466Z" transform="translate(-682.83 -284.32)"/><path class="cls-8" d="M853,487.1H796.56c-3.76,0-6.26-2.11-6.26-5.27s2.5-5.28,6.26-5.28H853c3.77,0,6.27,2.11,6.27,5.28S856.75,487.1,853,487.1Z" transform="translate(-682.83 -284.32)"/><path class="cls-8" d="M913.13,529.34h-85c-3.92,0-6.53-2.11-6.53-5.28s2.61-5.28,6.53-5.28h85c3.92,0,6.53,2.11,6.53,5.28S917.05,529.34,913.13,529.34Z" transform="translate(-682.83 -284.32)"/><path class="cls-8" d="M802.83,529.34h-6.27c-3.76,0-6.26-2.11-6.26-5.28s2.5-5.28,6.26-5.28h6.27c3.76,0,6.27,2.11,6.27,5.28S806.59,529.34,802.83,529.34Z" transform="translate(-682.83 -284.32)"/><path class="cls-8" d="M903.14,550.45H878.06c-3.76,0-6.27-2.11-6.27-5.28s2.51-5.27,6.27-5.27h25.08c3.76,0,6.26,2.11,6.26,5.27S906.9,550.45,903.14,550.45Z" transform="translate(-682.83 -284.32)"/><path class="cls-8" d="M903.14,571.57H890.6c-3.76,0-6.27-2.11-6.27-5.28s2.51-5.28,6.27-5.28h12.54c3.76,0,6.26,2.11,6.26,5.28S906.9,571.57,903.14,571.57Z" transform="translate(-682.83 -284.32)"/><path class="cls-8" d="M853,550.45H796.56c-3.76,0-6.26-2.11-6.26-5.28s2.5-5.27,6.26-5.27H853c3.77,0,6.27,2.11,6.27,5.27S856.75,550.45,853,550.45Z" transform="translate(-682.83 -284.32)"/><path class="cls-8" d="M865.52,571.57h-69c-3.76,0-6.26-2.11-6.26-5.28s2.5-5.28,6.26-5.28h69c3.76,0,6.27,2.11,6.27,5.28S869.28,571.57,865.52,571.57Z" transform="translate(-682.83 -284.32)"/><path class="cls-8" d="M935.6,571.57H923.06c-3.76,0-6.27-2.11-6.27-5.28s2.51-5.28,6.27-5.28H935.6c3.76,0,6.27,2.11,6.27,5.28S939.36,571.57,935.6,571.57Z" transform="translate(-682.83 -284.32)"/><path class="cls-8" d="M865.52,508.22h-69c-3.76,0-6.26-2.11-6.26-5.28s2.5-5.28,6.26-5.28h69c3.76,0,6.27,2.11,6.27,5.28S869.28,508.22,865.52,508.22Z" transform="translate(-682.83 -284.32)"/><path class="cls-8" d="M922.15,591H828.82c-4.31,0-7.18-1.78-7.18-4.44s2.87-4.44,7.18-4.44h93.33c4.31,0,7.18,1.77,7.18,4.44S926.46,591,922.15,591Z" transform="translate(-682.83 -284.32)"/><path class="cls-8" d="M802.83,592.69h-6.27c-3.76,0-6.26-2.12-6.26-5.28s2.5-5.28,6.26-5.28h6.27c3.76,0,6.27,2.11,6.27,5.28S806.59,592.69,802.83,592.69Z" transform="translate(-682.83 -284.32)"/><path class="cls-4" d="M1101.67,593.86c0,3.88-1.74,7-3.88,7H942.71c-2.13,0-3.88-3.17-3.88-7V417.64c0-3.88,1.75-7.05,3.88-7.05h155.08c2.14,0,3.88,3.17,3.88,7.05Z" transform="translate(-682.83 -284.32)"/><circle class="cls-9" cx="113.43" cy="135.73" r="5.96"/><circle class="cls-10" cx="133.96" cy="135.73" r="5.96"/><circle class="cls-11" cx="154.28" cy="135.73" r="5.96"/><path class="cls-8" d="M943.88,487.1h-69c-3.77,0-6.27-2.11-6.27-5.27s2.5-5.28,6.27-5.28h69c3.76,0,6.27,2.11,6.27,5.28S947.64,487.1,943.88,487.1Z" transform="translate(-682.83 -284.32)"/></svg>