<svg id="Layer_1" data-name="Layer 1" xmlns="http://www.w3.org/2000/svg" viewBox="0 0 748.32 473.54"><defs><style>.cls-1{fill:#b4b4b4;}.cls-2{fill:#e6e6e5;}.cls-3{fill:#f5f6f6;}.cls-4{fill:#273841;}.cls-5{fill:#73c9bc;}.cls-6{fill:#cd594d;}.cls-7{fill:#fff;}.cls-8{fill:#f3705b;}.cls-9{fill:#ffd15d;}.cls-10{fill:#adb3ba;}</style></defs><path class="cls-1" d="M-76.66,622.2H671.66v17.53h0a17.54,17.54,0,0,1-17.52,17.54H-59.12a17.54,17.54,0,0,1-17.54-17.54h0Z" transform="translate(76.66 -183.73)"/><polygon class="cls-2" points="631.4 333.24 116.93 333.24 0 438.47 748.32 438.47 631.4 333.24"/><polygon class="cls-3" points="60.95 415.09 125.9 356.63 622.42 356.63 687.38 415.09 60.95 415.09"/><path class="cls-2" d="M344.27,622.2a11.7,11.7,0,0,1-11.68,11.7H250.73A11.7,11.7,0,0,1,239,622.2Z" transform="translate(76.66 -183.73)"/><path class="cls-4" d="M40.27,517V201.27a17.54,17.54,0,0,1,17.54-17.54H537.2a17.54,17.54,0,0,1,17.54,17.54h0V517Z" transform="translate(76.66 -183.73)"/><circle class="cls-5" cx="602.17" cy="344.93" r="5.85"/><circle class="cls-6" cx="374.16" cy="17.54" r="5.85"/><path class="cls-4" d="M595.66,645.59H537.2a5.85,5.85,0,1,1-.49-11.69h58.95a5.85,5.85,0,0,1,.48,11.69Z" transform="translate(76.66 -183.73)"/><path class="cls-7" d="M236.18,266.39H89.57c-5.5,0-9.15-3.09-9.15-7.72S84.07,251,89.57,251H236.18c5.49,0,9.16,3.1,9.16,7.72S241.67,266.39,236.18,266.39Z" transform="translate(76.66 -183.73)"/><path class="cls-7" d="M291.51,297.27H138.07c-7.08,0-11.8-3.09-11.8-7.72s4.72-7.72,11.8-7.72H291.51c7.09,0,11.81,3.09,11.81,7.72S298.63,297.27,291.51,297.27Z" transform="translate(76.66 -183.73)"/><path class="cls-7" d="M98.73,297.27H89.57c-5.5,0-9.15-3.09-9.15-7.72s3.65-7.72,9.15-7.72h9.16c5.49,0,9.16,3.09,9.16,7.72S104.22,297.27,98.73,297.27Z" transform="translate(76.66 -183.73)"/><path class="cls-7" d="M172.06,328.11H89.57c-5.5,0-9.15-3.09-9.15-7.71s3.65-7.71,9.15-7.71h82.49c5.51,0,9.16,3.08,9.16,7.71S177.51,328.11,172.06,328.11Z" transform="translate(76.66 -183.73)"/><path class="cls-7" d="M259.94,389.84H135.71c-5.73,0-9.55-3.08-9.55-7.71s3.82-7.72,9.55-7.72H259.94c5.73,0,9.54,3.08,9.54,7.72S265.67,389.84,259.94,389.84Z" transform="translate(76.66 -183.73)"/><path class="cls-7" d="M98.73,389.84H89.57c-5.5,0-9.15-3.08-9.15-7.71s3.65-7.72,9.15-7.72h9.16c5.49,0,9.16,3.08,9.16,7.72S104.22,389.84,98.73,389.84Z" transform="translate(76.66 -183.73)"/><path class="cls-7" d="M245.34,420.73H208.68c-5.49,0-9.16-3.09-9.16-7.72s3.67-7.7,9.16-7.7h36.66c5.5,0,9.15,3.08,9.15,7.7S250.84,420.73,245.34,420.73Z" transform="translate(76.66 -183.73)"/><path class="cls-7" d="M245.34,451.57H227c-5.49,0-9.16-3.09-9.16-7.72s3.67-7.72,9.16-7.72h18.33c5.49,0,9.15,3.09,9.15,7.72S250.84,451.57,245.34,451.57Z" transform="translate(76.66 -183.73)"/><path class="cls-7" d="M172.06,420.73H89.57c-5.5,0-9.15-3.09-9.15-7.72s3.65-7.7,9.15-7.7h82.49c5.51,0,9.16,3.08,9.16,7.7S177.51,420.73,172.06,420.73Z" transform="translate(76.66 -183.73)"/><path class="cls-7" d="M190.36,451.57H89.51c-5.5,0-9.15-3.09-9.15-7.72s3.65-7.72,9.15-7.72H190.36c5.49,0,9.16,3.09,9.16,7.72S195.85,451.57,190.36,451.57Z" transform="translate(76.66 -183.73)"/><path class="cls-7" d="M292.78,451.57H274.45c-5.49,0-9.16-3.09-9.16-7.72s3.67-7.72,9.16-7.72h18.33c5.5,0,9.17,3.09,9.17,7.72S298.28,451.57,292.78,451.57Z" transform="translate(76.66 -183.73)"/><path class="cls-7" d="M190.36,359H89.51c-5.5,0-9.15-3.09-9.15-7.72s3.65-7.72,9.15-7.72H190.36c5.49,0,9.16,3.09,9.16,7.72S195.85,359,190.36,359Z" transform="translate(76.66 -183.73)"/><path class="cls-7" d="M273.12,480H136.72c-6.3,0-10.5-2.6-10.5-6.49s4.2-6.48,10.5-6.48h136.4c6.3,0,10.5,2.58,10.5,6.48S279.42,480,273.12,480Z" transform="translate(76.66 -183.73)"/><path class="cls-7" d="M98.73,482.43H89.57c-5.5,0-9.15-3.09-9.15-7.71S84.07,467,89.57,467h9.16c5.49,0,9.16,3.08,9.16,7.72S104.22,482.43,98.73,482.43Z" transform="translate(76.66 -183.73)"/><circle class="cls-8" cx="165.79" cy="46.38" r="8.71"/><circle class="cls-9" cx="195.79" cy="46.38" r="8.71"/><circle class="cls-10" cx="225.49" cy="46.38" r="8.71"/><path class="cls-7" d="M304.88,328.11H204c-5.51,0-9.17-3.09-9.17-7.71s3.64-7.67,9.17-7.67H304.88c5.5,0,9.17,3.08,9.17,7.71S310.38,328.11,304.88,328.11Z" transform="translate(76.66 -183.73)"/><path class="cls-7" d="M299.08,259.3c0-4.63,4.71-7.72,11.81-7.72H464.33c7.08,0,11.8,3.09,11.8,7.72s-4.72,7.72-11.8,7.72H310.89C303.77,267,299.08,263.93,299.08,259.3Z" transform="translate(76.66 -183.73)"/><path class="cls-7" d="M494.51,259.3c0-4.63,3.67-7.72,9.16-7.72h9.16c5.5,0,9.15,3.09,9.15,7.72s-3.65,7.72-9.15,7.72h-9.16C498.17,267,494.51,263.93,494.51,259.3Z" transform="translate(76.66 -183.73)"/><path class="cls-7" d="M421.18,290.15c0-4.63,3.65-7.71,9.16-7.71h82.49c5.5,0,9.15,3.09,9.15,7.71s-3.65,7.71-9.15,7.71H430.34C424.89,297.86,421.18,294.78,421.18,290.15Z" transform="translate(76.66 -183.73)"/><path class="cls-7" d="M332.92,351.88c0-4.64,3.81-7.72,9.54-7.72H466.68c5.73,0,9.55,3.09,9.55,7.72s-3.82,7.71-9.55,7.71H342.46C336.73,359.59,332.92,356.52,332.92,351.88Z" transform="translate(76.66 -183.73)"/><path class="cls-7" d="M494.51,351.88c0-4.64,3.67-7.72,9.16-7.72h9.16c5.5,0,9.15,3.09,9.15,7.72s-3.65,7.71-9.15,7.71h-9.16C498.17,359.59,494.51,356.52,494.51,351.88Z" transform="translate(76.66 -183.73)"/><path class="cls-7" d="M347.91,382.76c0-4.62,3.65-7.7,9.15-7.7h36.66c5.49,0,9.15,3.07,9.15,7.7s-3.66,7.72-9.15,7.72H357.05C351.55,390.48,347.91,387.38,347.91,382.76Z" transform="translate(76.66 -183.73)"/><path class="cls-7" d="M347.9,413.6c0-4.63,3.67-7.72,9.15-7.72h18.34c5.48,0,9.15,3.09,9.15,7.72s-3.67,7.72-9.15,7.72H357.05C351.55,421.32,347.9,418.23,347.9,413.6Z" transform="translate(76.66 -183.73)"/><path class="cls-7" d="M421.18,382.76c0-4.62,3.65-7.7,9.16-7.7h82.49c5.5,0,9.15,3.07,9.15,7.7s-3.65,7.72-9.15,7.72H430.34C424.89,390.48,421.18,387.38,421.18,382.76Z" transform="translate(76.66 -183.73)"/><path class="cls-7" d="M402.88,413.6c0-4.63,3.67-7.72,9.16-7.72H512.89c5.5,0,9.15,3.09,9.15,7.72s-3.65,7.72-9.15,7.72H412C406.54,421.32,402.88,418.23,402.88,413.6Z" transform="translate(76.66 -183.73)"/><path class="cls-7" d="M402.88,321c0-4.63,3.67-7.72,9.16-7.72H512.89c5.5,0,9.15,3.09,9.15,7.72s-3.65,7.72-9.15,7.72H412C406.54,328.73,402.88,325.64,402.88,321Z" transform="translate(76.66 -183.73)"/><path class="cls-7" d="M288.35,290.19c0-4.63,3.67-7.71,9.17-7.71H398.35c5.54,0,9.17,3,9.17,7.67s-3.66,7.71-9.17,7.71H297.52C292,297.86,288.35,294.82,288.35,290.19Z" transform="translate(76.66 -183.73)"/><path class="cls-7" d="M344.19,444.44c0-4.63,3.66-7.72,9.15-7.72h18.33c5.49,0,9.16,3.09,9.16,7.72s-3.67,7.72-9.16,7.72H353.34C347.84,452.16,344.19,449.07,344.19,444.44Z" transform="translate(76.66 -183.73)"/><path class="cls-7" d="M399.16,444.44c0-4.63,3.67-7.72,9.16-7.72H509.17c5.5,0,9.15,3.09,9.15,7.72s-3.65,7.72-9.15,7.72H408.32C402.83,452.16,399.16,449.07,399.16,444.44Z" transform="translate(76.66 -183.73)"/><path class="cls-7" d="M315.06,474.06c0-3.9,4.2-6.48,10.5-6.48H462c6.3,0,10.5,2.59,10.5,6.48s-4.2,6.49-10.5,6.49H325.56C319.26,480.55,315.06,478,315.06,474.06Z" transform="translate(76.66 -183.73)"/><path class="cls-7" d="M490.79,475.31c0-4.64,3.67-7.72,9.16-7.72h9.16c5.5,0,9.15,3.1,9.15,7.72s-3.65,7.71-9.15,7.71H500C494.46,483,490.79,480,490.79,475.31Z" transform="translate(76.66 -183.73)"/></svg>