<svg id="Layer_1" data-name="Layer 1" xmlns="http://www.w3.org/2000/svg" viewBox="0 0 748.32 473.54"><defs><style>.cls-1{fill:#969695;}.cls-2{fill:#e6e6e6;}.cls-3{fill:#f5f5f5;}.cls-4{fill:#0e0f0f;}.cls-5{fill:#2700e7;}.cls-6{fill:#d53d3c;}.cls-11,.cls-7{fill:#fff;}.cls-10,.cls-13,.cls-8,.cls-9{fill:none;}.cls-8{stroke:#d53d3c;}.cls-10,.cls-11,.cls-13,.cls-8,.cls-9{stroke-miterlimit:10;}.cls-9{stroke:#f9df40;}.cls-10,.cls-11{stroke:#2700e7;}.cls-12{fill:#f9df40;}.cls-13{stroke:#fff;}</style></defs><path class="cls-1" d="M-76.69,622.6H671.63v17.53h0a17.54,17.54,0,0,1-17.52,17.54H-59.15a17.54,17.54,0,0,1-17.54-17.54h0Z" transform="translate(76.69 -184.13)"/><polygon class="cls-2" points="631.4 333.24 116.93 333.24 0 438.47 748.32 438.47 631.4 333.24"/><polygon class="cls-3" points="60.95 415.09 125.9 356.63 622.42 356.63 687.38 415.09 60.95 415.09"/><path class="cls-2" d="M344.24,622.6a11.7,11.7,0,0,1-11.68,11.7H250.7A11.7,11.7,0,0,1,239,622.6Z" transform="translate(76.69 -184.13)"/><path class="cls-4" d="M40.24,517.37V201.67a17.54,17.54,0,0,1,17.54-17.54H537.17a17.54,17.54,0,0,1,17.54,17.54h0v315.7Z" transform="translate(76.69 -184.13)"/><circle class="cls-5" cx="602.17" cy="344.93" r="5.85"/><circle class="cls-6" cx="374.16" cy="17.54" r="5.85"/><path class="cls-4" d="M595.63,646H537.17a5.85,5.85,0,1,1-.54-11.69h59a5.85,5.85,0,0,1,.54,11.69h-.54Z" transform="translate(76.69 -184.13)"/><path class="cls-7" d="M535.48,484.54c0,5.68-5.12,10.24-11.39,10.24H69.67c-6.23,0-11.36-4.64-11.36-10.24V227c0-5.67,5.13-10.31,11.36-10.31H524.09c6.27,0,11.39,4.64,11.39,10.31Z" transform="translate(76.69 -184.13)"/><rect class="cls-5" x="344.81" y="192.89" width="18.34" height="28.2"/><rect class="cls-5" x="363.15" y="172.59" width="20.18" height="47.69"/><rect class="cls-5" x="344.81" y="220.29" width="75.9" height="57.67"/><rect class="cls-5" x="339.76" y="192.89" width="9.4" height="10.32"/><rect class="cls-8" x="303.53" y="76.17" width="91.26" height="49.07"/><rect class="cls-9" x="295.51" y="140.61" width="67.64" height="52.28"/><rect class="cls-10" x="383.33" y="146.11" width="68.33" height="73.38"/><rect class="cls-11" x="300.32" y="203.66" width="44.48" height="78.19"/><rect class="cls-6" x="303.53" y="76.17" width="45.63" height="49.07"/><rect class="cls-12" x="295.51" y="140.61" width="53.66" height="31.41"/><rect class="cls-12" x="295.51" y="166.75" width="44.25" height="26.14"/><rect class="cls-12" x="349.16" y="160.9" width="13.99" height="11.12"/><polygon class="cls-4" points="383.33 146.11 375.99 153.45 375.99 160.9 363.15 160.9 363.15 172.02 383.33 172.02 383.33 146.11"/><rect class="cls-4" x="306.51" y="194.03" width="33.25" height="9.17"/><polygon class="cls-4" points="306.51 125.24 394.8 125.24 387.92 131.89 349.17 131.89 349.17 140.61 306.51 140.61 306.51 125.24"/><rect class="cls-10" x="339.76" y="172.02" width="80.94" height="105.94"/><rect class="cls-13" x="349.16" y="58.75" width="81.17" height="101.58"/><polygon class="cls-4" points="417.5 281.86 420.71 277.96 344.81 277.96 344.81 281.86 417.5 281.86"/><polygon class="cls-4" points="306.21 281.86 306.21 284.45 342.74 284.45 345.07 282.12 306.21 281.86"/><polygon class="cls-4" points="442.49 234.85 451.66 219.49 420.71 219.49 420.71 234.85 442.49 234.85"/><polyline class="cls-10" points="349.17 76.17 349.17 58.75 430.34 58.75 430.34 145.54"/><rect class="cls-5" x="223.21" y="177.1" width="6.3" height="9.68"/><rect class="cls-5" x="229.51" y="170.13" width="6.93" height="16.37"/><rect class="cls-5" x="223.21" y="186.5" width="26.05" height="19.79"/><rect class="cls-5" x="221.48" y="177.1" width="3.23" height="3.54"/><rect class="cls-8" x="209.05" y="137.04" width="31.32" height="16.84"/><rect class="cls-9" x="206.29" y="159.16" width="23.22" height="17.94"/><rect class="cls-10" x="236.43" y="161.04" width="23.45" height="25.18"/><rect class="cls-11" x="207.94" y="180.8" width="15.27" height="26.84"/><rect class="cls-6" x="209.05" y="137.04" width="15.66" height="16.84"/><rect class="cls-12" x="206.29" y="159.16" width="18.42" height="10.78"/><rect class="cls-12" x="206.29" y="168.13" width="15.19" height="8.97"/><rect class="cls-12" x="224.71" y="166.12" width="4.8" height="3.82"/><polygon class="cls-4" points="236.43 161.04 233.91 163.56 233.91 166.12 229.51 166.12 229.51 169.94 236.43 169.94 236.43 161.04"/><rect class="cls-4" x="210.07" y="177.49" width="11.41" height="3.15"/><polygon class="cls-4" points="210.07 153.88 240.37 153.88 238.01 156.16 224.71 156.16 224.71 159.16 210.07 159.16 210.07 153.88"/><rect class="cls-10" x="221.48" y="169.94" width="27.78" height="36.36"/><rect class="cls-13" x="224.71" y="131.06" width="27.86" height="34.86"/><polygon class="cls-4" points="248.16 207.63 249.26 206.3 223.21 206.3 223.21 207.63 248.16 207.63"/><polygon class="cls-4" points="209.97 207.63 209.97 208.53 222.5 208.53 223.3 207.73 209.97 207.63"/><polygon class="cls-4" points="256.74 191.5 259.88 186.23 249.26 186.23 249.26 191.5 256.74 191.5"/><polyline class="cls-10" points="224.71 137.04 224.71 131.06 252.57 131.06 252.57 160.85"/></svg>