<svg id="Layer_1" data-name="Layer 1" xmlns="http://www.w3.org/2000/svg" viewBox="0 0 748.32 473.54"><defs><style>.cls-1{fill:#b3b3b3;}.cls-2{fill:#e6e6e6;}.cls-3{fill:#f5f5f5;}.cls-4{fill:#263740;}.cls-5{fill:#70ccbd;}.cls-6{fill:#cc584c;}.cls-7{fill:#fff;}.cls-8{fill:#ff7058;}.cls-9{fill:#ffd15c;}.cls-10{fill:#acb3ba;}.cls-11{fill:#fcdf3e;}.cls-12{fill:#fc3838;}.cls-13{fill:#0328d2;}</style></defs><path class="cls-1" d="M0,590.47H748.32V608h0a17.53,17.53,0,0,1-17.52,17.54H17.54A17.54,17.54,0,0,1,0,608H0Z" transform="translate(0 -152)"/><polygon class="cls-2" points="631.4 333.24 116.93 333.24 0 438.47 748.32 438.47 631.4 333.24"/><polygon class="cls-3" points="60.95 415.09 125.9 356.63 622.42 356.63 687.38 415.09 60.95 415.09"/><path class="cls-2" d="M420.93,590.47a11.69,11.69,0,0,1-11.68,11.7H327.39a11.7,11.7,0,0,1-11.69-11.7Z" transform="translate(0 -152)"/><path class="cls-4" d="M116.93,485.24V169.54A17.54,17.54,0,0,1,134.47,152H613.86a17.54,17.54,0,0,1,17.54,17.54h0v315.7Z" transform="translate(0 -152)"/><circle class="cls-5" cx="602.17" cy="344.93" r="5.85"/><circle class="cls-6" cx="374.16" cy="17.54" r="5.85"/><path class="cls-4" d="M672.32,613.86H613.86a5.85,5.85,0,1,1-.48-11.69h58.94a5.85,5.85,0,1,1,.48,11.69Z" transform="translate(0 -152)"/><path class="cls-7" d="M312.84,234.66H166.23c-5.5,0-9.15-3.09-9.15-7.72s3.65-7.72,9.15-7.72H312.84c5.49,0,9.16,3.1,9.16,7.72S318.33,234.66,312.84,234.66Z" transform="translate(0 -152)"/><path class="cls-7" d="M368.17,265.54H214.73c-7.08,0-11.8-3.09-11.8-7.72s4.72-7.72,11.8-7.72H368.17c7.09,0,11.81,3.09,11.81,7.72S375.29,265.54,368.17,265.54Z" transform="translate(0 -152)"/><path class="cls-7" d="M175.39,265.54h-9.16c-5.5,0-9.15-3.09-9.15-7.72s3.65-7.72,9.15-7.72h9.16c5.49,0,9.16,3.09,9.16,7.72S180.88,265.54,175.39,265.54Z" transform="translate(0 -152)"/><path class="cls-7" d="M248.72,296.38H166.23c-5.5,0-9.15-3.09-9.15-7.71s3.65-7.71,9.15-7.71h82.49c5.51,0,9.16,3.08,9.16,7.71S254.17,296.38,248.72,296.38Z" transform="translate(0 -152)"/><path class="cls-7" d="M336.6,358.11H212.37c-5.73,0-9.55-3.08-9.55-7.71s3.82-7.72,9.55-7.72H336.6c5.73,0,9.54,3.08,9.54,7.72S342.33,358.11,336.6,358.11Z" transform="translate(0 -152)"/><path class="cls-7" d="M175.39,358.11h-9.16c-5.5,0-9.15-3.08-9.15-7.71s3.65-7.72,9.15-7.72h9.16c5.49,0,9.16,3.08,9.16,7.72S180.88,358.11,175.39,358.11Z" transform="translate(0 -152)"/><path class="cls-7" d="M322,389H285.34c-5.49,0-9.16-3.09-9.16-7.72s3.67-7.7,9.16-7.7H322c5.5,0,9.15,3.08,9.15,7.7S327.5,389,322,389Z" transform="translate(0 -152)"/><path class="cls-7" d="M322,419.84H303.67c-5.49,0-9.16-3.09-9.16-7.72s3.67-7.72,9.16-7.72H322c5.49,0,9.15,3.09,9.15,7.72S327.5,419.84,322,419.84Z" transform="translate(0 -152)"/><path class="cls-7" d="M248.72,389H166.23c-5.5,0-9.15-3.09-9.15-7.72s3.65-7.7,9.15-7.7h82.49c5.51,0,9.16,3.08,9.16,7.7S254.17,389,248.72,389Z" transform="translate(0 -152)"/><path class="cls-7" d="M267,419.84H166.17c-5.5,0-9.15-3.09-9.15-7.72s3.65-7.72,9.15-7.72H267c5.49,0,9.16,3.09,9.16,7.72S272.51,419.84,267,419.84Z" transform="translate(0 -152)"/><path class="cls-7" d="M369.44,419.84H351.11c-5.49,0-9.16-3.09-9.16-7.72s3.67-7.72,9.16-7.72h18.33c5.5,0,9.17,3.09,9.17,7.72S374.94,419.84,369.44,419.84Z" transform="translate(0 -152)"/><path class="cls-7" d="M267,327.25H166.17c-5.5,0-9.15-3.09-9.15-7.72s3.65-7.72,9.15-7.72H267c5.49,0,9.16,3.09,9.16,7.72S272.51,327.25,267,327.25Z" transform="translate(0 -152)"/><path class="cls-7" d="M349.78,448.23H213.38c-6.3,0-10.5-2.6-10.5-6.49s4.2-6.48,10.5-6.48h136.4c6.3,0,10.5,2.58,10.5,6.48S356.08,448.23,349.78,448.23Z" transform="translate(0 -152)"/><path class="cls-7" d="M175.39,450.7h-9.16c-5.5,0-9.15-3.09-9.15-7.71s3.65-7.72,9.15-7.72h9.16c5.49,0,9.16,3.08,9.16,7.72S180.88,450.7,175.39,450.7Z" transform="translate(0 -152)"/><path class="cls-7" d="M612.17,452.41c0,5.68-2.55,10.24-5.68,10.24H379.83c-3.11,0-5.67-4.64-5.67-10.24V194.86c0-5.67,2.56-10.31,5.67-10.31H606.49c3.13,0,5.68,4.64,5.68,10.31Z" transform="translate(0 -152)"/><circle class="cls-8" cx="165.79" cy="46.38" r="8.71"/><circle class="cls-9" cx="195.79" cy="46.38" r="8.71"/><circle class="cls-10" cx="225.49" cy="46.38" r="8.71"/><path class="cls-7" d="M381.54,296.38H280.7c-5.51,0-9.17-3.09-9.17-7.71s3.64-7.67,9.17-7.67H381.54c5.5,0,9.17,3.08,9.17,7.71S387,296.38,381.54,296.38Z" transform="translate(0 -152)"/><path class="cls-11" d="M480.76,338.55c0,2.54-1.14,4.58-2.54,4.58H376.71c-1.39,0-2.54-2.07-2.54-4.58V223.2c0-2.54,1.15-4.62,2.54-4.62H478.22c1.4,0,2.54,2.08,2.54,4.62Z" transform="translate(0 -152)"/><path class="cls-12" d="M612.06,460.06c0,1.28-2.17,2.3-4.84,2.3H414c-2.65,0-4.83-1-4.83-2.3V402.31c0-1.27,2.18-2.31,4.83-2.31H607.22c2.67,0,4.84,1,4.84,2.31Z" transform="translate(0 -152)"/><path class="cls-13" d="M564.06,368.55c0,1.56-.47,2.81-1,2.81H521.22c-.58,0-1-1.27-1-2.81V297.83c0-1.56.47-2.83,1-2.83H563c.58,0,1,1.27,1,2.83Z" transform="translate(0 -152)"/></svg>