<svg xmlns="http://www.w3.org/2000/svg" width="2036.259" height="1149.763"><g fill="#209ebb" fill-rule="evenodd"><path d="M1806.26 821.16c13.64-.7 30.5 7.24 31.98 22.07 1.06 10.77.73 21.5 2.37 32.27a87.1 87.1 173.98 0 0 7.87 24.68c3.64 7.52 11.16 13.93 13.13 21.98 1.24 5.12.55 12.33-1.17 17.35-2.1 6.1-.98 5.62 3.2 10.74 8.17 10 15.53 20.3 20.74 32.26 7.5 17.25 12.42 37.4 9.65 56.28-.36 2.4-.77 11-4.07 11.6-3.7.68-1.97-4.24-1.77-5.84 1.25-10.14 2.36-19 .84-29.3-5.85-39.73-34.37-65.9-52.94-99.62-1.03-1.73-3.18-5.88-4.68-8.6-2.37-4.32-4.75-12.53-7.95-15.72-6.03-6.03-.48 6.08.7 8.4 1.48 2.92 3.1 6.03 4.64 8.6 6.96 11.87 14.73 24.84 21.93 37.08-31.1 7.1-53.02-30.28-61.38-54.87-6.9-20.24-15.14-67.6 16.9-69.34M1989.13 783.64c-22.8 1.8-37.42 16.85-44.23 37.88-3.67 11.34-4.1 22.98-6.13 34.63-3.07 17.53-9.67 30.8-22.58 43.3a43.57 43.57 0 0 0-9.04 12.08 51.48 51.48 0 0 0-10.44 14.9c-3.4 7.5-4.35 16.5-.43 23.97 1.04 2 3.67 6.04 6.4 7.87-10.2 21.73-15.8 45.53-15.18 69.3.38 14.35 1.08 28.7 1.9 43.03.22 3.85 1.47 10.2 3.35 3.75 1.73-5.9-.43-15.17-.63-21.34-.98-30.03-1.8-57.34 10.56-85.4q1.94-4.4 4.1-8.76a2.9 2.9 0 0 0 .24-.16c.05.04.1.1.16.13.1-.15.2-.35.36-.57a7.74 7.74 0 0 0 1.1-1.55c1.1-1.52 2.35-3.3 2.35-4.3.02 0 .02 0 .02 0a404.4 404.4 0 0 1 25.37-35.9c-.07.1 9.7-13.23 8.2-5.86-.74 3.55-7.93 10.3-10.84 14.07a350.47 350.47 0 0 0-20.24 29.2c-.85.48-2.04 2.86-2.9 4.64-.48.9-.92 1.8-1.36 2.6 22.22 7.33 39.5-7.46 51.3-24.66 0-.02.03-.04.04-.06 3.6-4.76 7.26-9.48 11.85-13.24 7.66-6.27 15.86-7.37 24.9-10.46 24.63-8.4 35.1-40.33 38.42-64.02 3.75-26.72-14.6-67.7-46.64-65.05M1944.1 708.82c-23.38 24.34-34.68 58.1-43.63 89.85-10 35.45-16.6 71.46-16.85 108.32-.16 24.2-.82 48.58.6 72.77a257.42 257.42-8 0 0 2.7 25.7c.12.7 3.17 19.67 6.1 15.25 1.64-2.52-3.14-19.7-3.5-22.55a369.57 369.57-8 0 1-2.4-48.55c.16-26.72-.62-53.3 2.08-79.9a90.06 90.06-8 0 1 1.66-12.04c1-4.13-.27-2.33 3-3.97 3.16-1.58 7.08-1.35 10.37-3.34 13.06-7.92 19.74-28.25 24.93-41.6 5.95-15.25 9.56-31.52 12.45-47.57a335.58 335.58-8 0 0 4.5-35.5 92.37 92.37-8 0 1 1.02-11.4c.2-1 1.2-2.76 1.16-3.64-.07-1.87-1.2-2.97-1.3-4.55q-1.46 1.33-2.88 2.72M1816.57 1033.17a72.9 72.9 0 1 0 145.8 0"/><path d="M1895.3 1033.4h-3.84a129.2 129.2 0 0 1 1.43-14.43c3.08-18.28 12.74-45.12 33.93-48.1a54.64 54.64 0 0 1 7.14.1 12.88 12.88 0 0 1 5.45-1.62c18.04-1.33 38.2 13.22 46.9 28.37 7 12.2 5.83 28.25 1.5 41.22-2.9 8.7-9.24 21.07-19.8 21.2-13.22.14-13.85-16.2-14.1-25.73-.35-12.7-1.95-23.74-11.96-32.4-2.33-2-4.87-3.78-7.23-5.77-3.7-3.1-7.76-6.3-8.23-11.44-.66-7.1 3.35-8.4 9.47-7.07 1.04.22 11.55 4.94 10 1.2-.48-1.13-2.2-2.03-4.4-2.7-5.67-.62-12.43-1.34-14.37-.9-20.97 4.6-29.13 33.64-31.3 52.1-.23 1.98-.42 3.97-.6 5.98z"/><path d="M87.52 150.64c9.2 8.67 21.32 12.62 33.32 15.7 23.37 6.04 36.6 10.46 54.3 28.8 10.4 10.8 21.27 22.3 36.47 25.7 11.07 2.5 26.72.92 33.62-9.42 9.74-17.44 3.22-37.94-7.68-53.37-13.52-19.12-30.14-26.12-52.55-23.1-12.64 1.7-22.62.1-33.72-6.33-8.88-5.14-17.03-13.3-26.63-17.05-14.35-5.63-27.45-4.26-39.3 4.9 24.82 15.2 51.78 29.42 79.5 38.27 2.66.96 16.17 2.72 16.12 7-.05 4.72-17.28-2.94-17.17-2.9-8.2-2.8-16.22-6.18-24.2-9.67 0 0 .02-.02.03-.03q-12.3-5.35-24.6-11.05c-3.4-1.67-6.74-3.4-10.05-5.23-4.86-2.7-15.55-12.12-21.08-12.3a7.66 7.66 132 0 0-2.98.42c-5.4-2.94-10.72-5.96-15.95-9.1-13.67-8.22-26.78-17.66-37.3-29.78-3.06-3.53-11.12-18.74-15.5-20.05-8-2.38-.7 6.9 1.36 9.78 17.08 23.88 38.6 40.2 64.08 53.85-1 7.63 6.2 21.43 9.93 24.94M250.63 40.17c-1.67 9.2-13.66 17.5-21.6 21.54-9.82 5-20.95 8.34-31.64 10.77-17.6 4-37 3.94-54.85 3.38-2.15-.07-28.46-.54-27.92-3.6.53-3.03 27.76-.15 33.42-.2 12.08-.14 23.94 1.1 35.95-1.3a113.74 113.74-88 0 0 35.12-13.9c1.4-.8 6.55-2.48 5.45-4.6-1.08-2.1-8.05 3.34-9.4 4.1a116.66 116.66-88 0 1-17.4 8 90.15 90.15-88 0 1-34.82 5.53c-.83-7.07 3.5-13.06 10.44-15.18 6-1.83 12.9-1.8 18.6-3.9a27.38 27.38-88 0 0 10.17-6.9c7.6-7.92 9.73-16.4 21.95-18.42 9.6-1.58 28.9 1.47 26.5 14.7" opacity=".25"/><path d="M278.43 102l-2.48 1.42a95.48 95.48-30 0 0 6.35 8.86c8.72 10.5 24.84 24.03 39.6 18.03a41.1 41.1-30 0 0 4.56-2.7 9.66 9.66-30 0 0 4.1-1c12.13-5.86 19.76-22.64 19.8-35.54 0-10.4-6.65-20.18-14.22-26.84-5.07-4.47-13.7-10-20.56-6.15-8.58 4.82-2.97 15.47.38 21.65 4.45 8.22 7.5 15.87 4.23 25.1-.77 2.16-1.76 4.24-2.55 6.4-1.23 3.34-2.68 6.9-1.1 10.35 2.2 4.77 5.26 4.1 8.7.98.6-.53 5.64-7.45 6-4.5.12.9-.67 2.12-1.83 3.37-3.42 2.5-7.52 5.48-8.93 5.93-15.22 4.87-31.17-10.62-39.37-21.57-.92-1.25-1.82-2.5-2.7-3.78z" opacity=".25"/></g><g opacity=".05"><path fill="none" stroke="#535461" stroke-width="2" stroke-miterlimit="10" d="M36.4 1149.14s93.47-118.97 85.9-237.02a229.35 229.35 0 0 1 36.08-140.46 390.26 390.26 0 0 1 43.93-55.16"/><g fill="#209ebb"><path d="M198 642.1c-6.6 16.52 4.2 76.36 4.2 76.36s49.05-35.95 55.62-52.5a32.2 32.2 0 1 0-59.8-23.86zM112.04 713.9c3.43 17.45 44.9 61.8 44.9 61.8s21.6-56.82 18.18-74.3a32.22 32.22 0 0 0-63.2 12.5zM51.78 871.14c11.8 13.34 70.1 30.63 70.1 30.63s-10.04-59.97-21.84-73.3a32.22 32.22 0 1 0-48.26 42.67zM33.02 1000.38c9.36 15.14 63.88 42.04 63.88 42.04s.26-60.93-9.1-75.94a32.2 32.2 0 1 0-54.78 33.9zM218.6 804c-16.45 6.75-76.42-3.22-76.42-3.22s35.28-49.45 51.86-56.22a32.2 32.2 0 1 1 24.56 59.56zM194.7 954.84c-17.7 1.57-71.9-26-71.9-26s48.56-36.6 66.3-38.17a32.2 32.2 0 0 1 5.6 64.14zM151.4 1098.32c-17.24 4.52-75.3-13.5-75.3-13.5s41.67-44.3 58.9-48.8a32.2 32.2 0 0 1 16.38 62.3z"/></g><path d="M198 642.1c-6.6 16.52 4.2 76.36 4.2 76.36s49.05-35.95 55.62-52.5a32.2 32.2 0 1 0-59.8-23.86zM112.04 713.9c3.43 17.45 44.9 61.8 44.9 61.8s21.6-56.82 18.18-74.3a32.22 32.22 0 0 0-63.2 12.5zM51.78 871.14c11.8 13.34 70.1 30.63 70.1 30.63s-10.04-59.97-21.84-73.3a32.22 32.22 0 1 0-48.26 42.67zM33.02 1000.38c9.36 15.14 63.88 42.04 63.88 42.04s.26-60.93-9.1-75.94a32.2 32.2 0 1 0-54.78 33.9zM218.6 804c-16.45 6.75-76.42-3.22-76.42-3.22s35.28-49.45 51.86-56.22a32.2 32.2 0 1 1 24.56 59.56zM194.7 954.84c-17.7 1.57-71.9-26-71.9-26s48.56-36.6 66.3-38.17a32.2 32.2 0 0 1 5.6 64.14zM151.4 1098.32c-17.24 4.52-75.3-13.5-75.3-13.5s41.67-44.3 58.9-48.8a32.2 32.2 0 0 1 16.38 62.3z" opacity=".25"/><path fill="none" stroke="#535461" stroke-width="2" stroke-miterlimit="10" d="M37.16 1144.17s133.7-70.87 174.6-181.83a229.42 229.42 0 0 1 89.8-113.8 385.87 385.87 0 0 1 62.54-32.62"/><g fill="#209ebb"><path d="M390.4 746.14c-12.83 12.44-27.1 71.5-27.1 71.5s59.4-13 72.12-25.42a32.17 32.17 0 1 0-44.9-46.08zM282.7 776.92c-3.9 17.35 16.04 74.8 16.04 74.8s42.78-43.24 46.7-60.6a32.2 32.2 0 0 0-62.83-14.2zM163.93 896.28c5.35 16.97 51.66 56.4 51.66 56.4s15.1-58.9 9.6-75.86a32.2 32.2 0 1 0-61.4 19.46zM94.37 1006.83c2.43 17.63 41.4 64.33 41.4 64.33s24.85-55.52 22.45-73.12a32.2 32.2 0 1 0-63.82 8.8zM343.64 902.47c-17.8-.45-68.53-34-68.53-34s52.44-30.84 70.2-30.4a32.2 32.2 0 1 1-1.66 64.4zM260.68 1030.72c-16.84-5.74-55.23-52.92-55.23-52.92s59.24-13.8 76.07-8a32.2 32.2 0 1 1-20.84 60.92zM162.9 1144.3c-17.54-2.82-63.34-42.84-63.34-42.84s56.06-23.57 73.76-20.75a32.2 32.2 0 1 1-10.26 63.6z"/></g></g></svg>