<svg xmlns="http://www.w3.org/2000/svg" width="1098.505" height="840.848"><linearGradient id="a" x1=".5" x2=".5" y1="1" gradientUnits="objectBoundingBox"><stop offset="0" stop-color="gray" stop-opacity=".251"/><stop offset=".54" stop-color="gray" stop-opacity=".122"/><stop offset="1" stop-color="gray" stop-opacity=".102"/></linearGradient><g fill="#209ebb" fill-rule="evenodd" opacity=".687"><path d="M196.44 249.58c4.64-6.6 13.23-23.38 19.75-25.74 4.2-1.52 2.98 14.2 3.03 17.2.2 11.6-.93 23.13-2.32 34.63-2.52 20.75-10.73 39.22-22 56.88-5.8 9.08-12.6 18.28-22.02 23.94-4.34 2.61-9.56 3.05-13.84 5.3-4.99 2.62-2.27.5-4.52 5.7-3.12 7.22-4.12 16.53-5.56 24.22-6.63 35.34-22.68 222.16-19.9 258.11.25 3.19-4.2 3.95-4.42.06-1.18-20.63 9.02-163.45 14.17-210.16s10.36-87.97 15.58-104.13c6.33-19.6 17.78-43.18 27.3-61.46a217.4 217.4 0 0114.75-24.55z"/><path d="M230.83 478.67c12.05-8.85 25.1 7.85 14.19 16.7-6.03 4.89-12.33 3.15-15.88-.93-2.3 2.8-4.46 5.74-6.54 8.22a408.7 408.7 0 00-17.98 23.22c-11.84 16.44-22 33.82-32.6 50.88-10.48 16.84-20.87 33.76-30.36 51.03-8.04 14.62-18.76 31.83-21.52 47.87 4.18-34.01 20.03-66.7 38.91-96.68 18.73-29.73 40.21-62.2 69.2-85.67-2.95-4.34-3.03-10.53 2.58-14.65z"/><path d="M2.1 395.72c6.75 1.32 17.77 16.58 23.34 22.4a217.75 217.75 0 0118.25 21.98 371.87 371.87 0 0132.3 52.67 489.6 489.6 0 0135.92 93.52 385.75 385.75 0 0110.9 61.34c.4 3.88 4.47 33.82-1.4 34.63-5.28.73-3.65-22.74-3.9-25.93-2.88-36-11.5-71.04-23.5-104.97-2.6-7.4-5.03-16.45-9.2-23.1-3.01-4.8-.03-3.12-5.31-4.94-4.54-1.55-9.71-1.17-14.36-3.08-10.1-4.14-18.18-12.18-25.27-20.27-13.77-15.71-24.69-32.71-30.38-52.85-3.15-11.16-6.05-22.4-7.66-33.9-.42-2.98-4.07-18.35.28-17.5z"/><path d="M28.73 141.86c25.4 44.06 46.28 92.46 59.76 141.48 8.17 29.7 13.88 60.18 19.56 90.44 8.78 46.85 17.1 93.7 19.46 141.38 2.38 47.96 7.08 103.28-8.62 149.47 7.84-46.9.37-96.81-.95-144-.63-22.53-2.46-44.84-4.86-67.24-2.33-21.72-6.14-43.34-9.69-64.9q-2.59-15.74-5.39-31.45c-.55-3.13-.78-12.4-2.76-14.54s-12.18-3.02-15.38-4.6a82.53 82.53 0 01-17.85-12.45c-10.27-9.14-19.2-21.08-26.26-32.85-16.32-27.23-22.84-60.47-22.51-92.01.06-6.13 9.91-72.07 5.96-72.98q.35-.42.67-.87 4.5 7.52 8.86 15.12z"/><path d="M302.95 300.77c.39-.56 2.94-4.5 1.66-4.24 2.61-.52-3.6 4.33 2.92 1.36-3.1 2.92-1.31 6.72-1.27 10.65a95.4 95.4 0 01-2.2 18.97 130.09 130.09 0 01-8.84 28.67c-8.96 20.03-24.17 39.3-42.23 51.82-8.91 6.18-17.65 8.29-27.82 11.13-6.42 1.8-6.93 5.12-10.34 11.36-7.1 12.98-14.07 25.9-20.33 39.33a1352.02 1352.02 0 00-21.57 48.36c-23.05 54.92-41.82 111.82-51.67 170.7-.24-34.7 7.78-70.43 17.91-103.51 7.38-24.1 16.98-47.33 27.22-70.32 2.48-5.57 6.24-12.74 7.3-18.89.74-4.3-1.52-8.45-2.55-13-4.03-17.67-3.74-37.47-.2-55.25 3.9-19.6 15.17-28.69 34.25-31.46 6.98-1.02 15.84-.65 22.24-3.62 6.97-3.24 9.84-13.89 13.8-20.72a281.8 281.8 0 0137.82-51.44 122.66 122.66 0 0112.93-11.9c2.89-2.3 9-5.15 10.97-8z"/><path d="M89.05 651.41h67.7a5.51 5.51 0 015.45 6.32l-5.23 35.47a22.05 22.05 0 01-21.81 18.83h-24.52a22.05 22.05 0 01-21.8-18.83l-5.24-35.47a5.51 5.51 0 015.45-6.32z"/></g><path fill="#209ebb" d="M669.59 138.64c-65.63-2.8-128.14-28.8-187.83-57.24S362.95 21.42 298.9 6.35c-41.2-9.7-88.32-11.06-121.52 16.04-31.95 26.05-42.27 71.13-47.82 112.87-4.17 31.48-6.63 64.53 4.8 93.96 7.95 20.44 22.06 37.6 31.81 57.17 33.93 68.1 9.97 152.1-26.83 218.59-17.22 31.2-37.26 60.95-50.57 94.15s-19.47 71.25-7.83 105.13c11.55 33.58 39.06 58.79 68.85 76.52 60.53 36.04 131.85 46.35 201.4 52.19 153.97 12.92 308.75 7.32 463.12 1.72 57.13-2.09 114.5-4.18 170.71-15.02 31.2-6.03 63.42-15.58 86.07-38.65 28.76-29.3 35.9-78.87 16.61-115.59-32.3-61.57-121.69-76.85-144.28-142.97-12.44-36.38.34-76.9 18.4-110.7 38.78-72.38 103.78-135.88 107.2-218.63 2.36-56.82-28.89-113.74-77.2-140.62-50.64-28.22-120.85-24.64-158.21 22-38.47 48.12-106.07 66.6-164.02 64.13z" opacity=".1"/><ellipse cx="689.786" cy="727.316" fill="#209ebb" opacity=".1" rx="83.847" ry="12.575"/><path fill="#d0d2d5" d="M658.66 704.63l-161.44-2.07.48-4.14 7.8-68.3h141.78l10.43 68.3.8 5.18z"/><path d="M658.5 703.6h-80.56l-80.72-1.03.48-4.14h160z" opacity=".1"/><path fill="#d0d2d5" d="M470.32 699.46h214.21v5.17H470.32z"/><path fill="#444053" d="M888.9 219.9a13.47 13.47 0 00-13.4-13.54H277.27a13.48 13.48 0 00-13.4 13.54v362.63H888.9z"/><path fill="#d0d2d5" d="M263.87 578.9v42.47a13.4 13.4 0 0013.4 13.41H875.5a13.4 13.4 0 0013.4-13.4V578.9z"/><path fill="#fff" d="M289.74 229.13h576.4V555.1h-576.4z"/><path fill="#209ebb" d="M579.5 618.67a13.98 13.98 0 0010.99-5.33 13.84 13.84 0 001.08-1.6l-7.63-1.28 8.3.06a13.99 13.99 0 00.25-11.07l-11.11 5.77 10.26-7.53a13.97 13.97 0 10-23.1 15.64 13.98 13.98 0 0010.96 5.34z"/><path d="M593.46 634.78l64.4 64.68-9.88-64.68z" opacity=".1"/><path fill="#444053" d="M289.29 229.16H866.3v19.05H289.3z" opacity=".1"/><rect width="16.561" height="11.587" x="292.593" y="232.478" fill="#209ebb" rx=".78"/><rect width="173.855" height="11.587" x="489.632" y="232.478" fill="#209ebb" opacity=".3" rx=".58"/><path fill="#444053" d="M658.32 239.46h-.42l-.16-.12a3.57 3.57 0 00.83-2.26 3.43 3.43 0 10-3.42 3.45 3.62 3.62 0 002.25-.82l.15.12v.43l2.66 2.65.78-.8zm-3.17 0a2.4 2.4 0 112.38-2.38 2.37 2.37 0 01-2.38 2.38z"/><circle cx="858.033" cy="238.267" r="5.798" fill="#209ebb"/><path d="M709.95 320.83H445.76c-9.15 0-16.57 6.92-16.57 15.45v145.43c0 8.53 7.42 15.46 16.57 15.46h264.2c9.14 0 16.56-6.93 16.56-15.46V336.29c0-8.54-7.41-15.46-16.57-15.46z" opacity=".1"/><rect width="277.298" height="176.337" x="439.296" y="312.547" fill="#454b69" rx="18.67"/><g fill="#209ebb"><rect width="44.084" height="14.957" x="468.423" y="411.732" opacity=".3" rx="4.8"/><rect width="44.084" height="14.957" x="527.465" y="411.732" opacity=".3" rx="4.8"/><rect width="38.576" height="11.017" x="551.863" y="442.435" opacity=".3" rx="4.8"/><rect width="44.084" height="14.957" x="586.507" y="411.732" opacity=".3" rx="4.8"/><rect width="44.084" height="14.957" x="645.548" y="411.732" opacity=".3" rx="4.8"/><rect width="29.915" height="29.915" x="472.355" y="376.309" rx="2.95"/></g><g fill="#454b69"><path d="M492.23 396.19h-9.44v-9.44h9.44zm-9.06-.4h8.66v-8.65h-8.66z"/><path d="M487.31 376.3h.4v10.64h-.4zM487.31 395.99h.4v10.23h-.4zM472.36 391.07h10.62v.39h-10.62zM492.04 391.07h10.24v.39h-10.24zM482.85 387.08l-3.1-3.07h-7.4v-.4h7.57l3.2 3.19zM492.17 387.08l-.26-.29 3.6-3.18h6.76v.4h-6.61zM479.92 399.82h-7.57v-.4h7.4l3.09-3.56.3.26zM502.27 399.82h-6.77l-3.6-3.69.28-.28 3.49 3.57h6.6z"/></g><rect width="83.838" height="14.957" x="468.224" y="326.128" fill="#209ebb" rx="4.1"/><path fill="url(#a)" d="M743.16 658.1a53.75 53.75 0 00-.44-4.66c-.7-5.82-1.41-11.63-2.54-17.37a18.41 18.41 0 00-.9-3.28c-.42-1-.98-1.93-1.4-2.92a.51.51 0 000-.11c.52-.26 1.03-.5 1.54-.78a7.77 7.77 0 001.05-.64 2.97 2.97 0 00.83-.9c.9-1.6-.11-3.63-.58-5.45-.48-1.94-.38-4.28-1.8-5.59-5.12-4.53-2.58-13.77-5.14-20.25-.45-1.14-.96-2.25-1.35-3.4-.3-.91-.51-1.82-.73-2.73q-2.72-11.32-5.73-22.54c-2.1-7.76-1.88-15.84-4.53-23.41a25.18 25.18 0 00-1.94-4.53 12.16 12.16 0 00-3.52-3.8c-3.86-2.67-7.75-4.94-12.28-5.91s-9.42-.82-14.04-.8a14.88 14.88 0 00-6.56-5.12l-.08-.24a16.23 16.23 0 01-.85-2.83 19.35 19.35 0 01-.23-2.9c0-1.04-.04-2.1-.07-3.14l.25-.24a17.55 17.55 0 001.67-2.05 14.35 14.35 0 001.27-2.16 20.1 20.1 0 001.04-2.65 29.9 29.9 0 001.11-5.63c.25-2.23.32-4.53.38-6.76v-2.9a12.2 12.2 0 00-1.68-6.6c-1.64-2.44-4.45-3.62-7.16-4.6-5.43-1.88-11.4-3.12-16.78-1.1-4.26 1.61-7.67 5.13-11.88 6.91a5.23 5.23 0 01.26.5.54.54 0 010 .08c.07.16.14.31.19.48a5.95 5.95 0 01.3 1.13 6.7 6.7 0 010 2.2 7.56 7.56 0 01-4.06.6 12.9 12.9 0 002.56 4.65c.37.47.76.9 1.13 1.4l.57.7a14.7 14.7 0 012.35 3.8 7.4 7.4 0 01.44 1.7c.17 1.15.13 2.47.28 3.62a5.51 5.51 0 00.37 1.44 15.18 15.18 0 008.05 11.3 33.34 33.34 0 010 10.82 2.8 2.8 0 01-.12.6c-2.47 3.1-4.83 6.39-7.87 8.82a28.62 28.62 0 01-4.4 2.84 12.1 12.1 0 01-2.92 1.2c-1.14.27-2.33.23-3.47.51a9.06 9.06 0 00-5.15 4.19 30.29 30.29 0 01-1.9 3.06c-.63.79-1.43 1.43-2.1 2.19-2.43 2.71-3.09 6.65-3.62 10.32a47.29 47.29 0 01-6.2 5.72 9.06 9.06 0 01-2.3 1.33c-2.13.72-4.48-.2-6.33-1.57s-3.31-3.2-5.1-4.6l-.47.7a3.78 3.78 0 01-.38-.43 9.06 9.06 0 01-1.5-3.46c-.64-3.34.59-6.92-.37-10.17-.35-1.18-1.2-2.4-2.38-2.37s-1.92 1.2-2.93 1.76c-1.63.9-3.62.08-5.24-.82s-3.45-1.9-5.21-1.36a3.7 3.7 0 001.35 3.08 8.22 8.22 0 012.19 2.65 11.99 11.99 0 01.3 3.43c.18 2.65 1.81 4.92 3.39 6.99q2.93 3.76 6.14 7.3a2.27 2.27 0 01-1.14.99 2.4 2.4 0 000 1.31 5.33 5.33 0 00.34.86c.2.43.46.84.68 1.23l3.18 5.6.52.9c.21.38.43.74.66 1.11a20.51 20.51 0 002.65 3.63 10.87 10.87 0 001.67 1.43 8.64 8.64 0 001.24.74 7.24 7.24 0 001.92.66 6 6 0 001 .13 6.67 6.67 0 001.04 0 13.88 13.88 0 003.06-.79c6.06-2.13 11.62-5.52 17.38-8.41a9.68 9.68 0 012.53-.98 4.15 4.15 0 01.9-.08 3.33 3.33 0 01.91.16 3.27 3.27 0 01.82.4 2.35 2.35 0 01.98 1.47c.18.91.34 1.75.5 2.62s.35 1.74.53 2.61c.36 1.73.75 3.46 1.2 5.17.24.91.48 1.87.72 2.81.58 2.3 1.15 4.62 1.67 6.94.17.73.32 1.46.46 2.19a33.5 33.5 0 01.58 3.9.34.34 0 010 .09c.1 1.14.1 2.27.11 3.41v3.58l.1 10.57c0 1.52-.82 2.47-1.46 3.84-.13.28-.25.57-.35.86a9.78 9.78 0 00-.3 1.12 2.56 2.56 0 01-.07.36 1.76 1.76 0 01-.06.42c-.05.14 0 .27-.04.4a1.18 1.18 0 000 .4v1.61c0 .11.06.36.09.54l.05.27c.07.26.13.52.22.79.18.54.4 1.07.64 1.6s.48 1.06.67 1.6a10.88 10.88 0 01.33 1.05 2.34 2.34 0 01.05.24c.08.28.14.56.2.85v.2c.05.31.1.63.13.91a.45.45 0 010 .1c0 .36.07.72.1 1.07a34.92 34.92 0 010 3.9l-.12 6.45v.2a1.13 1.13 0 00.13.58.7.7 0 00.6.33 2.3 2.3 0 001.27-.5l2.87-2.09h.18a28.11 28.11 0 00-4.45 12.2 38.96 38.96 0 00.56 8.63c2.65 19.03 8.9 38.23 7.59 57.43-.52 7.57 2.62 14.94 2.6 22.52 0 2.94-.5 5.86-.63 8.8-.55 12.6 5.88 25.36 3.26 37.68.91 3.07 4.34 4.7 5.31 7.74.82 2.58-.36 5.33-1.31 7.86a16 16 0 00-.79 2.71c-2.63 0-5.56.06-7.32.8a10.88 10.88 0 00-1.42.57c-1.62.97-1.73 3.63-.7 5.23s6.77 6.72 8.45 7.56l3.7 1.82a22.13 22.13 0 006.33 2.39 21.68 21.68 0 005.63-.11c1.44-.15 3.03-.4 3.97-1.57 1.31-1.66.64-4.37-.26-6.78a2.42 2.42 0 00.75-1.01 8.04 8.04 0 00.24-1.93 14.5 14.5 0 011.29-3.62c1.51-3.7 1.45-7.84 1.36-11.85a137.47 137.47 0 00-1.35-19.5c-.45-2.73-1.06-5.44-1.59-8.16a134.93 134.93 0 01-2.47-29.9 23.93 23.93 0 00-1-7.2 12.92 12.92 0 01-.24-4.1l1.08-16.58a66.6 66.6 0 00.16-10.15c-.16-1.81-.46-3.62-.64-5.44a82.7 82.7 0 01-.17-10.38c.1-3.72.27-7.72 2.4-10.7a1.67 1.67 0 011.02-.8c.43-.06.56.53.4.91.22.69.46 1.37.7 2.06.07.2.13.39.2.58.12.35.25.7.37 1.06s.19.49.27.73l.35.9a35.6 35.6 0 001.01 2.5c.13.28.22.52.34.78l.43.9a50.21 50.21 0 002.08 3.73c.62.9 1.29 1.82 1.82 2.78a9.2 9.2 0 01.5 1 24.4 24.4 0 011.2 3.85c.31 1.2.68 2.37 1.1 3.52s.9 2.3 1.34 3.42a111.7 111.7 0 003.18 6.63 4.61 4.61 0 01.34.9 4.19 4.19 0 01.1.47 4.14 4.14 0 010 .9 3.8 3.8 0 01-.07.57 4.23 4.23 0 01-.25.81c-1.11 2.55-.22 5.06.27 7.56a47.78 47.78 0 01.62 7.97c0 .9 0 1.82.08 2.66 0 1.1 0 2.2.06 3.3s0 2.38.07 3.56a31.01 31.01 0 01-.15 3.56 8.07 8.07 0 01-.17 1.24c-.2 1.22-.48 2.43-.72 3.62a72.06 72.06 0 00-1.25 14.5q0 2.93.19 5.86a185 185 0 00.43 5.9 562.12 562.12 0 00.89 8.83c.2 1.86.42 3.92.6 5.87s.37 3.9.5 5.83a4.88 4.88 0 01-.57 2.77 6.23 6.23 0 00-.46 1.05 5.65 5.65 0 00-.2.77 8.17 8.17 0 00-.1.9 10.32 10.32 0 00.1 1.9q.07.48.17.92c.13.62.3 1.25.46 1.86a18.78 18.78 0 001.81 4.9 7.24 7.24 0 00.6.9c.06.09.14.17.2.26a6.5 6.5 0 01.52.7 2.2 2.2 0 01.2.34 2.78 2.78 0 01.1 1.57c-.1.55-.29 1.09-.43 1.6l.47.06c-.66 2.1-.97 4.24.14 5.65.91 1.18 2.53 1.41 3.97 1.57a21.3 21.3 0 005.63.11 22.12 22.12 0 006.34-2.39l3.69-1.81c1.68-.84 7.43-5.93 8.45-7.57s.9-4.25-.7-5.22a10.22 10.22 0 00-1.42-.6c-1.63-.67-4.27-.73-6.73-.77-.13-.9-.2-1.9-.24-2.83a78.1 78.1 0 01.2-10.4c.2-2.45.53-4.9.5-7.35a91.4 91.4 0 00-1.03-9.79c-.36-3.26-.4-6.45-.45-9.67-.08-4.75 1.32-9.27 1.92-13.96l1.06-8.26a10.04 10.04 0 00.08-3.03c-.17-.9-.58-1.81-.76-2.72-.37-2.06.57-4.1.86-6.17.33-2.38-.18-4.8-.52-7.2a93.54 93.54 0 01-.62-11.37c-.33-23.38-1-47.28-8.9-69.15-.3-.9-.65-1.8-1-2.65a4.73 4.73 0 00.46-.15 3.18 3.18 0 00.7-.37 1.9 1.9 0 00.28-.2 2.1 2.1 0 00.53-.9 3.42 3.42 0 00.16-1.03 7.3 7.3 0 00-.26-1.8l-.1-.38a41.14 41.14 0 00-1.23-3.55 21.18 21.18 0 01-1.15-3.32c-.56-2.58 0-5.55-1.55-7.64-3.43-4.7-1-11.9-2.44-17.62-.47-1.81-1.16-3.63-1.6-5.44a41.58 41.58 0 01-.6-3.53 44 44 0 01-.68-7.77 33.25 33.25 0 01.35-3.9l1.1-9a26.82 26.82 0 012.56 7.4c.09.37.16.74.24 1.1a130.8 130.8 0 003.62 13.12c.83 2.6 1.64 5.2 2.53 7.77.26.73.52 1.48.75 2.23a17.94 17.94 0 01.55 2.29c.1.62.14 1.25.19 1.87s.08 1.27.14 1.9a17.83 17.83 0 002.63 7.53q.07.08.13.18a2.14 2.14 0 001.1.96 2.43 2.43 0 00.99 0h.05c.48-.1.96-.21 1.43-.33a1.82 1.82 0 00.21-.05c.22 2.8 1.05 5.6 1.13 8.44.09 4.12-1.43 8.07-2.39 12.07a76.92 76.92 0 00-1.62 11.07 4.9 4.9 0 00.14 2.21 1.57 1.57 0 001.64 1.1 2 2 0 001.17-1.04 8.27 8.27 0 001-5.97c.87.18 1.3 1.17 1.52 2.06a12.41 12.41 0 01-.38 7.02c-.54 1.5-1.36 2.89-1.82 4.44a2.32 2.32 0 000 1.48c.46 1.04 1.89.97 2.92.59a14.67 14.67 0 007.7-7.25 22.21 22.21 0 002.25-10.52z" transform="translate(-12.639 -99.056)"/><path fill="#2f2e41" d="M677.66 737.99c-.96 1.17-2.62 1.4-4.13 1.56a23.55 23.55 0 01-5.86.1 23.92 23.92 0 01-6.58-2.37l-3.85-1.81c-1.74-.84-7.72-5.9-8.8-7.54s-.96-4.22.73-5.19a11.78 11.78 0 011.49-.58c2.82-1.12 8.55-.55 11.56-.99a8 8 0 014.27 1c2.97 1.32 8.2 2.36 9.5 5.7 1.01 2.58 3.77 7.57 1.67 10.12zM699 735.5c.97 1.17 2.63 1.4 4.13 1.56a17.68 17.68 0 0012.44-2.27l3.84-1.8c1.76-.85 7.74-5.9 8.8-7.55s.97-4.23-.73-5.19a9.97 9.97 0 00-1.47-.58c-2.83-1.12-8.55-.55-11.56-.99a7.98 7.98 0 00-4.29 1.01c-2.96 1.31-8.15 2.35-9.5 5.7-1.02 2.58-3.79 7.57-1.66 10.12z"/><path fill="#2f2e41" d="M708.34 552.32a45.75 45.75 0 012.42 5.5c8.23 21.75 8.91 45.54 9.26 68.8a87.38 87.38 0 00.64 11.31c.35 2.39.9 4.79.54 7.17-.3 2.06-1.27 4.08-.9 6.12.16.9.6 1.81.77 2.72a9.38 9.38 0 01-.08 3.02l-1.1 8.2c-.63 4.68-2.08 9.17-2 13.9.05 3.2.1 6.43.46 9.62a95.36 95.36 0 011.08 9.73c0 2.45-.3 4.89-.53 7.32a75.82 75.82 0 00-.2 10.35c.12 2.65.43 5.44 1.8 7.67-1.58 2.27-3.14 4.3-5.66 5.44-5.14 2.25-11.04 1.49-16.6.68.32-1.03.79-2.18.34-3.16a5.96 5.96 0 00-.95-1.3 15.4 15.4 0 01-2.47-5.75c-.67-2.45-1.34-5.09 0-7.44a4.71 4.71 0 00.6-2.71c-1.14-15.4-4.58-31.39-1.42-46.52a49.42 49.42 0 00.91-4.87 59.6 59.6 0 00.1-7.08l.03-3.38c-.17-3.51 0-7.1-.73-10.58-.5-2.48-1.44-4.98-.28-7.52a4.12 4.12 0 00-.17-3.62 67.04 67.04 0 01-5.85-13.5 23.43 23.43 0 00-1.24-3.85 27.24 27.24 0 00-2.42-3.74c-2.72-4-4.4-8.63-6.02-13.2.17-.42 0-1-.4-.9a1.7 1.7 0 00-1.07.79c-2.2 2.97-2.4 6.94-2.5 10.65a78.6 78.6 0 00.18 10.33c.18 1.81.5 3.63.66 5.44a63.66 63.66 0 01-.16 10.09l-1.11 16.43a11.86 11.86 0 00.23 4.09 22.86 22.86 0 011.05 7.15 128.53 128.53 0 002.61 29.7c.55 2.72 1.19 5.38 1.66 8.09a132.35 132.35 0 011.4 19.4c.1 4 .16 8.16-1.41 11.78a13.5 13.5 0 00-1.34 3.63 7.5 7.5 0 01-.26 1.92c-.46 1.18-1.8 1.7-3.09 1.96a25.14 25.14 0 01-7.13.51 4 4 0 01-1.62-.36c-.9-.46-1.36-1.44-2.04-2.18-1.45-1.6-3.88-2.08-5.21-3.78-1.67-2.14-.97-5.23 0-7.75s2.2-5.24 1.36-7.82c-1.01-3.01-4.53-4.64-5.53-7.69 2.72-12.27-3.97-24.95-3.4-37.5.14-2.92.64-5.82.65-8.75 0-7.54-3.23-14.88-2.72-22.4 1.37-19.1-5.14-38.19-7.9-57.15a36.91 36.91 0 01-.58-8.58c.41-4.74 2.61-9.16 5.26-13.12 1.9-2.83 4.18-5.61 7.33-6.94 2.59-1.1 5.49-1.08 8.3-1.06 7 .05 14.02.1 21.03.23a69.19 69.19 0 0114.23 1.27c3.79.87 7.34 2.64 11.2 3.19z"/><path d="M679.41 591.5a1.73 1.73 0 011.06-.8c.46-.06.6.52.42.91 1.61 4.53 3.26 9.2 6 13.2a26.48 26.48 0 012.44 3.74 24.34 24.34 0 011.24 3.84 67.5 67.5 0 005.84 13.5 4.1 4.1 0 01.17 3.63c-1.16 2.54-.21 5.04.3 7.52.7 3.47.55 7.06.72 10.57 0 1.1 0 2.2.06 3.29a57.76 57.76 0 01-.08 7.08c-.2 1.64-.59 3.26-.9 4.87-3.16 15.14.27 31.1 1.42 46.52a4.7 4.7 0 01-.6 2.72c-1.38 2.34-.71 4.98 0 7.44a15.15 15.15 0 002.47 5.74 6.62 6.62 0 01.9 1.3c.45.98 0 2.14-.34 3.16a69.89 69.89 0 007.41.79 53.62 53.62 0 01-9.61-.79c.3-1.02.78-2.18.33-3.16a5.96 5.96 0 00-.95-1.3 15.4 15.4 0 01-2.47-5.74c-.67-2.46-1.34-5.1 0-7.44a4.71 4.71 0 00.6-2.72c-1.14-15.4-4.58-31.38-1.42-46.52a49.41 49.41 0 00.91-4.87 59.6 59.6 0 00.1-7.08c0-1.1-.05-2.2-.08-3.29-.16-3.5 0-7.1-.73-10.57-.5-2.48-1.44-4.99-.28-7.52a4.12 4.12 0 00-.17-3.63 67.05 67.05 0 01-5.85-13.5 24.34 24.34 0 00-1.23-3.85 27.23 27.23 0 00-2.43-3.74c-2.63-3.81-4.25-8.2-5.79-12.56a9.2 9.2 0 00.54-.75z" opacity=".1"/><path fill="#a1616a" d="M595.05 465.21c-.68-3.32.6-6.88-.4-10.12-.36-1.17-1.25-2.38-2.47-2.35s-2 1.2-3.05 1.74c-1.7.91-3.76.09-5.43-.8s-3.63-1.9-5.44-1.37a3.6 3.6 0 001.41 3.06 8.44 8.44 0 012.28 2.65 11.55 11.55 0 01.31 3.41c.2 2.63 1.82 4.9 3.53 6.95a124.31 124.31 0 008.54 9.47s4.53-5.65 4.47-6.64-1.61-1.81-2.18-2.56a8.67 8.67 0 01-1.57-3.44zM731 534.79a17.6 17.6 0 01.9 3.26c1.18 5.7 1.93 11.5 2.66 17.28.19 1.54.39 3.09.44 4.64a21.17 21.17 0 01-2.2 10.68 14.94 14.94 0 01-8 7.25c-1.07.38-2.56.45-3.03-.58a2.23 2.23 0 010-1.48c.42-1.54 1.28-2.93 1.81-4.42a11.91 11.91 0 00.4-6.98c-.22-.9-.68-1.87-1.58-2.06a7.93 7.93 0 01-1.05 5.95 2.06 2.06 0 01-1.21 1.03 1.64 1.64 0 01-1.72-1.1 4.74 4.74 0 01-.14-2.2 74.04 74.04 0 011.69-11.02c1-3.98 2.58-7.9 2.47-12-.1-3.72-1.57-7.37-1.15-11.06a.9.9 0 01.67-.9 24.47 24.47 0 013.2-1.06c.64-.16 2.83-.9 3.45-.58s.65 1.93.9 2.49c.48.93 1.07 1.85 1.49 2.86z"/><circle cx="657.679" cy="409.54" r="15.175" fill="#a1616a"/><path fill="#a1616a" d="M671.28 420.52a17.1 17.1 0 00.22 2.9 15.4 15.4 0 00.91 2.8 16.43 16.43 0 002.12 4.18 6.2 6.2 0 003.84 2.5 109.14 109.14 0 01-32.82 9.48 13.85 13.85 0 004.35-4.65 13.13 13.13 0 001.15-3.78 31.7 31.7 0 00-1.42-16.37c-.2-.5-.38-1.14 0-1.56a1.55 1.55 0 01.54-.35 33.71 33.71 0 0114.26-2.66c1.25 0 2.5.06 3.75.15.67.06 2.15-.09 2.72.4s.32 2.41.33 3.2z"/><path fill="#3f3d56" d="M679.3 431.6a16.25 16.25 0 00-19.42-4.85c-7.25 3.45-10.78 11.78-17.13 16.6a29.9 29.9 0 01-4.6 2.84 12.85 12.85 0 01-3.03 1.2c-1.18.26-2.42.23-3.62.5a9.3 9.3 0 00-5.37 4.17 28.23 28.23 0 01-1.98 3.05c-.66.78-1.48 1.43-2.18 2.18-2.53 2.72-3.22 6.61-3.79 10.27a48.66 48.66 0 01-6.45 5.68 9.06 9.06 0 01-2.4 1.32c-2.22.73-4.67-.19-6.57-1.56s-3.43-3.17-5.3-4.53a169.8 169.8 0 01-5.33 7.25 2.3 2.3 0 01-1.2.98c-.34 1.16.48 2.35 1.1 3.39l3.3 5.56a28.2 28.2 0 004 5.6 9.38 9.38 0 006.08 2.85 12.02 12.02 0 004.27-.82c6.34-2.12 12.1-5.5 18.12-8.38a8.05 8.05 0 013.55-1.04 2.87 2.87 0 012.81 2.02c.69 3.48 1.37 6.94 2.31 10.34q1.35 4.84 2.5 9.7a41.88 41.88 0 011.08 6.07c.1 1.16.1 2.31.13 3.48l.12 14.06c0 1.53-.85 2.47-1.52 3.83a9.06 9.06 0 00-.43 6.76c.37 1.1.96 2.1 1.38 3.2 1 2.61.96 5.5.9 8.3l-.11 6.41a1.34 1.34 0 00.13.78c.4.6 1.34.25 1.93-.16l2.97-2.03a68.52 68.52 0 0012.12.59 408.8 408.8 0 0134.52 1.1c3.85.27 7.8.56 11.43-.72 1.81-.65 3.53-1.7 5.43-2.21a4.96 4.96 0 002.15-.9c1.05-.98.77-2.72.35-4.05-.38-1.2-.81-2.38-1.29-3.54a21.5 21.5 0 01-1.2-3.3c-.57-2.56 0-5.52-1.6-7.6-3.57-4.67-1.04-11.86-2.55-17.54-.48-1.8-1.2-3.62-1.65-5.43a35.7 35.7 0 01-.64-3.52 41.17 41.17 0 01-.7-7.74 31.02 31.02 0 01.37-3.87l1.13-8.95a28.5 28.5 0 012.92 8.46 124.25 124.25 0 003.8 13.05c.86 2.58 1.7 5.16 2.63 7.72a25.14 25.14 0 011.35 4.53c.2 1.24.21 2.51.36 3.75a17.11 17.11 0 002.71 7.5 2.46 2.46 0 001.3 1.14 2.58 2.58 0 001.1 0 44.34 44.34 0 0011.53-3.99 4.7 4.7 0 001.95-1.52c.97-1.6-.12-3.58-.6-5.4s-.4-4.26-1.92-5.56c-5.31-4.53-2.71-13.7-5.33-20.15-.47-1.14-1.02-2.23-1.41-3.4-.31-.9-.54-1.8-.77-2.71q-2.78-11.26-5.96-22.44c-2.19-7.72-1.95-15.76-4.72-23.3a24.57 24.57 0 00-2.02-4.52 12.37 12.37 0 00-3.62-3.78c-4.01-2.66-8.05-4.91-12.77-5.87s-9.84-.91-14.65-.86zM643.9 413.25c-2.05-1.1-1.5-4.09-1.82-6.34-.72-4.72-6.03-7.51-7.25-12.11a8.15 8.15 0 004.22-.6 6.47 6.47 0 00-.85-4.43c4.38-1.8 7.93-5.26 12.37-6.86 5.6-2.02 11.77-.78 17.46 1.1 2.82.9 5.75 2.14 7.45 4.57 1.87 2.68 1.81 6.18 1.74 9.44-.15 5.11-.36 10.4-2.64 14.98-2.89 5.82-11.08 11.21-17.86 9.64-2.81-.65-3.63-2.43-4.83-4.88-.74-1.52-1.02-3.29-2.72-4.08s-3.62.46-5.28-.43z"/><g opacity=".1"><path d="M640.6 552.7a.33.33 0 000 .07c.38.61 1.33.26 1.92-.16l3.01-2.07a68.51 68.51 0 0012.12.58 408.8 408.8 0 0134.53 1.1c3.84.27 7.8.56 11.42-.72 1.81-.65 3.54-1.69 5.44-2.21a6.25 6.25 0 001.87-.67c.22.6.43 1.2.62 1.81.43 1.37.7 3.07-.34 4.04a4.96 4.96 0 01-2.15.9c-1.89.52-3.63 1.57-5.44 2.22-3.62 1.28-7.58.99-11.42.71a412.21 412.21 0 00-34.53-1.1 68.52 68.52 0 01-12.1-.58l-3 2.08c-.6.42-1.55.77-1.94.16a1.34 1.34 0 01-.13-.78q.06-2.69.11-5.39zM706.35 497.37a28.5 28.5 0 00-2.92-8.46l-1.13 8.95c-.07.56-.15 1.12-.21 1.69a27.76 27.76 0 01-.16-3.88 31.02 31.02 0 01.37-3.88l1.13-8.95a28.5 28.5 0 012.92 8.46 124.25 124.25 0 003.8 13.06c.86 2.58 1.7 5.16 2.63 7.71a25.37 25.37 0 011.35 4.53c.2 1.25.2 2.51.35 3.76a16.98 16.98 0 002.72 7.49 2.4 2.4 0 001.28 1.14 2.58 2.58 0 001.11-.04 44.34 44.34 0 0011.53-4 7.25 7.25 0 001.35-.85c.48 1.81 1.57 3.8.6 5.39a4.7 4.7 0 01-1.95 1.52 44.34 44.34 0 01-11.53 3.99 2.58 2.58 0 01-1.11 0 2.41 2.41 0 01-1.28-1.14 17.01 17.01 0 01-2.72-7.5c-.14-1.24-.15-2.5-.35-3.75a25.15 25.15 0 00-1.35-4.53c-.9-2.56-1.81-5.13-2.62-7.72a124.23 124.23 0 01-3.81-12.99zM705.41 522.04v1.22c.02-.41.01-.8 0-1.22zM639.7 537.28c1 2.62.96 5.5.91 8.3v2.2a14.96 14.96 0 00-.9-4.43c-.42-1.09-1.01-2.1-1.38-3.2a9.06 9.06 0 01.07-5.9c.37 1.04.9 2 1.3 3.03zM592.15 475.67l.52-.67 2.71 4.53a27.94 27.94 0 004 5.6 9.38 9.38 0 006.07 2.94 12.21 12.21 0 004.26-.81c6.34-2.13 12.1-5.51 18.12-8.4a8.05 8.05 0 013.5-1.06 2.88 2.88 0 012.81 2.03c.69 3.47 1.37 6.93 2.31 10.33q1.35 4.84 2.5 9.7a41.88 41.88 0 011.08 6.06c.1 1.16.1 2.33.12 3.5l.13 14.06a3.38 3.38 0 01-.05.62l-.08-8.62a34.42 34.42 0 00-.12-3.49 41.87 41.87 0 00-1.09-6.06q-1.16-4.86-2.49-9.7c-.9-3.4-1.62-6.86-2.31-10.34a2.87 2.87 0 00-2.8-2.02 8.06 8.06 0 00-3.56 1.04c-6 2.88-11.78 6.26-18.12 8.38a12.02 12.02 0 01-4.27.82 9.38 9.38 0 01-6.06-2.94 28.2 28.2 0 01-4-5.6c-1.1-1.86-2.2-3.7-3.3-5.56-.62-1.04-1.44-2.23-1.1-3.4a2.3 2.3 0 001.22-.94z"/></g><g opacity=".1"><path d="M638.98 391.97a6.34 6.34 0 00-.83-2.22q.38-.15.76-.32a6.34 6.34 0 01.07 2.54zM642.04 404.67c.35 2.3-.19 5.28 1.82 6.35 1.64.9 3.62-.37 5.24.4s1.94 2.57 2.72 4.09c1.18 2.45 2.02 4.21 4.83 4.87 6.77 1.58 14.97-3.82 17.86-9.64 2.28-4.58 2.48-9.87 2.64-14.98v2.21c-.16 5.11-.36 10.4-2.64 14.98-2.89 5.82-11.09 11.21-17.86 9.64-2.81-.66-3.63-2.43-4.83-4.88-.75-1.52-1.02-3.29-2.72-4.08s-3.62.48-5.25-.4c-2.03-1.1-1.5-4.1-1.8-6.35-.72-4.72-6.04-7.5-7.25-12.11a7.13 7.13 0 00.98.06c1.95 3.37 5.67 5.96 6.26 9.84z"/></g><path fill="#209ebb" d="M288.1 666.17a27.44 27.44 0 00-7.97-2.81 36.9 36.9 0 005.96-1.35c5.17-1.64 7.78-3.83 5.82-4.9s-7.74-.63-12.92 1a20.2 20.2 0 00-4.96 2.2c-.53-1.12-1.98-2.44-4.26-3.7-4.6-2.52-10.77-3.8-13.8-2.84s-1.75 3.78 2.86 6.35a27.84 27.84 0 007.14 2.65 41.5 41.5 0 00-4.91.9c-5.63 1.36-8.9 3.4-7.25 4.54s7.49 1.02 13.12-.33a24.96 24.96 0 005.91-2.1c.46 1.18 1.94 2.57 4.33 3.88 4.6 2.52 10.77 3.8 13.8 2.85s1.71-3.82-2.88-6.34zM220.6 579.1a17.07 17.07 0 00-5-1.77 22.42 22.42 0 003.75-.84c3.23-1.02 4.87-2.4 3.62-3.07s-4.84-.39-8.08.63a12.52 12.52 0 00-3.1 1.38 6.25 6.25 0 00-2.72-2.3c-2.87-1.6-6.74-2.4-8.63-1.82s-1.09 2.36 1.81 3.95a17.6 17.6 0 004.53 1.66 28.05 28.05 0 00-3.09.54c-3.52.84-5.56 2.13-4.53 2.85s4.69.65 8.2-.2a15.6 15.6 0 003.7-1.3 5.9 5.9 0 002.73 2.42c2.88 1.59 6.75 2.39 8.64 1.82s1.05-2.37-1.83-3.96z"/><ellipse cx="773.716" cy="706.905" fill="#209ebb" rx="29.254" ry="5.626"/><g fill="#3f3d56"><ellipse cx="773.226" cy="704.513" rx="3.406" ry="4.457"/><ellipse cx="773.226" cy="699.068" rx="3.406" ry="4.457"/><ellipse cx="773.226" cy="693.614" rx="3.406" ry="4.457"/><ellipse cx="773.226" cy="688.169" rx="3.406" ry="4.457"/><ellipse cx="773.226" cy="682.715" rx="3.406" ry="4.457"/><ellipse cx="773.226" cy="677.27" rx="3.406" ry="4.457"/><ellipse cx="773.226" cy="671.816" rx="3.406" ry="4.457"/></g><path fill="#209ebb" d="M785.97 634.53a16.48 16.48 0 001.27-1.87l-8.95-1.47 9.68.08a16.36 16.36 0 00.31-12.93l-12.99 6.74 11.98-8.8a16.3 16.3 0 10-26.94 18.25 16.63 16.63 0 00-1.86 2.98l11.62 6.03-12.4-4.16a16.45 16.45 0 00-.85 5.24 16.2 16.2 0 003.5 10.08 16.3 16.3 0 1025.64 0 16.3 16.3 0 000-20.17z"/><path d="M756.84 644.61a16.2 16.2 0 003.5 10.08 16.3 16.3 0 1025.64 0c2.18-2.77-29.14-11.91-29.14-10.08z" opacity=".1"/></svg>