<svg height="50" preserveAspectRatio="xMidYMid meet" viewBox="0 0 1280 640" xmlns="http://www.w3.org/2000/svg"><g fill="#999" transform="matrix(.1 0 0 -.1 0 640)"><path d="m1240 4923c-343-34-613-155-813-362-222-230-344-526-403-976-22-164-25-641-6-785 60-443 182-731 402-950 201-200 470-317 825-359 336-39 647-11 929 83 105 35 271 112 317 147l24 18 3 832c2 735 1 835-13 855l-15 24h-565c-548 0-565-1-575-19-14-26-14-556 0-582 10-18 23-19 235-19h225v-329-329l-72-13c-100-17-397-18-473-1-33 8-97 31-142 53-280 134-416 492-400 1054 3 105 13 233 22 285 64 382 236 602 533 682 61 16 117 22 274 25 230 6 354-6 518-49 153-41 164-42 178-25 13 16 132 511 132 550 0 22-9 31-57 55-185 93-492 143-853 140-107-1-211-3-230-5z"/><path d="m5674 4796c-19-14-19-44-22-1612-2-1421 0-1600 13-1621l15-23h325c281 0 326 2 339 16 14 14 16 91 16 702v687h470 470v-680c0-600 2-683 16-703 15-22 16-22 338-22 300 0 324 1 339 18 16 17 17 144 17 1619 0 1537-1 1601-18 1616-16 15-54 17-333 17-256 0-319-3-335-14-18-14-19-34-22-610l-2-596h-470-470v593c0 563-1 595-18 610-16 15-54 17-333 17-256 0-319-3-335-14z"/><path d="m10690 4790c-20-20-20-33-20-1613 0-1425 2-1595 16-1615 15-22 19-22 248-22 193 0 236 3 246 15 6 8 17 46 24 84l11 71 50-36c118-86 322-162 492-185 123-16 356-6 454 20 406 106 588 481 589 1209 0 432-89 724-280 913-121 120-253 177-464 200-181 20-410-20-584-101-47-22-86-40-88-40s-4 245-4 543c0 514-1 545-18 560-16 15-55 17-335 17-304 0-318-1-337-20zm1198-1560c105-46 168-148 198-323 22-123 15-475-11-587-37-162-103-236-231-260-117-22-310 7-423 65l-51 25 2 507 3 507 78 33c161 67 328 80 435 33z"/><path d="m3158 4729c-121-17-242-109-296-227-56-123-37-287 46-397 111-147 308-197 472-119 161 76 253 250 221 420-40 218-224 352-443 323z"/><path d="m4485 4400-320-5-3-321-2-322-173-42c-104-25-177-48-184-58-10-11-13-73-13-227 0-193 2-213 18-228 16-14 44-17 185-17h166l4-562c4-634 4-631 80-788 75-154 205-257 390-310 165-46 394-50 582-10 158 34 145 9 145 289 0 201-2 241-15 251-11 9-43 11-113 8-220-12-331 35-367 156-12 41-15 133-15 508v458h233c185 0 237 3 253 14 18 13 19 30 22 271 3 220 1 260-13 281l-15 24h-240-240l-2 311c-3 302-4 312-23 318-11 3-164 4-340 1z"/><path d="m2877 3752c-16-17-17-104-17-1095v-1076l26-20c26-20 38-21 334-21 299 0 307 1 326 21 18 20 19 55 21 1088 2 849 0 1071-10 1091l-13 25-325 3c-306 2-327 1-342-16z"/><path d="m8331 3753-22-18 3-845c3-829 4-846 25-920 91-317 287-460 672-490 277-20 552 41 784 176 32 19 60 34 62 34s6-24 10-52c13-102 4-98 250-98 181 0 216 2 229 16 14 14 16 127 16 1099v1084l-22 15c-33 24-623 24-656 0l-22-15v-790-790l-82-39c-172-82-367-93-469-25-22 14-46 43-60 72l-24 48-5 762c-4 606-8 765-18 775s-87 14-331 16c-293 3-320 1-340-15z"/></g></svg>