<svg xmlns="http://www.w3.org/2000/svg" height="30" viewBox="0 0 89 30"><mask id="a"><path fill="#fff" fill-rule="evenodd" d="M45.72 29.95H0V0h91.44v29.95z"/></mask><g fill="#999" fill-rule="evenodd"><path d="M2.88 3.42H6.3V0H2.88zm0 3.45H6.3V25.2c0 2.84-2.08 4.75-4.96 4.75H0v-3.22h.97c1.18 0 1.9-.54 1.9-1.8zM22.52 16.66v-2.82c0-4.4-3.26-7.17-7-7.17-3.3 0-7 2.14-7 8.75 0 6.97 4.04 8.64 7.53 8.64 2.28 0 4.46-.8 6.13-2.74L19.7 19.2c-1 1.04-2.4 1.65-3.72 1.65-2.34 0-4.05-1.4-4.05-4.2zm-10.6-2.82c.07-2.58 1.58-3.95 3.6-3.95 2 0 3.48 1.36 3.58 3.94zM25.22 1.7h3.42v5.17h2.48v2.6h-2.48v9.9c0 .94.37 1.27 1.2 1.27h1.28v3.22h-1.77c-2.38 0-4.13-1.5-4.13-4.2V9.5h-1.7v-2.6h1.7zM42.15 3.22c2.6 0 3.85 1.57 3.85 3.4 0 1.9-1.24 3.43-3.85 3.43h-5.23V3.22zM33.3 23.86h10.06c3.58 0 6.63-2.65 6.63-6.77 0-2.42-1.28-4.9-3.9-5.5v-.07c2.8-1.24 3.52-3.15 3.52-5.13 0-3.75-2.4-6.4-7.07-6.4H33.3zm9.18-10.6c2.7 0 3.9 1.72 3.9 3.6 0 1.87-1.2 3.58-3.9 3.58h-5.56v-7.17zM51.96 0h3.42v19.47c0 .77.43 1.17 1.27 1.17h1.17v3.22h-1.5c-2.5 0-4.36-1.07-4.36-4.12zM59.26 6.87h3.42V17c0 2.3 1.44 3.64 3.4 3.64 1.9 0 3.34-1.34 3.34-3.65V6.86h3.42v17h-3.42v-1.82h-.07c-1.07 1.34-2.6 2-4.4 2-2.67 0-5.7-2.03-5.7-5.9zM88.68 16.66v-2.82c0-4.4-3.25-7.17-7-7.17-3.3 0-7 2.14-7 8.75 0 6.97 4.05 8.64 7.53 8.64 2.3 0 4.47-.8 6.15-2.74l-2.48-2.12c-1 1.04-2.42 1.65-3.72 1.65-2.35 0-4.06-1.4-4.06-4.2zm-10.6-2.82c.08-2.58 1.6-3.95 3.6-3.95s3.48 1.36 3.6 3.94z" mask="url(#a)" transform="translate(-.007)"/></g></svg>