<svg xmlns="http://www.w3.org/2000/svg" width="140" height="42"><mask id="a"><path fill="#fff" fill-rule="evenodd" d="M0 41.2h139.27V.3H0z"/></mask><g fill="#999" fill-rule="evenodd"><path d="M.5 41.7h28.56V.8H.5zm4.12-4.1h20.3V4.9H4.63zM48.03 19.15h-1.77c-2.32-3.28-4.62-6.53-6.92-10.2h-.02v10.2h-1.95V4.9h1.77c2.32 3.26 4.62 6.5 6.9 10.16h.04V4.9h1.95zM53.6 4.9l-4.92 14.25h2.12l1.24-3.9h4.3l1.1 3.9h2.74L55.64 4.9zm-.93 8.6c.57-1.86 1.14-3.6 1.65-5.8h.04c.57 2.2 1.08 3.94 1.6 5.8zM62.48 19.15V6.82h-3.75v-1.9h9.93v1.9h-3.74v12.33z"/><path d="M68.95 18.65h2.42V4.4h-2.42zM78.9 18.9c3.72 0 6.04-3.33 6.04-7.58 0-4-2.56-7.16-6.04-7.16s-6.05 3.17-6.05 7.16c0 4.25 2.33 7.57 6.05 7.57m0-2.05c-2.54 0-3.44-2.8-3.44-5.53 0-2.62 1.02-5.13 3.44-5.13s3.44 2.5 3.44 5.12c0 2.73-.9 5.53-3.44 5.53" mask="url(#a)" transform="translate(.502) translate(0 .503)"/><path d="M97.1 18.65H95.3C93 15.37 90.7 12.1 88.4 8.43h-.02v10.22h-1.95V4.4h1.77c2.32 3.26 4.62 6.5 6.9 10.15h.03V4.4h1.96zM102.67 4.4l-4.93 14.25h2.12l1.24-3.9h4.3l1.1 3.9h2.74L104.7 4.4zm-.94 8.6c.57-1.86 1.14-3.6 1.65-5.8h.04c.57 2.2 1.08 3.94 1.6 5.8zM109.95 4.4h2.42v12.33h4.82v1.92h-7.25zM46.03 30.56v5.88c-1.3.5-2.67.88-4.05.88-4.2 0-6.84-3.26-6.84-7.45 0-3.9 2.65-7.3 6.92-7.3 1.32 0 2.64.5 3.46 1.1l-.8 1.7c-.65-.4-1.67-.75-2.6-.75-2.6 0-4.38 2.06-4.38 5.3 0 3.37 2.04 5.36 4.14 5.36.64 0 1.2-.08 1.7-.34v-4.38zM54.76 24.74h-4.08v3.9h4v1.92h-4v4.6h4.8v1.9h-7.24V22.84h6.52zM62.28 37.3c3.73 0 6.04-3.3 6.04-7.55 0-4-2.56-7.17-6.04-7.17s-6.04 3.18-6.04 7.17c0 4.25 2.32 7.56 6.04 7.56m0-2.02c-2.54 0-3.44-2.8-3.44-5.53 0-2.63 1.02-5.13 3.44-5.13s3.44 2.5 3.44 5.13c0 2.72-.9 5.53-3.44 5.53" mask="url(#a)" transform="translate(.502) translate(0 .503)"/><path d="M80.04 30.56v5.88c-1.3.5-2.66.88-4.05.88-4.2 0-6.84-3.26-6.84-7.45 0-3.9 2.64-7.3 6.92-7.3 1.32 0 2.64.5 3.45 1.1l-.8 1.7c-.64-.4-1.65-.75-2.6-.75-2.6 0-4.37 2.06-4.37 5.3 0 3.37 2.04 5.36 4.13 5.36.65 0 1.2-.08 1.7-.34v-4.38zM90.9 37.07l-2.86-5.9c1.56-.83 2.46-2.52 2.46-4.23 0-2.77-1.7-4.1-4.42-4.1h-3.8v14.23h2.45V31.7h1.1l2.3 5.37zm-6.17-12.33h1.07c1.44 0 2.26.83 2.26 2.3 0 1.9-1.16 2.77-2.32 2.83-.24.02-.8.04-1 .06zM95.87 22.83l-4.92 14.24h2.1l1.26-3.9h4.3l1.1 3.9h2.75L97.9 22.83zm-.93 8.6c.57-1.87 1.13-3.6 1.65-5.8h.03c.57 2.2 1.07 3.93 1.6 5.8zM106.68 29.87c-.25.02-.85.04-1.02.06v-5.2h1.1c1.42 0 2.24.84 2.24 2.3 0 1.92-1.16 2.78-2.32 2.84m.34-7.04h-3.8v14.24h2.44V31.7h1.1c2.9 0 4.68-2.36 4.68-4.76 0-2.77-1.7-4.1-4.42-4.1" mask="url(#a)" transform="translate(.502) translate(0 .503)"/><path d="M122.75 37.07h-2.44v-6.85h-5.06v6.85h-2.42V22.83h2.42v5.47h5.07v-5.43h2.45zM125.1 37.07h2.4V22.83h-2.4zM138.5 25.4c-.6-.35-1.57-.78-2.5-.78-2.5 0-4.3 2.06-4.3 5.3 0 3.37 2 5.36 4.36 5.36.93 0 1.8-.3 2.44-.7l.67 1.76c-.74.5-2.04.98-3.2.98-4.2 0-6.85-3.26-6.85-7.45 0-3.9 2.62-7.3 6.87-7.3 1.26 0 2.43.55 3.27 1.1z" mask="url(#a)" transform="translate(.502) translate(0 .503)"/></g></svg>