<svg enable-background="new 0 0 485 485" height="60" viewBox="0 0 485 485" xmlns="http://www.w3.org/2000/svg"><g fill="#999"><path d="m321.27 328.414c-16.269 0-37.082-7.252-47.173-13.307l-9.743 39.196c13.307 7.252 33.866 12.299 56.916 12.299 50.361 0 76.376-24.124 76.376-57.012-.379-25.891-14.412-42.887-47.932-54.333-21.537-7.631-28.318-11.952-28.318-20.213 0-8.988 7.506-14.412 20.813-14.412 15.136 0 30.177 5.803 38.185 10.122l9.714-37.839c-10.817-5.424-29.168-10.091-49.76-10.091-43.58 0-71.676 24.88-71.676 57.644-.379 20.938 13.655 40.774 50.139 52.976 20.432 6.906 25.856 11.194 25.856 20.182.001 9.018-6.905 14.788-23.397 14.788z"/><path d="m141.687 276.194c5.045.726 11.573.978 18.698.978 32.417 0 60.23-7.883 78.834-25.479 14.539-13.686 22.42-33.899 22.42-57.643 0-23.777-10.343-43.99-25.983-56.194-16.146-13.055-40.268-19.456-74.167-19.456-33.489 0-57.264 2.21-74.136 5.046v239.593h54.333v-86.845zm.095-114.182c3.847-1.105 11.479-2.209 22.547-2.209 27.465 0 42.885 13.276 43.01 35.572 0 24.911-18.132 39.669-47.3 39.669-7.884 0-13.559-.346-18.257-1.357z"/><path d="m0 0v485h485v-485zm455 455h-425v-425h425z"/></g></svg>