<svg xmlns="http://www.w3.org/2000/svg" viewBox="0 0 137.17 167.96" xmlns:xlink="http://www.w3.org/1999/xlink"><linearGradient id="a" x1="598.87" x2="607.1" y1="100.9" y2="86.64" gradientTransform="matrix(-1 0 0 1 666.59 0)" gradientUnits="userSpaceOnUse"><stop offset="0"/><stop offset=".21" stop-color="#050505"/><stop offset=".39" stop-color="#0e0e0e"/><stop offset=".39" stop-color="#242424"/><stop offset=".4" stop-color="#2d2d2d"/><stop offset=".62" stop-color="#333"/><stop offset=".63" stop-color="#4c4c4c"/><stop offset=".74" stop-color="#525252"/><stop offset=".88" stop-color="#636363"/><stop offset="1" stop-color="#757575"/></linearGradient><linearGradient id="b" x1="615.24" x2="623.47" y1="110.9" y2="96.64" xlink:href="#a"/><linearGradient id="c" x1="59.33" x2="63.07" y1="93.27" y2="86.79" gradientUnits="userSpaceOnUse"><stop offset="0" stop-color="#bf4c00"/><stop offset=".12" stop-color="#c05100"/><stop offset=".27" stop-color="#c35f00"/><stop offset=".39" stop-color="#c77100"/><stop offset=".39" stop-color="#d08700"/><stop offset=".4" stop-color="#d89b00"/><stop offset=".62" stop-color="#db9d00"/><stop offset=".63" stop-color="#e9a700"/><stop offset=".79" stop-color="#efab00"/><stop offset="1" stop-color="#ffb700"/></linearGradient><linearGradient id="d" x1="363.74" x2="366.67" y1="570.08" y2="565" gradientTransform="matrix(.71 -.71 -.71 -.71 230.78 808.69)" xlink:href="#a"/><ellipse cx="117.5" cy="125.44" fill="#e8e8e8" rx="12.8" ry="18.45" transform="matrix(.887 -.462 .462 .887 -44.69 68.55)"/><path fill="#e8e8e8" d="M33.2 90.42S4.95 92.94 2.9 94.74C-3 100 1.3 106.3 5.44 108.14c12 5.4 44.48 4.16 44.48 4.16l18.38-9.74a1 1 0 0 0-.18-1.82z"/><path fill="url(#a)" d="M57.38 87.87l2.12-1.13c1.06-.6 2.52-.5 4.13.44a12.8 12.8 0 0 1 5.84 10 4.07 4.07 0 0 1-1.54 3.6 2.75 2.75 0 0 1-.46.23l-2 1-.6-1.04a6.7 6.7 0 0 1-1.26-.57 12.8 12.8 0 0 1-5.83-10 6.15 6.15 0 0 1 .23-1.5z"/><path fill="#393939" d="M55.8 91.48a12.8 12.8 0 0 0 5.84 10c3.23 1.86 5.84.4 5.84-3.25a12.8 12.8 0 0 0-5.84-10c-3.23-1.86-5.84-.4-5.84 3.25z"/><path fill="#6e6e6e" d="M67.14 98.4a12.8 12.8 0 0 0-5.84-10 4.38 4.38 0 0 0-3.85-.58c1.06-.63 2.55-.54 4.2.4a12.8 12.8 0 0 1 5.83 10c0 2-.77 3.33-2 3.84a4 4 0 0 0 1.66-3.66z"/><path fill="#f1bb00" d="M57 92.17a10.18 10.18 0 0 0 4.65 8c2.57 1.48 4.65.32 4.65-2.6a10.18 10.18 0 0 0-4.65-8c-2.58-1.47-4.65-.3-4.65 2.6zM29.43 93C30.8 99.7 35 103.35 40 106.26c.4.23.8.43 1.2.62 5.94 2.76 13.2 1.44 19-1.9 3.67-2.12 5.93-4.58 5.86-7l2-20 .08-4.46-31-4.26s-.95 0-2.3.2c-3.32.38-9.1 1.42-9 4.06.08 3.77 3.6 19.48 3.6 19.48z"/><path fill="#d80" d="M46.38 106.5l2-20 .08-4.47-20.8-10.77a23.3 23.3 0 0 1 7.16-1.76c1.35-.15 2.3-.2 2.3-.2l31 4.26-.06 4.44-2 20c.07 2.4-2.2 4.86-5.86 7a23.32 23.32 0 0 1-14.2 3.23 4.2 4.2 0 0 0 .38-1.74z"/><path fill="#1a1a1a" d="M26.48 72.06c1.06 6 2.95 14.44 2.95 14.44C30.8 93.18 35 96.84 40 99.75c.4.23.8.43 1.2.62 5.94 2.76 13.2 1.44 19-1.9 2.76-1.6 4.7-3.37 5.5-5.17a2 2 0 0 0 .22-.47 6.34 6.34 0 0 1 .83-1.64l-.7 6.8c.08 2.4-2.18 4.86-5.85 7-5.8 3.34-13 4.66-19 1.9-.4-.2-.8-.4-1.2-.62-5-2.9-9.2-6.57-10.58-13.24s-3.5-15.72-3.64-19.43a2 2 0 0 1 .7-1.54z"/><path fill="#e4c492" d="M60.2 105a26.1 26.1 0 0 1-6.54 2.68l3-29.07 10.44-4.95-3.25 28.65a18.6 18.6 0 0 1-3.66 2.7z"/><path fill="#ffe135" d="M37.1 69.3l28.96 4c-.27 2.46-2.67 4.95-6.42 7.12-6.36 3.67-14.33 5.1-20.86 2.1-.45-.22-.9-.44-1.32-.7-3.07-1.76-8.2-4.26-11.67-8.22-.33-4.5 11.3-4.3 11.3-4.3z"/><path fill="#bf6000" d="M40.87 84c.42.25.86.47 1.3.67 6.42 3 14.25 1.56 20.5-2.05a15.9 15.9 0 0 0 5.4-4.62l.07-4.46-31-4.26s-.95 0-2.3.2C30.73 73.95 35 80.62 40.88 84z"/><path fill="#1a1a1a" d="M40.88 82.65c.42.25.86.47 1.3.67 6.42 3 14.25 1.56 20.5-2.05 6.7-3.85 9-8.76 2.4-12.6-5.36-3.08-16-5.12-23.45-3.76a14.6 14.6 0 0 0-4.68 1.6c-7.35 4.24-2.7 12.32 3.93 16.15zM69.03 73.65L66.57 62.4l-30.9-1.77-2.23 9.94z"/><path fill="#2a2a2a" d="M40.88 82.65c.42.25.86.47 1.3.67.7-12.62 2.9-14.64 2.9-14.64s-7.26-6-9.42-8c0 0-2 8.7-2.35 10.42-.8 4.04 2.9 8.85 7.58 11.55z"/><path fill="#2f2f2f" d="M65.95 62.35s3 10.68-2.45 13.75c-6.5 3.68-8.44 4.1-15.3-4.62s17.75-9.13 17.75-9.13z"/><path fill="#262626" d="M63.7 66s1.9 7.1-.4 9.27S58.86 75 56.9 71s6.8-5 6.8-5z"/><path fill="#3f3f3f" d="M38.78 56.3c5.76-3.34 18.7-1.3 24.4 2s3.7 7.5-2.05 10.8-13 4.5-18.73 1.2-9.92-10.37-3.62-14z"/><path fill="#575757" d="M35.78 59.93c-.27 3.44 2.9 7.37 6.74 9.6 5.7 3.28 13 2.12 18.73-1.2 2.88-1.65 4.82-3.54 5.32-5.43-.1 2.14-2.17 4.32-5.44 6.2-5.74 3.32-13 4.5-18.73 1.2-4.13-2.4-7.48-6.76-6.62-10.37z"/><path fill="#545454" d="M40.92 57c3.78-2.2 12.28-.85 16 1.3s2.42 4.94-1.35 7.1-8.57 3-12.27.83-6.52-6.8-2.38-9.23z"/><path fill="#3f3f3f" d="M37.07 57.7s12.1 5.3 15.4 9.15c.68.82 4.53-1.18 3.8-2-5.08-5.32-13.74-7.4-15.12-7.73s-4.08.58-4.08.58z"/><path fill="#1a1a1a" d="M54.3 66.06c3.76-2.18 5.08-4.94 1.34-7.1-3.4-2-10.7-3.24-14.86-1.83l.14-.1c3.78-2.18 12.28-.84 16 1.32s2.42 4.93-1.35 7.1a16.33 16.33 0 0 1-1.93.95zM58.15 66a4.76 4.76 0 0 1 4.32.44c.52.34 1 .73 1 1.1.2 1 .68 4.33-1.55 5.67-2.73 1.65-3.5-2.75-3.5-2.75s-4.6-2.78-.27-4.45z"/><path fill="#ca7900" d="M60.06 66a4.17 4.17 0 0 1 2.6 1 2.48 2.48 0 0 1 .6 2.24c0 .4-.93 1.3-2.14 1.87a4 4 0 0 1-2.28.36V70.3s-2.56-1.43-1.8-3 2.15-1.3 3.02-1.3z"/><path fill="#ffe135" d="M57 67.34c.75-1.53 2.15-1.4 3-1.37a4.17 4.17 0 0 1 2.6 1c.43.4.58.62.62.92v.2c0 .4-.94 1-2.15 1.53a8.38 8.38 0 0 1-2.28.7s-2.5-1.46-1.8-3z"/><path fill="#545454" d="M62 71.3l1.12.32a2.82 2.82 0 0 1-1.9 1.78 1.64 1.64 0 0 1-1.9-.75c0-.28 1.2.26 2.68-1.34z"/><path fill="#181818" d="M33.33 71c-.07 3.87 3.37 8.12 7.67 10.6.42.25.86.47 1.3.67 6.42 3 14.25 1.56 20.5-2.05 3.44-2 5.72-4.23 6.24-6.48.06 2.58-2.37 5.24-6.34 7.53-6.25 3.6-14.1 5-20.5 2.05-.45-.2-.88-.42-1.3-.67-4.7-2.7-8.4-7.52-7.57-11.65z"/><path fill="#f1bb00" d="M36.66 57.07c.38-.22 4.46-1.14 4.93-1.3 4.3 0 12.44.92 13.47 2.32 1.15 1.54 1.65 5.08 1.8 6.55-.36.27-2 1.48-2.47 1.73a10 10 0 0 0-1.88.45c-.13-1.62-.43-5.82-1.77-7-1.15-1-6.7-2-11.16-1.63a14.55 14.55 0 0 1-2.6-.57l-.67.92c-.1-1 .14-1.37.33-1.48z"/><path fill="#c57600" d="M57.86 64.1s-.4-5.93-1.87-7.9c-.92-1.23-6.77-1.93-11.1-1.7a18.58 18.58 0 0 0-6.9 1.7c-1 .62-1.37.87-1.37.87s8.95-2.6 15.78 1.08c2 1.1 2 8.2 2 8.2l1.28-.2a2.7 2.7 0 0 0 2.2-2.07z"/><path fill="#ffe135" d="M38 56.2a18.58 18.58 0 0 1 6.88-1.7c4.33-.23 10.17.47 11.08 1.7l.07.1q-.86.6-1.86 1.17-.76.44-1.55.83a1.42 1.42 0 0 0-.2-.14c-6.84-3.7-15.8-1.08-15.8-1.08s.38-.26 1.38-.9z"/><path fill="url(#b)" d="M41 97.87l2.12-1.13c1.06-.6 2.52-.5 4.13.44a12.8 12.8 0 0 1 5.84 10 4.07 4.07 0 0 1-1.55 3.6 2.76 2.76 0 0 1-.46.23l-2 1-.6-1.04a6.7 6.7 0 0 1-1.27-.57 12.8 12.8 0 0 1-5.84-10 6.15 6.15 0 0 1 .17-1.54z"/><path fill="#393939" d="M39.42 101.48a12.8 12.8 0 0 0 5.84 10c3.23 1.86 5.84.4 5.84-3.25a12.8 12.8 0 0 0-5.84-10c-3.26-1.86-5.84-.4-5.84 3.25z"/><path fill="#6e6e6e" d="M50.77 108.4a12.8 12.8 0 0 0-5.84-10 4.38 4.38 0 0 0-3.85-.58c1.06-.63 2.55-.54 4.2.4a12.8 12.8 0 0 1 5.83 10c0 2-.76 3.33-2 3.84a4 4 0 0 0 1.67-3.66z"/><path fill="#f1bb00" d="M40.62 102.17a10.18 10.18 0 0 0 4.65 8c2.57 1.48 4.65.32 4.65-2.6a10.18 10.18 0 0 0-4.65-8c-2.57-1.47-4.65-.3-4.65 2.6z"/><path fill="url(#c)" d="M64 87.35l-1-.5a1.9 1.9 0 0 0-1.88.2 5.8 5.8 0 0 0-2.65 4.53 1.85 1.85 0 0 0 .7 1.63l.2.12.9.47.28-.5a3 3 0 0 0 .57-.25 5.8 5.8 0 0 0 2.65-4.54 2.8 2.8 0 0 0-.08-.7z"/><path fill="#de7700" d="M64.75 89a5.8 5.8 0 0 1-2.65 4.54c-1.47.85-2.65.2-2.65-1.48a5.8 5.8 0 0 1 2.65-4.54c1.46-.85 2.65-.2 2.65 1.48z"/><path fill="#1a1a1a" d="M64.2 89.3a4.63 4.63 0 0 1-2.1 3.6c-1.18.68-2.12.16-2.12-1.16a4.63 4.63 0 0 1 2.1-3.6c1.18-.7 2.12-.14 2.12 1.16z"/><path fill="#060606" d="M64 89.66a4.4 4.4 0 0 0 1.5 2.22A12.23 12.23 0 0 0 68.3 94a18.2 18.2 0 0 0 4.43 1.73c.84.27 1.8.37 2.74.58s2 .28 3 .3l1.6.07H80.75c.28 0 .6 0 .84-.06a5.74 5.74 0 0 0 2.1-.94 7.5 7.5 0 0 0 1.72-2.2 16.18 16.18 0 0 0 1.14-3.1 42.64 42.64 0 0 0 1.1-7.24c.4-5 .38-10.2 1-15.2a22.8 22.8 0 0 1 1.9-7.47 7.93 7.93 0 0 1 2.87-3.3l.12-.08h.06l.13-.07.17-.1.34-.17a9.14 9.14 0 0 1 .86-.4 7.84 7.84 0 0 1 2-.55 5.15 5.15 0 0 1 2.42.23 4.65 4.65 0 0 1 2 1.44 7.3 7.3 0 0 1 1.48 3.24 18.5 18.5 0 0 1 .3 4.63c-.05 1.24-.17 2.18-.26 2.82l-.16 1-4.45-.84.13-.8c.08-.56.18-1.4.23-2.4a14.34 14.34 0 0 0-.2-3.5 3.17 3.17 0 0 0-.5-1.3c-.07-.1-.1-.1-.13-.1s-.16 0-.37 0a3.55 3.55 0 0 0-.84.23 3.74 3.74 0 0 0-.53.24l-.34.18-.2.1c-.07 0 .08 0 0 0a3.6 3.6 0 0 0-1.27 1.54 19 19 0 0 0-1.5 6c-.58 4.6-.6 9.8-1.06 15a46.57 46.57 0 0 1-1.27 8 20.24 20.24 0 0 1-1.5 4A11.57 11.57 0 0 1 86.26 99a9.4 9.4 0 0 1-4.37 1.8c-.35 0-.6 0-.9.05h-1l-1.77-.1c-1.16 0-2.3-.23-3.4-.34s-2.16-.36-3.16-.68a22.23 22.23 0 0 1-5.36-2.14 16.24 16.24 0 0 1-3.67-2.75 17.7 17.7 0 0 1-2-2.5c-.6-.88 0-2.07.55-2.86a2.44 2.44 0 0 1 1.62-1.07 1.08 1.08 0 0 1 1.1.66 1.06 1.06 0 0 1 0 .23 2.55 2.55 0 0 0 .1.36z"/><path fill="#1a1a1a" d="M93.36 168C92 168 70.7 156.32 70.2 154.48s.93-4.44.93-4.44 20 4.56 26.68 7a10.73 10.73 0 0 1 2.3 1.07c.7.48.82 4.12.82 4.12.6 1.4-5.05 5.78-7.56 5.78z"/><path fill="#2d2d2d" d="M93.36 168a27.22 27.22 0 0 0-.78-6.2s2.66-2.25 5.22-4.76a10.73 10.73 0 0 1 2.3 1.07c.7.48.8 4.12.8 4.12.63 1.4-5.03 5.78-7.54 5.78z"/><path fill="#454545" d="M77.73 145.34s-7.2 3.6-6.73 5.33 20.72 13.07 22 13.08c2.77 0 7.66-4.32 7.08-5.67s-22.35-12.74-22.35-12.74z"/><path fill="#2d2d2d" d="M91.2 152.58c-.12.15-1.58 2.08-3.3 2.15h-.05a6.54 6.54 0 0 1-1.57-.13 4.16 4.16 0 0 1-1.6-.65l-.23-.17a2.44 2.44 0 0 1-.36-.4 1.57 1.57 0 0 1-.14-.22v-.06l-.08-.17a.65.65 0 0 1 0-.1 1.76 1.76 0 0 1-.07-.23c-.23-1.08 1.55-4.1 1.55-4.1l5.65 1.13.05.7z"/><path fill="#080808" d="M91 150.3l-1.7-.52-1.84-.58a34.28 34.28 0 0 0-1.2 5.4 4.16 4.16 0 0 1-1.62-.64l-.22-.17a2 2 0 0 1-.36-.42 1.57 1.57 0 0 1-.13-.2v-.07l-.08-.16a.65.65 0 0 1 0-.1 1.76 1.76 0 0 1-.07-.23c-.24-1.07 1.54-4.1 1.54-4.1l5.68 1.13z"/><path fill="#585858" d="M91.2 152.58c-.12.15-1.58 2.08-3.3 2.15h-.05c.1-1.23.6-3.62.87-4.9l.63-.05 1.63-.16.05.7z"/><path fill="url(#d)" d="M91.23 149l-.26.67a1.48 1.48 0 0 1-1.17.77 5.33 5.33 0 0 1-4-.84c-.44-.35-.6-.73-.5-1.05a.7.7 0 0 1 .05-.14l.24-.6.4.08a2.8 2.8 0 0 1 .48-.14 5.33 5.33 0 0 1 4 .84 1.87 1.87 0 0 1 .34.35z"/><path fill="#454545" d="M90.73 147.9a5.33 5.33 0 0 0-4-.85c-1.3.3-1.6 1.13-.67 1.87a5.33 5.33 0 0 0 4 .84c1.3-.28 1.6-1.12.67-1.87z"/><path fill="#252823" d="M120.18 115s-3.32 3.48-4 4.4a8.93 8.93 0 0 1-3.8 3.2c-1.76.6-3.36.44-4.6-2a3.9 3.9 0 0 1 2-5.56c2-.8 5.16-4.24 5.24-4.36s1.16-3.6 1.16-3.6h4zM125 126.12a5 5 0 0 1 0 2.68c-.44 1.16-.64 4.52-2.16 7.48a7.7 7.7 0 0 1-5.68 4.16c-1.28.08-5 .16-5.72-1.52s2.92-6.92 3.64-8.24a38 38 0 0 0 2.44-5.24c.12-.72 1.18-6.64 1.18-6.64s1.14 2.36 2.94 2.2 3.55-2.07 3.55-2.07a16.7 16.7 0 0 1 0 4.3 9.2 9.2 0 0 0-.2 2.9z"/><path fill="#7e7f7c" d="M112.37 121c-1.75.6-3.35.44-4.6-2a4.73 4.73 0 0 1-.4-1.17 4.17 4.17 0 0 0 .4 2.8c1.25 2.47 2.85 2.63 4.6 2a8.93 8.93 0 0 0 3.8-3.2c.7-.93 4-4.4 4-4.4v-1.63s-3.3 3.48-4 4.4a8.93 8.93 0 0 1-3.8 3.2zM125 127.18c-.44 1.16-.64 4.52-2.16 7.48a7.7 7.7 0 0 1-5.68 4.16c-1.24.08-4.8.15-5.64-1.37a2.44 2.44 0 0 0-.08 1.47c.68 1.68 4.44 1.6 5.72 1.52a7.7 7.7 0 0 0 5.68-4.16c1.52-3 1.72-6.32 2.16-7.48a4.26 4.26 0 0 0 .13-2.06 2.77 2.77 0 0 1-.13.44z"/><path fill="#00657e" d="M122.33 84.4c0 1.38-1.4 22.4-2.2 23.15-.6.57-2.45 0-3.4-.3l-.56-.22s-.9-3.95-1.8-8.16a1.37 1.37 0 0 1 0-.17c0-.14-.07-.28-.1-.44-.25-1.14-.5-2.28-.73-3.36-.68-3.17-1.22-5.8-1.2-6.1 0-.8-.2-1.72-5.57-11.44a33.32 33.32 0 0 1-4.2-12.3 15 15 0 0 1 0-3.86l19.68 1.13s0 1.92 0 4.63c0 2.44 0 5.52.07 8.42-.02 4.45 0 8.46 0 9.03z"/><path fill="#4790a2" d="M131.45 78.92a118.92 118.92 0 0 0-6.08 17.52s2 6 2 10.1S124.9 120 124.9 120a3.68 3.68 0 0 1-1.1 1 4.52 4.52 0 0 1-.9.47c-1.45.56-4.13-1.5-4.2-1.7s0-1.34 0-4a58.34 58.34 0 0 0-2-8.6c-1-3.68-2.1-7.3-2.37-8.37a1.37 1.37 0 0 1 0-.17c0-.14-.07-.28-.1-.44a19.77 19.77 0 0 1-.73-3.37 24.72 24.72 0 0 1 .23-6.34c.56-3.8 1.68-10.48 2.47-15.06.5-2.86.85-4.9.85-4.9s2.24-.74 5.15-1.64c5.14-1.58 12.34-3.63 12.93-2.84.92 1.3-.13 7.35-3.68 14.86z"/><path fill="#00657e" d="M131.45 78.92a118.92 118.92 0 0 0-6.08 17.52s2 6 2 10.1S124.9 120 124.9 120a3.68 3.68 0 0 1-1.1 1c1.2-7.74 2.38-15.55.37-23a10.08 10.08 0 0 1-.55-3 8.14 8.14 0 0 1 .46-2.16q2.5-8.34 5-16.7c-2 .6-4.06 0-6-.53l-.82-.22c-2-.6-4.06-1.2-6.07-1.87a49.86 49.86 0 0 1-5.24-2c-2.42-1.1-6.6-3.46-8.44-6.4a15 15 0 0 1 0-3.86l19.68 1.13s0 1.92 0 4.63c5.14-1.58 12.34-3.63 12.93-2.84.92 1.2-.13 7.25-3.68 14.76z"/><path fill="#f1bb00" d="M132.77 21.32s-13.7-10.07-17.58-10.92-11.8-2-13.13-1.33-3.8 2.4-4 4 .4 18.66 2.25 23.35 1.85 4.85 1 11.14.16 15.73.16 15.73 2 3.4 10.13 6.6 13 6.56 18.35 3.63 5.5-5.12 5.5-5.12c.34-2.8 1.17-5.82 1.14-8.64a99.14 99.14 0 0 0-1-12.44 31.65 31.65 0 0 1-.53-5.53c.06-1.55.4-3 .58-4.55s-.1-3.15.06-4.72a13.18 13.18 0 0 0 .15-1.7c-.05-1.92-1.35-3.48-1.62-5.33-.23-1.6.03-3.1-1.46-4.18z"/><path fill="#dda120" d="M129.95 36.2c-.5 2.7-2 5.12-2.54 7.8a22.08 22.08 0 0 0-.2 4.96 105.93 105.93 0 0 0 1.1 13.88 36.3 36.3 0 0 1 .8 6.37 26.52 26.52 0 0 1-.68 5 9.32 9.32 0 0 0 1.55-.66c5.33-2.93 5.5-5.12 5.5-5.12.34-2.8 1.17-5.83 1.14-8.65a99.14 99.14 0 0 0-1-12.44 31.65 31.65 0 0 1-.5-5.53c.05-1.54.4-3 .57-4.54s-.1-3.15.06-4.72a13.18 13.18 0 0 0 .14-1.7c-.05-1.92-1.35-3.48-1.62-5.33-.23-1.57 0-3.08-1.44-4.17 0 0-13.68-10.06-17.57-10.92s-11.78-2-13.12-1.32a11.1 11.1 0 0 0-2.8 2 34.46 34.46 0 0 1 4.08.2 27.18 27.18 0 0 1 7 2.5c4.33 2.17 8.26 5.1 12.6 7.23 2.13 1 4.8 1.32 7.1 1.86a.48.48 0 0 1 .4.75 15.74 15.74 0 0 0-.94 5.64c.15 2.42.88 4.48.4 6.96z"/><path fill="#595959" d="M98.77 66.75l-12.6 81.1c-.16.3-.06.64.34 1a4.24 4.24 0 0 0 3.2.66c.57-.12.9-.38.94-.7l12.66-81.26a4.7 4.7 0 0 0-4.53-.8z"/><path fill="#474747" d="M87 148.52l12.75-82a4.62 4.62 0 0 0-1 .24l-12.6 81.1c-.16.3-.06.64.34 1a2.7 2.7 0 0 0 .53.33.6.6 0 0 1-.03-.68z"/><path fill="#383838" d="M101.95 66.73L89 149.56a3.5 3.5 0 0 0 .74-.07c.57-.14.9-.4.94-.7l12.66-81.28a4.32 4.32 0 0 0-1.4-.8z"/><path fill="#fcc7aa" d="M97.8 68.62s.3 1.43.72 1.5l.42.05-.57 3a9.06 9.06 0 0 0 2.15 2.22c1 .55 1.88 1.57 1.38 2.3s-.9.9-2.42 0A7.72 7.72 0 0 1 97 75.24l.5 2.77a7.88 7.88 0 0 1-2.12-.84c-1.06-.62-1.46-2.26-2.18-3.88a16.93 16.93 0 0 1-1-4.06z"/><path fill="#f4ab3a" d="M100.94 33.38s-1 8.24-1.23 8.38a9.5 9.5 0 0 0-.84 2.24 21.42 21.42 0 0 1-.86 3.2c-.3.54-.1 8.17-.4 9.9a21 21 0 0 0 .14 4.9s-.24 3.44-.4 4.1a12.12 12.12 0 0 0 .66 3.27s-1.86 1.08-2.9 1.63a2.44 2.44 0 0 1-1 .24 8.08 8.08 0 0 1-2.2-.24 5.42 5.42 0 0 1-.47-2.32c.12-1-.77-2-1.33-3.56s-1.24-11.36-1.32-15.76.72-10.47.72-12.5a30.2 30.2 0 0 1 1.6-7.4c.72-2.36.92-5.24 1.4-6.92a23.15 23.15 0 0 1 3.23-7.68 17 17 0 0 1 4-4.2l.15 2.75z"/><path fill="#f29516" d="M92 43.32c-2.13 9.17.8 18.54 2 27.94a8.08 8.08 0 0 1-2.1-.26 5.42 5.42 0 0 1-.47-2.32c.12-1-.77-2-1.33-3.56s-1.24-11.36-1.32-15.76.72-10.47.72-12.5a30.2 30.2 0 0 1 1.6-7.4c.72-2.36.92-5.24 1.4-6.92a23.15 23.15 0 0 1 3.23-7.68 17 17 0 0 1 4-4.2l.15 2.75a24.13 24.13 0 0 0-5.4 13.26c-.28 3 0 6.07-.44 9.06-.42 2.58-1.4 5.04-2.04 7.6z"/><path fill="#fcc7aa" d="M101.54 79.45a12.15 12.15 0 0 0-2 2.4 10.88 10.88 0 0 1-1.87 3.44 11.35 11.35 0 0 0-1.87 2.48c-.2.5-.37 1.05.4 1.45s1.9-.9 2.15-1.15 1.93-2.7 1.93-2.7a36 36 0 0 1 0 3.82 12.9 12.9 0 0 0-.2 1.55s1.53.15 1.77-.32.35-2.12.76-2.48a24.23 24.23 0 0 0 3.06-3.8c.52-.94-4.12-4.7-4.12-4.7z"/><path fill="#f3a984" d="M125 20.18s-4.22 8.36-6.3 9.8a16.36 16.36 0 0 1-5.18 2.64 3.15 3.15 0 0 1-1.28 0s-1.68-5.37-1.68-8.4 7.24-7.55 8.88-7S122 14.1 125 20.18z"/><path fill="#f0976a" d="M119.46 17.22a1.08 1.08 0 0 0-.3 0 6 6 0 0 1-.9.63c-1 .52-2.06.84-3.08 1.3a12.6 12.6 0 0 0-1.27.64c-1.8 1.37-3.32 3.07-3.32 4.46a26.18 26.18 0 0 0 .9 5.55 2.33 2.33 0 0 0 .7.06 12 12 0 0 0 1.3-.17 9.63 9.63 0 0 0 2.6-1 7.8 7.8 0 0 0 2.86-2.32c.2-.3.37-.6.56-.9.66-1 1.6-1.87 2.23-2.92A2.07 2.07 0 0 1 122 22a1.76 1.76 0 0 1 .6-.34l1.56-.64.48-.2.35-.68c-3-6.04-3.9-2.36-5.54-2.92z"/><path fill="#f7d664" d="M112.42 31.75c-1.06-1.74-1.06-3.9-1.44-5.9a.34.34 0 0 0-.14-.26.35.35 0 0 0-.3 0 2.8 2.8 0 0 0-1.6 1.24 2.8 2.8 0 0 0 0 1.74c.5 2.1 1.1 4.32 2.72 5.74-.1-.1.68-1 .74-1.17.26-.45.1-.72 0-1.2zM124 17.2a5.25 5.25 0 0 1 1.74 3.52c0 4.63-3.42 8.63-7 11.26a14.15 14.15 0 0 1-3.3 1.83c-.82.33-2.3.96-3.2.7a.15.15 0 0 1-.07 0 .16.16 0 0 1 0-.12 7.7 7.7 0 0 0 .27-2.56 18 18 0 0 0 2.16-.78c1-.64 2-1.1 3-1.83a17.3 17.3 0 0 0 3.4-3.3 11.8 11.8 0 0 0 1.93-4.53 4.28 4.28 0 0 0 .23-1.92 5.22 5.22 0 0 0-.5-1c-.12-.2-.55-.67-.55-.9 0-.5-.05-1 0-1.55a.75.75 0 0 1 .17-.52c-.14.02 1.5 1.52 1.73 1.72z"/><path fill="#fcc7aa" d="M114.34.16s-7-.9-10.45 3.15-3.56 7.53-2.96 9.93a21.52 21.52 0 0 1 .66 4.48 15.7 15.7 0 0 0 1.23 3.58c.53.8 1.52 2.42 2.22 3.37s1.08 1 1.08 1a7.78 7.78 0 0 0 .48 2.52c.37.4 3.47 0 3.47 0a5.33 5.33 0 0 0 2.06.18 12 12 0 0 0 6.6-4.9c1.7-2.92 3.38-6.64 3.46-8.6a32 32 0 0 0-1.37-7.6c-.4-1.1-6.5-7.1-6.5-7.1z"/><path fill="#fbb38c" d="M118.7 23.46c1.72-2.92 3.4-6.64 3.48-8.6a19.43 19.43 0 0 0-.43-3.77 10.18 10.18 0 0 0-1.7-.26c-2.1-.2-4.18-.8-6.3-1a19.14 19.14 0 0 0-8 .8 12 12 0 0 0-3 1.36 8.74 8.74 0 0 0-1.66 1.44l-.1.1a23.27 23.27 0 0 1 .53 3.18 11.84 11.84 0 0 0 3.2 1.8 13.4 13.4 0 0 0 3.9.64 18.3 18.3 0 0 0 3.74-.5 1.74 1.74 0 0 1 1.1 0c.2.13.33.38.54.52a3.47 3.47 0 0 0 1.94.52h1.64c-.34 1.14.25 2.35.25 3.54a5.6 5.6 0 0 1-.38 1.86 8.8 8.8 0 0 0 1.26-1.64z"/><path fill="#863300" d="M113.34 17.66a53.37 53.37 0 0 1-5.24 1.16c-2 .27-6.57-2.36-6.68-3.1s-1.67-5-1.1-7.08a14.78 14.78 0 0 1 7-7.68c3.38-1.44 8.82-1.4 11.75 1s4.1 3.83 4.64 6.9a22.33 22.33 0 0 1-.63 9.25 15.17 15.17 0 0 1-3 4.5s1.6-5.2 1.23-6-3 3.1-4.8 2.83a6 6 0 0 1-3.16-1.77z"/><path fill="#562400" d="M123 6.4a39.3 39.3 0 0 1-1 4.7 3 3 0 0 1-.85 1.6c-.25.2-.57.32-.82.52-.67.53-.86 1.53-1.57 2-.37.24-.86.32-1.14.66a1.8 1.8 0 0 0-.27.55 8.24 8.24 0 0 1-1.48 2.9 4.1 4.1 0 0 0 .6.14c1.8.28 4.43-3.63 4.8-2.84s-1.23 6-1.23 6a15.17 15.17 0 0 0 3-4.48 22.33 22.33 0 0 0 .64-9.25 10 10 0 0 0-.68-2.5z"/><path fill="#f7d664" d="M132.77 21.32s-9.35 1.85-9.72 13.14c-.12 3.74-.92 7.84-.6 8.44s-.3 1.48-.3 1.48-.54 3.44-1.22 4.48-4.44 8.48-4.56 8.68a48.73 48.73 0 0 1-4.64 8.32c-2.4 3.1-4.64 7.16-6 8.28s-2.16 1.64-2.56 2.72-2.16 2.52-2.2 2.64.24 3.2 2.68 4.2a7.93 7.93 0 0 0 4.12.68 26.6 26.6 0 0 1 3.84-4.76c3-3.24 8.7-11.52 9.5-12a33.46 33.46 0 0 0 6.2-6.88c1.4-2.44 2.87-5.44 3.4-6.16a65.85 65.85 0 0 0 4.47-10.45c.76-2.9 2.37-13.2 2-16.36s-4.4-6.45-4.4-6.45z"/><path fill="#d88600" d="M137.1 27.73c-.4-3.16-4.32-6.4-4.32-6.4a11.54 11.54 0 0 0-3 1.2c.77.9 2.24 1.5 3.2 2.26a5.2 5.2 0 0 1 1.8 2 5.2 5.2 0 0 1 .28 1.84 47.2 47.2 0 0 1-.12 6c-.13 1.22-.66 2.25-.82 3.44-.2 1.52-.45 3-.8 4.53a45.4 45.4 0 0 1-2.92 8.7 8.67 8.67 0 0 0-1-1 4.42 4.42 0 0 0-1.44-.32 3 3 0 0 1-.5-.18 15.1 15.1 0 0 0-3-.95.15.15 0 0 0-.1 0c-.1.05 0 .17.06.23.72.57 1.7.75 2.4 1.32a5.33 5.33 0 0 1 1 1.13 4.26 4.26 0 0 1 .67 2.74 4.56 4.56 0 0 1-.47 1.3 27.7 27.7 0 0 1-4.85 7.06 19.78 19.78 0 0 0-2.52 2.7 35.1 35.1 0 0 1-3 3.7c-4.26 5-9 9.67-12.52 15.14a7 7 0 0 0 2.65.2 26.6 26.6 0 0 1 3.83-4.75c3-3.24 8.68-11.52 9.48-12a33.47 33.47 0 0 0 6.2-6.88c1.4-2.44 2.9-5.44 3.4-6.16a65.87 65.87 0 0 0 4.5-10.45c.7-2.95 2.3-13.24 1.9-16.4z"/></svg>