<svg enable-background="new 0 0 480 480" viewBox="0 0 480 480" xmlns="http://www.w3.org/2000/svg"><path d="m472 240h-120v-160c0-.16-.072-.304-.088-.464-.04-.624-.152-1.232-.336-1.832-.08-.256-.128-.512-.232-.76-.336-.808-.768-1.576-1.368-2.256l-64-72c-.688-.768-1.52-1.328-2.408-1.768-.256-.128-.512-.216-.784-.32-.744-.28-1.504-.44-2.296-.488-.168-.016-.32-.112-.488-.112h-240c-22.056 0-40 17.944-40 40v344c0 22.056 17.944 40 40 40h271.216c16.088 21.96 36.592 40.816 60.752 54.904 1.248.728 2.64 1.096 4.032 1.096s2.784-.368 4.032-1.096c61.664-35.968 99.968-102.664 99.968-174.048v-56.856c0-4.424-3.584-8-8-8zm-184-210.96 17.416 19.592 20.768 23.368h-38.184zm-248 378.96c-13.232 0-24-10.768-24-24v-344c0-13.232 10.768-24 24-24h232v64c0 4.424 3.584 8 8 8h56v152h-56c-4.416 0-8 3.576-8 8v56.856c0 4.472.152 8.928.448 13.352 1.696 25.744 8.376 50.672 19.544 73.808.336.688.64 1.392.976 2.08 1.344 2.704 2.792 5.352 4.264 8 .752 1.36 1.472 2.736 2.256 4.072.352.608.648 1.232 1.008 1.832zm424-103.144c0 64.152-33.6 124.176-88 157.816-22.448-13.88-41.28-32.296-55.744-53.6-1.616-2.376-3.168-4.776-4.664-7.208-.936-1.528-1.872-3.056-2.768-4.616-1.216-2.104-2.344-4.24-3.472-6.384-.968-1.84-1.96-3.664-2.864-5.536-.784-1.616-1.464-3.264-2.2-4.904-2.104-4.704-4.032-9.496-5.752-14.376-.392-1.112-.832-2.216-1.2-3.336-.832-2.536-1.56-5.104-2.288-7.68-.448-1.6-.912-3.192-1.32-4.8-.608-2.376-1.144-4.776-1.648-7.184-.408-1.952-.792-3.912-1.144-5.88-.384-2.16-.752-4.328-1.064-6.504-.352-2.504-.624-5.016-.872-7.544-.176-1.728-.384-3.456-.512-5.192-.296-4.32-.488-8.68-.488-13.072v-48.856h56 120z" fill="#44aaac"/><path d="m426.344 314.344-58.344 58.344-26.344-26.344-11.312 11.312 32 32c1.56 1.56 3.608 2.344 5.656 2.344s4.096-.784 5.656-2.344l64-64z"/><path d="m48 112h256v16h-256z"/><path d="m48 152h256v16h-256z"/><path d="m48 192h256v16h-256z"/><path d="m48 232h192v16h-192z"/><path d="m48 272h192v16h-192z"/><path d="m48 312h192v16h-192z"/><path d="m48 352h192v16h-192z"/><path d="m304 272h16v16h-16z"/><path d="m336 272h16v16h-16z"/><path d="m368 272h16v16h-16z"/><path d="m400 272h16v16h-16z"/><path d="m432 272h16v16h-16z"/></svg>