<svg enable-background="new 0 0 480 480" viewBox="0 0 480 480" xmlns="http://www.w3.org/2000/svg"><path d="m328 96h16v16h-16z"/><path d="m328 128h16v16h-16z"/><path d="m296 128h16v16h-16z"/><path d="m472 432h-24v-136c0-13.232-10.768-24-24-24h-80v-40c0-13.232-10.768-24-24-24h-56c-4.408 0-8-3.584-8-8v-24h80c30.88 0 56-25.128 56-56s-25.12-56-56-56c-.152 0-.296 0-.44 0-3.992-35.952-34.56-64-71.56-64-25.04 0-47.752 12.728-60.88 33.656-3.64-1.104-7.36-1.656-11.12-1.656-19.56 0-35.888 14.12-39.336 32.688-2.864-.456-5.76-.688-8.664-.688-30.88 0-56 25.128-56 56s25.12 56 56 56h56v64c0 4.416-3.592 8-8 8h-32c0-13.232-10.768-24-24-24h-112c-13.232 0-24 10.768-24 24v208c0 13.232 10.768 24 24 24h112c13.232 0 24-10.768 24-24v-192h32c13.232 0 24-10.768 24-24v-64h24v24c0 13.232 10.768 24 24 24h56c4.408 0 8 3.584 8 8v40h-96c-13.232 0-24 10.768-24 24v136h-24c-4.416 0-8 3.576-8 8 0 22.056 17.944 40 40 40h224c22.056 0 40-17.944 40-40 0-4.424-3.584-8-8-8zm-328 24c0 4.416-3.592 8-8 8h-112c-4.408 0-8-3.584-8-8v-16h128zm0-32h-128v-144h128zm0-160h-128v-16c0-4.416 3.592-8 8-8h112c4.408 0 8 3.584 8 8zm0-104c-22.056 0-40-17.944-40-40s17.944-40 40-40c4.568 0 9.136.816 13.568 2.424 2.584.928 5.456.488 7.616-1.192 2.168-1.672 3.328-4.344 3.072-7.072l-.168-1.368c-.032-.272-.08-.536-.088-.792 0-13.232 10.768-24 24-24 3.68 0 7.376.944 10.976 2.816 1.904.984 4.136 1.168 6.168.496 2.04-.664 3.728-2.136 4.68-4.056 9.536-19.28 28.76-31.256 50.176-31.256 30.88 0 56 25.128 56 55.784-.016.192-.04.752-.04.944 0 2.36 1.04 4.592 2.84 6.112 1.8 1.528 4.176 2.176 6.504 1.776 2.424-.416 4.616-.616 6.696-.616 22.056 0 40 17.944 40 40s-17.944 40-40 40zm80 136c0-4.416 3.592-8 8-8h192c4.408 0 8 3.584 8 8v136h-208zm216 168h-224c-10.432 0-19.328-6.688-22.632-16h22.632 224 22.632c-3.304 9.312-12.2 16-22.632 16z" fill="#44aaac"/><path d="m120 296h-80c-4.416 0-8 3.576-8 8v32c0 4.424 3.584 8 8 8h80c4.416 0 8-3.576 8-8v-32c0-4.424-3.584-8-8-8zm-8 32h-64v-16h64z"/><path d="m328 304h-80c-4.416 0-8 3.576-8 8v96c0 4.424 3.584 8 8 8h80c4.416 0 8-3.576 8-8v-96c0-4.424-3.584-8-8-8zm-8 96h-64v-80h64z"/><path d="m32 360h96v16h-96z"/><path d="m352 304h64v16h-64z"/><path d="m352 336h64v16h-64z"/><path d="m352 368h64v16h-64z"/><path d="m352 400h64v16h-64z"/><path d="m32 392h96v16h-96z"/></svg>