<svg enable-background="new 0 0 480 480" viewBox="0 0 480 480" xmlns="http://www.w3.org/2000/svg"><path d="m408 112c0-13.232-10.768-24-24-24h-288c-13.232 0-24 10.768-24 24v64c0 6.168 2.408 11.744 6.24 16-3.84 4.256-6.24 9.832-6.24 16v64c0 6.168 2.408 11.744 6.24 16-3.84 4.256-6.24 9.832-6.24 16v64c0 13.232 10.768 24 24 24h288c13.232 0 24-10.768 24-24v-64c0-6.168-2.408-11.744-6.24-16 3.84-4.256 6.24-9.832 6.24-16v-64c0-6.168-2.408-11.744-6.24-16 3.84-4.256 6.24-9.832 6.24-16zm-16 256c0 4.408-3.584 8-8 8h-288c-4.416 0-8-3.592-8-8v-64c0-4.408 3.584-8 8-8h288c4.416 0 8 3.592 8 8zm0-96c0 4.408-3.584 8-8 8h-288c-4.416 0-8-3.592-8-8v-64c0-4.408 3.584-8 8-8h288c4.416 0 8 3.592 8 8zm0-96c0 4.408-3.584 8-8 8h-288c-4.416 0-8-3.592-8-8v-64c0-4.408 3.584-8 8-8h288c4.416 0 8 3.592 8 8z" fill="#44aaac"/><path d="m104 152h16v16h-16z"/><path d="m136 152h16v16h-16z"/><path d="m104 120h16v16h-16z"/><path d="m136 120h16v16h-16z"/><path d="m168 152h16v16h-16z"/><path d="m168 120h16v16h-16z"/><path d="m200 152h16v16h-16z"/><path d="m200 120h16v16h-16z"/><path d="m232 152h16v16h-16z"/><path d="m232 120h16v16h-16z"/><path d="m368 120h-72c-4.424 0-8 3.584-8 8v32c0 4.416 3.576 8 8 8h72c4.424 0 8-3.584 8-8v-32c0-4.416-3.576-8-8-8zm-8 32h-56v-16h56z"/><path d="m104 248h16v16h-16z"/><path d="m136 248h16v16h-16z"/><path d="m104 216h16v16h-16z"/><path d="m136 216h16v16h-16z"/><path d="m168 248h16v16h-16z"/><path d="m168 216h16v16h-16z"/><path d="m200 248h16v16h-16z"/><path d="m200 216h16v16h-16z"/><path d="m232 248h16v16h-16z"/><path d="m232 216h16v16h-16z"/><path d="m368 216h-72c-4.424 0-8 3.584-8 8v32c0 4.416 3.576 8 8 8h72c4.424 0 8-3.584 8-8v-32c0-4.416-3.576-8-8-8zm-8 32h-56v-16h56z"/><path d="m104 344h16v16h-16z"/><path d="m136 344h16v16h-16z"/><path d="m104 312h16v16h-16z"/><path d="m136 312h16v16h-16z"/><path d="m168 344h16v16h-16z"/><path d="m168 312h16v16h-16z"/><path d="m200 344h16v16h-16z"/><path d="m200 312h16v16h-16z"/><path d="m232 344h16v16h-16z"/><path d="m232 312h16v16h-16z"/><path d="m368 312h-72c-4.424 0-8 3.584-8 8v32c0 4.416 3.576 8 8 8h72c4.424 0 8-3.584 8-8v-32c0-4.416-3.576-8-8-8zm-8 32h-56v-16h56z"/><path d="m479.84 231.272-15.984.576c.096 2.712.144 5.424.144 8.152 0 2.776-.056 5.536-.152 8.288l15.984.568c.112-2.936.168-5.888.168-8.856 0-2.92-.048-5.832-.16-8.728z"/><path d="m453.296 129.944-14.208 7.36c2.504 4.848 4.864 9.84 7 14.848l14.72-6.288c-2.296-5.36-4.824-10.72-7.512-15.92z"/><path d="m446.048 327.936c-2.168 5.048-4.52 10.04-7.016 14.848l14.208 7.36c2.672-5.152 5.192-10.496 7.512-15.904z"/><path d="m462.648 264.656c-.584 5.392-1.392 10.848-2.384 16.232l15.736 2.904c1.064-5.76 1.92-11.624 2.552-17.4z"/><path d="m456.696 296.912c-1.4 5.312-2.992 10.592-4.752 15.704l15.128 5.2c1.888-5.48 3.6-11.152 5.096-16.84z"/><path d="m467.112 162.288-15.144 5.184c1.768 5.168 3.368 10.456 4.744 15.72l15.488-4.056c-1.488-5.648-3.192-11.32-5.088-16.848z"/><path d="m476.024 196.312-15.736 2.904c.992 5.384 1.8 10.848 2.384 16.24l15.904-1.72c-.624-5.784-1.496-11.648-2.552-17.424z"/><path d="m23.288 296.808-15.488 4.056c1.488 5.648 3.192 11.32 5.088 16.848l15.144-5.184c-1.768-5.168-3.368-10.456-4.744-15.72z"/><path d="m4 196.2c-1.064 5.768-1.92 11.632-2.552 17.408l15.904 1.736c.584-5.392 1.392-10.848 2.384-16.232z"/><path d="m12.928 162.184c-1.888 5.488-3.6 11.16-5.096 16.848l15.472 4.064c1.4-5.312 2.992-10.6 4.752-15.712z"/><path d="m16.152 231.712-15.984-.568c-.112 2.936-.168 5.888-.168 8.856 0 2.92.048 5.832.16 8.728l15.984-.576c-.096-2.712-.144-5.424-.144-8.152 0-2.776.056-5.536.152-8.288z"/><path d="m33.912 327.848-14.72 6.288c2.296 5.36 4.824 10.72 7.512 15.92l14.208-7.36c-2.504-4.848-4.864-9.84-7-14.848z"/><path d="m26.76 129.856c-2.672 5.152-5.192 10.496-7.512 15.904l14.704 6.304c2.168-5.048 4.52-10.04 7.016-14.848z"/><path d="m17.328 264.544-15.904 1.728c.624 5.776 1.488 11.64 2.552 17.416l15.736-2.904c-.992-5.384-1.8-10.848-2.384-16.24z"/><path d="m384 16v32.144c-41.424-31.112-91.96-48.144-144-48.144-57.288 0-112.792 20.576-156.272 57.936l10.424 12.136c40.584-34.872 92.376-54.072 145.848-54.072 45.712 0 90.144 14.144 127.456 40h-23.456v16h48c4.424 0 8-3.584 8-8v-48z"/><path d="m385.848 409.928c-40.584 34.872-92.376 54.072-145.848 54.072-45.712 0-90.144-14.144-127.456-40h23.456v-16h-48c-4.424 0-8 3.584-8 8v48h16v-32.144c41.424 31.112 91.96 48.144 144 48.144 57.288 0 112.792-20.576 156.272-57.936z"/></svg>