<svg enable-background="new 0 0 470 470" viewBox="0 0 470 470" xmlns="http://www.w3.org/2000/svg"><path d="m470 310.715v-151.539c0-3.32-2.184-6.246-5.366-7.19l-70.113-20.802c5.427-13.275 8.81-26.451 8.81-38.684 0-51.004-41.495-92.5-92.5-92.5s-92.5 41.495-92.5 92.5c0 12.233 3.383 25.409 8.81 38.684l-67.979 20.169-149.529-44.368c-2.268-.671-4.722-.235-6.619 1.18s-3.014 3.644-3.014 6.011v151.728.055 151.541c0 3.32 2.183 6.246 5.367 7.19l151.549 44.967c.044.013.113.033.113.033.024.007.049.009.073.016.279.08.565.141.857.188.078.013.156.026.235.036.314.041.632.068.956.069.348 0 .667-.028.982-.069.078-.01.155-.023.233-.036.292-.047.579-.109.859-.188.024-.007.049-.009.073-.016l.069-.021c.044-.013 146.427-43.445 146.427-43.445.93.413 1.956.647 3.039.647s2.11-.234 3.039-.647l146.496 43.465c.701.208 1.419.31 2.134.31 1.598 0 3.175-.511 4.486-1.49 1.896-1.416 3.014-3.644 3.014-6.01v-151.724c-.001-.02-.001-.04-.001-.06zm-15-145.941v136.016l-136.669-40.55v-21.332c9.78-10.071 48.188-50.995 69.876-93.951zm-144.169-149.774c42.733 0 77.5 34.766 77.5 77.5 0 12.181-4.075 25.748-10.412 39.485-.314.502-.572 1.047-.765 1.633-18.072 38.149-53.029 77.25-66.325 91.396-13.288-14.131-48.213-53.178-66.292-91.314-.203-.642-.486-1.237-.833-1.78-6.314-13.712-10.373-27.254-10.373-39.421 0-42.733 34.767-77.499 77.5-77.499zm-7.5 223.907v21.332l-136.669 40.55v-136.015l66.793-19.817c21.689 42.956 60.096 83.88 69.876 93.95zm-288.331 36.979 51.818 15.375c.712.211 1.43.312 2.136.312 3.235 0 6.22-2.109 7.187-5.369 1.179-3.971-1.085-8.145-5.057-9.323l-56.084-16.641v-136.016l136.662 40.55v136.016l-51.817-15.375c-3.97-1.18-8.145 1.085-9.323 5.057-1.179 3.971 1.085 8.145 5.057 9.323l56.084 16.641v136.016l-136.663-40.55v-136.016zm303.331 136.016v-54.297c0-4.142-3.357-7.5-7.5-7.5s-7.5 3.358-7.5 7.5v54.297l-136.669 40.549v-136.015l136.669-40.55v51.719c0 4.142 3.357 7.5 7.5 7.5s7.5-3.358 7.5-7.5v-51.719l136.669 40.55v136.016z"/><path d="m310.831 145c28.948 0 52.5-23.551 52.5-52.5 0-28.948-23.552-52.5-52.5-52.5s-52.5 23.551-52.5 52.5c0 28.948 23.552 52.5 52.5 52.5zm0-90c20.678 0 37.5 16.822 37.5 37.5s-16.822 37.5-37.5 37.5-37.5-16.822-37.5-37.5 16.822-37.5 37.5-37.5z"/></svg>