<svg enable-background="new 0 0 480 480" viewBox="0 0 480 480" xmlns="http://www.w3.org/2000/svg"><path d="m328 232h16v16h-16z"/><path d="m296 232h16v16h-16z"/><path d="m264 232h16v16h-16z"/><path d="m232 232h16v16h-16z"/><path d="m200 232h16v16h-16z"/><path d="m264 200h16v16h-16z"/><path d="m264 168h16v16h-16z"/><path d="m232 200h16v16h-16z"/><path d="m200 200h16v16h-16z"/><path d="m168 232h16v16h-16z"/><path d="m136 232h16v16h-16z"/><path d="m328 264h16v16h-16z"/><path d="m296 264h16v16h-16z"/><path d="m264 264h16v16h-16z"/><path d="m232 264h16v16h-16z"/><path d="m200 264h16v16h-16z"/><path d="m168 264h16v16h-16z"/><path d="m136 264h16v16h-16z"/><path d="m421.656 229.656 29.656-29.656h28.688v-16h-32c-2.12 0-4.16.84-5.656 2.344l-29.656 29.656h-37.488c-10.216-10.064-24.232-16.232-39.64-16-2-18.048-10.712-34.096-23.56-45.616v-31.08l45.656-45.656c1.504-1.488 2.344-3.528 2.344-5.648v-72h-16v68.688l-45.656 45.656c-1.504 1.496-2.344 3.536-2.344 5.656v23.52c-5.024-2.504-10.4-4.376-16-5.648v-38.552l21.656-21.656c1.504-1.504 2.344-3.544 2.344-5.664v-72h-16v68.688l-21.656 21.656c-1.504 1.496-2.344 3.536-2.344 5.656v40c-5.48 0-10.816.712-16 1.888v-137.888h-16v143.6c-5.792 2.88-11.176 6.496-16 10.84v-58.44c0-2.12-.84-4.16-2.344-5.656l-21.656-21.656v-68.688h-16v72c0 2.12.84 4.16 2.344 5.656l21.656 21.656v69.64c-2.64-.568-5.304-.952-8-.952-2.744 0-5.408.344-8 .872v-48.872c0-2.12-.84-4.16-2.344-5.656l-45.656-45.656v-68.688h-16v72c0 2.12.84 4.16 2.344 5.656l45.656 45.656v52.864c-7.816 5.912-13.48 14.52-15.336 24.52-2.864-.464-5.76-.696-8.664-.696-10.496 0-20.288 2.952-28.696 8h-55.992l-21.656-21.656c-1.496-1.504-3.536-2.344-5.656-2.344h-32v16h28.688l21.656 21.656c1.496 1.504 3.536 2.344 5.656 2.344h42.112c-3.384 4.832-6.024 10.216-7.752 16h-90.36v16h88c0 5.56.84 10.928 2.36 16h-26.36c-2.12 0-4.16.84-5.656 2.344l-29.656 29.656h-28.688v16h32c2.12 0 4.16-.84 5.656-2.344l29.656-29.656h30.8c10.136 14.488 26.912 24 45.888 24h24v36.688l-45.656 45.656c-1.504 1.496-2.344 3.536-2.344 5.656v80h16v-76.688l45.656-45.656c1.504-1.496 2.344-3.536 2.344-5.656v-40h16v60.688l-21.656 21.656c-1.504 1.496-2.344 3.536-2.344 5.656v80h16v-76.688l21.656-21.656c1.504-1.496 2.344-3.536 2.344-5.656v-64h16v168h16v-168h16v64c0 2.12.84 4.16 2.344 5.656l21.656 21.656v76.688h16v-80c0-2.12-.84-4.16-2.344-5.656l-21.656-21.656v-60.688h16v40c0 2.12.84 4.16 2.344 5.656l45.656 45.656v76.688h16v-80c0-2.12-.84-4.16-2.344-5.656l-45.656-45.656v-36.688h24c15.216 0 29.016-6.12 39.12-16h45.568l21.656 21.656c1.496 1.504 3.536 2.344 5.656 2.344h32v-16h-28.688l-21.656-21.656c-1.496-1.504-3.536-2.344-5.656-2.344h-37.48c2.376-4.976 4.024-10.352 4.84-16h88.64v-16h-88.64c-.816-5.648-2.464-11.016-4.832-16h29.472c2.12 0 4.16-.84 5.656-2.344zm-85.656 66.344h-192c-22.056 0-40-17.944-40-40s17.944-40 40-40c4.568 0 9.136.816 13.568 2.424 2.584.936 5.448.488 7.616-1.192 2.168-1.672 3.328-4.336 3.072-7.064l-.256-2.168c0-13.232 10.768-24 24-24 3.688 0 7.384.944 10.968 2.808 1.912.992 4.128 1.168 6.176.504 2.04-.672 3.728-2.136 4.68-4.056 9.536-19.28 28.76-31.256 50.176-31.256 30.88 0 56 25.12 56 55.784-.016.192-.04.752-.04.944 0 2.352 1.04 4.592 2.84 6.112s4.176 2.176 6.504 1.776c2.424-.416 4.616-.616 6.696-.616 22.056 0 40 17.944 40 40s-17.944 40-40 40z" fill="#44aaac"/></svg>