<svg enable-background="new 0 0 470 470" viewBox="0 0 470 470" xmlns="http://www.w3.org/2000/svg"><path d="m452.159 32.728h-68.798v-25.228c0-4.143-3.357-7.5-7.5-7.5h-281.722c-4.142 0-7.5 3.357-7.5 7.5v25.228h-68.798c-9.838 0-17.841 8.002-17.841 17.84v329.204c0 9.838 8.003 17.841 17.841 17.841h163.807v57.387h-70.739c-4.142 0-7.5 3.357-7.5 7.5s3.358 7.5 7.5 7.5h214.979c4.143 0 7.5-3.357 7.5-7.5s-3.357-7.5-7.5-7.5h-37.536v-57.387h30.867c4.143 0 7.5-3.357 7.5-7.5s-3.357-7.5-7.5-7.5h-301.378c-1.54 0-2.841-1.301-2.841-2.841v-329.204c0-1.54 1.301-2.841 2.841-2.841h68.798v273.863h-48.116c-4.142 0-7.5 3.357-7.5 7.5s3.358 7.5 7.5 7.5h280.697c4.143 0 7.5-3.357 7.5-7.5s-3.357-7.5-7.5-7.5h-58.884v-61.296c0-4.143-3.357-7.5-7.5-7.5h-118.697c-4.142 0-7.5 3.357-7.5 7.5v61.296h-25v-281.353c0-.02 0-25.237 0-25.237h266.723v68.339c0 4.143 3.357 7.5 7.5 7.5s7.5-3.357 7.5-7.5v-35.611h68.798c1.54 0 2.841 1.301 2.841 2.841v329.204c0 1.54-1.301 2.841-2.841 2.841h-19.66c-4.143 0-7.5 3.357-7.5 7.5s3.357 7.5 7.5 7.5h19.659c9.838 0 17.841-8.003 17.841-17.841v-329.205c0-9.838-8.003-17.84-17.841-17.84zm-178.806 422.272h-76.705v-57.387h76.705zm-131.714-187.205h103.697v53.796h-103.697z"/><path d="m409.906 178.564c-.016-.108-.028-.217-.049-.324-.031-.157-.072-.31-.113-.464-.021-.078-.037-.157-.06-.235-.048-.16-.105-.315-.163-.47-.022-.058-.038-.118-.061-.175l-.037-.093c-.007-.016-.013-.032-.019-.048l-26.583-66.211c-1.142-2.842-3.896-4.705-6.96-4.705s-5.818 1.863-6.96 4.705l-26.587 66.217c-.012.029-.054.134-.054.134-.025.063-.043.129-.067.193-.055.149-.111.298-.156.451-.024.08-.041.162-.062.243-.04.152-.081.302-.111.458-.021.108-.033.217-.05.326-.02.13-.043.257-.056.389-.024.244-.037.489-.037.735v256.17c0 18.825 15.315 34.141 34.141 34.141 18.824 0 34.14-15.315 34.14-34.141v-256.17c0-.246-.013-.491-.037-.735-.015-.133-.039-.261-.059-.391zm-53.186 8.625h38.28v214.186h-38.28zm19.14-53.721 15.547 38.722h-31.094zm0 321.532c-10.554 0-19.141-8.587-19.141-19.141v-19.484h38.281v19.484c0 10.554-8.586 19.141-19.14 19.141z"/><path d="m134.139 107.795h201.723c4.143 0 7.5-3.357 7.5-7.5v-52.795c0-4.143-3.357-7.5-7.5-7.5h-201.723c-4.142 0-7.5 3.357-7.5 7.5v52.795c0 4.143 3.358 7.5 7.5 7.5zm7.5-52.795h186.723v37.795h-186.723z"/><path d="m335.861 122.795h-201.722c-4.142 0-7.5 3.357-7.5 7.5s3.358 7.5 7.5 7.5h201.723c4.143 0 7.5-3.357 7.5-7.5s-3.358-7.5-7.501-7.5z"/><path d="m252.836 162.795h-118.697c-4.142 0-7.5 3.357-7.5 7.5s3.358 7.5 7.5 7.5h118.697c4.143 0 7.5-3.357 7.5-7.5s-3.357-7.5-7.5-7.5z"/><path d="m320.664 162.795h-37.828c-4.143 0-7.5 3.357-7.5 7.5s3.357 7.5 7.5 7.5h37.828c4.143 0 7.5-3.357 7.5-7.5s-3.357-7.5-7.5-7.5z"/><path d="m252.836 192.795h-118.697c-4.142 0-7.5 3.357-7.5 7.5s3.358 7.5 7.5 7.5h118.697c4.143 0 7.5-3.357 7.5-7.5s-3.357-7.5-7.5-7.5z"/><path d="m319.22 192.795h-36.384c-4.143 0-7.5 3.357-7.5 7.5s3.357 7.5 7.5 7.5h36.384c4.143 0 7.5-3.357 7.5-7.5s-3.358-7.5-7.5-7.5z"/><path d="m252.836 222.795h-118.697c-4.142 0-7.5 3.357-7.5 7.5s3.358 7.5 7.5 7.5h118.697c4.143 0 7.5-3.357 7.5-7.5s-3.357-7.5-7.5-7.5z"/><path d="m319.22 222.795h-36.384c-4.143 0-7.5 3.357-7.5 7.5s3.357 7.5 7.5 7.5h36.384c4.143 0 7.5-3.357 7.5-7.5s-3.358-7.5-7.5-7.5z"/></svg>