<svg enable-background="new 0 0 485.536 485.536" viewBox="0 0 485.536 485.536" xmlns="http://www.w3.org/2000/svg"><path d="m457.444 337.576c-5.928-4.976-13.688-7.056-21.312-5.752l-158.64 27.584-45.064-45.064c-1.496-1.504-3.536-2.344-5.656-2.344h-88-32-80c-4.416 0-8 3.584-8 8v128c0 4.416 3.584 8 8 8h80 32c4.416 0 8-3.584 8-8v-8h22.112l85.528 42.768c3.704 1.848 7.704 2.768 11.696 2.768 4.552 0 9.096-1.192 13.168-3.568l174.512-101.8c8-4.672 12.976-13.328 12.976-22.584 0-7.736-3.392-15.032-9.32-20.008zm-358.672 102.424h-64v-112h64zm32 0h-16v-112h16zm314.968-73.656-174.52 101.8c-2.968 1.728-6.576 1.832-9.656.312l-87.216-43.608c-1.104-.56-2.336-.848-3.576-.848h-24v-96h76.688l63.024 63.024c2.768 2.768 4.288 6.44 4.288 10.344 0 8.072-6.56 14.632-14.632 14.632-3.904 0-7.576-1.52-10.344-4.288l-41.368-41.368-11.312 11.312 41.368 41.368c5.792 5.792 13.48 8.976 21.656 8.976 16.896 0 30.632-13.736 30.632-30.632 0-8.176-3.184-15.872-8.976-21.656l-6.472-6.472 147.56-25.664c2.96-.512 5.976.296 8.272 2.232s3.616 4.768 3.616 7.768c0 3.592-1.928 6.952-5.032 8.768z"/><path d="m418.772 64c0-13.232-10.768-24-24-24h-112v-24h48v-16h-112v16h48v24h-112c-13.232 0-24 10.768-24 24v48c0 6.168 2.408 11.744 6.24 16-3.84 4.256-6.24 9.832-6.24 16v48c0 6.168 2.408 11.744 6.24 16-3.84 4.256-6.24 9.832-6.24 16v48c0 13.232 10.768 24 24 24h240c13.232 0 24-10.768 24-24v-48c0-6.168-2.408-11.744-6.24-16 3.84-4.256 6.24-9.832 6.24-16v-48c0-6.168-2.408-11.744-6.24-16 3.84-4.256 6.24-9.832 6.24-16zm-16 208c0 4.408-3.592 8-8 8h-240c-4.408 0-8-3.592-8-8v-48c0-4.408 3.592-8 8-8h240c4.408 0 8 3.592 8 8zm0-80c0 4.408-3.592 8-8 8h-240c-4.408 0-8-3.592-8-8v-48c0-4.408 3.592-8 8-8h240c4.408 0 8 3.592 8 8zm0-80c0 4.408-3.592 8-8 8h-240c-4.408 0-8-3.592-8-8v-48c0-4.408 3.592-8 8-8h240c4.408 0 8 3.592 8 8z" fill="#44aaac"/><path d="m370.772 80h16v16h-16z"/><path d="m162.772 80h112v16h-112z"/><path d="m370.772 160h16v16h-16z"/><path d="m162.772 160h112v16h-112z"/><path d="m370.772 240h16v16h-16z"/><path d="m162.772 240h112v16h-112z"/><path d="m346.772 0h16v16h-16z"/><path d="m378.772 0h16v16h-16z"/><path d="m410.772 0h16v16h-16z"/><path d="m122.772 0h16v16h-16z"/><path d="m154.772 0h16v16h-16z"/><path d="m186.772 0h16v16h-16z"/></svg>