<svg enable-background="new 0 0 480 480" viewBox="0 0 480 480" xmlns="http://www.w3.org/2000/svg"><path d="m480 248c0-13.232-10.768-24-24-24h-129.84c6.408-18.016 9.84-36.768 9.84-56 0-92.632-75.36-168-168-168s-168 75.368-168 168 75.36 168 168 168v40c0 6.168 2.408 11.744 6.24 16-3.84 4.256-6.24 9.832-6.24 16v48c0 13.232 10.768 24 24 24h264c13.232 0 24-10.768 24-24v-48c0-6.168-2.408-11.744-6.24-16 3.84-4.256 6.24-9.832 6.24-16v-48c0-6.168-2.408-11.744-6.24-16 3.84-4.256 6.24-9.832 6.24-16zm-160.408-88h-79.936c-.96-23.232-5.856-45.08-12.712-64.72 18.568-7.536 35.648-18.624 50.232-32.792 24.712 25.568 40.44 59.728 42.416 97.512zm.04 16c-.864 16.48-4.224 32.592-10.352 48h-77.296c4.456-16.288 7.024-32.344 7.68-48zm-54.184-124.504c-12.896 12.384-27.928 22.032-44.248 28.704-11.536-27.608-25.896-49.704-35.768-63.12 30.248 3.472 57.816 15.816 80.016 34.416zm-41.744 108.512h-111.416c.968-21.16 5.592-41.256 11.984-59.44 14.08 4.08 28.776 6.264 43.728 6.264s29.648-2.176 43.72-6.264c6.392 18.176 11.024 38.272 11.984 59.44zm-17.8-74.584c-12.24 3.424-24.944 5.4-37.904 5.4s-25.664-1.976-37.904-5.4c12.824-30.256 29.24-53.552 37.904-64.752 8.664 11.2 25.08 34.496 37.904 64.752zm-55.336-68.344c-9.872 13.416-24.232 35.512-35.768 63.12-16.32-6.672-31.352-16.32-44.248-28.704 22.2-18.6 49.768-30.944 80.016-34.416zm-91.744 45.416c14.584 14.16 31.664 25.248 50.232 32.792-6.856 19.632-11.752 41.488-12.712 64.72h-79.936c1.976-37.792 17.704-71.952 42.416-97.512zm-42.416 113.504h79.936c1.016 24.568 6.4 47.64 13.864 68.128-18.512 6.824-35.76 16.928-50.872 29.952-25.016-25.624-40.936-60.024-42.928-98.08zm54.784 109.088c13.424-11.28 28.608-20.072 44.92-26.032 11.288 26.12 24.96 46.968 34.456 59.864-29.944-3.44-57.288-15.544-79.376-33.832zm96.808 30.256c-8.296-10.728-23.696-32.608-36.264-61.032 11.792-2.912 23.952-4.304 36.264-4.312v46c0 1.376.152 2.728.384 4.072.032.2.048.408.088.608.08.392.224.752.32 1.136.176.696.368 1.392.6 2.064.136.392.248.784.4 1.168.136.328.304.632.448.952.224.48.48.952.736 1.416.296.544.568 1.088.904 1.6.136.216.272.432.416.64-1.576 2.136-3.016 4.048-4.296 5.688zm4.664-81.44c-16.008-.448-31.856 1.36-47.08 5.352-7.08-19.152-12.264-40.616-13.304-63.256h111.408c-.712 15.592-3.368 31.656-8.184 48h-23.504c-7.952 0-14.96 3.928-19.336 9.904zm291.336 222.096c0 4.416-3.592 8-8 8h-264c-4.408 0-8-3.584-8-8v-48c0-4.416 3.592-8 8-8h264c4.408 0 8 3.584 8 8zm0-80c0 4.416-3.592 8-8 8h-264c-4.408 0-8-3.584-8-8v-48c0-.048.024-.088.024-.136.08-4.336 3.648-7.864 7.976-7.864h264c4.408 0 8 3.584 8 8zm0-80c0 4.416-3.592 8-8 8h-264c-2.008 0-3.792-.808-5.2-2.04-.224-.192-.448-.376-.648-.592-.568-.616-1.048-1.304-1.4-2.072-.08-.168-.128-.344-.192-.512-.328-.872-.56-1.8-.56-2.784v-48c0-4.416 3.592-8 8-8h29.408 93.192 141.4c4.408 0 8 3.584 8 8z" fill="#44aaac"/><path d="m432 264h16v16h-16z"/><path d="m200 264h136v16h-136z"/><path d="m432 344h16v16h-16z"/><path d="m200 344h136v16h-136z"/><path d="m432 424h16v16h-16z"/><path d="m200 424h136v16h-136z"/><path d="m336 96h16v16h-16z"/><path d="m368 96h16v16h-16z"/><path d="m400 96h16v16h-16z"/><path d="m432 96h16v16h-16z"/><path d="m432 128h16v16h-16z"/><path d="m432 160h16v16h-16z"/><path d="m432 192h16v16h-16z"/><path d="m136 424h16v16h-16z"/><path d="m104 424h16v16h-16z"/><path d="m72 424h16v16h-16z"/><path d="m72 392h16v16h-16z"/><path d="m72 360h16v16h-16z"/><path d="m72 328h16v16h-16z"/></svg>